<svg xmlns="http://www.w3.org/2000/svg" xmlns:xlink="http://www.w3.org/1999/xlink" version="1.1" viewBox="0 0 3508 2480" style="background: #ffffff"><defs><style>@import url(http://fonts.googleapis.com/css?family=Roboto);</style></defs><defs joint-selector="defs"></defs><g  joint-selector="layers" transform="matrix(1,0,0,1,0,0)"><g ></g><g ><g   id="j_276"  transform="translate(20,2442.5)"><g id="v-5562"><text  id="v-5563" font-size="22px" xml:space="preserve" y="0.8em" font-weight="normal" text-anchor="start" fill="#aaaaaa" pointer-events="none" display="block" font-family="Roboto"><tspan  dy="0" display="block">Wednesday, 5 June 2024 at 12:21 Central European Summer Time</tspan></text></g></g><g   id="j_275"  transform="translate(20,2397.5)"><g id="v-5560"><text  id="v-5561" font-size="36px" xml:space="preserve" y="0.8em" font-weight="normal" text-anchor="start" fill="#000000" pointer-events="none" display="block" font-family="Roboto"><tspan  dy="0" display="block">[Container] MLOps System</tspan></text></g></g><g   id="j_277"  transform="translate(570,35)" style=""><g  id="v-5567" style="opacity: 1;"><rect  x="0" y="160" width="400" height="240" rx="70" id="v-5569" stroke="#00474d" stroke-width="2" pointer-events="visiblePainted" fill="#004f56" style="fill: rgb(0, 79, 86); stroke: rgb(0, 71, 77);"></rect><circle  cx="200" cy="88.88888888888889" r="88.88888888888889" id="v-5568" stroke="#00474d" stroke-width="2" pointer-events="visiblePainted" fill="#004f56" style="fill: rgb(0, 79, 86); stroke: rgb(0, 71, 77);"></circle><line  x1="80" y1="266.6666666666667" x2="80" y2="400" id="v-5575" stroke="#00474d" stroke-width="2" style="stroke: rgb(0, 71, 77);"></line><line  x1="320" y1="266.6666666666667" x2="320" y2="400" id="v-5576" stroke="#00474d" stroke-width="2" style="stroke: rgb(0, 71, 77);"></line><text  id="v-5570" font-size="34" xml:space="preserve" y="0.8em" font-weight="bold" text-anchor="middle" pointer-events="visible" font-family="Roboto" fill="#ffffff" transform="matrix(1,0,0,1,200,198.10000610351562)" style="fill: rgb(255, 255, 255);"><tspan  dy="0">EOSC User</tspan></text><text  id="v-5571" font-size="17" xml:space="preserve" y="0.8em" text-anchor="middle" font-family="Roboto" fill="#ffffff" transform="matrix(1,0,0,1,200,240.60000610351562)" style="fill: rgb(255, 255, 255);"><tspan  dy="0">[Person]</tspan></text><text  id="v-5572" font-size="24" xml:space="preserve" y="0.8em" text-anchor="middle" font-family="Roboto" fill="#ffffff" transform="matrix(1,0,0,1,200,271.8999938964844)" style="fill: rgb(255, 255, 255);"><tspan  dy="0">EOSC user willing to use an AI</tspan><tspan dy="1.2em" x="0" >platform to develop an AI</tspan><tspan dy="1.2em" x="0" >application.</tspan></text><g  id="v-5573" font-weight="normal" text-anchor="middle" color="#ffffff" transform="matrix(1,0,0,1,197.5,371.8999938964844)" style="fill: rgb(255, 255, 255);" display="none"><g ></g><g ></g><g ></g><g ></g></g><image  id="v-5574"></image></g></g><g   id="j_278"  transform="translate(1580,370)" style=""><g  id="v-5583" style="opacity: 1;"><rect  id="v-5584" rx="20" ry="20" stroke="#e68da0" stroke-width="2" pointer-events="visiblePainted" fill="#ff9db2" width="450" height="300" style="fill: rgb(255, 157, 178); stroke: rgb(230, 141, 160);"></rect><text  id="v-5585" font-size="34" xml:space="preserve" y="0.8em" font-weight="bold" text-anchor="middle" pointer-events="visible" font-family="Roboto" fill="#000000" transform="matrix(1,0,0,1,225,83.0999984741211)" style="fill: rgb(0, 0, 0);"><tspan  dy="0">AI4EOSC Platform</tspan></text><text  id="v-5586" font-size="17" xml:space="preserve" y="0.8em" text-anchor="middle" font-family="Roboto" fill="#000000" transform="matrix(1,0,0,1,225,125.5999984741211)" style="fill: rgb(0, 0, 0);"><tspan  dy="0">[Software System]</tspan></text><text  id="v-5587" font-size="24" xml:space="preserve" y="0.8em" text-anchor="middle" font-family="Roboto" fill="#000000" transform="matrix(1,0,0,1,225,156.89999389648438)" style="fill: rgb(0, 0, 0);"><tspan  dy="0">Allows EOSC users to develop, build</tspan><tspan dy="1.2em" x="0" >and share AI models.</tspan></text><g  id="v-5588" color="#000000" transform="matrix(1,0,0,1,210,226.89999389648438)" style="fill: rgb(0, 0, 0);" display="none"><g  transform="translate(5 0)"><svg xmlns="http://www.w3.org/2000/svg" width="20" height="20" fill="currentColor" viewBox="0 0 16 16"><path fill-rule="evenodd" d="M6.5 12a5.5 5.5 0 1 0 0-11 5.5 5.5 0 0 0 0 11zM13 6.5a6.5 6.5 0 1 1-13 0 6.5 6.5 0 0 1 13 0z"></path><path d="M10.344 11.742c.03.04.062.078.098.115l3.85 3.85a1 1 0 0 0 1.415-1.414l-3.85-3.85a1.007 1.007 0 0 0-.115-.1 6.538 6.538 0 0 1-1.398 1.4z"></path><path fill-rule="evenodd" d="M6.5 3a.5.5 0 0 1 .5.5V6h2.5a.5.5 0 0 1 0 1H7v2.5a.5.5 0 0 1-1 0V7H3.5a.5.5 0 0 1 0-1H6V3.5a.5.5 0 0 1 .5-.5z"></path></svg></g><g ></g><g ></g><g ></g></g><image  id="v-5589"></image></g></g><g   id="j_279"  transform="translate(1590,1090)" style=""><g  id="v-5593" style="opacity: 1;"><rect  id="v-5594" rx="20" ry="20" stroke="#e68da0" stroke-width="2" pointer-events="visiblePainted" fill="#ff9db2" width="450" height="300" style="fill: rgb(255, 157, 178); stroke: rgb(230, 141, 160);"></rect><text  id="v-5595" font-size="34" xml:space="preserve" y="0.8em" font-weight="bold" text-anchor="middle" pointer-events="visible" font-family="Roboto" fill="#000000" transform="matrix(1,0,0,1,225,83.0999984741211)" style="fill: rgb(0, 0, 0);"><tspan  dy="0">AI as a Service</tspan></text><text  id="v-5596" font-size="17" xml:space="preserve" y="0.8em" text-anchor="middle" font-family="Roboto" fill="#000000" transform="matrix(1,0,0,1,225,125.5999984741211)" style="fill: rgb(0, 0, 0);"><tspan  dy="0">[Software System]</tspan></text><text  id="v-5597" font-size="24" xml:space="preserve" y="0.8em" text-anchor="middle" font-family="Roboto" fill="#000000" transform="matrix(1,0,0,1,225,156.89999389648438)" style="fill: rgb(0, 0, 0);"><tspan  dy="0">Allows users to deploy an AI</tspan><tspan dy="1.2em" x="0" >application as a service.</tspan></text><g  id="v-5598" color="#000000" transform="matrix(1,0,0,1,210,226.89999389648438)" style="fill: rgb(0, 0, 0);" display="none"><g  transform="translate(5 0)"><svg xmlns="http://www.w3.org/2000/svg" width="20" height="20" fill="currentColor" viewBox="0 0 16 16"><path fill-rule="evenodd" d="M6.5 12a5.5 5.5 0 1 0 0-11 5.5 5.5 0 0 0 0 11zM13 6.5a6.5 6.5 0 1 1-13 0 6.5 6.5 0 0 1 13 0z"></path><path d="M10.344 11.742c.03.04.062.078.098.115l3.85 3.85a1 1 0 0 0 1.415-1.414l-3.85-3.85a1.007 1.007 0 0 0-.115-.1 6.538 6.538 0 0 1-1.398 1.4z"></path><path fill-rule="evenodd" d="M6.5 3a.5.5 0 0 1 .5.5V6h2.5a.5.5 0 0 1 0 1H7v2.5a.5.5 0 0 1-1 0V7H3.5a.5.5 0 0 1 0-1H6V3.5a.5.5 0 0 1 .5-.5z"></path></svg></g><g ></g><g ></g><g ></g></g><image  id="v-5599"></image></g></g><g   id="j_281"  transform="translate(515,1495)" style=""><g id="v-5610"><rect  id="v-5611" width="2320" height="525" rx="0" ry="0" fill="#ffffff" stroke="#e68da0" stroke-width="1" stroke-dasharray="20,20" pointer-events="none"></rect><text  id="v-5612" font-size="24px" xml:space="preserve" y="486" font-weight="normal" fill="#e68da0" text-anchor="start" pointer-events="visible" font-family="Roboto" transform="matrix(1,0,0,1,15,0)"><tspan  dy="0">MLOps System</tspan></text><text  id="v-5613" font-size="17px" xml:space="preserve" y="510" font-weight="normal" fill="#e68da0" text-anchor="start" pointer-events="visible" font-family="Roboto" transform="matrix(1,0,0,1,15,0)"><tspan  dy="0">[Software System]</tspan></text><image  id="v-5614" pointer-events="visible"></image></g></g><g   id="j_280"  transform="translate(535,1560)" style=""><g  id="v-5603" style="opacity: 1;"><rect  id="v-5604" rx="20" ry="20" stroke="#007a83" stroke-width="2" pointer-events="visiblePainted" fill="#008792" width="450" height="300" style="fill: rgb(0, 135, 146); stroke: rgb(0, 122, 131);"></rect><text  id="v-5605" font-size="34" xml:space="preserve" y="0.8em" font-weight="bold" text-anchor="middle" pointer-events="visible" font-family="Roboto" fill="#ffffff" transform="matrix(1,0,0,1,225,83.0999984741211)" style="fill: rgb(255, 255, 255);"><tspan  dy="0">MLflow</tspan></text><text  id="v-5606" font-size="17" xml:space="preserve" y="0.8em" text-anchor="middle" font-family="Roboto" fill="#ffffff" transform="matrix(1,0,0,1,225,125.5999984741211)" style="fill: rgb(255, 255, 255);"><tspan  dy="0">[Container]</tspan></text><text  id="v-5607" font-size="24" xml:space="preserve" y="0.8em" text-anchor="middle" font-family="Roboto" fill="#ffffff" transform="matrix(1,0,0,1,225,156.89999389648438)" style="fill: rgb(255, 255, 255);"><tspan  dy="0">Tracks experiments and manages</tspan><tspan dy="1.2em" x="0" >model versions</tspan></text><g  id="v-5608" color="#ffffff" transform="matrix(1,0,0,1,222.5,226.89999389648438)" style="fill: rgb(255, 255, 255);" display="none"><g ></g><g ></g><g ></g><g ></g></g><image  id="v-5609"></image></g></g><g   id="j_283"  transform="translate(1575,1515)" style=""><g id="v-5625"><rect  id="v-5626" width="1240" height="414" rx="0" ry="0" fill="#ffffff" stroke="#444444" stroke-width="1" stroke-dasharray="5,5" pointer-events="none"></rect><text  id="v-5627" font-size="24px" xml:space="preserve" y="399" font-weight="normal" fill="#444444" text-anchor="start" pointer-events="visible" font-family="Roboto" transform="matrix(1,0,0,1,15,0)"><tspan  dy="0">Monitoring</tspan></text><text  id="v-5628" font-size="17px" xml:space="preserve" display="none" y="399" font-weight="normal" fill="#444444" text-anchor="start" pointer-events="visible" font-family="Roboto" transform="matrix(1,0,0,1,15,0)"><tspan style="fill-opacity: 0; stroke-opacity: 0;"  dy="0">-</tspan></text><image  id="v-5629" pointer-events="visible"></image></g></g><g   id="j_282"  transform="translate(1595,1555)" style=""><g  id="v-5618" style="opacity: 1;"><rect  id="v-5619" rx="20" ry="20" stroke="#007a83" stroke-width="2" pointer-events="visiblePainted" fill="#008792" width="450" height="300" style="fill: rgb(0, 135, 146); stroke: rgb(0, 122, 131);"></rect><text  id="v-5620" font-size="34" xml:space="preserve" y="0.8em" font-weight="bold" text-anchor="middle" pointer-events="visible" font-family="Roboto" fill="#ffffff" transform="matrix(1,0,0,1,225,98.0999984741211)" style="fill: rgb(255, 255, 255);"><tspan  dy="0">Frouros</tspan></text><text  id="v-5621" font-size="17" xml:space="preserve" y="0.8em" text-anchor="middle" font-family="Roboto" fill="#ffffff" transform="matrix(1,0,0,1,225,140.60000610351562)" style="fill: rgb(255, 255, 255);"><tspan  dy="0">[Container: python library]</tspan></text><text  id="v-5622" font-size="24" xml:space="preserve" y="0.8em" text-anchor="middle" font-family="Roboto" fill="#ffffff" transform="matrix(1,0,0,1,225,171.89999389648438)" style="fill: rgb(255, 255, 255);"><tspan  dy="0">Detects data and model drift</tspan></text><g  id="v-5623" color="#ffffff" transform="matrix(1,0,0,1,222.5,211.89999389648438)" style="fill: rgb(255, 255, 255);" display="none"><g ></g><g ></g><g ></g><g ></g></g><image  id="v-5624"></image></g></g><g   id="j_284"  transform="translate(2345,1535)" style=""><g  id="v-5633" style="opacity: 1;"><rect  id="v-5634" rx="20" ry="20" stroke="#007a83" stroke-width="2" pointer-events="visiblePainted" fill="#008792" width="450" height="300" style="fill: rgb(0, 135, 146); stroke: rgb(0, 122, 131);"></rect><text  id="v-5635" font-size="34" xml:space="preserve" y="0.8em" font-weight="bold" text-anchor="middle" pointer-events="visible" font-family="Roboto" fill="#ffffff" transform="matrix(1,0,0,1,225,83.0999984741211)" style="fill: rgb(255, 255, 255);"><tspan  dy="0">DriftWatch</tspan></text><text  id="v-5636" font-size="17" xml:space="preserve" y="0.8em" text-anchor="middle" font-family="Roboto" fill="#ffffff" transform="matrix(1,0,0,1,225,125.5999984741211)" style="fill: rgb(255, 255, 255);"><tspan  dy="0">[Container: python client]</tspan></text><text  id="v-5637" font-size="24" xml:space="preserve" y="0.8em" text-anchor="middle" font-family="Roboto" fill="#ffffff" transform="matrix(1,0,0,1,225,156.89999389648438)" style="fill: rgb(255, 255, 255);"><tspan  dy="0">Monitors drift; alert whenever a</tspan><tspan dy="1.2em" x="0" >drift is detected</tspan></text><g  id="v-5638" color="#ffffff" transform="matrix(1,0,0,1,222.5,226.89999389648438)" style="fill: rgb(255, 255, 255);" display="none"><g ></g><g ></g><g ></g><g ></g></g><image  id="v-5639"></image></g></g><g   id="j_285"  transform="translate(2345,650)" style=""><g  id="v-5643" style="opacity: 1;"><rect  x="0" y="160" width="400" height="240" rx="70" id="v-5645" stroke="#00474d" stroke-width="2" pointer-events="visiblePainted" fill="#004f56" style="fill: rgb(0, 79, 86); stroke: rgb(0, 71, 77);"></rect><circle  cx="200" cy="88.88888888888889" r="88.88888888888889" id="v-5644" stroke="#00474d" stroke-width="2" pointer-events="visiblePainted" fill="#004f56" style="fill: rgb(0, 79, 86); stroke: rgb(0, 71, 77);"></circle><line  x1="80" y1="266.6666666666667" x2="80" y2="400" id="v-5651" stroke="#00474d" stroke-width="2" style="stroke: rgb(0, 71, 77);"></line><line  x1="320" y1="266.6666666666667" x2="320" y2="400" id="v-5652" stroke="#00474d" stroke-width="2" style="stroke: rgb(0, 71, 77);"></line><text  id="v-5646" font-size="34" xml:space="preserve" y="0.8em" font-weight="bold" text-anchor="middle" pointer-events="visible" font-family="Roboto" fill="#ffffff" transform="matrix(1,0,0,1,200,213.10000610351562)" style="fill: rgb(255, 255, 255);"><tspan  dy="0">User</tspan></text><text  id="v-5647" font-size="17" xml:space="preserve" y="0.8em" text-anchor="middle" font-family="Roboto" fill="#ffffff" transform="matrix(1,0,0,1,200,255.60000610351562)" style="fill: rgb(255, 255, 255);"><tspan  dy="0">[Person]</tspan></text><text  id="v-5648" font-size="24" xml:space="preserve" y="0.8em" text-anchor="middle" font-family="Roboto" fill="#ffffff" transform="matrix(1,0,0,1,200,286.8999938964844)" style="fill: rgb(255, 255, 255);"><tspan  dy="0">An end-user, willing to exploit</tspan><tspan dy="1.2em" x="0" >existing production models.</tspan></text><g  id="v-5649" font-weight="normal" text-anchor="middle" color="#ffffff" transform="matrix(1,0,0,1,197.5,356.8999938964844)" style="fill: rgb(255, 255, 255);" display="none"><g ></g><g ></g><g ></g><g ></g></g><image  id="v-5650"></image></g></g><g   id="j_286" ><path  stroke="#707070" d="M 2577 1835 L 2585 2020 C 2585 2026.6666666666665 2581.6666666666665 2030 2575 2030 L 370 2050 C 363.3333333333333 2050 360 2046.6666666666665 360 2040 L 355 285 C 355 278.3333333333333 358.3333333333333 275 365 275 L 525 280 C 531.6666666666666 280 538.3333333333333 279.3333333333333 545 278 L 570 273" id="v-5665" stroke-width="2" stroke-dasharray="30 30" fill="none" style="opacity: 1;"></path><path  fill="black" stroke="black" d="M 0 0 0 0" transform="matrix(0.043446172028779984,0.9990555644035339,-0.9990555644035339,0.043446172028779984,2576.52001953125,1835)"></path><path  fill="#707070" stroke="#707070" d="M 20 0 L 0 10 L 20 20 z" id="v-5667" transform="matrix(-0.9821658730506897,0.18801459670066833,-0.18801459670066833,-0.9821658730506897,571.880126953125,283.12164306640625)" style="opacity: 1;"></path><path  d="M 2577 1835 L 2585 2020 C 2585 2026.6666666666665 2581.6666666666665 2030 2575 2030 L 370 2050 C 363.3333333333333 2050 360 2046.6666666666665 360 2040 L 355 285 C 355 278.3333333333333 358.3333333333333 275 365 275 L 525 280 C 531.6666666666666 280 538.3333333333333 279.3333333333333 545 278 L 570 273" id="v-5666" fill="none" style="cursor: default;"></path><g ><g id="v-5659"  label-idx="0" cursor="move" transform="matrix(1,0,0,1,576.652587890625,2048.12548828125)" style="cursor: default; opacity: 1;"><rect joint-selector="rect" id="v-5662" fill="#ffffff" rx="3" ry="3" pointer-events="none" width="178.1999969482422" height="87.60000228881836" transform="matrix(1,0,0,1,-87.9000015258789,-43.79999923706055)"></rect><text joint-selector="text" id="v-5661" font-size="24px" xml:space="preserve" y="0.8em" fill="#707070" text-anchor="middle" pointer-events="none" font-family="Roboto" font-weight="normal" transform="matrix(1,0,0,1,0,-39)"><tspan  dy="0">notifies the</tspan><tspan dy="1.2em" x="0" >eosc_user about</tspan><tspan dy="1.2em" x="0" >the model drift</tspan></text></g><g id="v-5660"  label-idx="1" cursor="move" transform="matrix(1,0,0,1,566.652587890625,2105.12548828125)" style="cursor: default; opacity: 1;"><rect joint-selector="rect" id="v-5664" fill="#ffffff" rx="3" ry="3"  width="0" height="0" transform="matrix(1,0,0,1,0,0)" display="none"></rect><text joint-selector="text" id="v-5663" fill="#000000" font-size="14" text-anchor="middle" pointer-events="none"></text></g></g><g  display="none"><g  transform="translate(2585, 2030)" id="v-13522"><circle  idx="0" r="10"></circle><path  idx="0" d="M16,5.333c-7.732,0-14,4.701-14,10.5c0,1.982,0.741,3.833,2.016,5.414L2,25.667l5.613-1.441c2.339,1.317,5.237,2.107,8.387,2.107c7.732,0,14-4.701,14-10.5C30,10.034,23.732,5.333,16,5.333z" transform="translate(5, -33)"></path><path  idx="0" transform="scale(.8) translate(9.5, -37)" d="M24.778,21.419 19.276,15.917 24.777,10.415 21.949,7.585 16.447,13.087 10.945,7.585 8.117,10.415 13.618,15.917 8.116,21.419 10.946,24.248 16.447,18.746 21.948,24.248z"><title>Remove vertex.</title></path></g><g  transform="translate(360, 2050)" id="v-13523"><circle  idx="1" r="10"></circle><path  idx="1" d="M16,5.333c-7.732,0-14,4.701-14,10.5c0,1.982,0.741,3.833,2.016,5.414L2,25.667l5.613-1.441c2.339,1.317,5.237,2.107,8.387,2.107c7.732,0,14-4.701,14-10.5C30,10.034,23.732,5.333,16,5.333z" transform="translate(5, -33)"></path><path  idx="1" transform="scale(.8) translate(9.5, -37)" d="M24.778,21.419 19.276,15.917 24.777,10.415 21.949,7.585 16.447,13.087 10.945,7.585 8.117,10.415 13.618,15.917 8.116,21.419 10.946,24.248 16.447,18.746 21.948,24.248z"><title>Remove vertex.</title></path></g><g  transform="translate(355, 275)" id="v-13524"><circle  idx="2" r="10"></circle><path  idx="2" d="M16,5.333c-7.732,0-14,4.701-14,10.5c0,1.982,0.741,3.833,2.016,5.414L2,25.667l5.613-1.441c2.339,1.317,5.237,2.107,8.387,2.107c7.732,0,14-4.701,14-10.5C30,10.034,23.732,5.333,16,5.333z" transform="translate(5, -33)"></path><path  idx="2" transform="scale(.8) translate(9.5, -37)" d="M24.778,21.419 19.276,15.917 24.777,10.415 21.949,7.585 16.447,13.087 10.945,7.585 8.117,10.415 13.618,15.917 8.116,21.419 10.946,24.248 16.447,18.746 21.948,24.248z"><title>Remove vertex.</title></path></g><g  transform="translate(535, 280)" id="v-13525"><circle  idx="3" r="10"></circle><path  idx="3" d="M16,5.333c-7.732,0-14,4.701-14,10.5c0,1.982,0.741,3.833,2.016,5.414L2,25.667l5.613-1.441c2.339,1.317,5.237,2.107,8.387,2.107c7.732,0,14-4.701,14-10.5C30,10.034,23.732,5.333,16,5.333z" transform="translate(5, -33)"></path><path  idx="3" transform="scale(.8) translate(9.5, -37)" d="M24.778,21.419 19.276,15.917 24.777,10.415 21.949,7.585 16.447,13.087 10.945,7.585 8.117,10.415 13.618,15.917 8.116,21.419 10.946,24.248 16.447,18.746 21.948,24.248z"><title>Remove vertex.</title></path></g></g><g  id="v-5669" display="none"><g  id="v-5657"><path  end="source" d="M 26 0 L 0 13 L 26 26 z"></path></g><g  id="v-5658"><path  end="target" d="M 26 0 L 0 13 L 26 26 z"></path></g></g><g  id="v-5668" display="none"><g  id="v-5656" transform="translate(2578.7281147160625, 1874.9626528089432) "><g  event="remove"><circle r="11"></circle><path transform="scale(.8) translate(-16, -16)" d="M24.778,21.419 19.276,15.917 24.777,10.415 21.949,7.585 16.447,13.087 10.945,7.585 8.117,10.415 13.618,15.917 8.116,21.419 10.946,24.248 16.447,18.746 21.948,24.248z"></path><title>Remove link.</title></g><g  event="link:options"><circle r="11" transform="translate(25)"></circle><path fill="white" transform="scale(.55) translate(29, -16)" d="M31.229,17.736c0.064-0.571,0.104-1.148,0.104-1.736s-0.04-1.166-0.104-1.737l-4.377-1.557c-0.218-0.716-0.504-1.401-0.851-2.05l1.993-4.192c-0.725-0.91-1.549-1.734-2.458-2.459l-4.193,1.994c-0.647-0.347-1.334-0.632-2.049-0.849l-1.558-4.378C17.165,0.708,16.588,0.667,16,0.667s-1.166,0.041-1.737,0.105L12.707,5.15c-0.716,0.217-1.401,0.502-2.05,0.849L6.464,4.005C5.554,4.73,4.73,5.554,4.005,6.464l1.994,4.192c-0.347,0.648-0.632,1.334-0.849,2.05l-4.378,1.557C0.708,14.834,0.667,15.412,0.667,16s0.041,1.165,0.105,1.736l4.378,1.558c0.217,0.715,0.502,1.401,0.849,2.049l-1.994,4.193c0.725,0.909,1.549,1.733,2.459,2.458l4.192-1.993c0.648,0.347,1.334,0.633,2.05,0.851l1.557,4.377c0.571,0.064,1.148,0.104,1.737,0.104c0.588,0,1.165-0.04,1.736-0.104l1.558-4.377c0.715-0.218,1.399-0.504,2.049-0.851l4.193,1.993c0.909-0.725,1.733-1.549,2.458-2.458l-1.993-4.193c0.347-0.647,0.633-1.334,0.851-2.049L31.229,17.736zM16,20.871c-2.69,0-4.872-2.182-4.872-4.871c0-2.69,2.182-4.872,4.872-4.872c2.689,0,4.871,2.182,4.871,4.872C20.871,18.689,18.689,20.871,16,20.871z"></path><title>Link options.</title></g></g></g></g><g   id="j_287" ><path  stroke="#707070" d="M 1580 521 L 920 525 C 913.3333333333333 525 910 528.3333333333333 910 535 L 900 1525 C 900 1531.6666666666665 898 1537.6666666666665 894 1543 L 880 1560" id="v-5683" stroke-width="2" stroke-dasharray="30 30" fill="none" style="opacity: 1;"></path><path  fill="black" stroke="black" d="M 0 0 0 0" transform="matrix(-0.9999844431877136,0.005581956822425127,-0.005581956822425127,-0.9999844431877136,1580,521.260009765625)"></path><path  fill="#707070" stroke="#707070" d="M 20 0 L 0 10 L 20 20 z" id="v-5685" transform="matrix(0.6246952414512634,-0.780868649482727,0.780868649482727,0.6246952414512634,872.1912841796875,1553.7530517578125)" style="opacity: 1;"></path><path  d="M 1580 521 L 920 525 C 913.3333333333333 525 910 528.3333333333333 910 535 L 900 1525 C 900 1531.6666666666665 898 1537.6666666666665 894 1543 L 880 1560" id="v-5684" fill="none" style="cursor: default;"></path><g ><g id="v-5677"  label-idx="0" cursor="move" transform="matrix(1,0,0,1,908.2064208984375,712.5632934570312)" style="cursor: default; opacity: 1;"><rect joint-selector="rect" id="v-5680" fill="#ffffff" rx="3" ry="3" pointer-events="none" width="180.39999389648438" height="87.60000228881836" transform="matrix(1,0,0,1,-88.9000015258789,-43.79999923706055)"></rect><text joint-selector="text" id="v-5679" font-size="24px" xml:space="preserve" y="0.8em" fill="#707070" text-anchor="middle" pointer-events="none" font-family="Roboto" font-weight="normal" transform="matrix(1,0,0,1,0,-39)"><tspan  dy="0">logs parametres,</tspan><tspan dy="1.2em" x="0" >metrics, models</tspan><tspan dy="1.2em" x="0" >to mlflow</tspan></text></g><g id="v-5678"  label-idx="1" cursor="move" transform="matrix(1,0,0,1,898.2064208984375,769.5632934570312)" style="cursor: default; opacity: 1;"><rect joint-selector="rect" id="v-5682" fill="#ffffff" rx="3" ry="3"  width="0" height="0" transform="matrix(1,0,0,1,0,0)" display="none"></rect><text joint-selector="text" id="v-5681" fill="#000000" font-size="14" text-anchor="middle" pointer-events="none"></text></g></g><g  display="none"><g  transform="translate(910, 525)" id="v-8480"><circle  idx="0" r="10"></circle><path  idx="0" d="M16,5.333c-7.732,0-14,4.701-14,10.5c0,1.982,0.741,3.833,2.016,5.414L2,25.667l5.613-1.441c2.339,1.317,5.237,2.107,8.387,2.107c7.732,0,14-4.701,14-10.5C30,10.034,23.732,5.333,16,5.333z" transform="translate(5, -33)"></path><path  idx="0" transform="scale(.8) translate(9.5, -37)" d="M24.778,21.419 19.276,15.917 24.777,10.415 21.949,7.585 16.447,13.087 10.945,7.585 8.117,10.415 13.618,15.917 8.116,21.419 10.946,24.248 16.447,18.746 21.948,24.248z"><title>Remove vertex.</title></path></g><g  transform="translate(900, 1535)" id="v-8481"><circle  idx="1" r="10"></circle><path  idx="1" d="M16,5.333c-7.732,0-14,4.701-14,10.5c0,1.982,0.741,3.833,2.016,5.414L2,25.667l5.613-1.441c2.339,1.317,5.237,2.107,8.387,2.107c7.732,0,14-4.701,14-10.5C30,10.034,23.732,5.333,16,5.333z" transform="translate(5, -33)"></path><path  idx="1" transform="scale(.8) translate(9.5, -37)" d="M24.778,21.419 19.276,15.917 24.777,10.415 21.949,7.585 16.447,13.087 10.945,7.585 8.117,10.415 13.618,15.917 8.116,21.419 10.946,24.248 16.447,18.746 21.948,24.248z"><title>Remove vertex.</title></path></g></g><g  id="v-5687" display="none"><g  id="v-5675"><path  end="source" d="M 26 0 L 0 13 L 26 26 z"></path></g><g  id="v-5676"><path  end="target" d="M 26 0 L 0 13 L 26 26 z"></path></g></g><g  id="v-5686" display="none"><g  id="v-5673" transform="translate(1540.0007345986796, 521.242419790311) "><g  event="remove"><circle r="11"></circle><path transform="scale(.8) translate(-16, -16)" d="M24.778,21.419 19.276,15.917 24.777,10.415 21.949,7.585 16.447,13.087 10.945,7.585 8.117,10.415 13.618,15.917 8.116,21.419 10.946,24.248 16.447,18.746 21.948,24.248z"></path><title>Remove link.</title></g><g  event="link:options"><circle r="11" transform="translate(25)"></circle><path fill="white" transform="scale(.55) translate(29, -16)" d="M31.229,17.736c0.064-0.571,0.104-1.148,0.104-1.736s-0.04-1.166-0.104-1.737l-4.377-1.557c-0.218-0.716-0.504-1.401-0.851-2.05l1.993-4.192c-0.725-0.91-1.549-1.734-2.458-2.459l-4.193,1.994c-0.647-0.347-1.334-0.632-2.049-0.849l-1.558-4.378C17.165,0.708,16.588,0.667,16,0.667s-1.166,0.041-1.737,0.105L12.707,5.15c-0.716,0.217-1.401,0.502-2.05,0.849L6.464,4.005C5.554,4.73,4.73,5.554,4.005,6.464l1.994,4.192c-0.347,0.648-0.632,1.334-0.849,2.05l-4.378,1.557C0.708,14.834,0.667,15.412,0.667,16s0.041,1.165,0.105,1.736l4.378,1.558c0.217,0.715,0.502,1.401,0.849,2.049l-1.994,4.193c0.725,0.909,1.549,1.733,2.459,2.458l4.192-1.993c0.648,0.347,1.334,0.633,2.05,0.851l1.557,4.377c0.571,0.064,1.148,0.104,1.737,0.104c0.588,0,1.165-0.04,1.736-0.104l1.558-4.377c0.715-0.218,1.399-0.504,2.049-0.851l4.193,1.993c0.909-0.725,1.733-1.549,2.458-2.458l-1.993-4.193c0.347-0.647,0.633-1.334,0.851-2.049L31.229,17.736zM16,20.871c-2.69,0-4.872-2.182-4.872-4.871c0-2.69,2.182-4.872,4.872-4.872c2.689,0,4.871,2.182,4.871,4.872C20.871,18.689,18.689,20.871,16,20.871z"></path><title>Link options.</title></g></g></g></g><g   id="j_288" ><path  stroke="#707070" d="M 881 1560 L 939 1488 C 943 1482.6666666666665 946 1477 948 1471 L 1017 1284 C 1019 1278 1023.3333333333333 1275 1030 1275 L 1165 1270 C 1171.6666666666665 1270 1175 1266.6666666666665 1175 1260 L 1165 860 C 1165 853.3333333333333 1168.3333333333333 850 1175 850 L 1675 840 C 1681.6666666666665 840 1685 836.6666666666666 1685 830 L 1685 710 C 1685 703.3333333333333 1687 697.3333333333333 1691 692 L 1705 670" id="v-5700" stroke-width="2" stroke-dasharray="30 30" fill="none" style="opacity: 1;"></path><path  fill="black" stroke="black" d="M 0 0 0 0" transform="matrix(0.6267710328102112,-0.7792028784751892,0.7792028784751892,0.6267710328102112,880.6500244140625,1560)"></path><path  fill="#707070" stroke="#707070" d="M 20 0 L 0 10 L 20 20 z" id="v-5702" transform="matrix(-0.5546999573707581,0.8320498466491699,-0.8320498466491699,-0.5546999573707581,1713.320556640625,675.5469970703125)" style="opacity: 1;"></path><path  d="M 881 1560 L 939 1488 C 943 1482.6666666666665 946 1477 948 1471 L 1017 1284 C 1019 1278 1023.3333333333333 1275 1030 1275 L 1165 1270 C 1171.6666666666665 1270 1175 1266.6666666666665 1175 1260 L 1165 860 C 1165 853.3333333333333 1168.3333333333333 850 1175 850 L 1675 840 C 1681.6666666666665 840 1685 836.6666666666666 1685 830 L 1685 710 C 1685 703.3333333333333 1687 697.3333333333333 1691 692 L 1705 670" id="v-5701" fill="none" style="cursor: default;"></path><g ><g id="v-5694"  label-idx="0" cursor="move" transform="matrix(1,0,0,1,1167.2701416015625,950.80810546875)" style="cursor: default; opacity: 1;"><rect joint-selector="rect" id="v-5697" fill="#ffffff" rx="3" ry="3" pointer-events="none" width="188.75" height="58.79999923706055" transform="matrix(1,0,0,1,-94.19999694824219,-29.399999618530273)"></rect><text joint-selector="text" id="v-5696" font-size="24px" xml:space="preserve" y="0.8em" fill="#707070" text-anchor="middle" pointer-events="none" font-family="Roboto" font-weight="normal" transform="matrix(1,0,0,1,0,-24.600000381469727)"><tspan  dy="0">tracks new model</tspan><tspan dy="1.2em" x="0" >version</tspan></text></g><g id="v-5695"  label-idx="1" cursor="move" transform="matrix(1,0,0,1,1157.2701416015625,992.80810546875)" style="cursor: default; opacity: 1;"><rect joint-selector="rect" id="v-5699" fill="#ffffff" rx="3" ry="3"  width="0" height="0" transform="matrix(1,0,0,1,0,0)" display="none"></rect><text joint-selector="text" id="v-5698" fill="#000000" font-size="14" text-anchor="middle" pointer-events="none"></text></g></g><g  display="none"><g  transform="translate(945, 1480)" id="v-13335"><circle  idx="0" r="10"></circle><path  idx="0" d="M16,5.333c-7.732,0-14,4.701-14,10.5c0,1.982,0.741,3.833,2.016,5.414L2,25.667l5.613-1.441c2.339,1.317,5.237,2.107,8.387,2.107c7.732,0,14-4.701,14-10.5C30,10.034,23.732,5.333,16,5.333z" transform="translate(5, -33)"></path><path  idx="0" transform="scale(.8) translate(9.5, -37)" d="M24.778,21.419 19.276,15.917 24.777,10.415 21.949,7.585 16.447,13.087 10.945,7.585 8.117,10.415 13.618,15.917 8.116,21.419 10.946,24.248 16.447,18.746 21.948,24.248z"><title>Remove vertex.</title></path></g><g  transform="translate(1020, 1275)" id="v-13336"><circle  idx="1" r="10"></circle><path  idx="1" d="M16,5.333c-7.732,0-14,4.701-14,10.5c0,1.982,0.741,3.833,2.016,5.414L2,25.667l5.613-1.441c2.339,1.317,5.237,2.107,8.387,2.107c7.732,0,14-4.701,14-10.5C30,10.034,23.732,5.333,16,5.333z" transform="translate(5, -33)"></path><path  idx="1" transform="scale(.8) translate(9.5, -37)" d="M24.778,21.419 19.276,15.917 24.777,10.415 21.949,7.585 16.447,13.087 10.945,7.585 8.117,10.415 13.618,15.917 8.116,21.419 10.946,24.248 16.447,18.746 21.948,24.248z"><title>Remove vertex.</title></path></g><g  transform="translate(1175, 1270)" id="v-13337"><circle  idx="2" r="10"></circle><path  idx="2" d="M16,5.333c-7.732,0-14,4.701-14,10.5c0,1.982,0.741,3.833,2.016,5.414L2,25.667l5.613-1.441c2.339,1.317,5.237,2.107,8.387,2.107c7.732,0,14-4.701,14-10.5C30,10.034,23.732,5.333,16,5.333z" transform="translate(5, -33)"></path><path  idx="2" transform="scale(.8) translate(9.5, -37)" d="M24.778,21.419 19.276,15.917 24.777,10.415 21.949,7.585 16.447,13.087 10.945,7.585 8.117,10.415 13.618,15.917 8.116,21.419 10.946,24.248 16.447,18.746 21.948,24.248z"><title>Remove vertex.</title></path></g><g  transform="translate(1165, 850)" id="v-13338"><circle  idx="3" r="10"></circle><path  idx="3" d="M16,5.333c-7.732,0-14,4.701-14,10.5c0,1.982,0.741,3.833,2.016,5.414L2,25.667l5.613-1.441c2.339,1.317,5.237,2.107,8.387,2.107c7.732,0,14-4.701,14-10.5C30,10.034,23.732,5.333,16,5.333z" transform="translate(5, -33)"></path><path  idx="3" transform="scale(.8) translate(9.5, -37)" d="M24.778,21.419 19.276,15.917 24.777,10.415 21.949,7.585 16.447,13.087 10.945,7.585 8.117,10.415 13.618,15.917 8.116,21.419 10.946,24.248 16.447,18.746 21.948,24.248z"><title>Remove vertex.</title></path></g><g  transform="translate(1685, 840)" id="v-13339"><circle  idx="4" r="10"></circle><path  idx="4" d="M16,5.333c-7.732,0-14,4.701-14,10.5c0,1.982,0.741,3.833,2.016,5.414L2,25.667l5.613-1.441c2.339,1.317,5.237,2.107,8.387,2.107c7.732,0,14-4.701,14-10.5C30,10.034,23.732,5.333,16,5.333z" transform="translate(5, -33)"></path><path  idx="4" transform="scale(.8) translate(9.5, -37)" d="M24.778,21.419 19.276,15.917 24.777,10.415 21.949,7.585 16.447,13.087 10.945,7.585 8.117,10.415 13.618,15.917 8.116,21.419 10.946,24.248 16.447,18.746 21.948,24.248z"><title>Remove vertex.</title></path></g><g  transform="translate(1685, 700)" id="v-13340"><circle  idx="5" r="10"></circle><path  idx="5" d="M16,5.333c-7.732,0-14,4.701-14,10.5c0,1.982,0.741,3.833,2.016,5.414L2,25.667l5.613-1.441c2.339,1.317,5.237,2.107,8.387,2.107c7.732,0,14-4.701,14-10.5C30,10.034,23.732,5.333,16,5.333z" transform="translate(5, -33)"></path><path  idx="5" transform="scale(.8) translate(9.5, -37)" d="M24.778,21.419 19.276,15.917 24.777,10.415 21.949,7.585 16.447,13.087 10.945,7.585 8.117,10.415 13.618,15.917 8.116,21.419 10.946,24.248 16.447,18.746 21.948,24.248z"><title>Remove vertex.</title></path></g></g><g  id="v-5704" display="none"><g  id="v-5692"><path  end="source" d="M 26 0 L 0 13 L 26 26 z"></path></g><g  id="v-5693"><path  end="target" d="M 26 0 L 0 13 L 26 26 z"></path></g></g><g  id="v-5703" display="none"><g  id="v-5691" transform="translate(906.0931815149058, 1528.8498436366688) "><g  event="remove"><circle r="11"></circle><path transform="scale(.8) translate(-16, -16)" d="M24.778,21.419 19.276,15.917 24.777,10.415 21.949,7.585 16.447,13.087 10.945,7.585 8.117,10.415 13.618,15.917 8.116,21.419 10.946,24.248 16.447,18.746 21.948,24.248z"></path><title>Remove link.</title></g><g  event="link:options"><circle r="11" transform="translate(25)"></circle><path fill="white" transform="scale(.55) translate(29, -16)" d="M31.229,17.736c0.064-0.571,0.104-1.148,0.104-1.736s-0.04-1.166-0.104-1.737l-4.377-1.557c-0.218-0.716-0.504-1.401-0.851-2.05l1.993-4.192c-0.725-0.91-1.549-1.734-2.458-2.459l-4.193,1.994c-0.647-0.347-1.334-0.632-2.049-0.849l-1.558-4.378C17.165,0.708,16.588,0.667,16,0.667s-1.166,0.041-1.737,0.105L12.707,5.15c-0.716,0.217-1.401,0.502-2.05,0.849L6.464,4.005C5.554,4.73,4.73,5.554,4.005,6.464l1.994,4.192c-0.347,0.648-0.632,1.334-0.849,2.05l-4.378,1.557C0.708,14.834,0.667,15.412,0.667,16s0.041,1.165,0.105,1.736l4.378,1.558c0.217,0.715,0.502,1.401,0.849,2.049l-1.994,4.193c0.725,0.909,1.549,1.733,2.459,2.458l4.192-1.993c0.648,0.347,1.334,0.633,2.05,0.851l1.557,4.377c0.571,0.064,1.148,0.104,1.737,0.104c0.588,0,1.165-0.04,1.736-0.104l1.558-4.377c0.715-0.218,1.399-0.504,2.049-0.851l4.193,1.993c0.909-0.725,1.733-1.549,2.458-2.458l-1.993-4.193c0.347-0.647,0.633-1.334,0.851-2.049L31.229,17.736zM16,20.871c-2.69,0-4.872-2.182-4.872-4.871c0-2.69,2.182-4.872,4.872-4.872c2.689,0,4.871,2.182,4.871,4.872C20.871,18.689,18.689,20.871,16,20.871z"></path><title>Link options.</title></g></g></g></g><g   id="j_289" ><path  stroke="#707070" d="M 840 1860 L 843 1865 C 844.3333333333333 1868.333333333333 844.9999999999999 1873.333333333333 845 1880 L 840 2110 C 840 2116.6666666666665 843.3333333333333 2120 850 2120 L 2670 2115 C 2676.6666666666665 2115 2680 2111.6666666666665 2680 2105 L 2675 1865 C 2675 1858.333333333333 2673.333333333333 1851.9999999999998 2670 1846 L 2663 1835" id="v-5717" stroke-width="2" stroke-dasharray="30 30" fill="none" style="opacity: 1;"></path><path  fill="black" stroke="black" d="M 0 0 0 0" transform="matrix(0.4689830541610718,0.8832071423530579,-0.8832071423530579,0.4689830541610718,839.6900024414062,1860)"></path><path  fill="#707070" stroke="#707070" d="M 20 0 L 0 10 L 20 20 z" id="v-5719" transform="matrix(0.525402307510376,0.8508539199829102,-0.8508539199829102,0.525402307510376,2671.158447265625,1829.7459716796875)" style="opacity: 1;"></path><path  d="M 840 1860 L 843 1865 C 844.3333333333333 1868.333333333333 844.9999999999999 1873.333333333333 845 1880 L 840 2110 C 840 2116.6666666666665 843.3333333333333 2120 850 2120 L 2670 2115 C 2676.6666666666665 2115 2680 2111.6666666666665 2680 2105 L 2675 1865 C 2675 1858.333333333333 2673.333333333333 1851.9999999999998 2670 1846 L 2663 1835" id="v-5718" fill="none" style="cursor: default;"></path><g ><g id="v-5711"  label-idx="0" cursor="move" transform="matrix(1,0,0,1,1770.9268798828125,2117.469970703125)" style="cursor: default; opacity: 1;"><rect joint-selector="rect" id="v-5714" fill="#ffffff" rx="3" ry="3" pointer-events="none" width="178.5" height="116.40000534057617" transform="matrix(1,0,0,1,-89.0999984741211,-58.20000076293945)"></rect><text joint-selector="text" id="v-5713" font-size="24px" xml:space="preserve" y="0.8em" fill="#707070" text-anchor="middle" pointer-events="none" font-family="Roboto" font-weight="normal" transform="matrix(1,0,0,1,0,-53.400001525878906)"><tspan  dy="0">tracks the model</tspan><tspan dy="1.2em" x="0" >performance of</tspan><tspan dy="1.2em" x="0" >the deployed</tspan><tspan dy="1.2em" x="0" >model</tspan></text></g><g id="v-5712"  label-idx="1" cursor="move" transform="matrix(1,0,0,1,1760.9268798828125,2189.469970703125)" style="cursor: default; opacity: 1;"><rect joint-selector="rect" id="v-5716" fill="#ffffff" rx="3" ry="3"  width="0" height="0" transform="matrix(1,0,0,1,0,0)" display="none"></rect><text joint-selector="text" id="v-5715" fill="#000000" font-size="14" text-anchor="middle" pointer-events="none"></text></g></g><g  display="none"><g  transform="translate(845, 1870)" id="v-7894"><circle  idx="0" r="10"></circle><path  idx="0" d="M16,5.333c-7.732,0-14,4.701-14,10.5c0,1.982,0.741,3.833,2.016,5.414L2,25.667l5.613-1.441c2.339,1.317,5.237,2.107,8.387,2.107c7.732,0,14-4.701,14-10.5C30,10.034,23.732,5.333,16,5.333z" transform="translate(5, -33)"></path><path  idx="0" transform="scale(.8) translate(9.5, -37)" d="M24.778,21.419 19.276,15.917 24.777,10.415 21.949,7.585 16.447,13.087 10.945,7.585 8.117,10.415 13.618,15.917 8.116,21.419 10.946,24.248 16.447,18.746 21.948,24.248z"><title>Remove vertex.</title></path></g><g  transform="translate(840, 2120)" id="v-7895"><circle  idx="1" r="10"></circle><path  idx="1" d="M16,5.333c-7.732,0-14,4.701-14,10.5c0,1.982,0.741,3.833,2.016,5.414L2,25.667l5.613-1.441c2.339,1.317,5.237,2.107,8.387,2.107c7.732,0,14-4.701,14-10.5C30,10.034,23.732,5.333,16,5.333z" transform="translate(5, -33)"></path><path  idx="1" transform="scale(.8) translate(9.5, -37)" d="M24.778,21.419 19.276,15.917 24.777,10.415 21.949,7.585 16.447,13.087 10.945,7.585 8.117,10.415 13.618,15.917 8.116,21.419 10.946,24.248 16.447,18.746 21.948,24.248z"><title>Remove vertex.</title></path></g><g  transform="translate(2680, 2115)" id="v-7896"><circle  idx="2" r="10"></circle><path  idx="2" d="M16,5.333c-7.732,0-14,4.701-14,10.5c0,1.982,0.741,3.833,2.016,5.414L2,25.667l5.613-1.441c2.339,1.317,5.237,2.107,8.387,2.107c7.732,0,14-4.701,14-10.5C30,10.034,23.732,5.333,16,5.333z" transform="translate(5, -33)"></path><path  idx="2" transform="scale(.8) translate(9.5, -37)" d="M24.778,21.419 19.276,15.917 24.777,10.415 21.949,7.585 16.447,13.087 10.945,7.585 8.117,10.415 13.618,15.917 8.116,21.419 10.946,24.248 16.447,18.746 21.948,24.248z"><title>Remove vertex.</title></path></g><g  transform="translate(2675, 1855)" id="v-7897"><circle  idx="3" r="10"></circle><path  idx="3" d="M16,5.333c-7.732,0-14,4.701-14,10.5c0,1.982,0.741,3.833,2.016,5.414L2,25.667l5.613-1.441c2.339,1.317,5.237,2.107,8.387,2.107c7.732,0,14-4.701,14-10.5C30,10.034,23.732,5.333,16,5.333z" transform="translate(5, -33)"></path><path  idx="3" transform="scale(.8) translate(9.5, -37)" d="M24.778,21.419 19.276,15.917 24.777,10.415 21.949,7.585 16.447,13.087 10.945,7.585 8.117,10.415 13.618,15.917 8.116,21.419 10.946,24.248 16.447,18.746 21.948,24.248z"><title>Remove vertex.</title></path></g></g><g  id="v-5721" display="none"><g  id="v-5709"><path  end="source" d="M 26 0 L 0 13 L 26 26 z"></path></g><g  id="v-5710"><path  end="target" d="M 26 0 L 0 13 L 26 26 z"></path></g></g><g  id="v-5720" display="none"><g  id="v-5708" transform="translate(844.5879988181476, 1898.9520543652097) "><g  event="remove"><circle r="11"></circle><path transform="scale(.8) translate(-16, -16)" d="M24.778,21.419 19.276,15.917 24.777,10.415 21.949,7.585 16.447,13.087 10.945,7.585 8.117,10.415 13.618,15.917 8.116,21.419 10.946,24.248 16.447,18.746 21.948,24.248z"></path><title>Remove link.</title></g><g  event="link:options"><circle r="11" transform="translate(25)"></circle><path fill="white" transform="scale(.55) translate(29, -16)" d="M31.229,17.736c0.064-0.571,0.104-1.148,0.104-1.736s-0.04-1.166-0.104-1.737l-4.377-1.557c-0.218-0.716-0.504-1.401-0.851-2.05l1.993-4.192c-0.725-0.91-1.549-1.734-2.458-2.459l-4.193,1.994c-0.647-0.347-1.334-0.632-2.049-0.849l-1.558-4.378C17.165,0.708,16.588,0.667,16,0.667s-1.166,0.041-1.737,0.105L12.707,5.15c-0.716,0.217-1.401,0.502-2.05,0.849L6.464,4.005C5.554,4.73,4.73,5.554,4.005,6.464l1.994,4.192c-0.347,0.648-0.632,1.334-0.849,2.05l-4.378,1.557C0.708,14.834,0.667,15.412,0.667,16s0.041,1.165,0.105,1.736l4.378,1.558c0.217,0.715,0.502,1.401,0.849,2.049l-1.994,4.193c0.725,0.909,1.549,1.733,2.459,2.458l4.192-1.993c0.648,0.347,1.334,0.633,2.05,0.851l1.557,4.377c0.571,0.064,1.148,0.104,1.737,0.104c0.588,0,1.165-0.04,1.736-0.104l1.558-4.377c0.715-0.218,1.399-0.504,2.049-0.851l4.193,1.993c0.909-0.725,1.733-1.549,2.458-2.458l-1.993-4.193c0.347-0.647,0.633-1.334,0.851-2.049L31.229,17.736zM16,20.871c-2.69,0-4.872-2.182-4.872-4.871c0-2.69,2.182-4.872,4.872-4.872c2.689,0,4.871,2.182,4.871,4.872C20.871,18.689,18.689,20.871,16,20.871z"></path><title>Link options.</title></g></g></g></g><g   id="j_290" ><path  stroke="#707070" d="M 1822 370 L 1823 355 C 1823.9306640625 348.59954833984375 1824.2639973958333 345.2662150065104 1824 345 L 1824 345 C 1824.2639973958333 345.2662150065104 1827.5973307291665 346.59954833984375 1834 349 L 1856 357 C 1862 359 1865 356.66666666666663 1865 350 L 1870 245 C 1869.9999999999998 238.33333333333331 1873.333333333333 235 1880 235 L 3135 230 C 3141.6666666666665 229.99999999999997 3145 233.33333333333331 3145 240 L 3145 1685 C 3145 1691.6666666666665 3141.6666666666665 1695 3135 1695 L 2795 1689" id="v-5735" stroke-width="2" stroke-dasharray="30 30" fill="none" style="opacity: 1;"></path><path  fill="black" stroke="black" d="M 0 0 0 0" transform="matrix(0.11053454130887985,-0.9938722848892212,0.9938722848892212,0.11053454130887985,1821.6600341796875,370)"></path><path  fill="#707070" stroke="#707070" d="M 20 0 L 0 10 L 20 20 z" id="v-5737" transform="matrix(0.9998485445976257,0.017397364601492882,-0.017397364601492882,0.9998485445976257,2795.174072265625,1678.9114990234375)" style="opacity: 1;"></path><path  d="M 1822 370 L 1823 355 C 1823.9306640625 348.59954833984375 1824.2639973958333 345.2662150065104 1824 345 L 1824 345 C 1824.2639973958333 345.2662150065104 1827.5973307291665 346.59954833984375 1834 349 L 1856 357 C 1862 359 1865 356.66666666666663 1865 350 L 1870 245 C 1869.9999999999998 238.33333333333331 1873.333333333333 235 1880 235 L 3135 230 C 3141.6666666666665 229.99999999999997 3145 233.33333333333331 3145 240 L 3145 1685 C 3145 1691.6666666666665 3141.6666666666665 1695 3135 1695 L 2795 1689" id="v-5736" fill="none" style="cursor: default;"></path><g ><g id="v-5729"  label-idx="0" cursor="move" transform="matrix(1,0,0,1,3145,407.50836181640625)" style="cursor: default; opacity: 1;"><rect joint-selector="rect" id="v-5732" fill="#ffffff" rx="3" ry="3" pointer-events="none" width="139.54998779296875" height="87.60000228881836" transform="matrix(1,0,0,1,-68.5999984741211,-43.79999923706055)"></rect><text joint-selector="text" id="v-5731" font-size="24px" xml:space="preserve" y="0.8em" fill="#707070" text-anchor="middle" pointer-events="none" font-family="Roboto" font-weight="normal" transform="matrix(1,0,0,1,0,-39)"><tspan  dy="0">retrieves and</tspan><tspan dy="1.2em" x="0" >displays drift</tspan><tspan dy="1.2em" x="0" >notifications</tspan></text></g><g id="v-5730"  label-idx="1" cursor="move" transform="matrix(1,0,0,1,3135,464.50836181640625)" style="cursor: default; opacity: 1;"><rect joint-selector="rect" id="v-5734" fill="#ffffff" rx="3" ry="3"  width="0" height="0" transform="matrix(1,0,0,1,0,0)" display="none"></rect><text joint-selector="text" id="v-5733" fill="#000000" font-size="14" text-anchor="middle" pointer-events="none"></text></g></g><g  display="none"><g  transform="translate(1824.39599609375, 345.3993225097656)" id="v-10872"><circle  idx="0" r="10"></circle><path  idx="0" d="M16,5.333c-7.732,0-14,4.701-14,10.5c0,1.982,0.741,3.833,2.016,5.414L2,25.667l5.613-1.441c2.339,1.317,5.237,2.107,8.387,2.107c7.732,0,14-4.701,14-10.5C30,10.034,23.732,5.333,16,5.333z" transform="translate(5, -33)"></path><path  idx="0" transform="scale(.8) translate(9.5, -37)" d="M24.778,21.419 19.276,15.917 24.777,10.415 21.949,7.585 16.447,13.087 10.945,7.585 8.117,10.415 13.618,15.917 8.116,21.419 10.946,24.248 16.447,18.746 21.948,24.248z"><title>Remove vertex.</title></path></g><g  transform="translate(1824.39599609375, 345.3993225097656)" id="v-10873"><circle  idx="1" r="10"></circle><path  idx="1" d="M16,5.333c-7.732,0-14,4.701-14,10.5c0,1.982,0.741,3.833,2.016,5.414L2,25.667l5.613-1.441c2.339,1.317,5.237,2.107,8.387,2.107c7.732,0,14-4.701,14-10.5C30,10.034,23.732,5.333,16,5.333z" transform="translate(5, -33)"></path><path  idx="1" transform="scale(.8) translate(9.5, -37)" d="M24.778,21.419 19.276,15.917 24.777,10.415 21.949,7.585 16.447,13.087 10.945,7.585 8.117,10.415 13.618,15.917 8.116,21.419 10.946,24.248 16.447,18.746 21.948,24.248z"><title>Remove vertex.</title></path></g><g  transform="translate(1865, 360)" id="v-10874"><circle  idx="2" r="10"></circle><path  idx="2" d="M16,5.333c-7.732,0-14,4.701-14,10.5c0,1.982,0.741,3.833,2.016,5.414L2,25.667l5.613-1.441c2.339,1.317,5.237,2.107,8.387,2.107c7.732,0,14-4.701,14-10.5C30,10.034,23.732,5.333,16,5.333z" transform="translate(5, -33)"></path><path  idx="2" transform="scale(.8) translate(9.5, -37)" d="M24.778,21.419 19.276,15.917 24.777,10.415 21.949,7.585 16.447,13.087 10.945,7.585 8.117,10.415 13.618,15.917 8.116,21.419 10.946,24.248 16.447,18.746 21.948,24.248z"><title>Remove vertex.</title></path></g><g  transform="translate(1870, 235)" id="v-10875"><circle  idx="3" r="10"></circle><path  idx="3" d="M16,5.333c-7.732,0-14,4.701-14,10.5c0,1.982,0.741,3.833,2.016,5.414L2,25.667l5.613-1.441c2.339,1.317,5.237,2.107,8.387,2.107c7.732,0,14-4.701,14-10.5C30,10.034,23.732,5.333,16,5.333z" transform="translate(5, -33)"></path><path  idx="3" transform="scale(.8) translate(9.5, -37)" d="M24.778,21.419 19.276,15.917 24.777,10.415 21.949,7.585 16.447,13.087 10.945,7.585 8.117,10.415 13.618,15.917 8.116,21.419 10.946,24.248 16.447,18.746 21.948,24.248z"><title>Remove vertex.</title></path></g><g  transform="translate(3145, 230)" id="v-10876"><circle  idx="4" r="10"></circle><path  idx="4" d="M16,5.333c-7.732,0-14,4.701-14,10.5c0,1.982,0.741,3.833,2.016,5.414L2,25.667l5.613-1.441c2.339,1.317,5.237,2.107,8.387,2.107c7.732,0,14-4.701,14-10.5C30,10.034,23.732,5.333,16,5.333z" transform="translate(5, -33)"></path><path  idx="4" transform="scale(.8) translate(9.5, -37)" d="M24.778,21.419 19.276,15.917 24.777,10.415 21.949,7.585 16.447,13.087 10.945,7.585 8.117,10.415 13.618,15.917 8.116,21.419 10.946,24.248 16.447,18.746 21.948,24.248z"><title>Remove vertex.</title></path></g><g  transform="translate(3145, 1695)" id="v-10877"><circle  idx="5" r="10"></circle><path  idx="5" d="M16,5.333c-7.732,0-14,4.701-14,10.5c0,1.982,0.741,3.833,2.016,5.414L2,25.667l5.613-1.441c2.339,1.317,5.237,2.107,8.387,2.107c7.732,0,14-4.701,14-10.5C30,10.034,23.732,5.333,16,5.333z" transform="translate(5, -33)"></path><path  idx="5" transform="scale(.8) translate(9.5, -37)" d="M24.778,21.419 19.276,15.917 24.777,10.415 21.949,7.585 16.447,13.087 10.945,7.585 8.117,10.415 13.618,15.917 8.116,21.419 10.946,24.248 16.447,18.746 21.948,24.248z"><title>Remove vertex.</title></path></g></g><g  id="v-5739" display="none"><g  id="v-5727"><path  end="source" d="M 26 0 L 0 13 L 26 26 z"></path></g><g  id="v-5728"><path  end="target" d="M 26 0 L 0 13 L 26 26 z"></path></g></g><g  id="v-5738" display="none"><g  id="v-5725" transform="translate(1837.8718210576142, 350.4079349300415) "><g  event="remove"><circle r="11"></circle><path transform="scale(.8) translate(-16, -16)" d="M24.778,21.419 19.276,15.917 24.777,10.415 21.949,7.585 16.447,13.087 10.945,7.585 8.117,10.415 13.618,15.917 8.116,21.419 10.946,24.248 16.447,18.746 21.948,24.248z"></path><title>Remove link.</title></g><g  event="link:options"><circle r="11" transform="translate(25)"></circle><path fill="white" transform="scale(.55) translate(29, -16)" d="M31.229,17.736c0.064-0.571,0.104-1.148,0.104-1.736s-0.04-1.166-0.104-1.737l-4.377-1.557c-0.218-0.716-0.504-1.401-0.851-2.05l1.993-4.192c-0.725-0.91-1.549-1.734-2.458-2.459l-4.193,1.994c-0.647-0.347-1.334-0.632-2.049-0.849l-1.558-4.378C17.165,0.708,16.588,0.667,16,0.667s-1.166,0.041-1.737,0.105L12.707,5.15c-0.716,0.217-1.401,0.502-2.05,0.849L6.464,4.005C5.554,4.73,4.73,5.554,4.005,6.464l1.994,4.192c-0.347,0.648-0.632,1.334-0.849,2.05l-4.378,1.557C0.708,14.834,0.667,15.412,0.667,16s0.041,1.165,0.105,1.736l4.378,1.558c0.217,0.715,0.502,1.401,0.849,2.049l-1.994,4.193c0.725,0.909,1.549,1.733,2.459,2.458l4.192-1.993c0.648,0.347,1.334,0.633,2.05,0.851l1.557,4.377c0.571,0.064,1.148,0.104,1.737,0.104c0.588,0,1.165-0.04,1.736-0.104l1.558-4.377c0.715-0.218,1.399-0.504,2.049-0.851l4.193,1.993c0.909-0.725,1.733-1.549,2.458-2.458l-1.993-4.193c0.347-0.647,0.633-1.334,0.851-2.049L31.229,17.736zM16,20.871c-2.69,0-4.872-2.182-4.872-4.871c0-2.69,2.182-4.872,4.872-4.872c2.689,0,4.871,2.182,4.871,4.872C20.871,18.689,18.689,20.871,16,20.871z"></path><title>Link options.</title></g></g></g></g><g   id="j_291" ><path  stroke="#707070" d="M 760 1710 L 956 1590 C 961.9999999999999 1586.6666666666665 968.3333333333333 1584.9999999999998 975 1585 L 1410 1585 C 1416.6666666666665 1584.9999999999998 1420 1581.6666666666665 1420 1575 L 1410 1245 C 1410 1238.3333333333333 1413.3333333333333 1235 1420 1235 L 1590 1237" id="v-5752" stroke-width="2" stroke-dasharray="30 30" fill="none" style="opacity: 1;"></path><path  fill="black" stroke="black" d="M 0 0 0 0" transform="matrix(0.8537959456443787,-0.5206075310707092,0.5206075310707092,0.8537959456443787,760,1710)"></path><path  fill="#707070" stroke="#707070" d="M 20 0 L 0 10 L 20 20 z" id="v-5754" transform="matrix(-0.9999239444732666,-0.012332520447671413,0.012332520447671413,-0.9999239444732666,1589.8765869140625,1247.21923828125)" style="opacity: 1;"></path><path  d="M 760 1710 L 956 1590 C 961.9999999999999 1586.6666666666665 968.3333333333333 1584.9999999999998 975 1585 L 1410 1585 C 1416.6666666666665 1584.9999999999998 1420 1581.6666666666665 1420 1575 L 1410 1245 C 1410 1238.3333333333333 1413.3333333333333 1235 1420 1235 L 1590 1237" id="v-5753" fill="none" style="cursor: default;"></path><g ><g id="v-5746"  label-idx="0" cursor="move" transform="matrix(1,0,0,1,1333.9730224609375,1585)" style="cursor: default; opacity: 1;"><rect joint-selector="rect" id="v-5749" fill="#ffffff" rx="3" ry="3" pointer-events="none" width="163.39999389648438" height="87.60000228881836" transform="matrix(1,0,0,1,-81.5,-43.79999923706055)"></rect><text joint-selector="text" id="v-5748" font-size="24px" xml:space="preserve" y="0.8em" fill="#707070" text-anchor="middle" pointer-events="none" font-family="Roboto" font-weight="normal" transform="matrix(1,0,0,1,0,-39)"><tspan  dy="0">Serve 'best'</tspan><tspan dy="1.2em" x="0" >selected model</tspan><tspan dy="1.2em" x="0" >via OSCAR</tspan></text></g><g id="v-5747"  label-idx="1" cursor="move" transform="matrix(1,0,0,1,1323.9730224609375,1642)" style="cursor: default; opacity: 1;"><rect joint-selector="rect" id="v-5751" fill="#ffffff" rx="3" ry="3"  width="0" height="0" transform="matrix(1,0,0,1,0,0)" display="none"></rect><text joint-selector="text" id="v-5750" fill="#000000" font-size="14" text-anchor="middle" pointer-events="none"></text></g></g><g  display="none"><g  transform="translate(965, 1585)" id="v-13633"><circle  idx="0" r="10"></circle><path  idx="0" d="M16,5.333c-7.732,0-14,4.701-14,10.5c0,1.982,0.741,3.833,2.016,5.414L2,25.667l5.613-1.441c2.339,1.317,5.237,2.107,8.387,2.107c7.732,0,14-4.701,14-10.5C30,10.034,23.732,5.333,16,5.333z" transform="translate(5, -33)"></path><path  idx="0" transform="scale(.8) translate(9.5, -37)" d="M24.778,21.419 19.276,15.917 24.777,10.415 21.949,7.585 16.447,13.087 10.945,7.585 8.117,10.415 13.618,15.917 8.116,21.419 10.946,24.248 16.447,18.746 21.948,24.248z"><title>Remove vertex.</title></path></g><g  transform="translate(1420, 1585)" id="v-13634"><circle  idx="1" r="10"></circle><path  idx="1" d="M16,5.333c-7.732,0-14,4.701-14,10.5c0,1.982,0.741,3.833,2.016,5.414L2,25.667l5.613-1.441c2.339,1.317,5.237,2.107,8.387,2.107c7.732,0,14-4.701,14-10.5C30,10.034,23.732,5.333,16,5.333z" transform="translate(5, -33)"></path><path  idx="1" transform="scale(.8) translate(9.5, -37)" d="M24.778,21.419 19.276,15.917 24.777,10.415 21.949,7.585 16.447,13.087 10.945,7.585 8.117,10.415 13.618,15.917 8.116,21.419 10.946,24.248 16.447,18.746 21.948,24.248z"><title>Remove vertex.</title></path></g><g  transform="translate(1410, 1235)" id="v-13635"><circle  idx="2" r="10"></circle><path  idx="2" d="M16,5.333c-7.732,0-14,4.701-14,10.5c0,1.982,0.741,3.833,2.016,5.414L2,25.667l5.613-1.441c2.339,1.317,5.237,2.107,8.387,2.107c7.732,0,14-4.701,14-10.5C30,10.034,23.732,5.333,16,5.333z" transform="translate(5, -33)"></path><path  idx="2" transform="scale(.8) translate(9.5, -37)" d="M24.778,21.419 19.276,15.917 24.777,10.415 21.949,7.585 16.447,13.087 10.945,7.585 8.117,10.415 13.618,15.917 8.116,21.419 10.946,24.248 16.447,18.746 21.948,24.248z"><title>Remove vertex.</title></path></g></g><g  id="v-5756" display="none"><g  id="v-5744"><path  end="source" d="M 26 0 L 0 13 L 26 26 z"></path></g><g  id="v-5745"><path  end="target" d="M 26 0 L 0 13 L 26 26 z"></path></g></g><g  id="v-5755" display="none"><g  id="v-5743" transform="translate(794.1140521630505, 1689.1138456144586) "><g  event="remove"><circle r="11"></circle><path transform="scale(.8) translate(-16, -16)" d="M24.778,21.419 19.276,15.917 24.777,10.415 21.949,7.585 16.447,13.087 10.945,7.585 8.117,10.415 13.618,15.917 8.116,21.419 10.946,24.248 16.447,18.746 21.948,24.248z"></path><title>Remove link.</title></g><g  event="link:options"><circle r="11" transform="translate(25)"></circle><path fill="white" transform="scale(.55) translate(29, -16)" d="M31.229,17.736c0.064-0.571,0.104-1.148,0.104-1.736s-0.04-1.166-0.104-1.737l-4.377-1.557c-0.218-0.716-0.504-1.401-0.851-2.05l1.993-4.192c-0.725-0.91-1.549-1.734-2.458-2.459l-4.193,1.994c-0.647-0.347-1.334-0.632-2.049-0.849l-1.558-4.378C17.165,0.708,16.588,0.667,16,0.667s-1.166,0.041-1.737,0.105L12.707,5.15c-0.716,0.217-1.401,0.502-2.05,0.849L6.464,4.005C5.554,4.73,4.73,5.554,4.005,6.464l1.994,4.192c-0.347,0.648-0.632,1.334-0.849,2.05l-4.378,1.557C0.708,14.834,0.667,15.412,0.667,16s0.041,1.165,0.105,1.736l4.378,1.558c0.217,0.715,0.502,1.401,0.849,2.049l-1.994,4.193c0.725,0.909,1.549,1.733,2.459,2.458l4.192-1.993c0.648,0.347,1.334,0.633,2.05,0.851l1.557,4.377c0.571,0.064,1.148,0.104,1.737,0.104c0.588,0,1.165-0.04,1.736-0.104l1.558-4.377c0.715-0.218,1.399-0.504,2.049-0.851l4.193,1.993c0.909-0.725,1.733-1.549,2.458-2.458l-1.993-4.193c0.347-0.647,0.633-1.334,0.851-2.049L31.229,17.736zM16,20.871c-2.69,0-4.872-2.182-4.872-4.871c0-2.69,2.182-4.872,4.872-4.872c2.689,0,4.871,2.182,4.871,4.872C20.871,18.689,18.689,20.871,16,20.871z"></path><title>Link options.</title></g></g></g></g><g   id="j_292" ><path  stroke="#707070" d="M 985 1709 L 1595 1706" id="v-5769" stroke-width="2" stroke-dasharray="30 30" fill="none" style="opacity: 1;"></path><path  fill="black" stroke="black" d="M 0 0 0 0" transform="matrix(0.9999887943267822,-0.0047212340869009495,0.0047212340869009495,0.9999887943267822,985,1708.93994140625)"></path><path  fill="#707070" stroke="#707070" d="M 20 0 L 0 10 L 20 20 z" id="v-5771" transform="matrix(-0.9999887943267822,0.0047212340869009495,-0.0047212340869009495,-0.9999887943267822,1595.0472412109375,1716.059814453125)" style="opacity: 1;"></path><path  d="M 985 1709 L 1595 1706" id="v-5770" fill="none" style="cursor: default;"></path><g ><g id="v-5763"  label-idx="0" cursor="move" transform="matrix(1,0,0,1,1290,1707.5)" style="cursor: default; opacity: 1;"><rect joint-selector="rect" id="v-5766" fill="#ffffff" rx="3" ry="3" pointer-events="none" width="177.79998779296875" height="87.60000228881836" transform="matrix(1,0,0,1,-87.69999694824219,-43.79999923706055)"></rect><text joint-selector="text" id="v-5765" font-size="24px" xml:space="preserve" y="0.8em" fill="#707070" text-anchor="middle" pointer-events="none" font-family="Roboto" font-weight="normal" transform="matrix(1,0,0,1,0,-39)"><tspan  dy="0">Provide model</tspan><tspan dy="1.2em" x="0" >versions for drift</tspan><tspan dy="1.2em" x="0" >analysis</tspan></text></g><g id="v-5764"  label-idx="1" cursor="move" transform="matrix(1,0,0,1,1280,1764.5)" style="cursor: default; opacity: 1;"><rect joint-selector="rect" id="v-5768" fill="#ffffff" rx="3" ry="3"  width="0" height="0" transform="matrix(1,0,0,1,0,0)" display="none"></rect><text joint-selector="text" id="v-5767" fill="#000000" font-size="14" text-anchor="middle" pointer-events="none"></text></g></g><g  display="none"></g><g  id="v-5773" display="none"><g  id="v-5761"><path  end="source" d="M 26 0 L 0 13 L 26 26 z"></path></g><g  id="v-5762"><path  end="target" d="M 26 0 L 0 13 L 26 26 z"></path></g></g><g  id="v-5772" display="none"><g  id="v-5760" transform="translate(1024.9995162678451, 1708.8032810675354) "><g  event="remove"><circle r="11"></circle><path transform="scale(.8) translate(-16, -16)" d="M24.778,21.419 19.276,15.917 24.777,10.415 21.949,7.585 16.447,13.087 10.945,7.585 8.117,10.415 13.618,15.917 8.116,21.419 10.946,24.248 16.447,18.746 21.948,24.248z"></path><title>Remove link.</title></g><g  event="link:options"><circle r="11" transform="translate(25)"></circle><path fill="white" transform="scale(.55) translate(29, -16)" d="M31.229,17.736c0.064-0.571,0.104-1.148,0.104-1.736s-0.04-1.166-0.104-1.737l-4.377-1.557c-0.218-0.716-0.504-1.401-0.851-2.05l1.993-4.192c-0.725-0.91-1.549-1.734-2.458-2.459l-4.193,1.994c-0.647-0.347-1.334-0.632-2.049-0.849l-1.558-4.378C17.165,0.708,16.588,0.667,16,0.667s-1.166,0.041-1.737,0.105L12.707,5.15c-0.716,0.217-1.401,0.502-2.05,0.849L6.464,4.005C5.554,4.73,4.73,5.554,4.005,6.464l1.994,4.192c-0.347,0.648-0.632,1.334-0.849,2.05l-4.378,1.557C0.708,14.834,0.667,15.412,0.667,16s0.041,1.165,0.105,1.736l4.378,1.558c0.217,0.715,0.502,1.401,0.849,2.049l-1.994,4.193c0.725,0.909,1.549,1.733,2.459,2.458l4.192-1.993c0.648,0.347,1.334,0.633,2.05,0.851l1.557,4.377c0.571,0.064,1.148,0.104,1.737,0.104c0.588,0,1.165-0.04,1.736-0.104l1.558-4.377c0.715-0.218,1.399-0.504,2.049-0.851l4.193,1.993c0.909-0.725,1.733-1.549,2.458-2.458l-1.993-4.193c0.347-0.647,0.633-1.334,0.851-2.049L31.229,17.736zM16,20.871c-2.69,0-4.872-2.182-4.872-4.871c0-2.69,2.182-4.872,4.872-4.872c2.689,0,4.871,2.182,4.871,4.872C20.871,18.689,18.689,20.871,16,20.871z"></path><title>Link options.</title></g></g></g></g><g   id="j_293" ><path  stroke="#707070" d="M 1817 1390 L 1818 1555" id="v-5786" stroke-width="2" stroke-dasharray="30 30" fill="none" style="opacity: 1;"></path><path  fill="black" stroke="black" d="M 0 0 0 0" transform="matrix(0.01078718900680542,0.9999416470527649,-0.9999416470527649,0.01078718900680542,1816.6099853515625,1390)"></path><path  fill="#707070" stroke="#707070" d="M 20 0 L 0 10 L 20 20 z" id="v-5788" transform="matrix(-0.010787189938127995,-0.9999417066574097,0.9999417066574097,-0.010787189938127995,1808.3905029296875,1555.10791015625)" style="opacity: 1;"></path><path  d="M 1817 1390 L 1818 1555" id="v-5787" fill="none" style="cursor: default;"></path><g ><g id="v-5780"  label-idx="0" cursor="move" transform="matrix(1,0,0,1,1817.5,1472.5)" style="cursor: default; opacity: 1;"><rect joint-selector="rect" id="v-5783" fill="#ffffff" rx="3" ry="3" pointer-events="none" width="120.79999542236328" height="87.60000228881836" transform="matrix(1,0,0,1,-60.400001525878906,-43.79999923706055)"></rect><text joint-selector="text" id="v-5782" font-size="24px" xml:space="preserve" y="0.8em" fill="#707070" text-anchor="middle" pointer-events="none" font-family="Roboto" font-weight="normal" transform="matrix(1,0,0,1,0,-39)"><tspan  dy="0">Sends data</tspan><tspan dy="1.2em" x="0" >distribution</tspan><tspan dy="1.2em" x="0" >updates to</tspan></text></g><g id="v-5781"  label-idx="1" cursor="move" transform="matrix(1,0,0,1,1807.5,1529.5)" style="cursor: default; opacity: 1;"><rect joint-selector="rect" id="v-5785" fill="#ffffff" rx="3" ry="3"  width="0" height="0" transform="matrix(1,0,0,1,0,0)" display="none"></rect><text joint-selector="text" id="v-5784" fill="#000000" font-size="14" text-anchor="middle" pointer-events="none"></text></g></g><g  display="none"></g><g  id="v-5790" display="none"><g  id="v-5778"><path  end="source" d="M 26 0 L 0 13 L 26 26 z"></path></g><g  id="v-5779"><path  end="target" d="M 26 0 L 0 13 L 26 26 z"></path></g></g><g  id="v-5789" display="none"><g  id="v-5777" transform="translate(1817.242419790311, 1429.9992654013204) "><g  event="remove"><circle r="11"></circle><path transform="scale(.8) translate(-16, -16)" d="M24.778,21.419 19.276,15.917 24.777,10.415 21.949,7.585 16.447,13.087 10.945,7.585 8.117,10.415 13.618,15.917 8.116,21.419 10.946,24.248 16.447,18.746 21.948,24.248z"></path><title>Remove link.</title></g><g  event="link:options"><circle r="11" transform="translate(25)"></circle><path fill="white" transform="scale(.55) translate(29, -16)" d="M31.229,17.736c0.064-0.571,0.104-1.148,0.104-1.736s-0.04-1.166-0.104-1.737l-4.377-1.557c-0.218-0.716-0.504-1.401-0.851-2.05l1.993-4.192c-0.725-0.91-1.549-1.734-2.458-2.459l-4.193,1.994c-0.647-0.347-1.334-0.632-2.049-0.849l-1.558-4.378C17.165,0.708,16.588,0.667,16,0.667s-1.166,0.041-1.737,0.105L12.707,5.15c-0.716,0.217-1.401,0.502-2.05,0.849L6.464,4.005C5.554,4.73,4.73,5.554,4.005,6.464l1.994,4.192c-0.347,0.648-0.632,1.334-0.849,2.05l-4.378,1.557C0.708,14.834,0.667,15.412,0.667,16s0.041,1.165,0.105,1.736l4.378,1.558c0.217,0.715,0.502,1.401,0.849,2.049l-1.994,4.193c0.725,0.909,1.549,1.733,2.459,2.458l4.192-1.993c0.648,0.347,1.334,0.633,2.05,0.851l1.557,4.377c0.571,0.064,1.148,0.104,1.737,0.104c0.588,0,1.165-0.04,1.736-0.104l1.558-4.377c0.715-0.218,1.399-0.504,2.049-0.851l4.193,1.993c0.909-0.725,1.733-1.549,2.458-2.458l-1.993-4.193c0.347-0.647,0.633-1.334,0.851-2.049L31.229,17.736zM16,20.871c-2.69,0-4.872-2.182-4.872-4.871c0-2.69,2.182-4.872,4.872-4.872c2.689,0,4.871,2.182,4.871,4.872C20.871,18.689,18.689,20.871,16,20.871z"></path><title>Link options.</title></g></g></g></g><g   id="j_294" ><path  stroke="#707070" d="M 2795 1640 L 2795 1640 C 2795 1640 2798.333333333333 1640 2805 1640 L 2955 1635 C 2961.6666666666665 1635 2965 1631.6666666666665 2965 1625 L 2955 520 C 2955 513.3333333333333 2951.6666666666665 510 2945 510 L 2030 518" id="v-5803" stroke-width="2" stroke-dasharray="30 30" fill="none" style="opacity: 1;"></path><path  fill="black" stroke="black" d="M 0 0 0 0" transform="matrix(0.9999999403953552,0,0,0.9999999403953552,2795,1640)"></path><path  fill="#707070" stroke="#707070" d="M 20 0 L 0 10 L 20 20 z" id="v-5805" transform="matrix(0.9999621510505676,-0.008691382594406605,0.008691382594406605,0.9999621510505676,2029.9130859375,508.04034423828125)" style="opacity: 1;"></path><path  d="M 2795 1640 L 2795 1640 C 2795 1640 2798.333333333333 1640 2805 1640 L 2955 1635 C 2961.6666666666665 1635 2965 1631.6666666666665 2965 1625 L 2955 520 C 2955 513.3333333333333 2951.6666666666665 510 2945 510 L 2030 518" id="v-5804" fill="none" style="cursor: default;"></path><g ><g id="v-5797"  label-idx="0" cursor="move" transform="matrix(1,0,0,1,2956.583984375,695.0396118164062)" style="cursor: default; opacity: 1;"><rect joint-selector="rect" id="v-5800" fill="#ffffff" rx="3" ry="3" pointer-events="none" width="171.99998474121094" height="87.60000228881836" transform="matrix(1,0,0,1,-86,-43.79999923706055)"></rect><text joint-selector="text" id="v-5799" font-size="24px" xml:space="preserve" y="0.8em" fill="#707070" text-anchor="middle" pointer-events="none" font-family="Roboto" font-weight="normal" transform="matrix(1,0,0,1,0,-39)"><tspan  dy="0">Triggers actions</tspan><tspan dy="1.2em" x="0" >upon detecting</tspan><tspan dy="1.2em" x="0" >drift</tspan></text></g><g id="v-5798"  label-idx="1" cursor="move" transform="matrix(1,0,0,1,2946.583984375,752.0396118164062)" style="cursor: default; opacity: 1;"><rect joint-selector="rect" id="v-5802" fill="#ffffff" rx="3" ry="3"  width="0" height="0" transform="matrix(1,0,0,1,0,0)" display="none"></rect><text joint-selector="text" id="v-5801" fill="#000000" font-size="14" text-anchor="middle" pointer-events="none"></text></g></g><g  display="none"><g  transform="translate(2795, 1640)" id="v-10593"><circle  idx="0" r="10"></circle><path  idx="0" d="M16,5.333c-7.732,0-14,4.701-14,10.5c0,1.982,0.741,3.833,2.016,5.414L2,25.667l5.613-1.441c2.339,1.317,5.237,2.107,8.387,2.107c7.732,0,14-4.701,14-10.5C30,10.034,23.732,5.333,16,5.333z" transform="translate(5, -33)"></path><path  idx="0" transform="scale(.8) translate(9.5, -37)" d="M24.778,21.419 19.276,15.917 24.777,10.415 21.949,7.585 16.447,13.087 10.945,7.585 8.117,10.415 13.618,15.917 8.116,21.419 10.946,24.248 16.447,18.746 21.948,24.248z"><title>Remove vertex.</title></path></g><g  transform="translate(2965, 1635)" id="v-10594"><circle  idx="1" r="10"></circle><path  idx="1" d="M16,5.333c-7.732,0-14,4.701-14,10.5c0,1.982,0.741,3.833,2.016,5.414L2,25.667l5.613-1.441c2.339,1.317,5.237,2.107,8.387,2.107c7.732,0,14-4.701,14-10.5C30,10.034,23.732,5.333,16,5.333z" transform="translate(5, -33)"></path><path  idx="1" transform="scale(.8) translate(9.5, -37)" d="M24.778,21.419 19.276,15.917 24.777,10.415 21.949,7.585 16.447,13.087 10.945,7.585 8.117,10.415 13.618,15.917 8.116,21.419 10.946,24.248 16.447,18.746 21.948,24.248z"><title>Remove vertex.</title></path></g><g  transform="translate(2955, 510)" id="v-10595"><circle  idx="2" r="10"></circle><path  idx="2" d="M16,5.333c-7.732,0-14,4.701-14,10.5c0,1.982,0.741,3.833,2.016,5.414L2,25.667l5.613-1.441c2.339,1.317,5.237,2.107,8.387,2.107c7.732,0,14-4.701,14-10.5C30,10.034,23.732,5.333,16,5.333z" transform="translate(5, -33)"></path><path  idx="2" transform="scale(.8) translate(9.5, -37)" d="M24.778,21.419 19.276,15.917 24.777,10.415 21.949,7.585 16.447,13.087 10.945,7.585 8.117,10.415 13.618,15.917 8.116,21.419 10.946,24.248 16.447,18.746 21.948,24.248z"><title>Remove vertex.</title></path></g></g><g  id="v-5807" display="none"><g  id="v-5795"><path  end="source" d="M 26 0 L 0 13 L 26 26 z"></path></g><g  id="v-5796"><path  end="target" d="M 26 0 L 0 13 L 26 26 z"></path></g></g><g  id="v-5806" display="none"><g  id="v-5794" transform="translate(2834.9833472093746, 1639.0005550930207) "><g  event="remove"><circle r="11"></circle><path transform="scale(.8) translate(-16, -16)" d="M24.778,21.419 19.276,15.917 24.777,10.415 21.949,7.585 16.447,13.087 10.945,7.585 8.117,10.415 13.618,15.917 8.116,21.419 10.946,24.248 16.447,18.746 21.948,24.248z"></path><title>Remove link.</title></g><g  event="link:options"><circle r="11" transform="translate(25)"></circle><path fill="white" transform="scale(.55) translate(29, -16)" d="M31.229,17.736c0.064-0.571,0.104-1.148,0.104-1.736s-0.04-1.166-0.104-1.737l-4.377-1.557c-0.218-0.716-0.504-1.401-0.851-2.05l1.993-4.192c-0.725-0.91-1.549-1.734-2.458-2.459l-4.193,1.994c-0.647-0.347-1.334-0.632-2.049-0.849l-1.558-4.378C17.165,0.708,16.588,0.667,16,0.667s-1.166,0.041-1.737,0.105L12.707,5.15c-0.716,0.217-1.401,0.502-2.05,0.849L6.464,4.005C5.554,4.73,4.73,5.554,4.005,6.464l1.994,4.192c-0.347,0.648-0.632,1.334-0.849,2.05l-4.378,1.557C0.708,14.834,0.667,15.412,0.667,16s0.041,1.165,0.105,1.736l4.378,1.558c0.217,0.715,0.502,1.401,0.849,2.049l-1.994,4.193c0.725,0.909,1.549,1.733,2.459,2.458l4.192-1.993c0.648,0.347,1.334,0.633,2.05,0.851l1.557,4.377c0.571,0.064,1.148,0.104,1.737,0.104c0.588,0,1.165-0.04,1.736-0.104l1.558-4.377c0.715-0.218,1.399-0.504,2.049-0.851l4.193,1.993c0.909-0.725,1.733-1.549,2.458-2.458l-1.993-4.193c0.347-0.647,0.633-1.334,0.851-2.049L31.229,17.736zM16,20.871c-2.69,0-4.872-2.182-4.872-4.871c0-2.69,2.182-4.872,4.872-4.872c2.689,0,4.871,2.182,4.871,4.872C20.871,18.689,18.689,20.871,16,20.871z"></path><title>Link options.</title></g></g></g></g><g   id="j_295" ><path  stroke="#707070" d="M 2345 1691 L 2045 1699" id="v-5820" stroke-width="2" stroke-dasharray="30 30" fill="none" style="opacity: 1;"></path><path  fill="black" stroke="black" d="M 0 0 0 0" transform="matrix(-0.9996443390846252,0.026657206937670708,-0.026657206937670708,-0.9996443390846252,2345,1691)"></path><path  fill="#707070" stroke="#707070" d="M 20 0 L 0 10 L 20 20 z" id="v-5822" transform="matrix(0.9996445775032043,-0.026657212525606155,0.026657212525606155,0.9996445775032043,2044.7332763671875,1689.0035400390625)" style="opacity: 1;"></path><path  d="M 2345 1691 L 2045 1699" id="v-5821" fill="none" style="cursor: default;"></path><g ><g id="v-5814"  label-idx="0" cursor="move" transform="matrix(1,0,0,1,2195,1695)" style="cursor: default; opacity: 1;"><rect joint-selector="rect" id="v-5817" fill="#ffffff" rx="3" ry="3" pointer-events="none" width="170.34999084472656" height="58.79999923706055" transform="matrix(1,0,0,1,-85,-29.399999618530273)"></rect><text joint-selector="text" id="v-5816" font-size="24px" xml:space="preserve" y="0.8em" fill="#707070" text-anchor="middle" pointer-events="none" font-family="Roboto" font-weight="normal" transform="matrix(1,0,0,1,0,-24.600000381469727)"><tspan  dy="0">reads statistical</tspan><tspan dy="1.2em" x="0" >change (drift)</tspan></text></g><g id="v-5815"  label-idx="1" cursor="move" transform="matrix(1,0,0,1,2185,1737)" style="cursor: default; opacity: 1;"><rect joint-selector="rect" id="v-5819" fill="#ffffff" rx="3" ry="3"  width="0" height="0" transform="matrix(1,0,0,1,0,0)" display="none"></rect><text joint-selector="text" id="v-5818" fill="#000000" font-size="14" text-anchor="middle" pointer-events="none"></text></g></g><g  display="none"></g><g  id="v-5824" display="none"><g  id="v-5812"><path  end="source" d="M 26 0 L 0 13 L 26 26 z"></path></g><g  id="v-5813"><path  end="target" d="M 26 0 L 0 13 L 26 26 z"></path></g></g><g  id="v-5823" display="none"><g  id="v-5811" transform="translate(2305.014214641529, 1692.0662876095591) "><g  event="remove"><circle r="11"></circle><path transform="scale(.8) translate(-16, -16)" d="M24.778,21.419 19.276,15.917 24.777,10.415 21.949,7.585 16.447,13.087 10.945,7.585 8.117,10.415 13.618,15.917 8.116,21.419 10.946,24.248 16.447,18.746 21.948,24.248z"></path><title>Remove link.</title></g><g  event="link:options"><circle r="11" transform="translate(25)"></circle><path fill="white" transform="scale(.55) translate(29, -16)" d="M31.229,17.736c0.064-0.571,0.104-1.148,0.104-1.736s-0.04-1.166-0.104-1.737l-4.377-1.557c-0.218-0.716-0.504-1.401-0.851-2.05l1.993-4.192c-0.725-0.91-1.549-1.734-2.458-2.459l-4.193,1.994c-0.647-0.347-1.334-0.632-2.049-0.849l-1.558-4.378C17.165,0.708,16.588,0.667,16,0.667s-1.166,0.041-1.737,0.105L12.707,5.15c-0.716,0.217-1.401,0.502-2.05,0.849L6.464,4.005C5.554,4.73,4.73,5.554,4.005,6.464l1.994,4.192c-0.347,0.648-0.632,1.334-0.849,2.05l-4.378,1.557C0.708,14.834,0.667,15.412,0.667,16s0.041,1.165,0.105,1.736l4.378,1.558c0.217,0.715,0.502,1.401,0.849,2.049l-1.994,4.193c0.725,0.909,1.549,1.733,2.459,2.458l4.192-1.993c0.648,0.347,1.334,0.633,2.05,0.851l1.557,4.377c0.571,0.064,1.148,0.104,1.737,0.104c0.588,0,1.165-0.04,1.736-0.104l1.558-4.377c0.715-0.218,1.399-0.504,2.049-0.851l4.193,1.993c0.909-0.725,1.733-1.549,2.458-2.458l-1.993-4.193c0.347-0.647,0.633-1.334,0.851-2.049L31.229,17.736zM16,20.871c-2.69,0-4.872-2.182-4.872-4.871c0-2.69,2.182-4.872,4.872-4.872c2.689,0,4.871,2.182,4.871,4.872C20.871,18.689,18.689,20.871,16,20.871z"></path><title>Link options.</title></g></g></g></g><g   id="j_296" ><path  stroke="#707070" d="M 970 235 L 1800 235 C 1806.6666666666665 235 1809.9999999999998 238.33333333333331 1810 245 L 1808 370" id="v-5837" stroke-width="2" stroke-dasharray="30 30" fill="none" style="opacity: 1;"></path><path  fill="black" stroke="black" d="M 0 0 0 0" transform="matrix(1,0,0,1,970,235)"></path><path  fill="#707070" stroke="#707070" d="M 20 0 L 0 10 L 20 20 z" id="v-5839" transform="matrix(0.0175530556589365,-0.9998458027839661,0.9998458027839661,0.0175530556589365,1797.631591796875,369.8244934082031)" style="opacity: 1;"></path><path  d="M 970 235 L 1800 235 C 1806.6666666666665 235 1809.9999999999998 238.33333333333331 1810 245 L 1808 370" id="v-5838" fill="none" style="cursor: default;"></path><g ><g id="v-5831"  label-idx="0" cursor="move" transform="matrix(1,0,0,1,1455.623291015625,235)" style="cursor: default; opacity: 1;"><rect joint-selector="rect" id="v-5834" fill="#ffffff" rx="3" ry="3" pointer-events="none" width="167" height="87.60000228881836" transform="matrix(1,0,0,1,-82.19999694824219,-43.79999923706055)"></rect><text joint-selector="text" id="v-5833" font-size="24px" xml:space="preserve" y="0.8em" fill="#707070" text-anchor="middle" pointer-events="none" font-family="Roboto" font-weight="normal" transform="matrix(1,0,0,1,0,-39)"><tspan  dy="0">Reuse, develop,</tspan><tspan dy="1.2em" x="0" >publish new AI</tspan><tspan dy="1.2em" x="0" >models</tspan></text></g><g id="v-5832"  label-idx="1" cursor="move" transform="matrix(1,0,0,1,1445.623291015625,292)" style="cursor: default; opacity: 1;"><rect joint-selector="rect" id="v-5836" fill="#ffffff" rx="3" ry="3"  width="0" height="0" transform="matrix(1,0,0,1,0,0)" display="none"></rect><text joint-selector="text" id="v-5835" fill="#000000" font-size="14" text-anchor="middle" pointer-events="none"></text></g></g><g  display="none"><g  transform="translate(1810, 235)" id="v-8210"><circle  idx="0" r="10"></circle><path  idx="0" d="M16,5.333c-7.732,0-14,4.701-14,10.5c0,1.982,0.741,3.833,2.016,5.414L2,25.667l5.613-1.441c2.339,1.317,5.237,2.107,8.387,2.107c7.732,0,14-4.701,14-10.5C30,10.034,23.732,5.333,16,5.333z" transform="translate(5, -33)"></path><path  idx="0" transform="scale(.8) translate(9.5, -37)" d="M24.778,21.419 19.276,15.917 24.777,10.415 21.949,7.585 16.447,13.087 10.945,7.585 8.117,10.415 13.618,15.917 8.116,21.419 10.946,24.248 16.447,18.746 21.948,24.248z"><title>Remove vertex.</title></path></g></g><g  id="v-5841" display="none"><g  id="v-5829"><path  end="source" d="M 26 0 L 0 13 L 26 26 z"></path></g><g  id="v-5830"><path  end="target" d="M 26 0 L 0 13 L 26 26 z"></path></g></g><g  id="v-5840" display="none"><g  id="v-5828" transform="translate(1010, 235) "><g  event="remove"><circle r="11"></circle><path transform="scale(.8) translate(-16, -16)" d="M24.778,21.419 19.276,15.917 24.777,10.415 21.949,7.585 16.447,13.087 10.945,7.585 8.117,10.415 13.618,15.917 8.116,21.419 10.946,24.248 16.447,18.746 21.948,24.248z"></path><title>Remove link.</title></g><g  event="link:options"><circle r="11" transform="translate(25)"></circle><path fill="white" transform="scale(.55) translate(29, -16)" d="M31.229,17.736c0.064-0.571,0.104-1.148,0.104-1.736s-0.04-1.166-0.104-1.737l-4.377-1.557c-0.218-0.716-0.504-1.401-0.851-2.05l1.993-4.192c-0.725-0.91-1.549-1.734-2.458-2.459l-4.193,1.994c-0.647-0.347-1.334-0.632-2.049-0.849l-1.558-4.378C17.165,0.708,16.588,0.667,16,0.667s-1.166,0.041-1.737,0.105L12.707,5.15c-0.716,0.217-1.401,0.502-2.05,0.849L6.464,4.005C5.554,4.73,4.73,5.554,4.005,6.464l1.994,4.192c-0.347,0.648-0.632,1.334-0.849,2.05l-4.378,1.557C0.708,14.834,0.667,15.412,0.667,16s0.041,1.165,0.105,1.736l4.378,1.558c0.217,0.715,0.502,1.401,0.849,2.049l-1.994,4.193c0.725,0.909,1.549,1.733,2.459,2.458l4.192-1.993c0.648,0.347,1.334,0.633,2.05,0.851l1.557,4.377c0.571,0.064,1.148,0.104,1.737,0.104c0.588,0,1.165-0.04,1.736-0.104l1.558-4.377c0.715-0.218,1.399-0.504,2.049-0.851l4.193,1.993c0.909-0.725,1.733-1.549,2.458-2.458l-1.993-4.193c0.347-0.647,0.633-1.334,0.851-2.049L31.229,17.736zM16,20.871c-2.69,0-4.872-2.182-4.872-4.871c0-2.69,2.182-4.872,4.872-4.872c2.689,0,4.871,2.182,4.871,4.872C20.871,18.689,18.689,20.871,16,20.871z"></path><title>Link options.</title></g></g></g></g><g   id="j_297" ><path  stroke="#707070" d="M 2545 850 L 2379 916 C 2373 918.6666666666665 2366.6666666666665 919.9999999999999 2360 920 L 1925 935 C 1918.333333333333 934.9999999999999 1914.9999999999998 938.3333333333333 1915 945 L 1920 1035 C 1920 1041.6666666666665 1918.3333333333333 1048 1915 1054 L 1896 1090" id="v-5854" stroke-width="2" stroke-dasharray="30 30" fill="none" style="opacity: 1;"></path><path  fill="black" stroke="black" d="M 0 0 0 0" transform="matrix(-0.9284764528274536,0.37139052152633667,-0.37139052152633667,-0.9284764528274536,2545,850)"></path><path  fill="#707070" stroke="#707070" d="M 20 0 L 0 10 L 20 20 z" id="v-5856" transform="matrix(0.4740879535675049,-0.8804773688316345,0.8804773688316345,0.4740879535675049,1886.9652099609375,1085.259033203125)" style="opacity: 1;"></path><path  d="M 2545 850 L 2379 916 C 2373 918.6666666666665 2366.6666666666665 919.9999999999999 2360 920 L 1925 935 C 1918.333333333333 934.9999999999999 1914.9999999999998 938.3333333333333 1915 945 L 1920 1035 C 1920 1041.6666666666665 1918.3333333333333 1048 1915 1054 L 1896 1090" id="v-5855" fill="none" style="cursor: default;"></path><g ><g id="v-5848"  label-idx="0" cursor="move" transform="matrix(1,0,0,1,2158.121337890625,926.9613037109375)" style="cursor: default; opacity: 1;"><rect joint-selector="rect" id="v-5851" fill="#ffffff" rx="3" ry="3" pointer-events="none" width="155.4499969482422" height="58.79999923706055" transform="matrix(1,0,0,1,-77.69999694824219,-29.399999618530273)"></rect><text joint-selector="text" id="v-5850" font-size="24px" xml:space="preserve" y="0.8em" fill="#707070" text-anchor="middle" pointer-events="none" font-family="Roboto" font-weight="normal" transform="matrix(1,0,0,1,0,-24.600000381469727)"><tspan  dy="0">Uses deployed</tspan><tspan dy="1.2em" x="0" >models from</tspan></text></g><g id="v-5849"  label-idx="1" cursor="move" transform="matrix(1,0,0,1,2148.121337890625,968.9613037109375)" style="cursor: default; opacity: 1;"><rect joint-selector="rect" id="v-5853" fill="#ffffff" rx="3" ry="3"  width="0" height="0" transform="matrix(1,0,0,1,0,0)" display="none"></rect><text joint-selector="text" id="v-5852" fill="#000000" font-size="14" text-anchor="middle" pointer-events="none"></text></g></g><g  display="none"><g  transform="translate(2370, 920)" id="v-13612"><circle  idx="0" r="10"></circle><path  idx="0" d="M16,5.333c-7.732,0-14,4.701-14,10.5c0,1.982,0.741,3.833,2.016,5.414L2,25.667l5.613-1.441c2.339,1.317,5.237,2.107,8.387,2.107c7.732,0,14-4.701,14-10.5C30,10.034,23.732,5.333,16,5.333z" transform="translate(5, -33)"></path><path  idx="0" transform="scale(.8) translate(9.5, -37)" d="M24.778,21.419 19.276,15.917 24.777,10.415 21.949,7.585 16.447,13.087 10.945,7.585 8.117,10.415 13.618,15.917 8.116,21.419 10.946,24.248 16.447,18.746 21.948,24.248z"><title>Remove vertex.</title></path></g><g  transform="translate(1915, 935)" id="v-13613"><circle  idx="1" r="10"></circle><path  idx="1" d="M16,5.333c-7.732,0-14,4.701-14,10.5c0,1.982,0.741,3.833,2.016,5.414L2,25.667l5.613-1.441c2.339,1.317,5.237,2.107,8.387,2.107c7.732,0,14-4.701,14-10.5C30,10.034,23.732,5.333,16,5.333z" transform="translate(5, -33)"></path><path  idx="1" transform="scale(.8) translate(9.5, -37)" d="M24.778,21.419 19.276,15.917 24.777,10.415 21.949,7.585 16.447,13.087 10.945,7.585 8.117,10.415 13.618,15.917 8.116,21.419 10.946,24.248 16.447,18.746 21.948,24.248z"><title>Remove vertex.</title></path></g><g  transform="translate(1920, 1045)" id="v-13614"><circle  idx="2" r="10"></circle><path  idx="2" d="M16,5.333c-7.732,0-14,4.701-14,10.5c0,1.982,0.741,3.833,2.016,5.414L2,25.667l5.613-1.441c2.339,1.317,5.237,2.107,8.387,2.107c7.732,0,14-4.701,14-10.5C30,10.034,23.732,5.333,16,5.333z" transform="translate(5, -33)"></path><path  idx="2" transform="scale(.8) translate(9.5, -37)" d="M24.778,21.419 19.276,15.917 24.777,10.415 21.949,7.585 16.447,13.087 10.945,7.585 8.117,10.415 13.618,15.917 8.116,21.419 10.946,24.248 16.447,18.746 21.948,24.248z"><title>Remove vertex.</title></path></g></g><g  id="v-5858" display="none"><g  id="v-5846"><path  end="source" d="M 26 0 L 0 13 L 26 26 z"></path></g><g  id="v-5847"><path  end="target" d="M 26 0 L 0 13 L 26 26 z"></path></g></g><g  id="v-5857" display="none"><g  id="v-5845" transform="translate(2507.830127813706, 864.7783829174423) "><g  event="remove"><circle r="11"></circle><path transform="scale(.8) translate(-16, -16)" d="M24.778,21.419 19.276,15.917 24.777,10.415 21.949,7.585 16.447,13.087 10.945,7.585 8.117,10.415 13.618,15.917 8.116,21.419 10.946,24.248 16.447,18.746 21.948,24.248z"></path><title>Remove link.</title></g><g  event="link:options"><circle r="11" transform="translate(25)"></circle><path fill="white" transform="scale(.55) translate(29, -16)" d="M31.229,17.736c0.064-0.571,0.104-1.148,0.104-1.736s-0.04-1.166-0.104-1.737l-4.377-1.557c-0.218-0.716-0.504-1.401-0.851-2.05l1.993-4.192c-0.725-0.91-1.549-1.734-2.458-2.459l-4.193,1.994c-0.647-0.347-1.334-0.632-2.049-0.849l-1.558-4.378C17.165,0.708,16.588,0.667,16,0.667s-1.166,0.041-1.737,0.105L12.707,5.15c-0.716,0.217-1.401,0.502-2.05,0.849L6.464,4.005C5.554,4.73,4.73,5.554,4.005,6.464l1.994,4.192c-0.347,0.648-0.632,1.334-0.849,2.05l-4.378,1.557C0.708,14.834,0.667,15.412,0.667,16s0.041,1.165,0.105,1.736l4.378,1.558c0.217,0.715,0.502,1.401,0.849,2.049l-1.994,4.193c0.725,0.909,1.549,1.733,2.459,2.458l4.192-1.993c0.648,0.347,1.334,0.633,2.05,0.851l1.557,4.377c0.571,0.064,1.148,0.104,1.737,0.104c0.588,0,1.165-0.04,1.736-0.104l1.558-4.377c0.715-0.218,1.399-0.504,2.049-0.851l4.193,1.993c0.909-0.725,1.733-1.549,2.458-2.458l-1.993-4.193c0.347-0.647,0.633-1.334,0.851-2.049L31.229,17.736zM16,20.871c-2.69,0-4.872-2.182-4.872-4.871c0-2.69,2.182-4.872,4.872-4.872c2.689,0,4.871,2.182,4.871,4.872C20.871,18.689,18.689,20.871,16,20.871z"></path><title>Link options.</title></g></g></g></g><g   id="j_298" ><path  stroke="#707070" d="M 1807 670 L 1813 1090" id="v-5871" stroke-width="2" stroke-dasharray="30 30" fill="none" style="opacity: 1;"></path><path  fill="black" stroke="black" d="M 0 0 0 0" transform="matrix(0.013903383165597916,0.9999033212661743,-0.9999033212661743,0.013903383165597916,1807.0799560546875,670)"></path><path  fill="#707070" stroke="#707070" d="M 20 0 L 0 10 L 20 20 z" id="v-5873" transform="matrix(-0.013903382234275341,-0.9999032020568848,0.9999032020568848,-0.013903382234275341,1802.9210205078125,1090.1390380859375)" style="opacity: 1;"></path><path  d="M 1807 670 L 1813 1090" id="v-5872" fill="none" style="cursor: default;"></path><g ><g id="v-5865"  label-idx="0" cursor="move" transform="matrix(1,0,0,1,1810,880)" style="cursor: default; opacity: 1;"><rect joint-selector="rect" id="v-5868" fill="#ffffff" rx="3" ry="3" pointer-events="none" width="157.6999969482422" height="58.79999923706055" transform="matrix(1,0,0,1,-78.80000305175781,-29.399999618530273)"></rect><text joint-selector="text" id="v-5867" font-size="24px" xml:space="preserve" y="0.8em" fill="#707070" text-anchor="middle" pointer-events="none" font-family="Roboto" font-weight="normal" transform="matrix(1,0,0,1,0,-24.600000381469727)"><tspan  dy="0">Deploy models</tspan><tspan dy="1.2em" x="0" >on</tspan></text></g><g id="v-5866"  label-idx="1" cursor="move" transform="matrix(1,0,0,1,1800,922)" style="cursor: default; opacity: 1;"><rect joint-selector="rect" id="v-5870" fill="#ffffff" rx="3" ry="3"  width="0" height="0" transform="matrix(1,0,0,1,0,0)" display="none"></rect><text joint-selector="text" id="v-5869" fill="#000000" font-size="14" text-anchor="middle" pointer-events="none"></text></g></g><g  display="none"></g><g  id="v-5875" display="none"><g  id="v-5863"><path  end="source" d="M 26 0 L 0 13 L 26 26 z"></path></g><g  id="v-5864"><path  end="target" d="M 26 0 L 0 13 L 26 26 z"></path></g></g><g  id="v-5874" display="none"><g  id="v-5862" transform="translate(1807.571370271314, 709.9959189919805) "><g  event="remove"><circle r="11"></circle><path transform="scale(.8) translate(-16, -16)" d="M24.778,21.419 19.276,15.917 24.777,10.415 21.949,7.585 16.447,13.087 10.945,7.585 8.117,10.415 13.618,15.917 8.116,21.419 10.946,24.248 16.447,18.746 21.948,24.248z"></path><title>Remove link.</title></g><g  event="link:options"><circle r="11" transform="translate(25)"></circle><path fill="white" transform="scale(.55) translate(29, -16)" d="M31.229,17.736c0.064-0.571,0.104-1.148,0.104-1.736s-0.04-1.166-0.104-1.737l-4.377-1.557c-0.218-0.716-0.504-1.401-0.851-2.05l1.993-4.192c-0.725-0.91-1.549-1.734-2.458-2.459l-4.193,1.994c-0.647-0.347-1.334-0.632-2.049-0.849l-1.558-4.378C17.165,0.708,16.588,0.667,16,0.667s-1.166,0.041-1.737,0.105L12.707,5.15c-0.716,0.217-1.401,0.502-2.05,0.849L6.464,4.005C5.554,4.73,4.73,5.554,4.005,6.464l1.994,4.192c-0.347,0.648-0.632,1.334-0.849,2.05l-4.378,1.557C0.708,14.834,0.667,15.412,0.667,16s0.041,1.165,0.105,1.736l4.378,1.558c0.217,0.715,0.502,1.401,0.849,2.049l-1.994,4.193c0.725,0.909,1.549,1.733,2.459,2.458l4.192-1.993c0.648,0.347,1.334,0.633,2.05,0.851l1.557,4.377c0.571,0.064,1.148,0.104,1.737,0.104c0.588,0,1.165-0.04,1.736-0.104l1.558-4.377c0.715-0.218,1.399-0.504,2.049-0.851l4.193,1.993c0.909-0.725,1.733-1.549,2.458-2.458l-1.993-4.193c0.347-0.647,0.633-1.334,0.851-2.049L31.229,17.736zM16,20.871c-2.69,0-4.872-2.182-4.872-4.871c0-2.69,2.182-4.872,4.872-4.872c2.689,0,4.871,2.182,4.871,4.872C20.871,18.689,18.689,20.871,16,20.871z"></path><title>Link options.</title></g></g></g></g><g   id="j_299" ><path  stroke="#707070" d="M 765 435 L 748 1141 C 747.5159098307291 1147.5236002604165 747.5159098307291 1154.1902669270833 748 1161 L 757 1560" id="v-5888" stroke-width="2" stroke-dasharray="30 30" fill="none" style="opacity: 1;"></path><path  fill="black" stroke="black" d="M 0 0 0 0" transform="matrix(-0.024812785908579826,0.9996920824050903,-0.9996920824050903,-0.024812785908579826,765.0399780273438,435)"></path><path  fill="#707070" stroke="#707070" d="M 20 0 L 0 10 L 20 20 z" id="v-5890" transform="matrix(-0.022760072723031044,-0.9997409582138062,0.9997409582138062,-0.022760072723031044,746.5925903320312,1560.2275390625)" style="opacity: 1;"></path><path  d="M 765 435 L 748 1141 C 747.5159098307291 1147.5236002604165 747.5159098307291 1154.1902669270833 748 1161 L 757 1560" id="v-5889" fill="none" style="cursor: default;"></path><g ><g id="v-5882"  label-idx="0" cursor="move" transform="matrix(1,0,0,1,751.4554443359375,997.4982299804688)" style="cursor: default; opacity: 1;"><rect joint-selector="rect" id="v-5885" fill="#ffffff" rx="3" ry="3" pointer-events="none" width="160.6999969482422" height="58.79999923706055" transform="matrix(1,0,0,1,-80.30000305175781,-29.399999618530273)"></rect><text joint-selector="text" id="v-5884" font-size="24px" xml:space="preserve" y="0.8em" fill="#707070" text-anchor="middle" pointer-events="none" font-family="Roboto" font-weight="normal" transform="matrix(1,0,0,1,0,-24.600000381469727)"><tspan  dy="0">creates a new</tspan><tspan dy="1.2em" x="0" >experiment-run</tspan></text></g><g id="v-5883"  label-idx="1" cursor="move" transform="matrix(1,0,0,1,741.4554443359375,1039.498291015625)" style="cursor: default; opacity: 1;"><rect joint-selector="rect" id="v-5887" fill="#ffffff" rx="3" ry="3"  width="0" height="0" transform="matrix(1,0,0,1,0,0)" display="none"></rect><text joint-selector="text" id="v-5886" fill="#000000" font-size="14" text-anchor="middle" pointer-events="none"></text></g></g><g  display="none"><g  transform="translate(747.2738647460938, 1150.785400390625)" id="v-5910"><circle  idx="0" r="10"></circle><path  idx="0" d="M16,5.333c-7.732,0-14,4.701-14,10.5c0,1.982,0.741,3.833,2.016,5.414L2,25.667l5.613-1.441c2.339,1.317,5.237,2.107,8.387,2.107c7.732,0,14-4.701,14-10.5C30,10.034,23.732,5.333,16,5.333z" transform="translate(5, -33)"></path><path  idx="0" transform="scale(.8) translate(9.5, -37)" d="M24.778,21.419 19.276,15.917 24.777,10.415 21.949,7.585 16.447,13.087 10.945,7.585 8.117,10.415 13.618,15.917 8.116,21.419 10.946,24.248 16.447,18.746 21.948,24.248z"><title>Remove vertex.</title></path></g></g><g  id="v-5892" display="none"><g  id="v-5880"><path  end="source" d="M 26 0 L 0 13 L 26 26 z"></path></g><g  id="v-5881"><path  end="target" d="M 26 0 L 0 13 L 26 26 z"></path></g></g><g  id="v-5891" display="none"><g  id="v-5879" transform="translate(764.0371063044729, 474.98840876718043) "><g  event="remove"><circle r="11"></circle><path transform="scale(.8) translate(-16, -16)" d="M24.778,21.419 19.276,15.917 24.777,10.415 21.949,7.585 16.447,13.087 10.945,7.585 8.117,10.415 13.618,15.917 8.116,21.419 10.946,24.248 16.447,18.746 21.948,24.248z"></path><title>Remove link.</title></g><g  event="link:options"><circle r="11" transform="translate(25)"></circle><path fill="white" transform="scale(.55) translate(29, -16)" d="M31.229,17.736c0.064-0.571,0.104-1.148,0.104-1.736s-0.04-1.166-0.104-1.737l-4.377-1.557c-0.218-0.716-0.504-1.401-0.851-2.05l1.993-4.192c-0.725-0.91-1.549-1.734-2.458-2.459l-4.193,1.994c-0.647-0.347-1.334-0.632-2.049-0.849l-1.558-4.378C17.165,0.708,16.588,0.667,16,0.667s-1.166,0.041-1.737,0.105L12.707,5.15c-0.716,0.217-1.401,0.502-2.05,0.849L6.464,4.005C5.554,4.73,4.73,5.554,4.005,6.464l1.994,4.192c-0.347,0.648-0.632,1.334-0.849,2.05l-4.378,1.557C0.708,14.834,0.667,15.412,0.667,16s0.041,1.165,0.105,1.736l4.378,1.558c0.217,0.715,0.502,1.401,0.849,2.049l-1.994,4.193c0.725,0.909,1.549,1.733,2.459,2.458l4.192-1.993c0.648,0.347,1.334,0.633,2.05,0.851l1.557,4.377c0.571,0.064,1.148,0.104,1.737,0.104c0.588,0,1.165-0.04,1.736-0.104l1.558-4.377c0.715-0.218,1.399-0.504,2.049-0.851l4.193,1.993c0.909-0.725,1.733-1.549,2.458-2.458l-1.993-4.193c0.347-0.647,0.633-1.334,0.851-2.049L31.229,17.736zM16,20.871c-2.69,0-4.872-2.182-4.872-4.871c0-2.69,2.182-4.872,4.872-4.872c2.689,0,4.871,2.182,4.871,4.872C20.871,18.689,18.689,20.871,16,20.871z"></path><title>Link options.</title></g></g></g></g><g   id="j_300" ><path  stroke="#707070" d="M 2566 1535 L 2551 1050" id="v-5905" stroke-width="2" stroke-dasharray="30 30" fill="none" style="opacity: 1;"></path><path  fill="black" stroke="black" d="M 0 0 0 0" transform="matrix(-0.0299246683716774,-0.9995521306991577,0.9995521306991577,-0.0299246683716774,2565.510009765625,1535)"></path><path  fill="#707070" stroke="#707070" d="M 20 0 L 0 10 L 20 20 z" id="v-5907" transform="matrix(0.029924802482128143,0.9995521306991577,-0.9995521306991577,0.029924802482128143,2560.985595703125,1049.70068359375)" style="opacity: 1;"></path><path  d="M 2566 1535 L 2551 1050" id="v-5906" fill="none" style="cursor: default;"></path><g ><g id="v-5899"  label-idx="0" cursor="move" transform="matrix(1,0,0,1,2558.5,1292.5)" style="cursor: default; opacity: 1;"><rect joint-selector="rect" id="v-5902" fill="#ffffff" rx="3" ry="3" pointer-events="none" width="166.34999084472656" height="87.60000228881836" transform="matrix(1,0,0,1,-82,-43.79999923706055)"></rect><text joint-selector="text" id="v-5901" font-size="24px" xml:space="preserve" y="0.8em" fill="#707070" text-anchor="middle" pointer-events="none" font-family="Roboto" font-weight="normal" transform="matrix(1,0,0,1,0,-39)"><tspan  dy="0">notifies the</tspan><tspan dy="1.2em" x="0" >end_user about</tspan><tspan dy="1.2em" x="0" >the data drift</tspan></text></g><g id="v-5900"  label-idx="1" cursor="move" transform="matrix(1,0,0,1,2548.5,1349.5)" style="cursor: default; opacity: 1;"><rect joint-selector="rect" id="v-5904" fill="#ffffff" rx="3" ry="3"  width="0" height="0" transform="matrix(1,0,0,1,0,0)" display="none"></rect><text joint-selector="text" id="v-5903" fill="#000000" font-size="14" text-anchor="middle" pointer-events="none"></text></g></g><g  display="none"></g><g  id="v-5909" display="none"><g  id="v-5897"><path  end="source" d="M 26 0 L 0 13 L 26 26 z"></path></g><g  id="v-5898"><path  end="target" d="M 26 0 L 0 13 L 26 26 z"></path></g></g><g  id="v-5908" display="none"><g  id="v-5896" transform="translate(2564.763477842462, 1495.0191169062773) "><g  event="remove"><circle r="11"></circle><path transform="scale(.8) translate(-16, -16)" d="M24.778,21.419 19.276,15.917 24.777,10.415 21.949,7.585 16.447,13.087 10.945,7.585 8.117,10.415 13.618,15.917 8.116,21.419 10.946,24.248 16.447,18.746 21.948,24.248z"></path><title>Remove link.</title></g><g  event="link:options"><circle r="11" transform="translate(25)"></circle><path fill="white" transform="scale(.55) translate(29, -16)" d="M31.229,17.736c0.064-0.571,0.104-1.148,0.104-1.736s-0.04-1.166-0.104-1.737l-4.377-1.557c-0.218-0.716-0.504-1.401-0.851-2.05l1.993-4.192c-0.725-0.91-1.549-1.734-2.458-2.459l-4.193,1.994c-0.647-0.347-1.334-0.632-2.049-0.849l-1.558-4.378C17.165,0.708,16.588,0.667,16,0.667s-1.166,0.041-1.737,0.105L12.707,5.15c-0.716,0.217-1.401,0.502-2.05,0.849L6.464,4.005C5.554,4.73,4.73,5.554,4.005,6.464l1.994,4.192c-0.347,0.648-0.632,1.334-0.849,2.05l-4.378,1.557C0.708,14.834,0.667,15.412,0.667,16s0.041,1.165,0.105,1.736l4.378,1.558c0.217,0.715,0.502,1.401,0.849,2.049l-1.994,4.193c0.725,0.909,1.549,1.733,2.459,2.458l4.192-1.993c0.648,0.347,1.334,0.633,2.05,0.851l1.557,4.377c0.571,0.064,1.148,0.104,1.737,0.104c0.588,0,1.165-0.04,1.736-0.104l1.558-4.377c0.715-0.218,1.399-0.504,2.049-0.851l4.193,1.993c0.909-0.725,1.733-1.549,2.458-2.458l-1.993-4.193c0.347-0.647,0.633-1.334,0.851-2.049L31.229,17.736zM16,20.871c-2.69,0-4.872-2.182-4.872-4.871c0-2.69,2.182-4.872,4.872-4.872c2.689,0,4.871,2.182,4.871,4.872C20.871,18.689,18.689,20.871,16,20.871z"></path><title>Link options.</title></g></g></g></g></g><g ></g><g ></g><g ></g></g></svg>