<svg xmlns="http://www.w3.org/2000/svg" xmlns:xlink="http://www.w3.org/1999/xlink" version="1.1" viewBox="0 0 3183 2008" style="background: #ffffff"><defs><style>@import url(http://fonts.googleapis.com/css?family=Roboto);</style></defs><defs joint-selector="defs"></defs><g  joint-selector="layers" transform="matrix(1,0,0,1,0,0)"><g ></g><g ><!--z-index:1--><!--z-index:2--><!--z-index:3--><!--z-index:4--><!--z-index:5--><!--z-index:6--><!--z-index:7--><!--z-index:8--><!--z-index:9--><!--z-index:10--><!--z-index:11--><!--z-index:12--><!--z-index:13--><!--z-index:14--><!--z-index:15--><!--z-index:16--><!--z-index:17--><!--z-index:18--><!--z-index:19--><!--z-index:20--><!--z-index:21--><!--z-index:22--><!--z-index:23--><!--z-index:24--><!--z-index:25--><!--z-index:26--><g   id="j_114"  transform="translate(20,1971.6)"><g id="v-2804"><text  id="v-2805" font-size="22px" xml:space="preserve" y="0.8em" font-weight="normal" text-anchor="start" fill="#aaaaaa" pointer-events="none" display="block" font-family="Roboto"><tspan  dy="0" display="block">Wednesday, 31 July 2024 at 12:33 Central European Summer Time</tspan></text></g></g><!--z-index:27--><g   id="j_113"  transform="translate(20,1928.3999999999999)"><g id="v-2802"><text  id="v-2803" font-size="36px" xml:space="preserve" y="0.8em" font-weight="normal" text-anchor="start" fill="#000000" pointer-events="none" display="block" font-family="Roboto"><tspan  dy="0" display="block">[Dynamic view] MLOps: high-level automation</tspan></text></g></g><!--z-index:28--><g   id="j_115"  transform="translate(1390,15)" style=""><g  id="v-2809" style="opacity: 1;"><rect  x="0" y="160" width="400" height="240" rx="70" id="v-2811" stroke="#00474d" stroke-width="2" pointer-events="visiblePainted" fill="#004f56" style="fill: rgb(0, 79, 86); stroke: rgb(0, 71, 77);"></rect><circle  cx="200" cy="88.88888888888889" r="88.88888888888889" id="v-2810" stroke="#00474d" stroke-width="2" pointer-events="visiblePainted" fill="#004f56" style="fill: rgb(0, 79, 86); stroke: rgb(0, 71, 77);"></circle><line  x1="80" y1="266.6666666666667" x2="80" y2="400" id="v-2817" stroke="#00474d" stroke-width="2" style="stroke: rgb(0, 71, 77);"></line><line  x1="320" y1="266.6666666666667" x2="320" y2="400" id="v-2818" stroke="#00474d" stroke-width="2" style="stroke: rgb(0, 71, 77);"></line><text  id="v-2812" font-size="34" xml:space="preserve" y="0.8em" font-weight="bold" text-anchor="middle" pointer-events="visible" font-family="Roboto" fill="#ffffff" transform="matrix(1,0,0,1,200,203.6999969482422)" style="fill: rgb(255, 255, 255);"><tspan  dy="0">EOSC User</tspan></text><text  id="v-2813" font-size="17" xml:space="preserve" y="0.8em" text-anchor="middle" font-family="Roboto" fill="#ffffff" transform="matrix(1,0,0,1,200,244.5)" style="fill: rgb(255, 255, 255);"><tspan  dy="0">[Person]</tspan></text><text  id="v-2814" font-size="24" xml:space="preserve" y="0.8em" text-anchor="middle" font-family="Roboto" fill="#ffffff" transform="matrix(1,0,0,1,200,274.8999938964844)" style="fill: rgb(255, 255, 255);"><tspan  dy="0">EOSC user willing to use an AI</tspan><tspan dy="1.2em" x="0" >platform to develop an AI</tspan><tspan dy="1.2em" x="0" >application.</tspan></text><g  id="v-2815" font-weight="normal" text-anchor="middle" color="#ffffff" transform="matrix(1,0,0,1,197.5,368)" style="fill: rgb(255, 255, 255);" display="none"><g ></g><g ></g><g ></g><g ></g></g><image  id="v-2816"></image></g></g><!--z-index:29--><g   id="j_117"  transform="translate(120,610)" style=""><g id="v-2833"><rect  id="v-2834" width="2660" height="1071" rx="0" ry="0" fill="#ffffff" stroke="#e68da0" stroke-width="1" stroke-dasharray="20,20" pointer-events="none"></rect><text  id="v-2835" font-size="24px" xml:space="preserve" y="1032" font-weight="normal" fill="#e68da0" text-anchor="start" pointer-events="visible" font-family="Roboto" transform="matrix(1,0,0,1,15,0)"><tspan  dy="0">AI4EOSC Platform</tspan></text><text  id="v-2836" font-size="17px" xml:space="preserve" y="1056" font-weight="normal" fill="#e68da0" text-anchor="start" pointer-events="visible" font-family="Roboto" transform="matrix(1,0,0,1,15,0)"><tspan  dy="0">[Software System]</tspan></text><image  id="v-2837" pointer-events="visible"></image></g></g><!--z-index:30--><g   id="j_116"  transform="translate(2310,1260)" style=""><g  id="v-2825" style="opacity: 1;"><rect  id="v-2826" rx="10" ry="10" stroke="#007a83" stroke-width="2" pointer-events="visiblePainted" fill="#008792" x="10" y="0" width="150" height="75" style="fill: rgb(0, 135, 146); stroke: rgb(0, 122, 131);"></rect><rect  id="v-2827" rx="5" ry="5" stroke="#007a83" stroke-width="2" pointer-events="visiblePainted" fill="#008792" x="0" y="37.5" width="450" height="262.5" style="fill: rgb(0, 135, 146); stroke: rgb(0, 122, 131);"></rect><text  id="v-2828" font-size="34" xml:space="preserve" y="0.8em" font-weight="bold" text-anchor="middle" pointer-events="visible" font-family="Roboto" fill="#ffffff" transform="matrix(1,0,0,1,225,106.9000015258789)" style="fill: rgb(255, 255, 255);"><tspan  dy="0">AI4 module repository</tspan></text><text  id="v-2829" font-size="17" xml:space="preserve" y="0.8em" text-anchor="middle" font-family="Roboto" fill="#ffffff" transform="matrix(1,0,0,1,225,147.6999969482422)" style="fill: rgb(255, 255, 255);"><tspan  dy="0">[Container: Git]</tspan></text><text  id="v-2830" font-size="24" xml:space="preserve" y="0.8em" text-anchor="middle" font-family="Roboto" fill="#ffffff" transform="matrix(1,0,0,1,225,178.10000610351562)" style="fill: rgb(255, 255, 255);"><tspan  dy="0">Track AI model and AI4EOSC code</tspan><tspan dy="1.2em" x="0" >integration.</tspan></text><g  id="v-2831" font-weight="normal" text-anchor="middle" color="#ffffff" transform="matrix(1,0,0,1,222.5,268)" style="fill: rgb(255, 255, 255);" display="none"><g ></g><g ></g><g ></g><g ></g></g><image  id="v-2832"></image></g></g><!--z-index:31--><g   id="j_118"  transform="translate(1360,1275)" style=""><g  id="v-2844" style="opacity: 1;"><rect  id="v-2845" rx="20" ry="20" stroke="#007a83" stroke-width="2" pointer-events="visiblePainted" fill="#008792" width="450" height="300" style="fill: rgb(0, 135, 146); stroke: rgb(0, 122, 131);"></rect><text  id="v-2846" font-size="34" xml:space="preserve" y="0.8em" font-weight="bold" text-anchor="middle" pointer-events="visible" font-family="Roboto" fill="#ffffff" transform="matrix(1,0,0,1,225,38.900001525878906)" style="fill: rgb(255, 255, 255);"><tspan  dy="0">Continuous Integration,</tspan><tspan dy="1.2em" x="0" >Delivery &amp; Deployment</tspan></text><text  id="v-2847" font-size="17" xml:space="preserve" y="0.8em" text-anchor="middle" font-family="Roboto" fill="#ffffff" transform="matrix(1,0,0,1,225,120.5)" style="fill: rgb(255, 255, 255);"><tspan  dy="0">[Container: Jenkins]</tspan></text><text  id="v-2848" font-size="24" xml:space="preserve" y="0.8em" text-anchor="middle" font-family="Roboto" fill="#ffffff" transform="matrix(1,0,0,1,225,150.89999389648438)" style="fill: rgb(255, 255, 255);"><tspan  dy="0">Ensures quality aspects are fulfilled</tspan><tspan dy="1.2em" x="0" >(code checks, unit checks, etc.).</tspan><tspan dy="1.2em" x="0" >Performs delivery and deployment</tspan><tspan dy="1.2em" x="0" >of new assets.</tspan></text><g  id="v-2849" color="#ffffff" transform="matrix(1,0,0,1,210,268)" style="fill: rgb(255, 255, 255);" display="none"><g  transform="translate(5 0)"><svg xmlns="http://www.w3.org/2000/svg" width="20" height="20" fill="currentColor" viewBox="0 0 16 16"><path fill-rule="evenodd" d="M6.5 12a5.5 5.5 0 1 0 0-11 5.5 5.5 0 0 0 0 11zM13 6.5a6.5 6.5 0 1 1-13 0 6.5 6.5 0 0 1 13 0z"></path><path d="M10.344 11.742c.03.04.062.078.098.115l3.85 3.85a1 1 0 0 0 1.415-1.414l-3.85-3.85a1.007 1.007 0 0 0-.115-.1 6.538 6.538 0 0 1-1.398 1.4z"></path><path fill-rule="evenodd" d="M6.5 3a.5.5 0 0 1 .5.5V6h2.5a.5.5 0 0 1 0 1H7v2.5a.5.5 0 0 1-1 0V7H3.5a.5.5 0 0 1 0-1H6V3.5a.5.5 0 0 1 .5-.5z"></path></svg></g><g ></g><g ></g><g ></g></g><image  id="v-2850"></image></g></g><!--z-index:32--><g   id="j_119"  transform="translate(515,660)" style=""><g  id="v-2857" style="opacity: 1;"><rect  id="v-2858" rx="10" ry="10" stroke="#007a83" stroke-width="2" pointer-events="visiblePainted" fill="#007a83" width="450" height="300" style="fill: rgb(0, 122, 131); stroke: rgb(0, 122, 131);"></rect><rect  id="v-2859" rx="10" ry="10" stroke="#007a83" stroke-width="0" pointer-events="visiblePainted" fill="#008792" width="430" height="250" x="10" y="40" style="fill: rgb(0, 135, 146);"></rect><ellipse  id="v-2866" fill="#008792" cx="20" cy="20" rx="10" ry="10" style="fill: rgb(0, 135, 146);"></ellipse><ellipse  id="v-2867" fill="#008792" cx="50" cy="20" rx="10" ry="10" style="fill: rgb(0, 135, 146);"></ellipse><ellipse  id="v-2868" fill="#008792" cx="80" cy="20" rx="10" ry="10" style="fill: rgb(0, 135, 146);"></ellipse><rect  id="v-2860" rx="10" ry="10" stroke="#444444" stroke-width="0" pointer-events="visiblePainted" fill="#008792" width="340" height="20" x="100" y="10" style="fill: rgb(0, 135, 146);"></rect><text  id="v-2861" font-size="34" xml:space="preserve" y="0.8em" font-weight="bold" text-anchor="middle" pointer-events="visible" font-family="Roboto" fill="#ffffff" transform="matrix(1,0,0,1,225,88.69999694824219)" style="fill: rgb(255, 255, 255);"><tspan  dy="0">AI4EOSC dashboard</tspan></text><text  id="v-2862" font-size="17" xml:space="preserve" y="0.8em" text-anchor="middle" font-family="Roboto" fill="#ffffff" transform="matrix(1,0,0,1,225,129.5)" style="fill: rgb(255, 255, 255);"><tspan  dy="0">[Container: Angular]</tspan></text><text  id="v-2863" font-size="24" xml:space="preserve" y="0.8em" text-anchor="middle" font-family="Roboto" fill="#ffffff" transform="matrix(1,0,0,1,225,159.89999389648438)" style="fill: rgb(255, 255, 255);"><tspan  dy="0">Provides access to existing modules</tspan><tspan dy="1.2em" x="0" >(anonymous), experiment and</tspan><tspan dy="1.2em" x="0" >training definition (logged users).</tspan></text><g  id="v-2864" font-weight="normal" text-anchor="middle" color="#ffffff" transform="matrix(1,0,0,1,222.5,258)" style="fill: rgb(255, 255, 255);" display="none"><g ></g><g ></g><g ></g><g ></g></g><image  id="v-2865"></image></g></g><!--z-index:33--><g   id="j_120"  transform="translate(2285,635)" style=""><g  id="v-2872" style="opacity: 1;"><rect  id="v-2873" rx="20" ry="20" stroke="#007a83" stroke-width="2" pointer-events="visiblePainted" fill="#008792" width="450" height="300" style="fill: rgb(0, 135, 146); stroke: rgb(0, 122, 131);"></rect><text  id="v-2874" font-size="34" xml:space="preserve" y="0.8em" font-weight="bold" text-anchor="middle" pointer-events="visible" font-family="Roboto" fill="#ffffff" transform="matrix(1,0,0,1,225,82.0999984741211)" style="fill: rgb(255, 255, 255);"><tspan  dy="0">Secret management</tspan><tspan dy="1.2em" x="0" >system</tspan></text><text  id="v-2875" font-size="17" xml:space="preserve" y="0.8em" text-anchor="middle" font-family="Roboto" fill="#ffffff" transform="matrix(1,0,0,1,225,163.6999969482422)" style="fill: rgb(255, 255, 255);"><tspan  dy="0">[Container: Hashicorp Vault]</tspan></text><text  id="v-2876" font-size="24" xml:space="preserve" y="0.8em" text-anchor="middle" font-family="Roboto" fill="#ffffff" transform="matrix(1,0,0,1,225,194.10000610351562)" style="fill: rgb(255, 255, 255);"><tspan  dy="0">Manages user secrets</tspan></text><g  id="v-2877" color="#ffffff" transform="matrix(1,0,0,1,222.5,268)" style="fill: rgb(255, 255, 255);" display="none"><g ></g><g ></g><g ></g><g ></g></g><image  id="v-2878"></image></g></g><!--z-index:34--><g   id="j_121"  transform="translate(780,1010)" style=""><g  id="v-2885" style="opacity: 1;"><rect  id="v-2886" rx="20" ry="20" stroke="#007a83" stroke-width="2" pointer-events="visiblePainted" fill="#008792" width="450" height="300" style="fill: rgb(0, 135, 146); stroke: rgb(0, 122, 131);"></rect><text  id="v-2887" font-size="34" xml:space="preserve" y="0.8em" font-weight="bold" text-anchor="middle" pointer-events="visible" font-family="Roboto" fill="#ffffff" transform="matrix(1,0,0,1,225,67.69999694824219)" style="fill: rgb(255, 255, 255);"><tspan  dy="0">User job/task</tspan><tspan dy="1.2em" x="0" >deployment</tspan></text><text  id="v-2888" font-size="17" xml:space="preserve" y="0.8em" text-anchor="middle" font-family="Roboto" fill="#ffffff" transform="matrix(1,0,0,1,225,149.3000030517578)" style="fill: rgb(255, 255, 255);"><tspan  dy="0">[Container: Docker Nomad Job]</tspan></text><text  id="v-2889" font-size="24" xml:space="preserve" y="0.8em" text-anchor="middle" font-family="Roboto" fill="#ffffff" transform="matrix(1,0,0,1,225,179.6999969482422)" style="fill: rgb(255, 255, 255);"><tspan  dy="0">Encapsulates a user task to be</tspan><tspan dy="1.2em" x="0" >executed in the platform.</tspan></text><g  id="v-2890" color="#ffffff" transform="matrix(1,0,0,1,210,268)" style="fill: rgb(255, 255, 255);" display="none"><g  transform="translate(5 0)"><svg xmlns="http://www.w3.org/2000/svg" width="20" height="20" fill="currentColor" viewBox="0 0 16 16"><path fill-rule="evenodd" d="M6.5 12a5.5 5.5 0 1 0 0-11 5.5 5.5 0 0 0 0 11zM13 6.5a6.5 6.5 0 1 1-13 0 6.5 6.5 0 0 1 13 0z"></path><path d="M10.344 11.742c.03.04.062.078.098.115l3.85 3.85a1 1 0 0 0 1.415-1.414l-3.85-3.85a1.007 1.007 0 0 0-.115-.1 6.538 6.538 0 0 1-1.398 1.4z"></path><path fill-rule="evenodd" d="M6.5 3a.5.5 0 0 1 .5.5V6h2.5a.5.5 0 0 1 0 1H7v2.5a.5.5 0 0 1-1 0V7H3.5a.5.5 0 0 1 0-1H6V3.5a.5.5 0 0 1 .5-.5z"></path></svg></g><g ></g><g ></g><g ></g></g><image  id="v-2891"></image></g></g><!--z-index:35--><g   id="j_122"  transform="translate(1370,630)" style=""><g  id="v-2895" style="opacity: 1;"><rect  id="v-2896" rx="20" ry="20" stroke="#007a83" stroke-width="2" pointer-events="visiblePainted" fill="#008792" width="450" height="300" style="fill: rgb(0, 135, 146); stroke: rgb(0, 122, 131);"></rect><text  id="v-2897" font-size="34" xml:space="preserve" y="0.8em" font-weight="bold" text-anchor="middle" pointer-events="visible" font-family="Roboto" fill="#ffffff" transform="matrix(1,0,0,1,225,88.0999984741211)" style="fill: rgb(255, 255, 255);"><tspan  dy="0">MLflow</tspan></text><text  id="v-2898" font-size="17" xml:space="preserve" y="0.8em" text-anchor="middle" font-family="Roboto" fill="#ffffff" transform="matrix(1,0,0,1,225,128.89999389648438)" style="fill: rgb(255, 255, 255);"><tspan  dy="0">[Container]</tspan></text><text  id="v-2899" font-size="24" xml:space="preserve" y="0.8em" text-anchor="middle" font-family="Roboto" fill="#ffffff" transform="matrix(1,0,0,1,225,159.3000030517578)" style="fill: rgb(255, 255, 255);"><tspan  dy="0">Tracks experiments and manages</tspan><tspan dy="1.2em" x="0" >model versions</tspan></text><g  id="v-2900" color="#ffffff" transform="matrix(1,0,0,1,222.5,268)" style="fill: rgb(255, 255, 255);" display="none"><g ></g><g ></g><g ></g><g ></g></g><image  id="v-2901"></image></g></g><!--z-index:36--><g   id="j_123"  transform="translate(140,1290)" style=""><g  id="v-2905" style="opacity: 1;"><rect  id="v-2906" rx="20" ry="20" stroke="#007a83" stroke-width="2" pointer-events="visiblePainted" fill="#008792" width="450" height="300" style="fill: rgb(0, 135, 146); stroke: rgb(0, 122, 131);"></rect><text  id="v-2907" font-size="34" xml:space="preserve" y="0.8em" font-weight="bold" text-anchor="middle" pointer-events="visible" font-family="Roboto" fill="#ffffff" transform="matrix(1,0,0,1,225,88.0999984741211)" style="fill: rgb(255, 255, 255);"><tspan  dy="0">DriftWatch</tspan></text><text  id="v-2908" font-size="17" xml:space="preserve" y="0.8em" text-anchor="middle" font-family="Roboto" fill="#ffffff" transform="matrix(1,0,0,1,225,128.89999389648438)" style="fill: rgb(255, 255, 255);"><tspan  dy="0">[Container: python client]</tspan></text><text  id="v-2909" font-size="24" xml:space="preserve" y="0.8em" text-anchor="middle" font-family="Roboto" fill="#ffffff" transform="matrix(1,0,0,1,225,159.3000030517578)" style="fill: rgb(255, 255, 255);"><tspan  dy="0">Monitors drift; alerts whenever a</tspan><tspan dy="1.2em" x="0" >drift is detected</tspan></text><g  id="v-2910" color="#ffffff" transform="matrix(1,0,0,1,222.5,268)" style="fill: rgb(255, 255, 255);" display="none"><g ></g><g ></g><g ></g><g ></g></g><image  id="v-2911"></image></g></g><!--z-index:37--><g   id="j_124"  transform="translate(1365,1700)" style=""><g  id="v-2915" style="opacity: 1;"><rect  id="v-2916" rx="20" ry="20" stroke="#e68da0" stroke-width="2" pointer-events="visiblePainted" fill="#ff9db2" width="450" height="300" style="fill: rgb(255, 157, 178); stroke: rgb(230, 141, 160);"></rect><text  id="v-2917" font-size="34" xml:space="preserve" y="0.8em" font-weight="bold" text-anchor="middle" pointer-events="visible" font-family="Roboto" fill="#000000" transform="matrix(1,0,0,1,225,88.0999984741211)" style="fill: rgb(0, 0, 0);"><tspan  dy="0">AI as a Service</tspan></text><text  id="v-2918" font-size="17" xml:space="preserve" y="0.8em" text-anchor="middle" font-family="Roboto" fill="#000000" transform="matrix(1,0,0,1,225,128.89999389648438)" style="fill: rgb(0, 0, 0);"><tspan  dy="0">[Software System]</tspan></text><text  id="v-2919" font-size="24" xml:space="preserve" y="0.8em" text-anchor="middle" font-family="Roboto" fill="#000000" transform="matrix(1,0,0,1,225,159.3000030517578)" style="fill: rgb(0, 0, 0);"><tspan  dy="0">Allows users to deploy an AI</tspan><tspan dy="1.2em" x="0" >application as a service.</tspan></text><g  id="v-2920" color="#000000" transform="matrix(1,0,0,1,210,268)" style="fill: rgb(0, 0, 0);" display="none"><g  transform="translate(5 0)"><svg xmlns="http://www.w3.org/2000/svg" width="20" height="20" fill="currentColor" viewBox="0 0 16 16"><path fill-rule="evenodd" d="M6.5 12a5.5 5.5 0 1 0 0-11 5.5 5.5 0 0 0 0 11zM13 6.5a6.5 6.5 0 1 1-13 0 6.5 6.5 0 0 1 13 0z"></path><path d="M10.344 11.742c.03.04.062.078.098.115l3.85 3.85a1 1 0 0 0 1.415-1.414l-3.85-3.85a1.007 1.007 0 0 0-.115-.1 6.538 6.538 0 0 1-1.398 1.4z"></path><path fill-rule="evenodd" d="M6.5 3a.5.5 0 0 1 .5.5V6h2.5a.5.5 0 0 1 0 1H7v2.5a.5.5 0 0 1-1 0V7H3.5a.5.5 0 0 1 0-1H6V3.5a.5.5 0 0 1 .5-.5z"></path></svg></g><g ></g><g ></g><g ></g></g><image  id="v-2921"></image></g></g><!--z-index:38--><g   id="j_125" ><path  stroke="#707070" d="M 1566 415 L 1561 460 C 1560.3333333333333 466.66666666666663 1556.6666666666665 470 1550 470 L 740 470 C 733.3333333333333 470 730 473.3333333333333 730 480 L 736 660" id="v-2936" stroke-width="2" stroke-dasharray="30 30" fill="none"></path><path  fill="black" stroke="black" d="M 0 0 0 0" transform="matrix(-0.11683083325624466,0.993151843547821,-0.993151843547821,-0.11683083325624466,1566.469970703125,415)"></path><path  fill="#707070" stroke="#707070" d="M 20 0 L 0 10 L 20 20 z" id="v-2938" transform="matrix(-0.02940824255347252,-0.9995675086975098,0.9995675086975098,-0.02940824255347252,725.5942993164062,660.2940673828125)"></path><path  d="M 1566 415 L 1561 460 C 1560.3333333333333 466.66666666666663 1556.6666666666665 470 1550 470 L 740 470 C 733.3333333333333 470 730 473.3333333333333 730 480 L 736 660" id="v-2937" fill="none" style="cursor: default;"></path><g ><g id="v-2930"  label-idx="0" cursor="move" transform="matrix(1,0,0,1,1077.8218994140625,470)" style="cursor: default;"><rect joint-selector="rect" id="v-2933" fill="#ffffff" rx="3" ry="3" pointer-events="none" width="187.72259521484375" height="89.40990447998047" transform="matrix(1,0,0,1,-93.69999694824219,-44.70000076293945)"></rect><text joint-selector="text" id="v-2932" font-size="24px" xml:space="preserve" y="0.8em" fill="#707070" text-anchor="middle" pointer-events="none" font-family="Roboto" font-weight="normal" transform="matrix(1,0,0,1,0,-40)"><tspan  dy="0">1: Enable/request</tspan><tspan dy="1.2em" x="0" >MLflow to track</tspan><tspan dy="1.2em" x="0" >experiments</tspan></text></g><g id="v-2931"  label-idx="1" cursor="move" transform="matrix(1,0,0,1,1067.8218994140625,525.2000122070312)" style="cursor: default;"><rect joint-selector="rect" id="v-2935" fill="#ffffff" rx="3" ry="3"  width="0" height="0" transform="matrix(1,0,0,1,0,0)" display="none"></rect><text joint-selector="text" id="v-2934" fill="#000000" font-size="14" text-anchor="middle" pointer-events="none"></text></g></g><g  display="none"><g  transform="translate(1560, 470)" id="v-2926"><circle  idx="0" r="10"></circle><path  idx="0" d="M16,5.333c-7.732,0-14,4.701-14,10.5c0,1.982,0.741,3.833,2.016,5.414L2,25.667l5.613-1.441c2.339,1.317,5.237,2.107,8.387,2.107c7.732,0,14-4.701,14-10.5C30,10.034,23.732,5.333,16,5.333z" transform="translate(5, -33)"></path><path  idx="0" transform="scale(.8) translate(9.5, -37)" d="M24.778,21.419 19.276,15.917 24.777,10.415 21.949,7.585 16.447,13.087 10.945,7.585 8.117,10.415 13.618,15.917 8.116,21.419 10.946,24.248 16.447,18.746 21.948,24.248z"><title>Remove vertex.</title></path></g><g  transform="translate(730, 470)" id="v-2927"><circle  idx="1" r="10"></circle><path  idx="1" d="M16,5.333c-7.732,0-14,4.701-14,10.5c0,1.982,0.741,3.833,2.016,5.414L2,25.667l5.613-1.441c2.339,1.317,5.237,2.107,8.387,2.107c7.732,0,14-4.701,14-10.5C30,10.034,23.732,5.333,16,5.333z" transform="translate(5, -33)"></path><path  idx="1" transform="scale(.8) translate(9.5, -37)" d="M24.778,21.419 19.276,15.917 24.777,10.415 21.949,7.585 16.447,13.087 10.945,7.585 8.117,10.415 13.618,15.917 8.116,21.419 10.946,24.248 16.447,18.746 21.948,24.248z"><title>Remove vertex.</title></path></g></g><g  id="v-2940" display="none"><g  id="v-2928"><path  end="source" d="M 26 0 L 0 13 L 26 26 z"></path></g><g  id="v-2929"><path  end="target" d="M 26 0 L 0 13 L 26 26 z"></path></g></g><g  id="v-2939" display="none"><g  id="v-2925" transform="translate(1561.5827389570063, 454.7553493869448) "><g  event="remove"><circle r="11"></circle><path transform="scale(.8) translate(-16, -16)" d="M24.778,21.419 19.276,15.917 24.777,10.415 21.949,7.585 16.447,13.087 10.945,7.585 8.117,10.415 13.618,15.917 8.116,21.419 10.946,24.248 16.447,18.746 21.948,24.248z"></path><title>Remove link.</title></g><g  event="link:options"><circle r="11" transform="translate(25)"></circle><path fill="white" transform="scale(.55) translate(29, -16)" d="M31.229,17.736c0.064-0.571,0.104-1.148,0.104-1.736s-0.04-1.166-0.104-1.737l-4.377-1.557c-0.218-0.716-0.504-1.401-0.851-2.05l1.993-4.192c-0.725-0.91-1.549-1.734-2.458-2.459l-4.193,1.994c-0.647-0.347-1.334-0.632-2.049-0.849l-1.558-4.378C17.165,0.708,16.588,0.667,16,0.667s-1.166,0.041-1.737,0.105L12.707,5.15c-0.716,0.217-1.401,0.502-2.05,0.849L6.464,4.005C5.554,4.73,4.73,5.554,4.005,6.464l1.994,4.192c-0.347,0.648-0.632,1.334-0.849,2.05l-4.378,1.557C0.708,14.834,0.667,15.412,0.667,16s0.041,1.165,0.105,1.736l4.378,1.558c0.217,0.715,0.502,1.401,0.849,2.049l-1.994,4.193c0.725,0.909,1.549,1.733,2.459,2.458l4.192-1.993c0.648,0.347,1.334,0.633,2.05,0.851l1.557,4.377c0.571,0.064,1.148,0.104,1.737,0.104c0.588,0,1.165-0.04,1.736-0.104l1.558-4.377c0.715-0.218,1.399-0.504,2.049-0.851l4.193,1.993c0.909-0.725,1.733-1.549,2.458-2.458l-1.993-4.193c0.347-0.647,0.633-1.334,0.851-2.049L31.229,17.736zM16,20.871c-2.69,0-4.872-2.182-4.872-4.871c0-2.69,2.182-4.872,4.872-4.872c2.689,0,4.871,2.182,4.871,4.872C20.871,18.689,18.689,20.871,16,20.871z"></path><title>Link options.</title></g></g></g></g><!--z-index:39--><g   id="j_126" ><path  stroke="#707070" d="M 1592 415 L 1594 630" id="v-2953" stroke-width="2" stroke-dasharray="30 30" fill="none"></path><path  fill="black" stroke="black" d="M 0 0 0 0" transform="matrix(0.008836919441819191,0.9999609589576721,-0.9999609589576721,0.008836919441819191,1591.77001953125,415)"></path><path  fill="#707070" stroke="#707070" d="M 20 0 L 0 10 L 20 20 z" id="v-2955" transform="matrix(-0.008836786262691021,-0.9999609589576721,0.9999609589576721,-0.008836786262691021,1583.67041015625,630.0883178710938)"></path><path  d="M 1592 415 L 1594 630" id="v-2954" fill="none" style="cursor: default;"></path><g ><g id="v-2947"  label-idx="0" cursor="move" transform="matrix(1,0,0,1,1593,522.5)" style="cursor: default;"><rect joint-selector="rect" id="v-2950" fill="#ffffff" rx="3" ry="3" pointer-events="none" width="180.34446716308594" height="60.609901428222656" transform="matrix(1,0,0,1,-89.5999984741211,-30.299999237060547)"></rect><text joint-selector="text" id="v-2949" font-size="24px" xml:space="preserve" y="0.8em" fill="#707070" text-anchor="middle" pointer-events="none" font-family="Roboto" font-weight="normal" transform="matrix(1,0,0,1,0,-25.600000381469727)"><tspan  dy="0">2: Initiates a new</tspan><tspan dy="1.2em" x="0" >experiment-run</tspan></text></g><g id="v-2948"  label-idx="1" cursor="move" transform="matrix(1,0,0,1,1583,563.2999877929688)" style="cursor: default;"><rect joint-selector="rect" id="v-2952" fill="#ffffff" rx="3" ry="3"  width="0" height="0" transform="matrix(1,0,0,1,0,0)" display="none"></rect><text joint-selector="text" id="v-2951" fill="#000000" font-size="14" text-anchor="middle" pointer-events="none"></text></g></g><g  display="none"></g><g  id="v-2957" display="none"><g  id="v-2945"><path  end="source" d="M 26 0 L 0 13 L 26 26 z"></path></g><g  id="v-2946"><path  end="target" d="M 26 0 L 0 13 L 26 26 z"></path></g></g><g  id="v-2956" display="none"><g  id="v-2944" transform="translate(1592.3720769250892, 454.99826944708747) "><g  event="remove"><circle r="11"></circle><path transform="scale(.8) translate(-16, -16)" d="M24.778,21.419 19.276,15.917 24.777,10.415 21.949,7.585 16.447,13.087 10.945,7.585 8.117,10.415 13.618,15.917 8.116,21.419 10.946,24.248 16.447,18.746 21.948,24.248z"></path><title>Remove link.</title></g><g  event="link:options"><circle r="11" transform="translate(25)"></circle><path fill="white" transform="scale(.55) translate(29, -16)" d="M31.229,17.736c0.064-0.571,0.104-1.148,0.104-1.736s-0.04-1.166-0.104-1.737l-4.377-1.557c-0.218-0.716-0.504-1.401-0.851-2.05l1.993-4.192c-0.725-0.91-1.549-1.734-2.458-2.459l-4.193,1.994c-0.647-0.347-1.334-0.632-2.049-0.849l-1.558-4.378C17.165,0.708,16.588,0.667,16,0.667s-1.166,0.041-1.737,0.105L12.707,5.15c-0.716,0.217-1.401,0.502-2.05,0.849L6.464,4.005C5.554,4.73,4.73,5.554,4.005,6.464l1.994,4.192c-0.347,0.648-0.632,1.334-0.849,2.05l-4.378,1.557C0.708,14.834,0.667,15.412,0.667,16s0.041,1.165,0.105,1.736l4.378,1.558c0.217,0.715,0.502,1.401,0.849,2.049l-1.994,4.193c0.725,0.909,1.549,1.733,2.459,2.458l4.192-1.993c0.648,0.347,1.334,0.633,2.05,0.851l1.557,4.377c0.571,0.064,1.148,0.104,1.737,0.104c0.588,0,1.165-0.04,1.736-0.104l1.558-4.377c0.715-0.218,1.399-0.504,2.049-0.851l4.193,1.993c0.909-0.725,1.733-1.549,2.458-2.458l-1.993-4.193c0.347-0.647,0.633-1.334,0.851-2.049L31.229,17.736zM16,20.871c-2.69,0-4.872-2.182-4.872-4.871c0-2.69,2.182-4.872,4.872-4.872c2.689,0,4.871,2.182,4.871,4.872C20.871,18.689,18.689,20.871,16,20.871z"></path><title>Link options.</title></g></g></g></g><!--z-index:40--><g   id="j_127" ><path  stroke="#707070" d="M 1820 781 L 2285 784" id="v-2970" stroke-width="2" stroke-dasharray="30 30" fill="none"></path><path  fill="black" stroke="black" d="M 0 0 0 0" transform="matrix(0.9999850988388062,0.005462284199893475,-0.005462284199893475,0.9999850988388062,1820,781.22998046875)"></path><path  fill="#707070" stroke="#707070" d="M 20 0 L 0 10 L 20 20 z" id="v-2972" transform="matrix(-0.9999850988388062,-0.0054623824544250965,0.0054623824544250965,-0.9999850988388062,2284.945556640625,793.7698974609375)"></path><path  d="M 1820 781 L 2285 784" id="v-2971" fill="none" style="cursor: default;"></path><g ><g id="v-2964"  label-idx="0" cursor="move" transform="matrix(1,0,0,1,2052.5,782.5)" style="cursor: default;"><rect joint-selector="rect" id="v-2967" fill="#ffffff" rx="3" ry="3" pointer-events="none" width="165.8974609375" height="118.20989990234375" transform="matrix(1,0,0,1,-82.80000305175781,-59.099998474121094)"></rect><text joint-selector="text" id="v-2966" font-size="24px" xml:space="preserve" y="0.8em" fill="#707070" text-anchor="middle" pointer-events="none" font-family="Roboto" font-weight="normal" transform="matrix(1,0,0,1,0,-54.400001525878906)"><tspan  dy="0">3: Gets secrets</tspan><tspan dy="1.2em" x="0" >for mlflow</tspan><tspan dy="1.2em" x="0" >tracking server</tspan><tspan dy="1.2em" x="0" >users into Vault</tspan></text></g><g id="v-2965"  label-idx="1" cursor="move" transform="matrix(1,0,0,1,2042.5,852.0999755859375)" style="cursor: default;"><rect joint-selector="rect" id="v-2969" fill="#ffffff" rx="3" ry="3"  width="0" height="0" transform="matrix(1,0,0,1,0,0)" display="none"></rect><text joint-selector="text" id="v-2968" fill="#000000" font-size="14" text-anchor="middle" pointer-events="none"></text></g></g><g  display="none"></g><g  id="v-2974" display="none"><g  id="v-2962"><path  end="source" d="M 26 0 L 0 13 L 26 26 z"></path></g><g  id="v-2963"><path  end="target" d="M 26 0 L 0 13 L 26 26 z"></path></g></g><g  id="v-2973" display="none"><g  id="v-2961" transform="translate(1859.9991675598053, 781.2580591455471) "><g  event="remove"><circle r="11"></circle><path transform="scale(.8) translate(-16, -16)" d="M24.778,21.419 19.276,15.917 24.777,10.415 21.949,7.585 16.447,13.087 10.945,7.585 8.117,10.415 13.618,15.917 8.116,21.419 10.946,24.248 16.447,18.746 21.948,24.248z"></path><title>Remove link.</title></g><g  event="link:options"><circle r="11" transform="translate(25)"></circle><path fill="white" transform="scale(.55) translate(29, -16)" d="M31.229,17.736c0.064-0.571,0.104-1.148,0.104-1.736s-0.04-1.166-0.104-1.737l-4.377-1.557c-0.218-0.716-0.504-1.401-0.851-2.05l1.993-4.192c-0.725-0.91-1.549-1.734-2.458-2.459l-4.193,1.994c-0.647-0.347-1.334-0.632-2.049-0.849l-1.558-4.378C17.165,0.708,16.588,0.667,16,0.667s-1.166,0.041-1.737,0.105L12.707,5.15c-0.716,0.217-1.401,0.502-2.05,0.849L6.464,4.005C5.554,4.73,4.73,5.554,4.005,6.464l1.994,4.192c-0.347,0.648-0.632,1.334-0.849,2.05l-4.378,1.557C0.708,14.834,0.667,15.412,0.667,16s0.041,1.165,0.105,1.736l4.378,1.558c0.217,0.715,0.502,1.401,0.849,2.049l-1.994,4.193c0.725,0.909,1.549,1.733,2.459,2.458l4.192-1.993c0.648,0.347,1.334,0.633,2.05,0.851l1.557,4.377c0.571,0.064,1.148,0.104,1.737,0.104c0.588,0,1.165-0.04,1.736-0.104l1.558-4.377c0.715-0.218,1.399-0.504,2.049-0.851l4.193,1.993c0.909-0.725,1.733-1.549,2.458-2.458l-1.993-4.193c0.347-0.647,0.633-1.334,0.851-2.049L31.229,17.736zM16,20.871c-2.69,0-4.872-2.182-4.872-4.871c0-2.69,2.182-4.872,4.872-4.872c2.689,0,4.871,2.182,4.871,4.872C20.871,18.689,18.689,20.871,16,20.871z"></path><title>Link options.</title></g></g></g></g><!--z-index:41--><g   id="j_128" ><path  stroke="#707070" d="M 1230 1164 L 1300 1165 C 1306.6666666666665 1165 1310 1161.6666666666665 1310 1155 L 1315 835 C 1315 828.3333333333333 1318.3333333333333 824.3333333333333 1325 823 L 1370 816" id="v-2989" stroke-width="2" stroke-dasharray="30 30" fill="none"></path><path  fill="black" stroke="black" d="M 0 0 0 0" transform="matrix(0.9998659491539001,0.0163728054612875,-0.0163728054612875,0.9998659491539001,1230,1163.68994140625)"></path><path  fill="#707070" stroke="#707070" d="M 20 0 L 0 10 L 20 20 z" id="v-2991" transform="matrix(-0.9873283505439758,0.1586906462907791,-0.1586906462907791,-0.9873283505439758,1371.5869140625,826.0332641601562)"></path><path  d="M 1230 1164 L 1300 1165 C 1306.6666666666665 1165 1310 1161.6666666666665 1310 1155 L 1315 835 C 1315 828.3333333333333 1318.3333333333333 824.3333333333333 1325 823 L 1370 816" id="v-2990" fill="none" style="cursor: default;"></path><g ><g id="v-2983"  label-idx="0" cursor="move" transform="matrix(1,0,0,1,1312.316650390625,1006.7366333007812)" style="cursor: default;"><rect joint-selector="rect" id="v-2986" fill="#ffffff" rx="3" ry="3" pointer-events="none" width="188.0318603515625" height="118.20989990234375" transform="matrix(1,0,0,1,-92.9000015258789,-59.099998474121094)"></rect><text joint-selector="text" id="v-2985" font-size="24px" xml:space="preserve" y="0.8em" fill="#707070" text-anchor="middle" pointer-events="none" font-family="Roboto" font-weight="normal" transform="matrix(1,0,0,1,0,-54.400001525878906)"><tspan  dy="0">4: Logs exp-run</tspan><tspan dy="1.2em" x="0" >parametres,</tspan><tspan dy="1.2em" x="0" >metrics to mlflow</tspan><tspan dy="1.2em" x="0" >during model dev</tspan></text></g><g id="v-2984"  label-idx="1" cursor="move" transform="matrix(1,0,0,1,1302.316650390625,1076.336669921875)" style="cursor: default;"><rect joint-selector="rect" id="v-2988" fill="#ffffff" rx="3" ry="3"  width="0" height="0" transform="matrix(1,0,0,1,0,0)" display="none"></rect><text joint-selector="text" id="v-2987" fill="#000000" font-size="14" text-anchor="middle" pointer-events="none"></text></g></g><g  display="none"><g  transform="translate(1310, 1165)" id="v-2979"><circle  idx="0" r="10"></circle><path  idx="0" d="M16,5.333c-7.732,0-14,4.701-14,10.5c0,1.982,0.741,3.833,2.016,5.414L2,25.667l5.613-1.441c2.339,1.317,5.237,2.107,8.387,2.107c7.732,0,14-4.701,14-10.5C30,10.034,23.732,5.333,16,5.333z" transform="translate(5, -33)"></path><path  idx="0" transform="scale(.8) translate(9.5, -37)" d="M24.778,21.419 19.276,15.917 24.777,10.415 21.949,7.585 16.447,13.087 10.945,7.585 8.117,10.415 13.618,15.917 8.116,21.419 10.946,24.248 16.447,18.746 21.948,24.248z"><title>Remove vertex.</title></path></g><g  transform="translate(1315, 825)" id="v-2980"><circle  idx="1" r="10"></circle><path  idx="1" d="M16,5.333c-7.732,0-14,4.701-14,10.5c0,1.982,0.741,3.833,2.016,5.414L2,25.667l5.613-1.441c2.339,1.317,5.237,2.107,8.387,2.107c7.732,0,14-4.701,14-10.5C30,10.034,23.732,5.333,16,5.333z" transform="translate(5, -33)"></path><path  idx="1" transform="scale(.8) translate(9.5, -37)" d="M24.778,21.419 19.276,15.917 24.777,10.415 21.949,7.585 16.447,13.087 10.945,7.585 8.117,10.415 13.618,15.917 8.116,21.419 10.946,24.248 16.447,18.746 21.948,24.248z"><title>Remove vertex.</title></path></g></g><g  id="v-2993" display="none"><g  id="v-2981"><path  end="source" d="M 26 0 L 0 13 L 26 26 z"></path></g><g  id="v-2982"><path  end="target" d="M 26 0 L 0 13 L 26 26 z"></path></g></g><g  id="v-2992" display="none"><g  id="v-2978" transform="translate(1269.9959189919805, 1164.571370271314) "><g  event="remove"><circle r="11"></circle><path transform="scale(.8) translate(-16, -16)" d="M24.778,21.419 19.276,15.917 24.777,10.415 21.949,7.585 16.447,13.087 10.945,7.585 8.117,10.415 13.618,15.917 8.116,21.419 10.946,24.248 16.447,18.746 21.948,24.248z"></path><title>Remove link.</title></g><g  event="link:options"><circle r="11" transform="translate(25)"></circle><path fill="white" transform="scale(.55) translate(29, -16)" d="M31.229,17.736c0.064-0.571,0.104-1.148,0.104-1.736s-0.04-1.166-0.104-1.737l-4.377-1.557c-0.218-0.716-0.504-1.401-0.851-2.05l1.993-4.192c-0.725-0.91-1.549-1.734-2.458-2.459l-4.193,1.994c-0.647-0.347-1.334-0.632-2.049-0.849l-1.558-4.378C17.165,0.708,16.588,0.667,16,0.667s-1.166,0.041-1.737,0.105L12.707,5.15c-0.716,0.217-1.401,0.502-2.05,0.849L6.464,4.005C5.554,4.73,4.73,5.554,4.005,6.464l1.994,4.192c-0.347,0.648-0.632,1.334-0.849,2.05l-4.378,1.557C0.708,14.834,0.667,15.412,0.667,16s0.041,1.165,0.105,1.736l4.378,1.558c0.217,0.715,0.502,1.401,0.849,2.049l-1.994,4.193c0.725,0.909,1.549,1.733,2.459,2.458l4.192-1.993c0.648,0.347,1.334,0.633,2.05,0.851l1.557,4.377c0.571,0.064,1.148,0.104,1.737,0.104c0.588,0,1.165-0.04,1.736-0.104l1.558-4.377c0.715-0.218,1.399-0.504,2.049-0.851l4.193,1.993c0.909-0.725,1.733-1.549,2.458-2.458l-1.993-4.193c0.347-0.647,0.633-1.334,0.851-2.049L31.229,17.736zM16,20.871c-2.69,0-4.872-2.182-4.872-4.871c0-2.69,2.182-4.872,4.872-4.872c2.689,0,4.871,2.182,4.871,4.872C20.871,18.689,18.689,20.871,16,20.871z"></path><title>Link options.</title></g></g></g></g><!--z-index:42--><g   id="j_129" ><path  stroke="#707070" d="M 1007 1010 L 1010 785 C 1009.9999999999999 778.3333333333333 1013.3333333333333 775 1020 775 L 1370 778" id="v-3007" stroke-width="2" stroke-dasharray="30 30" fill="none"></path><path  fill="black" stroke="black" d="M 0 0 0 0" transform="matrix(0.012977751903235912,-0.9999157786369324,0.9999157786369324,0.012977751903235912,1006.9500122070312,1010)"></path><path  fill="#707070" stroke="#707070" d="M 20 0 L 0 10 L 20 20 z" id="v-3009" transform="matrix(-0.9999634027481079,-0.008555300533771515,0.008555300533771515,-0.9999634027481079,1369.9144287109375,788.0796508789062)"></path><path  d="M 1007 1010 L 1010 785 C 1009.9999999999999 778.3333333333333 1013.3333333333333 775 1020 775 L 1370 778" id="v-3008" fill="none" style="cursor: default;"></path><g ><g id="v-3001"  label-idx="0" cursor="move" transform="matrix(1,0,0,1,1074.379150390625,775.4661254882812)" style="cursor: default;"><rect joint-selector="rect" id="v-3004" fill="#ffffff" rx="3" ry="3" pointer-events="none" width="166.11837768554688" height="118.20989990234375" transform="matrix(1,0,0,1,-82.5,-59.099998474121094)"></rect><text joint-selector="text" id="v-3003" font-size="24px" xml:space="preserve" y="0.8em" fill="#707070" text-anchor="middle" pointer-events="none" font-family="Roboto" font-weight="normal" transform="matrix(1,0,0,1,0,-54.400001525878906)"><tspan  dy="0">5: Registers the</tspan><tspan dy="1.2em" x="0" >model with</tspan><tspan dy="1.2em" x="0" >tags/alias into</tspan><tspan dy="1.2em" x="0" >Model Registry</tspan></text></g><g id="v-3002"  label-idx="1" cursor="move" transform="matrix(1,0,0,1,1064.379150390625,845.0661010742188)" style="cursor: default;"><rect joint-selector="rect" id="v-3006" fill="#ffffff" rx="3" ry="3"  width="0" height="0" transform="matrix(1,0,0,1,0,0)" display="none"></rect><text joint-selector="text" id="v-3005" fill="#000000" font-size="14" text-anchor="middle" pointer-events="none"></text></g></g><g  display="none"><g  transform="translate(1010, 775)" id="v-2998"><circle  idx="0" r="10"></circle><path  idx="0" d="M16,5.333c-7.732,0-14,4.701-14,10.5c0,1.982,0.741,3.833,2.016,5.414L2,25.667l5.613-1.441c2.339,1.317,5.237,2.107,8.387,2.107c7.732,0,14-4.701,14-10.5C30,10.034,23.732,5.333,16,5.333z" transform="translate(5, -33)"></path><path  idx="0" transform="scale(.8) translate(9.5, -37)" d="M24.778,21.419 19.276,15.917 24.777,10.415 21.949,7.585 16.447,13.087 10.945,7.585 8.117,10.415 13.618,15.917 8.116,21.419 10.946,24.248 16.447,18.746 21.948,24.248z"><title>Remove vertex.</title></path></g></g><g  id="v-3011" display="none"><g  id="v-2999"><path  end="source" d="M 26 0 L 0 13 L 26 26 z"></path></g><g  id="v-3000"><path  end="target" d="M 26 0 L 0 13 L 26 26 z"></path></g></g><g  id="v-3010" display="none"><g  id="v-2997" transform="translate(1007.5332859322459, 970.0035550815518) "><g  event="remove"><circle r="11"></circle><path transform="scale(.8) translate(-16, -16)" d="M24.778,21.419 19.276,15.917 24.777,10.415 21.949,7.585 16.447,13.087 10.945,7.585 8.117,10.415 13.618,15.917 8.116,21.419 10.946,24.248 16.447,18.746 21.948,24.248z"></path><title>Remove link.</title></g><g  event="link:options"><circle r="11" transform="translate(25)"></circle><path fill="white" transform="scale(.55) translate(29, -16)" d="M31.229,17.736c0.064-0.571,0.104-1.148,0.104-1.736s-0.04-1.166-0.104-1.737l-4.377-1.557c-0.218-0.716-0.504-1.401-0.851-2.05l1.993-4.192c-0.725-0.91-1.549-1.734-2.458-2.459l-4.193,1.994c-0.647-0.347-1.334-0.632-2.049-0.849l-1.558-4.378C17.165,0.708,16.588,0.667,16,0.667s-1.166,0.041-1.737,0.105L12.707,5.15c-0.716,0.217-1.401,0.502-2.05,0.849L6.464,4.005C5.554,4.73,4.73,5.554,4.005,6.464l1.994,4.192c-0.347,0.648-0.632,1.334-0.849,2.05l-4.378,1.557C0.708,14.834,0.667,15.412,0.667,16s0.041,1.165,0.105,1.736l4.378,1.558c0.217,0.715,0.502,1.401,0.849,2.049l-1.994,4.193c0.725,0.909,1.549,1.733,2.459,2.458l4.192-1.993c0.648,0.347,1.334,0.633,2.05,0.851l1.557,4.377c0.571,0.064,1.148,0.104,1.737,0.104c0.588,0,1.165-0.04,1.736-0.104l1.558-4.377c0.715-0.218,1.399-0.504,2.049-0.851l4.193,1.993c0.909-0.725,1.733-1.549,2.458-2.458l-1.993-4.193c0.347-0.647,0.633-1.334,0.851-2.049L31.229,17.736zM16,20.871c-2.69,0-4.872-2.182-4.872-4.871c0-2.69,2.182-4.872,4.872-4.872c2.689,0,4.871,2.182,4.871,4.872C20.871,18.689,18.689,20.871,16,20.871z"></path><title>Link options.</title></g></g></g></g><!--z-index:43--><g   id="j_130" ><path  stroke="#707070" d="M 1585 1275 L 1585 1172 C 1584.9226888020833 1165.5911458333333 1584.9226888020833 1158.9244791666665 1585 1152 L 1591 930" id="v-3025" stroke-width="2" stroke-dasharray="30 30" fill="none"></path><path  fill="black" stroke="black" d="M 0 0 0 0" transform="matrix(-0.00040799626731313765,-0.9999999403953552,0.9999999403953552,-0.00040799626731313765,1584.9300537109375,1275)"></path><path  fill="#707070" stroke="#707070" d="M 20 0 L 0 10 L 20 20 z" id="v-3027" transform="matrix(-0.026437846943736076,0.9996504783630371,-0.9996504783630371,-0.026437846943736076,1601.0264892578125,930.264404296875)"></path><path  d="M 1585 1275 L 1585 1172 C 1584.9226888020833 1165.5911458333333 1584.9226888020833 1158.9244791666665 1585 1152 L 1591 930" id="v-3026" fill="none" style="cursor: default;"></path><g ><g id="v-3019"  label-idx="0" cursor="move" transform="matrix(1,0,0,1,1586.33837890625,1102.477783203125)" style="cursor: default;"><rect joint-selector="rect" id="v-3022" fill="#ffffff" rx="3" ry="3" pointer-events="none" width="156.0010528564453" height="89.40990447998047" transform="matrix(1,0,0,1,-77.9000015258789,-44.70000076293945)"></rect><text joint-selector="text" id="v-3021" font-size="24px" xml:space="preserve" y="0.8em" fill="#707070" text-anchor="middle" pointer-events="none" font-family="Roboto" font-weight="normal" transform="matrix(1,0,0,1,0,-40)"><tspan  dy="0">6: Selects best</tspan><tspan dy="1.2em" x="0" >model for</tspan><tspan dy="1.2em" x="0" >deployment</tspan></text></g><g id="v-3020"  label-idx="1" cursor="move" transform="matrix(1,0,0,1,1576.33837890625,1157.677734375)" style="cursor: default;"><rect joint-selector="rect" id="v-3024" fill="#ffffff" rx="3" ry="3"  width="0" height="0" transform="matrix(1,0,0,1,0,0)" display="none"></rect><text joint-selector="text" id="v-3023" fill="#000000" font-size="14" text-anchor="middle" pointer-events="none"></text></g></g><g  display="none"><g  transform="translate(1584.884033203125, 1162.38671875)" id="v-3016"><circle  idx="0" r="10"></circle><path  idx="0" d="M16,5.333c-7.732,0-14,4.701-14,10.5c0,1.982,0.741,3.833,2.016,5.414L2,25.667l5.613-1.441c2.339,1.317,5.237,2.107,8.387,2.107c7.732,0,14-4.701,14-10.5C30,10.034,23.732,5.333,16,5.333z" transform="translate(5, -33)"></path><path  idx="0" transform="scale(.8) translate(9.5, -37)" d="M24.778,21.419 19.276,15.917 24.777,10.415 21.949,7.585 16.447,13.087 10.945,7.585 8.117,10.415 13.618,15.917 8.116,21.419 10.946,24.248 16.447,18.746 21.948,24.248z"><title>Remove vertex.</title></path></g></g><g  id="v-3029" display="none"><g  id="v-3017"><path  end="source" d="M 26 0 L 0 13 L 26 26 z"></path></g><g  id="v-3018"><path  end="target" d="M 26 0 L 0 13 L 26 26 z"></path></g></g><g  id="v-3028" display="none"><g  id="v-3015" transform="translate(1585, 1235) "><g  event="remove"><circle r="11"></circle><path transform="scale(.8) translate(-16, -16)" d="M24.778,21.419 19.276,15.917 24.777,10.415 21.949,7.585 16.447,13.087 10.945,7.585 8.117,10.415 13.618,15.917 8.116,21.419 10.946,24.248 16.447,18.746 21.948,24.248z"></path><title>Remove link.</title></g><g  event="link:options"><circle r="11" transform="translate(25)"></circle><path fill="white" transform="scale(.55) translate(29, -16)" d="M31.229,17.736c0.064-0.571,0.104-1.148,0.104-1.736s-0.04-1.166-0.104-1.737l-4.377-1.557c-0.218-0.716-0.504-1.401-0.851-2.05l1.993-4.192c-0.725-0.91-1.549-1.734-2.458-2.459l-4.193,1.994c-0.647-0.347-1.334-0.632-2.049-0.849l-1.558-4.378C17.165,0.708,16.588,0.667,16,0.667s-1.166,0.041-1.737,0.105L12.707,5.15c-0.716,0.217-1.401,0.502-2.05,0.849L6.464,4.005C5.554,4.73,4.73,5.554,4.005,6.464l1.994,4.192c-0.347,0.648-0.632,1.334-0.849,2.05l-4.378,1.557C0.708,14.834,0.667,15.412,0.667,16s0.041,1.165,0.105,1.736l4.378,1.558c0.217,0.715,0.502,1.401,0.849,2.049l-1.994,4.193c0.725,0.909,1.549,1.733,2.459,2.458l4.192-1.993c0.648,0.347,1.334,0.633,2.05,0.851l1.557,4.377c0.571,0.064,1.148,0.104,1.737,0.104c0.588,0,1.165-0.04,1.736-0.104l1.558-4.377c0.715-0.218,1.399-0.504,2.049-0.851l4.193,1.993c0.909-0.725,1.733-1.549,2.458-2.458l-1.993-4.193c0.347-0.647,0.633-1.334,0.851-2.049L31.229,17.736zM16,20.871c-2.69,0-4.872-2.182-4.872-4.871c0-2.69,2.182-4.872,4.872-4.872c2.689,0,4.871,2.182,4.871,4.872C20.871,18.689,18.689,20.871,16,20.871z"></path><title>Link options.</title></g></g></g></g><!--z-index:44--><g   id="j_131" ><path  stroke="#707070" d="M 2310 1414 L 1810 1421" id="v-3042" stroke-width="2" stroke-dasharray="30 30" fill="none"></path><path  fill="black" stroke="black" d="M 0 0 0 0" transform="matrix(-0.9998751878738403,0.015798013657331467,-0.015798013657331467,-0.9998751878738403,2310,1413.550048828125)"></path><path  fill="#707070" stroke="#707070" d="M 20 0 L 0 10 L 20 20 z" id="v-3044" transform="matrix(0.9998751878738403,-0.015798280015587807,0.015798280015587807,0.9998751878738403,1809.842041015625,1411.451171875)"></path><path  d="M 2310 1414 L 1810 1421" id="v-3043" fill="none" style="cursor: default;"></path><g ><g id="v-3036"  label-idx="0" cursor="move" transform="matrix(1,0,0,1,2060,1417.5)" style="cursor: default;"><rect joint-selector="rect" id="v-3039" fill="#ffffff" rx="3" ry="3" pointer-events="none" width="160.02146911621094" height="118.20989990234375" transform="matrix(1,0,0,1,-80,-59.099998474121094)"></rect><text joint-selector="text" id="v-3038" font-size="24px" xml:space="preserve" y="0.8em" fill="#707070" text-anchor="middle" pointer-events="none" font-family="Roboto" font-weight="normal" transform="matrix(1,0,0,1,0,-54.400001525878906)"><tspan  dy="0">7: Gets the</tspan><tspan dy="1.2em" x="0" >updated model</tspan><tspan dy="1.2em" x="0" >version for</tspan><tspan dy="1.2em" x="0" >deployment</tspan></text></g><g id="v-3037"  label-idx="1" cursor="move" transform="matrix(1,0,0,1,2050,1487.0999755859375)" style="cursor: default;"><rect joint-selector="rect" id="v-3041" fill="#ffffff" rx="3" ry="3"  width="0" height="0" transform="matrix(1,0,0,1,0,0)" display="none"></rect><text joint-selector="text" id="v-3040" fill="#000000" font-size="14" text-anchor="middle" pointer-events="none"></text></g></g><g  display="none"></g><g  id="v-3046" display="none"><g  id="v-3034"><path  end="source" d="M 26 0 L 0 13 L 26 26 z"></path></g><g  id="v-3035"><path  end="target" d="M 26 0 L 0 13 L 26 26 z"></path></g></g><g  id="v-3045" display="none"><g  id="v-3033" transform="translate(2270.0039194238543, 1414.5599451280661) "><g  event="remove"><circle r="11"></circle><path transform="scale(.8) translate(-16, -16)" d="M24.778,21.419 19.276,15.917 24.777,10.415 21.949,7.585 16.447,13.087 10.945,7.585 8.117,10.415 13.618,15.917 8.116,21.419 10.946,24.248 16.447,18.746 21.948,24.248z"></path><title>Remove link.</title></g><g  event="link:options"><circle r="11" transform="translate(25)"></circle><path fill="white" transform="scale(.55) translate(29, -16)" d="M31.229,17.736c0.064-0.571,0.104-1.148,0.104-1.736s-0.04-1.166-0.104-1.737l-4.377-1.557c-0.218-0.716-0.504-1.401-0.851-2.05l1.993-4.192c-0.725-0.91-1.549-1.734-2.458-2.459l-4.193,1.994c-0.647-0.347-1.334-0.632-2.049-0.849l-1.558-4.378C17.165,0.708,16.588,0.667,16,0.667s-1.166,0.041-1.737,0.105L12.707,5.15c-0.716,0.217-1.401,0.502-2.05,0.849L6.464,4.005C5.554,4.73,4.73,5.554,4.005,6.464l1.994,4.192c-0.347,0.648-0.632,1.334-0.849,2.05l-4.378,1.557C0.708,14.834,0.667,15.412,0.667,16s0.041,1.165,0.105,1.736l4.378,1.558c0.217,0.715,0.502,1.401,0.849,2.049l-1.994,4.193c0.725,0.909,1.549,1.733,2.459,2.458l4.192-1.993c0.648,0.347,1.334,0.633,2.05,0.851l1.557,4.377c0.571,0.064,1.148,0.104,1.737,0.104c0.588,0,1.165-0.04,1.736-0.104l1.558-4.377c0.715-0.218,1.399-0.504,2.049-0.851l4.193,1.993c0.909-0.725,1.733-1.549,2.458-2.458l-1.993-4.193c0.347-0.647,0.633-1.334,0.851-2.049L31.229,17.736zM16,20.871c-2.69,0-4.872-2.182-4.872-4.871c0-2.69,2.182-4.872,4.872-4.872c2.689,0,4.871,2.182,4.871,4.872C20.871,18.689,18.689,20.871,16,20.871z"></path><title>Link options.</title></g></g></g></g><!--z-index:45--><g   id="j_132" ><path  stroke="#707070" d="M 1587 1575 L 1588 1700" id="v-3059" stroke-width="2" stroke-dasharray="30 30" fill="none"></path><path  fill="black" stroke="black" d="M 0 0 0 0" transform="matrix(0.011839205399155617,0.9999299049377441,-0.9999299049377441,0.011839205399155617,1586.760009765625,1575)"></path><path  fill="#707070" stroke="#707070" d="M 20 0 L 0 10 L 20 20 z" id="v-3061" transform="matrix(-0.011839072220027447,-0.9999299049377441,0.9999299049377441,-0.011839072220027447,1578.24072265625,1700.118408203125)"></path><path  d="M 1587 1575 L 1588 1700" id="v-3060" fill="none" style="cursor: default;"></path><g ><g id="v-3053"  label-idx="0" cursor="move" transform="matrix(1,0,0,1,1587.5,1637.5)" style="cursor: default;"><rect joint-selector="rect" id="v-3056" fill="#ffffff" rx="3" ry="3" pointer-events="none" width="184.6299591064453" height="89.40990447998047" transform="matrix(1,0,0,1,-92.30000305175781,-44.70000076293945)"></rect><text joint-selector="text" id="v-3055" font-size="24px" xml:space="preserve" y="0.8em" fill="#707070" text-anchor="middle" pointer-events="none" font-family="Roboto" font-weight="normal" transform="matrix(1,0,0,1,0,-40)"><tspan  dy="0">8: Deploys best</tspan><tspan dy="1.2em" x="0" >performed model</tspan><tspan dy="1.2em" x="0" >in production</tspan></text></g><g id="v-3054"  label-idx="1" cursor="move" transform="matrix(1,0,0,1,1577.5,1692.699951171875)" style="cursor: default;"><rect joint-selector="rect" id="v-3058" fill="#ffffff" rx="3" ry="3"  width="0" height="0" transform="matrix(1,0,0,1,0,0)" display="none"></rect><text joint-selector="text" id="v-3057" fill="#000000" font-size="14" text-anchor="middle" pointer-events="none"></text></g></g><g  display="none"></g><g  id="v-3063" display="none"><g  id="v-3051"><path  end="source" d="M 26 0 L 0 13 L 26 26 z"></path></g><g  id="v-3052"><path  end="target" d="M 26 0 L 0 13 L 26 26 z"></path></g></g><g  id="v-3062" display="none"><g  id="v-3050" transform="translate(1587.3199897604914, 1614.9987200614366) "><g  event="remove"><circle r="11"></circle><path transform="scale(.8) translate(-16, -16)" d="M24.778,21.419 19.276,15.917 24.777,10.415 21.949,7.585 16.447,13.087 10.945,7.585 8.117,10.415 13.618,15.917 8.116,21.419 10.946,24.248 16.447,18.746 21.948,24.248z"></path><title>Remove link.</title></g><g  event="link:options"><circle r="11" transform="translate(25)"></circle><path fill="white" transform="scale(.55) translate(29, -16)" d="M31.229,17.736c0.064-0.571,0.104-1.148,0.104-1.736s-0.04-1.166-0.104-1.737l-4.377-1.557c-0.218-0.716-0.504-1.401-0.851-2.05l1.993-4.192c-0.725-0.91-1.549-1.734-2.458-2.459l-4.193,1.994c-0.647-0.347-1.334-0.632-2.049-0.849l-1.558-4.378C17.165,0.708,16.588,0.667,16,0.667s-1.166,0.041-1.737,0.105L12.707,5.15c-0.716,0.217-1.401,0.502-2.05,0.849L6.464,4.005C5.554,4.73,4.73,5.554,4.005,6.464l1.994,4.192c-0.347,0.648-0.632,1.334-0.849,2.05l-4.378,1.557C0.708,14.834,0.667,15.412,0.667,16s0.041,1.165,0.105,1.736l4.378,1.558c0.217,0.715,0.502,1.401,0.849,2.049l-1.994,4.193c0.725,0.909,1.549,1.733,2.459,2.458l4.192-1.993c0.648,0.347,1.334,0.633,2.05,0.851l1.557,4.377c0.571,0.064,1.148,0.104,1.737,0.104c0.588,0,1.165-0.04,1.736-0.104l1.558-4.377c0.715-0.218,1.399-0.504,2.049-0.851l4.193,1.993c0.909-0.725,1.733-1.549,2.458-2.458l-1.993-4.193c0.347-0.647,0.633-1.334,0.851-2.049L31.229,17.736zM16,20.871c-2.69,0-4.872-2.182-4.872-4.871c0-2.69,2.182-4.872,4.872-4.872c2.689,0,4.871,2.182,4.871,4.872C20.871,18.689,18.689,20.871,16,20.871z"></path><title>Link options.</title></g></g></g></g><!--z-index:46--><g   id="j_133" ><path  stroke="#707070" d="M 590 1437 L 1360 1428" id="v-3076" stroke-width="2" stroke-dasharray="30 30" fill="none"></path><path  fill="black" stroke="black" d="M 0 0 0 0" transform="matrix(0.9999245405197144,-0.012284853495657444,0.012284853495657444,0.9999245405197144,590,1437.22998046875)"></path><path  fill="#707070" stroke="#707070" d="M 20 0 L 0 10 L 20 20 z" id="v-3078" transform="matrix(-0.9999245405197144,0.012284853495657444,-0.012284853495657444,-0.9999245405197144,1360.122802734375,1437.7691650390625)"></path><path  d="M 590 1437 L 1360 1428" id="v-3077" fill="none" style="cursor: default;"></path><g ><g id="v-3070"  label-idx="0" cursor="move" transform="matrix(1,0,0,1,975,1432.5)" style="cursor: default;"><rect joint-selector="rect" id="v-3073" fill="#ffffff" rx="3" ry="3" pointer-events="none" width="169.21099853515625" height="118.20989990234375" transform="matrix(1,0,0,1,-84.5999984741211,-59.099998474121094)"></rect><text joint-selector="text" id="v-3072" font-size="24px" xml:space="preserve" y="0.8em" fill="#707070" text-anchor="middle" pointer-events="none" font-family="Roboto" font-weight="normal" transform="matrix(1,0,0,1,0,-54.400001525878906)"><tspan  dy="0">9: Triggers drift</tspan><tspan dy="1.2em" x="0" >monitoring</tspan><tspan dy="1.2em" x="0" >actions for the</tspan><tspan dy="1.2em" x="0" >deployed model</tspan></text></g><g id="v-3071"  label-idx="1" cursor="move" transform="matrix(1,0,0,1,965,1502.0999755859375)" style="cursor: default;"><rect joint-selector="rect" id="v-3075" fill="#ffffff" rx="3" ry="3"  width="0" height="0" transform="matrix(1,0,0,1,0,0)" display="none"></rect><text joint-selector="text" id="v-3074" fill="#000000" font-size="14" text-anchor="middle" pointer-events="none"></text></g></g><g  display="none"></g><g  id="v-3080" display="none"><g  id="v-3068"><path  end="source" d="M 26 0 L 0 13 L 26 26 z"></path></g><g  id="v-3069"><path  end="target" d="M 26 0 L 0 13 L 26 26 z"></path></g></g><g  id="v-3079" display="none"><g  id="v-3067" transform="translate(629.9972679473273, 1436.5324994655507) "><g  event="remove"><circle r="11"></circle><path transform="scale(.8) translate(-16, -16)" d="M24.778,21.419 19.276,15.917 24.777,10.415 21.949,7.585 16.447,13.087 10.945,7.585 8.117,10.415 13.618,15.917 8.116,21.419 10.946,24.248 16.447,18.746 21.948,24.248z"></path><title>Remove link.</title></g><g  event="link:options"><circle r="11" transform="translate(25)"></circle><path fill="white" transform="scale(.55) translate(29, -16)" d="M31.229,17.736c0.064-0.571,0.104-1.148,0.104-1.736s-0.04-1.166-0.104-1.737l-4.377-1.557c-0.218-0.716-0.504-1.401-0.851-2.05l1.993-4.192c-0.725-0.91-1.549-1.734-2.458-2.459l-4.193,1.994c-0.647-0.347-1.334-0.632-2.049-0.849l-1.558-4.378C17.165,0.708,16.588,0.667,16,0.667s-1.166,0.041-1.737,0.105L12.707,5.15c-0.716,0.217-1.401,0.502-2.05,0.849L6.464,4.005C5.554,4.73,4.73,5.554,4.005,6.464l1.994,4.192c-0.347,0.648-0.632,1.334-0.849,2.05l-4.378,1.557C0.708,14.834,0.667,15.412,0.667,16s0.041,1.165,0.105,1.736l4.378,1.558c0.217,0.715,0.502,1.401,0.849,2.049l-1.994,4.193c0.725,0.909,1.549,1.733,2.459,2.458l4.192-1.993c0.648,0.347,1.334,0.633,2.05,0.851l1.557,4.377c0.571,0.064,1.148,0.104,1.737,0.104c0.588,0,1.165-0.04,1.736-0.104l1.558-4.377c0.715-0.218,1.399-0.504,2.049-0.851l4.193,1.993c0.909-0.725,1.733-1.549,2.458-2.458l-1.993-4.193c0.347-0.647,0.633-1.334,0.851-2.049L31.229,17.736zM16,20.871c-2.69,0-4.872-2.182-4.872-4.871c0-2.69,2.182-4.872,4.872-4.872c2.689,0,4.871,2.182,4.871,4.872C20.871,18.689,18.689,20.871,16,20.871z"></path><title>Link options.</title></g></g></g></g><!--z-index:47--><g   id="j_134" ><path  stroke="#707070" d="M 368 1290 L 370 1150 C 370 1143.3333333333333 373.3333333333333 1140 380 1140 L 735 1130 C 741.6666666666666 1130 745 1126.6666666666665 745 1120 L 742 960" id="v-3095" stroke-width="2" stroke-dasharray="30 30" fill="none"></path><path  fill="black" stroke="black" d="M 0 0 0 0" transform="matrix(0.016664225608110428,-0.9998611211776733,0.9998611211776733,0.016664225608110428,367.5,1290)"></path><path  fill="#707070" stroke="#707070" d="M 20 0 L 0 10 L 20 20 z" id="v-3097" transform="matrix(0.015645166859030724,0.9998776316642761,-0.9998776316642761,0.015645166859030724,752.3388061523438,959.8435668945312)"></path><path  d="M 368 1290 L 370 1150 C 370 1143.3333333333333 373.3333333333333 1140 380 1140 L 735 1130 C 741.6666666666666 1130 745 1126.6666666666665 745 1120 L 742 960" id="v-3096" fill="none" style="cursor: default;"></path><g ><g id="v-3089"  label-idx="0" cursor="move" transform="matrix(1,0,0,1,567.5029296875,1134.71826171875)" style="cursor: default;"><rect joint-selector="rect" id="v-3092" fill="#ffffff" rx="3" ry="3" pointer-events="none" width="164.66041564941406" height="89.40990447998047" transform="matrix(1,0,0,1,-82.30000305175781,-44.70000076293945)"></rect><text joint-selector="text" id="v-3091" font-size="24px" xml:space="preserve" y="0.8em" fill="#707070" text-anchor="middle" pointer-events="none" font-family="Roboto" font-weight="normal" transform="matrix(1,0,0,1,0,-40)"><tspan  dy="0">10: Updates</tspan><tspan dy="1.2em" x="0" >dashboard with</tspan><tspan dy="1.2em" x="0" >drift status</tspan></text></g><g id="v-3090"  label-idx="1" cursor="move" transform="matrix(1,0,0,1,557.5029296875,1189.918212890625)" style="cursor: default;"><rect joint-selector="rect" id="v-3094" fill="#ffffff" rx="3" ry="3"  width="0" height="0" transform="matrix(1,0,0,1,0,0)" display="none"></rect><text joint-selector="text" id="v-3093" fill="#000000" font-size="14" text-anchor="middle" pointer-events="none"></text></g></g><g  display="none"><g  transform="translate(370, 1140)" id="v-3085"><circle  idx="0" r="10"></circle><path  idx="0" d="M16,5.333c-7.732,0-14,4.701-14,10.5c0,1.982,0.741,3.833,2.016,5.414L2,25.667l5.613-1.441c2.339,1.317,5.237,2.107,8.387,2.107c7.732,0,14-4.701,14-10.5C30,10.034,23.732,5.333,16,5.333z" transform="translate(5, -33)"></path><path  idx="0" transform="scale(.8) translate(9.5, -37)" d="M24.778,21.419 19.276,15.917 24.777,10.415 21.949,7.585 16.447,13.087 10.945,7.585 8.117,10.415 13.618,15.917 8.116,21.419 10.946,24.248 16.447,18.746 21.948,24.248z"><title>Remove vertex.</title></path></g><g  transform="translate(745, 1130)" id="v-3086"><circle  idx="1" r="10"></circle><path  idx="1" d="M16,5.333c-7.732,0-14,4.701-14,10.5c0,1.982,0.741,3.833,2.016,5.414L2,25.667l5.613-1.441c2.339,1.317,5.237,2.107,8.387,2.107c7.732,0,14-4.701,14-10.5C30,10.034,23.732,5.333,16,5.333z" transform="translate(5, -33)"></path><path  idx="1" transform="scale(.8) translate(9.5, -37)" d="M24.778,21.419 19.276,15.917 24.777,10.415 21.949,7.585 16.447,13.087 10.945,7.585 8.117,10.415 13.618,15.917 8.116,21.419 10.946,24.248 16.447,18.746 21.948,24.248z"><title>Remove vertex.</title></path></g></g><g  id="v-3099" display="none"><g  id="v-3087"><path  end="source" d="M 26 0 L 0 13 L 26 26 z"></path></g><g  id="v-3088"><path  end="target" d="M 26 0 L 0 13 L 26 26 z"></path></g></g><g  id="v-3098" display="none"><g  id="v-3084" transform="translate(368.571370271314, 1250.0040810080195) "><g  event="remove"><circle r="11"></circle><path transform="scale(.8) translate(-16, -16)" d="M24.778,21.419 19.276,15.917 24.777,10.415 21.949,7.585 16.447,13.087 10.945,7.585 8.117,10.415 13.618,15.917 8.116,21.419 10.946,24.248 16.447,18.746 21.948,24.248z"></path><title>Remove link.</title></g><g  event="link:options"><circle r="11" transform="translate(25)"></circle><path fill="white" transform="scale(.55) translate(29, -16)" d="M31.229,17.736c0.064-0.571,0.104-1.148,0.104-1.736s-0.04-1.166-0.104-1.737l-4.377-1.557c-0.218-0.716-0.504-1.401-0.851-2.05l1.993-4.192c-0.725-0.91-1.549-1.734-2.458-2.459l-4.193,1.994c-0.647-0.347-1.334-0.632-2.049-0.849l-1.558-4.378C17.165,0.708,16.588,0.667,16,0.667s-1.166,0.041-1.737,0.105L12.707,5.15c-0.716,0.217-1.401,0.502-2.05,0.849L6.464,4.005C5.554,4.73,4.73,5.554,4.005,6.464l1.994,4.192c-0.347,0.648-0.632,1.334-0.849,2.05l-4.378,1.557C0.708,14.834,0.667,15.412,0.667,16s0.041,1.165,0.105,1.736l4.378,1.558c0.217,0.715,0.502,1.401,0.849,2.049l-1.994,4.193c0.725,0.909,1.549,1.733,2.459,2.458l4.192-1.993c0.648,0.347,1.334,0.633,2.05,0.851l1.557,4.377c0.571,0.064,1.148,0.104,1.737,0.104c0.588,0,1.165-0.04,1.736-0.104l1.558-4.377c0.715-0.218,1.399-0.504,2.049-0.851l4.193,1.993c0.909-0.725,1.733-1.549,2.458-2.458l-1.993-4.193c0.347-0.647,0.633-1.334,0.851-2.049L31.229,17.736zM16,20.871c-2.69,0-4.872-2.182-4.872-4.871c0-2.69,2.182-4.872,4.872-4.872c2.689,0,4.871,2.182,4.871,4.872C20.871,18.689,18.689,20.871,16,20.871z"></path><title>Link options.</title></g></g></g></g><!--z-index:48--><g   id="j_135" ><path  stroke="#707070" d="M 271 1290 L 260 1273 C 256.66666666666663 1267.6666666666665 255 1261.6666666666665 255 1255 L 260 225 C 260 218.33333333333331 263.3333333333333 214.99999999999997 270 215 L 1390 215" id="v-3114" stroke-width="2" stroke-dasharray="30 30" fill="none"></path><path  fill="black" stroke="black" d="M 0 0 0 0" transform="matrix(-0.5320674180984497,-0.846701979637146,0.846701979637146,-0.5320674180984497,270.7099914550781,1290)"></path><path  fill="#707070" stroke="#707070" d="M 20 0 L 0 10 L 20 20 z" id="v-3116" transform="matrix(-1,1.2246468525851679e-16,-1.2246468525851679e-16,-1,1390,225)"></path><path  d="M 271 1290 L 260 1273 C 256.66666666666663 1267.6666666666665 255 1261.6666666666665 255 1255 L 260 225 C 260 218.33333333333331 263.3333333333333 214.99999999999997 270 215 L 1390 215" id="v-3115" fill="none" style="cursor: default;"></path><g ><g id="v-3108"  label-idx="0" cursor="move" transform="matrix(1,0,0,1,287.2891845703125,215)" style="cursor: default;"><rect joint-selector="rect" id="v-3111" fill="#ffffff" rx="3" ry="3" pointer-events="none" width="138.2847137451172" height="89.40990447998047" transform="matrix(1,0,0,1,-68.5999984741211,-44.70000076293945)"></rect><text joint-selector="text" id="v-3110" font-size="24px" xml:space="preserve" y="0.8em" fill="#707070" text-anchor="middle" pointer-events="none" font-family="Roboto" font-weight="normal" transform="matrix(1,0,0,1,0,-40)"><tspan  dy="0">11: Visualize</tspan><tspan dy="1.2em" x="0" >model</tspan><tspan dy="1.2em" x="0" >performance</tspan></text></g><g id="v-3109"  label-idx="1" cursor="move" transform="matrix(1,0,0,1,277.2891845703125,270.20001220703125)" style="cursor: default;"><rect joint-selector="rect" id="v-3113" fill="#ffffff" rx="3" ry="3"  width="0" height="0" transform="matrix(1,0,0,1,0,0)" display="none"></rect><text joint-selector="text" id="v-3112" fill="#000000" font-size="14" text-anchor="middle" pointer-events="none"></text></g></g><g  display="none"><g  transform="translate(255, 1265)" id="v-3104"><circle  idx="0" r="10"></circle><path  idx="0" d="M16,5.333c-7.732,0-14,4.701-14,10.5c0,1.982,0.741,3.833,2.016,5.414L2,25.667l5.613-1.441c2.339,1.317,5.237,2.107,8.387,2.107c7.732,0,14-4.701,14-10.5C30,10.034,23.732,5.333,16,5.333z" transform="translate(5, -33)"></path><path  idx="0" transform="scale(.8) translate(9.5, -37)" d="M24.778,21.419 19.276,15.917 24.777,10.415 21.949,7.585 16.447,13.087 10.945,7.585 8.117,10.415 13.618,15.917 8.116,21.419 10.946,24.248 16.447,18.746 21.948,24.248z"><title>Remove vertex.</title></path></g><g  transform="translate(260, 215)" id="v-3105"><circle  idx="1" r="10"></circle><path  idx="1" d="M16,5.333c-7.732,0-14,4.701-14,10.5c0,1.982,0.741,3.833,2.016,5.414L2,25.667l5.613-1.441c2.339,1.317,5.237,2.107,8.387,2.107c7.732,0,14-4.701,14-10.5C30,10.034,23.732,5.333,16,5.333z" transform="translate(5, -33)"></path><path  idx="1" transform="scale(.8) translate(9.5, -37)" d="M24.778,21.419 19.276,15.917 24.777,10.415 21.949,7.585 16.447,13.087 10.945,7.585 8.117,10.415 13.618,15.917 8.116,21.419 10.946,24.248 16.447,18.746 21.948,24.248z"><title>Remove vertex.</title></path></g></g><g  id="v-3118" display="none"><g  id="v-3106"><path  end="source" d="M 26 0 L 0 13 L 26 26 z"></path></g><g  id="v-3107"><path  end="target" d="M 26 0 L 0 13 L 26 26 z"></path></g></g><g  id="v-3117" display="none"><g  id="v-3103" transform="translate(255.00398606640465, 1254.1788703206403) "><g  event="remove"><circle r="11"></circle><path transform="scale(.8) translate(-16, -16)" d="M24.778,21.419 19.276,15.917 24.777,10.415 21.949,7.585 16.447,13.087 10.945,7.585 8.117,10.415 13.618,15.917 8.116,21.419 10.946,24.248 16.447,18.746 21.948,24.248z"></path><title>Remove link.</title></g><g  event="link:options"><circle r="11" transform="translate(25)"></circle><path fill="white" transform="scale(.55) translate(29, -16)" d="M31.229,17.736c0.064-0.571,0.104-1.148,0.104-1.736s-0.04-1.166-0.104-1.737l-4.377-1.557c-0.218-0.716-0.504-1.401-0.851-2.05l1.993-4.192c-0.725-0.91-1.549-1.734-2.458-2.459l-4.193,1.994c-0.647-0.347-1.334-0.632-2.049-0.849l-1.558-4.378C17.165,0.708,16.588,0.667,16,0.667s-1.166,0.041-1.737,0.105L12.707,5.15c-0.716,0.217-1.401,0.502-2.05,0.849L6.464,4.005C5.554,4.73,4.73,5.554,4.005,6.464l1.994,4.192c-0.347,0.648-0.632,1.334-0.849,2.05l-4.378,1.557C0.708,14.834,0.667,15.412,0.667,16s0.041,1.165,0.105,1.736l4.378,1.558c0.217,0.715,0.502,1.401,0.849,2.049l-1.994,4.193c0.725,0.909,1.549,1.733,2.459,2.458l4.192-1.993c0.648,0.347,1.334,0.633,2.05,0.851l1.557,4.377c0.571,0.064,1.148,0.104,1.737,0.104c0.588,0,1.165-0.04,1.736-0.104l1.558-4.377c0.715-0.218,1.399-0.504,2.049-0.851l4.193,1.993c0.909-0.725,1.733-1.549,2.458-2.458l-1.993-4.193c0.347-0.647,0.633-1.334,0.851-2.049L31.229,17.736zM16,20.871c-2.69,0-4.872-2.182-4.872-4.871c0-2.69,2.182-4.872,4.872-4.872c2.689,0,4.871,2.182,4.871,4.872C20.871,18.689,18.689,20.871,16,20.871z"></path><title>Link options.</title></g></g></g></g><!--z-index:49--><g   id="j_136" ><path  stroke="#707070" d="M 681 660 L 669 629 C 666.3333333333333 623 665 616.6666666666666 665 610 L 675 285 C 675 278.3333333333333 678.3333333333333 275 685 275 L 1375 270 C 1381.6666666666665 270 1386 270 1388 270 L 1390 269" id="v-3134" stroke-width="2" stroke-dasharray="30 30" fill="none"></path><path  fill="black" stroke="black" d="M 0 0 0 0" transform="matrix(-0.3671770989894867,-0.9301510453224182,0.9301510453224182,-0.3671770989894867,680.7899780273438,660)"></path><path  fill="#707070" stroke="#707070" d="M 20 0 L 0 10 L 20 20 z" id="v-3136" transform="matrix(-0.9659135341644287,0.2588648200035095,-0.2588648200035095,-0.9659135341644287,1392.588623046875,278.31915283203125)"></path><path  d="M 681 660 L 669 629 C 666.3333333333333 623 665 616.6666666666666 665 610 L 675 285 C 675 278.3333333333333 678.3333333333333 275 685 275 L 1375 270 C 1381.6666666666665 270 1386 270 1388 270 L 1390 269" id="v-3135" fill="none" style="cursor: default;"></path><g ><g id="v-3128"  label-idx="0" cursor="move" transform="matrix(1,0,0,1,840.530517578125,273.8729553222656)" style="cursor: default;"><rect joint-selector="rect" id="v-3131" fill="#ffffff" rx="3" ry="3" pointer-events="none" width="173.84994506835938" height="89.40990447998047" transform="matrix(1,0,0,1,-86.9000015258789,-44.70000076293945)"></rect><text joint-selector="text" id="v-3130" font-size="24px" xml:space="preserve" y="0.8em" fill="#707070" text-anchor="middle" pointer-events="none" font-family="Roboto" font-weight="normal" transform="matrix(1,0,0,1,0,-40)"><tspan  dy="0">12: Notifies user</tspan><tspan dy="1.2em" x="0" >in case a drift</tspan><tspan dy="1.2em" x="0" >occurs</tspan></text></g><g id="v-3129"  label-idx="1" cursor="move" transform="matrix(1,0,0,1,830.530517578125,329.0729675292969)" style="cursor: default;"><rect joint-selector="rect" id="v-3133" fill="#ffffff" rx="3" ry="3"  width="0" height="0" transform="matrix(1,0,0,1,0,0)" display="none"></rect><text joint-selector="text" id="v-3132" fill="#000000" font-size="14" text-anchor="middle" pointer-events="none"></text></g></g><g  display="none"><g  transform="translate(665, 620)" id="v-3123"><circle  idx="0" r="10"></circle><path  idx="0" d="M16,5.333c-7.732,0-14,4.701-14,10.5c0,1.982,0.741,3.833,2.016,5.414L2,25.667l5.613-1.441c2.339,1.317,5.237,2.107,8.387,2.107c7.732,0,14-4.701,14-10.5C30,10.034,23.732,5.333,16,5.333z" transform="translate(5, -33)"></path><path  idx="0" transform="scale(.8) translate(9.5, -37)" d="M24.778,21.419 19.276,15.917 24.777,10.415 21.949,7.585 16.447,13.087 10.945,7.585 8.117,10.415 13.618,15.917 8.116,21.419 10.946,24.248 16.447,18.746 21.948,24.248z"><title>Remove vertex.</title></path></g><g  transform="translate(675, 275)" id="v-3124"><circle  idx="1" r="10"></circle><path  idx="1" d="M16,5.333c-7.732,0-14,4.701-14,10.5c0,1.982,0.741,3.833,2.016,5.414L2,25.667l5.613-1.441c2.339,1.317,5.237,2.107,8.387,2.107c7.732,0,14-4.701,14-10.5C30,10.034,23.732,5.333,16,5.333z" transform="translate(5, -33)"></path><path  idx="1" transform="scale(.8) translate(9.5, -37)" d="M24.778,21.419 19.276,15.917 24.777,10.415 21.949,7.585 16.447,13.087 10.945,7.585 8.117,10.415 13.618,15.917 8.116,21.419 10.946,24.248 16.447,18.746 21.948,24.248z"><title>Remove vertex.</title></path></g><g  transform="translate(1385, 270)" id="v-3125"><circle  idx="2" r="10"></circle><path  idx="2" d="M16,5.333c-7.732,0-14,4.701-14,10.5c0,1.982,0.741,3.833,2.016,5.414L2,25.667l5.613-1.441c2.339,1.317,5.237,2.107,8.387,2.107c7.732,0,14-4.701,14-10.5C30,10.034,23.732,5.333,16,5.333z" transform="translate(5, -33)"></path><path  idx="2" transform="scale(.8) translate(9.5, -37)" d="M24.778,21.419 19.276,15.917 24.777,10.415 21.949,7.585 16.447,13.087 10.945,7.585 8.117,10.415 13.618,15.917 8.116,21.419 10.946,24.248 16.447,18.746 21.948,24.248z"><title>Remove vertex.</title></path></g></g><g  id="v-3138" display="none"><g  id="v-3126"><path  end="source" d="M 26 0 L 0 13 L 26 26 z"></path></g><g  id="v-3127"><path  end="target" d="M 26 0 L 0 13 L 26 26 z"></path></g></g><g  id="v-3137" display="none"><g  id="v-3122" transform="translate(666.7124176025391, 622.6578330993652) "><g  event="remove"><circle r="11"></circle><path transform="scale(.8) translate(-16, -16)" d="M24.778,21.419 19.276,15.917 24.777,10.415 21.949,7.585 16.447,13.087 10.945,7.585 8.117,10.415 13.618,15.917 8.116,21.419 10.946,24.248 16.447,18.746 21.948,24.248z"></path><title>Remove link.</title></g><g  event="link:options"><circle r="11" transform="translate(25)"></circle><path fill="white" transform="scale(.55) translate(29, -16)" d="M31.229,17.736c0.064-0.571,0.104-1.148,0.104-1.736s-0.04-1.166-0.104-1.737l-4.377-1.557c-0.218-0.716-0.504-1.401-0.851-2.05l1.993-4.192c-0.725-0.91-1.549-1.734-2.458-2.459l-4.193,1.994c-0.647-0.347-1.334-0.632-2.049-0.849l-1.558-4.378C17.165,0.708,16.588,0.667,16,0.667s-1.166,0.041-1.737,0.105L12.707,5.15c-0.716,0.217-1.401,0.502-2.05,0.849L6.464,4.005C5.554,4.73,4.73,5.554,4.005,6.464l1.994,4.192c-0.347,0.648-0.632,1.334-0.849,2.05l-4.378,1.557C0.708,14.834,0.667,15.412,0.667,16s0.041,1.165,0.105,1.736l4.378,1.558c0.217,0.715,0.502,1.401,0.849,2.049l-1.994,4.193c0.725,0.909,1.549,1.733,2.459,2.458l4.192-1.993c0.648,0.347,1.334,0.633,2.05,0.851l1.557,4.377c0.571,0.064,1.148,0.104,1.737,0.104c0.588,0,1.165-0.04,1.736-0.104l1.558-4.377c0.715-0.218,1.399-0.504,2.049-0.851l4.193,1.993c0.909-0.725,1.733-1.549,2.458-2.458l-1.993-4.193c0.347-0.647,0.633-1.334,0.851-2.049L31.229,17.736zM16,20.871c-2.69,0-4.872-2.182-4.872-4.871c0-2.69,2.182-4.872,4.872-4.872c2.689,0,4.871,2.182,4.871,4.872C20.871,18.689,18.689,20.871,16,20.871z"></path><title>Link options.</title></g></g></g></g><!--z-index:50--><!--z-index:51--><!--z-index:52--><!--z-index:53--><!--z-index:54--><!--z-index:55--><!--z-index:56--><!--z-index:57--><!--z-index:58--><!--z-index:59--><!--z-index:60--><!--z-index:61--><!--z-index:62--><!--z-index:63--><!--z-index:64--><!--z-index:65--><!--z-index:66--><!--z-index:67--><!--z-index:68--><!--z-index:69--><!--z-index:70--><!--z-index:71--><!--z-index:72--><!--z-index:73--><!--z-index:74--><!--z-index:75--><!--z-index:76--><!--z-index:77--><!--z-index:78--><!--z-index:79--><!--z-index:80--><!--z-index:81--><!--z-index:82--><!--z-index:83--><!--z-index:84--><!--z-index:85--><!--z-index:86--><!--z-index:87--><!--z-index:88--><!--z-index:89--><!--z-index:90--><!--z-index:91--><!--z-index:92--><!--z-index:93--><!--z-index:94--><!--z-index:95--><!--z-index:96--><!--z-index:97--><!--z-index:98--><!--z-index:99--><!--z-index:100--><!--z-index:101--><!--z-index:102--><!--z-index:103--><!--z-index:104--><!--z-index:105--><!--z-index:106--><!--z-index:107--><!--z-index:108--><!--z-index:109--><!--z-index:110--><!--z-index:111--><!--z-index:112--><!--z-index:113--><!--z-index:114--><!--z-index:115--><!--z-index:116--></g><g ></g><g ></g><g ></g></g></svg>