<svg xmlns="http://www.w3.org/2000/svg" xmlns:xlink="http://www.w3.org/1999/xlink" version="1.1" viewBox="0 0 3246 3298" style="background: #ffffff"><defs><style>@import url(http://fonts.googleapis.com/css?family=Roboto);</style></defs><defs joint-selector="defs"></defs><g  joint-selector="layers" transform="matrix(1,0,0,1,0,0)"><g ></g><g ><!--z-index:1--><!--z-index:2--><!--z-index:3--><!--z-index:4--><!--z-index:5--><!--z-index:6--><!--z-index:7--><!--z-index:8--><!--z-index:9--><!--z-index:10--><!--z-index:11--><!--z-index:12--><!--z-index:13--><!--z-index:14--><!--z-index:15--><!--z-index:16--><!--z-index:17--><!--z-index:18--><!--z-index:19--><g   id="j_2"  transform="translate(20,3261.6)"><g id="v-5"><text  id="v-6" font-size="22px" xml:space="preserve" y="0.8em" font-weight="normal" text-anchor="start" fill="#aaaaaa" pointer-events="none" display="block" font-family="Roboto"><tspan  dy="0" display="block">Wednesday, 26 June 2024 at 15:16 Central European Summer Time</tspan></text></g></g><!--z-index:20--><g   id="j_1"  transform="translate(20,3218.4)"><g id="v-3"><text  id="v-4" font-size="36px" xml:space="preserve" y="0.8em" font-weight="normal" text-anchor="start" fill="#000000" pointer-events="none" display="block" font-family="Roboto"><tspan  dy="0" display="block">[Dynamic view] Automatic drift detection during inference</tspan></text></g></g><!--z-index:21--><g   id="j_3"  transform="translate(2095,1070)" style=""><g  id="v-10" style="opacity: 1;"><rect  id="v-11" rx="10" ry="10" stroke="#007a83" stroke-width="2" pointer-events="visiblePainted" fill="#008792" x="10" y="0" width="150" height="75" style="fill: rgb(0, 135, 146); stroke: rgb(0, 122, 131);"></rect><rect  id="v-12" rx="5" ry="5" stroke="#007a83" stroke-width="2" pointer-events="visiblePainted" fill="#008792" x="0" y="37.5" width="450" height="262.5" style="fill: rgb(0, 135, 146); stroke: rgb(0, 122, 131);"></rect><text  id="v-13" font-size="34" xml:space="preserve" y="0.8em" font-weight="bold" text-anchor="middle" pointer-events="visible" font-family="Roboto" fill="#ffffff" transform="matrix(1,0,0,1,225,121.30000305175781)" style="fill: rgb(255, 255, 255);"><tspan  dy="0">Model code repository</tspan></text><text  id="v-14" font-size="17" xml:space="preserve" y="0.8em" text-anchor="middle" font-family="Roboto" fill="#ffffff" transform="matrix(1,0,0,1,225,162.10000610351562)" style="fill: rgb(255, 255, 255);"><tspan  dy="0">[Container: Git]</tspan></text><text  id="v-15" font-size="24" xml:space="preserve" y="0.8em" text-anchor="middle" font-family="Roboto" fill="#ffffff" transform="matrix(1,0,0,1,225,192.5)" style="fill: rgb(255, 255, 255);"><tspan  dy="0">Track AI model code.</tspan></text><g  id="v-16" font-weight="normal" text-anchor="middle" color="#ffffff" transform="matrix(1,0,0,1,222.5,268)" style="fill: rgb(255, 255, 255);" display="none"><g ></g><g ></g><g ></g><g ></g></g><image  id="v-17"></image></g></g><!--z-index:22--><g   id="j_4"  transform="translate(2080,680)" style=""><g  id="v-24" style="opacity: 1;"><rect  id="v-25" rx="10" ry="10" stroke="#007a83" stroke-width="2" pointer-events="visiblePainted" fill="#008792" x="10" y="0" width="150" height="75" style="fill: rgb(0, 135, 146); stroke: rgb(0, 122, 131);"></rect><rect  id="v-26" rx="5" ry="5" stroke="#007a83" stroke-width="2" pointer-events="visiblePainted" fill="#008792" x="0" y="37.5" width="450" height="262.5" style="fill: rgb(0, 135, 146); stroke: rgb(0, 122, 131);"></rect><text  id="v-27" font-size="34" xml:space="preserve" y="0.8em" font-weight="bold" text-anchor="middle" pointer-events="visible" font-family="Roboto" fill="#ffffff" transform="matrix(1,0,0,1,225,121.30000305175781)" style="fill: rgb(255, 255, 255);"><tspan  dy="0">Container registry</tspan></text><text  id="v-28" font-size="17" xml:space="preserve" y="0.8em" text-anchor="middle" font-family="Roboto" fill="#ffffff" transform="matrix(1,0,0,1,225,162.10000610351562)" style="fill: rgb(255, 255, 255);"><tspan  dy="0">[Container: Harbor.io]</tspan></text><text  id="v-29" font-size="24" xml:space="preserve" y="0.8em" text-anchor="middle" font-family="Roboto" fill="#ffffff" transform="matrix(1,0,0,1,225,192.5)" style="fill: rgb(255, 255, 255);"><tspan  dy="0">Store container images.</tspan></text><g  id="v-30" font-weight="normal" text-anchor="middle" color="#ffffff" transform="matrix(1,0,0,1,222.5,268)" style="fill: rgb(255, 255, 255);" display="none"><g ></g><g ></g><g ></g><g ></g></g><image  id="v-31"></image></g></g><!--z-index:23--><g   id="j_5"  transform="translate(1285,675)" style=""><g  id="v-38" style="opacity: 1;"><rect  id="v-39" rx="20" ry="20" stroke="#007a83" stroke-width="2" pointer-events="visiblePainted" fill="#008792" width="450" height="300" style="fill: rgb(0, 135, 146); stroke: rgb(0, 122, 131);"></rect><text  id="v-40" font-size="34" xml:space="preserve" y="0.8em" font-weight="bold" text-anchor="middle" pointer-events="visible" font-family="Roboto" fill="#ffffff" transform="matrix(1,0,0,1,225,38.900001525878906)" style="fill: rgb(255, 255, 255);"><tspan  dy="0">Continuous Integration,</tspan><tspan dy="1.2em" x="0" >Delivery &amp; Deployment</tspan></text><text  id="v-41" font-size="17" xml:space="preserve" y="0.8em" text-anchor="middle" font-family="Roboto" fill="#ffffff" transform="matrix(1,0,0,1,225,120.5)" style="fill: rgb(255, 255, 255);"><tspan  dy="0">[Container: Jenkins]</tspan></text><text  id="v-42" font-size="24" xml:space="preserve" y="0.8em" text-anchor="middle" font-family="Roboto" fill="#ffffff" transform="matrix(1,0,0,1,225,150.89999389648438)" style="fill: rgb(255, 255, 255);"><tspan  dy="0">Ensures quality aspects are fulfilled</tspan><tspan dy="1.2em" x="0" >(code checks, unit checks, etc.).</tspan><tspan dy="1.2em" x="0" >Performs delivery and deployment</tspan><tspan dy="1.2em" x="0" >of new assets.</tspan></text><g  id="v-43" color="#ffffff" transform="matrix(1,0,0,1,222.5,268)" style="fill: rgb(255, 255, 255);" display="none"><g ></g><g ></g><g ></g><g ></g></g><image  id="v-44"></image></g></g><!--z-index:24--><g   id="j_6"  transform="translate(360,830)" style=""><g  id="v-51" style="opacity: 1;"><rect  id="v-52" rx="10" ry="10" stroke="#007a83" stroke-width="2" pointer-events="visiblePainted" fill="#007a83" width="450" height="300" style="fill: rgb(0, 122, 131); stroke: rgb(0, 122, 131);"></rect><rect  id="v-53" rx="10" ry="10" stroke="#007a83" stroke-width="0" pointer-events="visiblePainted" fill="#008792" width="430" height="250" x="10" y="40" style="fill: rgb(0, 135, 146);"></rect><ellipse  id="v-60" fill="#008792" cx="20" cy="20" rx="10" ry="10" style="fill: rgb(0, 135, 146);"></ellipse><ellipse  id="v-61" fill="#008792" cx="50" cy="20" rx="10" ry="10" style="fill: rgb(0, 135, 146);"></ellipse><ellipse  id="v-62" fill="#008792" cx="80" cy="20" rx="10" ry="10" style="fill: rgb(0, 135, 146);"></ellipse><rect  id="v-54" rx="10" ry="10" stroke="#444444" stroke-width="0" pointer-events="visiblePainted" fill="#008792" width="340" height="20" x="100" y="10" style="fill: rgb(0, 135, 146);"></rect><text  id="v-55" font-size="34" xml:space="preserve" y="0.8em" font-weight="bold" text-anchor="middle" pointer-events="visible" font-family="Roboto" fill="#ffffff" transform="matrix(1,0,0,1,225,88.69999694824219)" style="fill: rgb(255, 255, 255);"><tspan  dy="0">AI4EOSC dashboard</tspan></text><text  id="v-56" font-size="17" xml:space="preserve" y="0.8em" text-anchor="middle" font-family="Roboto" fill="#ffffff" transform="matrix(1,0,0,1,225,129.5)" style="fill: rgb(255, 255, 255);"><tspan  dy="0">[Container: Angular]</tspan></text><text  id="v-57" font-size="24" xml:space="preserve" y="0.8em" text-anchor="middle" font-family="Roboto" fill="#ffffff" transform="matrix(1,0,0,1,225,159.89999389648438)" style="fill: rgb(255, 255, 255);"><tspan  dy="0">Provides access to existing modules</tspan><tspan dy="1.2em" x="0" >(anonymous), experiment and</tspan><tspan dy="1.2em" x="0" >training definition (logged users).</tspan></text><g  id="v-58" font-weight="normal" text-anchor="middle" color="#ffffff" transform="matrix(1,0,0,1,222.5,258)" style="fill: rgb(255, 255, 255);" display="none"><g ></g><g ></g><g ></g><g ></g></g><image  id="v-59"></image></g></g><!--z-index:25--><g   id="j_7"  transform="translate(2105,195)" style=""><g  id="v-63" style="opacity: 1;"><rect  id="v-64" rx="20" ry="20" stroke="#007a83" stroke-width="2" pointer-events="visiblePainted" fill="#008792" width="450" height="300" style="fill: rgb(0, 135, 146); stroke: rgb(0, 122, 131);"></rect><text  id="v-65" font-size="34" xml:space="preserve" y="0.8em" font-weight="bold" text-anchor="middle" pointer-events="visible" font-family="Roboto" fill="#ffffff" transform="matrix(1,0,0,1,225,121.9000015258789)" style="fill: rgb(255, 255, 255);"><tspan  dy="0">OSCAR Manager</tspan></text><text  id="v-66" font-size="17" xml:space="preserve" y="0.8em" text-anchor="middle" font-family="Roboto" fill="#ffffff" transform="matrix(1,0,0,1,225,162.6999969482422)" style="fill: rgb(255, 255, 255);"><tspan  dy="0">[Container]</tspan></text><text  id="v-67" font-size="24" xml:space="preserve" display="none" y="0.8em" text-anchor="middle" font-family="Roboto" fill="#ffffff" transform="matrix(1,0,0,1,225,183.10000610351562)" style="fill: rgb(255, 255, 255);"><tspan style="fill-opacity: 0; stroke-opacity: 0;"  dy="0">-</tspan></text><g  id="v-68" color="#ffffff" transform="matrix(1,0,0,1,222.5,268)" style="fill: rgb(255, 255, 255);" display="none"><g ></g><g ></g><g ></g><g ></g></g><image  id="v-69"></image></g></g><!--z-index:26--><g   id="j_8"  transform="translate(780,1640)" style=""><g  id="v-73" style="opacity: 1;"><rect  id="v-74" rx="20" ry="20" stroke="#007a83" stroke-width="2" pointer-events="visiblePainted" fill="#008792" width="450" height="300" style="fill: rgb(0, 135, 146); stroke: rgb(0, 122, 131);"></rect><text  id="v-75" font-size="34" xml:space="preserve" y="0.8em" font-weight="bold" text-anchor="middle" pointer-events="visible" font-family="Roboto" fill="#ffffff" transform="matrix(1,0,0,1,225,88.0999984741211)" style="fill: rgb(255, 255, 255);"><tspan  dy="0">DriftWatch</tspan></text><text  id="v-76" font-size="17" xml:space="preserve" y="0.8em" text-anchor="middle" font-family="Roboto" fill="#ffffff" transform="matrix(1,0,0,1,225,128.89999389648438)" style="fill: rgb(255, 255, 255);"><tspan  dy="0">[Container: python client]</tspan></text><text  id="v-77" font-size="24" xml:space="preserve" y="0.8em" text-anchor="middle" font-family="Roboto" fill="#ffffff" transform="matrix(1,0,0,1,225,159.3000030517578)" style="fill: rgb(255, 255, 255);"><tspan  dy="0">Monitors drift; alerts whenever a</tspan><tspan dy="1.2em" x="0" >drift is detected</tspan></text><g  id="v-78" color="#ffffff" transform="matrix(1,0,0,1,222.5,268)" style="fill: rgb(255, 255, 255);" display="none"><g ></g><g ></g><g ></g><g ></g></g><image  id="v-79"></image></g></g><!--z-index:27--><g   id="j_9"  transform="translate(2100,1615)" style=""><g  id="v-83" style="opacity: 1;"><rect  id="v-84" rx="20" ry="20" stroke="#bebebe" stroke-width="2" pointer-events="visiblePainted" fill="#d3d3d3" width="450" height="300" style="fill: rgb(211, 211, 211); stroke: rgb(190, 190, 190);"></rect><text  id="v-85" font-size="34" xml:space="preserve" y="0.8em" font-weight="bold" text-anchor="middle" pointer-events="visible" font-family="Roboto" fill="#000000" transform="matrix(1,0,0,1,225,59.29999923706055)" style="fill: rgb(0, 0, 0);"><tspan  dy="0">Zenodo</tspan></text><text  id="v-86" font-size="17" xml:space="preserve" y="0.8em" text-anchor="middle" font-family="Roboto" fill="#000000" transform="matrix(1,0,0,1,225,100.0999984741211)" style="fill: rgb(0, 0, 0);"><tspan  dy="0">[Software System]</tspan></text><text  id="v-87" font-size="24" xml:space="preserve" y="0.8em" text-anchor="middle" font-family="Roboto" fill="#000000" transform="matrix(1,0,0,1,225,130.5)" style="fill: rgb(0, 0, 0);"><tspan  dy="0">A general-purpose open-access</tspan><tspan dy="1.2em" x="0" >repository developed within the</tspan><tspan dy="1.2em" x="0" >OpenAIRE project and operated by</tspan><tspan dy="1.2em" x="0" >CERN.</tspan></text><g  id="v-88" color="#000000" transform="matrix(1,0,0,1,222.5,268)" style="fill: rgb(0, 0, 0);" display="none"><g ></g><g ></g><g ></g><g ></g></g><image  id="v-89"></image></g></g><!--z-index:28--><g   id="j_10"  transform="translate(395,155)" style=""><g  id="v-93" style="opacity: 1;"><rect  x="0" y="160" width="400" height="240" rx="70" id="v-95" stroke="#00474d" stroke-width="2" pointer-events="visiblePainted" fill="#004f56" style="fill: rgb(0, 79, 86); stroke: rgb(0, 71, 77);"></rect><circle  cx="200" cy="88.88888888888889" r="88.88888888888889" id="v-94" stroke="#00474d" stroke-width="2" pointer-events="visiblePainted" fill="#004f56" style="fill: rgb(0, 79, 86); stroke: rgb(0, 71, 77);"></circle><line  x1="80" y1="266.6666666666667" x2="80" y2="400" id="v-101" stroke="#00474d" stroke-width="2" style="stroke: rgb(0, 71, 77);"></line><line  x1="320" y1="266.6666666666667" x2="320" y2="400" id="v-102" stroke="#00474d" stroke-width="2" style="stroke: rgb(0, 71, 77);"></line><text  id="v-96" font-size="34" xml:space="preserve" y="0.8em" font-weight="bold" text-anchor="middle" pointer-events="visible" font-family="Roboto" fill="#ffffff" transform="matrix(1,0,0,1,200,218.10000610351562)" style="fill: rgb(255, 255, 255);"><tspan  dy="0">User</tspan></text><text  id="v-97" font-size="17" xml:space="preserve" y="0.8em" text-anchor="middle" font-family="Roboto" fill="#ffffff" transform="matrix(1,0,0,1,200,258.8999938964844)" style="fill: rgb(255, 255, 255);"><tspan  dy="0">[Person]</tspan></text><text  id="v-98" font-size="24" xml:space="preserve" y="0.8em" text-anchor="middle" font-family="Roboto" fill="#ffffff" transform="matrix(1,0,0,1,200,289.29998779296875)" style="fill: rgb(255, 255, 255);"><tspan  dy="0">An end-user, willing to exploit</tspan><tspan dy="1.2em" x="0" >existing production models.</tspan></text><g  id="v-99" font-weight="normal" text-anchor="middle" color="#ffffff" transform="matrix(1,0,0,1,197.5,368)" style="fill: rgb(255, 255, 255);" display="none"><g ></g><g ></g><g ></g><g ></g></g><image  id="v-100"></image></g></g><!--z-index:29--><g   id="j_11" ><path  stroke="#707070" d="M 795 354 L 2105 346" id="v-115" stroke-width="2" stroke-dasharray="30 30" fill="none"></path><path  fill="black" stroke="black" d="M 0 0 0 0" transform="matrix(0.9999833703041077,-0.005763048771768808,0.005763048771768808,0.9999833703041077,795,353.8500061035156)"></path><path  fill="#707070" stroke="#707070" d="M 20 0 L 0 10 L 20 20 z" id="v-117" transform="matrix(-0.9999833703041077,0.005763315130025148,-0.005763315130025148,-0.9999833703041077,2105.0576171875,356.2998352050781)"></path><path  d="M 795 354 L 2105 346" id="v-116" fill="none" style="cursor: default;"></path><g ><g id="v-109"  label-idx="0" cursor="move" transform="matrix(1,0,0,1,1450,350)" style="cursor: default;"><rect joint-selector="rect" id="v-112" fill="#ffffff" rx="3" ry="3" pointer-events="none" width="114.89999389648438" height="58.79999923706055" transform="matrix(1,0,0,1,-56.29999923706055,-29.399999618530273)"></rect><text joint-selector="text" id="v-111" font-size="24px" xml:space="preserve" y="0.8em" fill="#707070" text-anchor="middle" pointer-events="none" font-family="Roboto" font-weight="normal" transform="matrix(1,0,0,1,0,-24.600000381469727)"><tspan  dy="0">1: Request</tspan><tspan dy="1.2em" x="0" >inference</tspan></text></g><g id="v-110"  label-idx="1" cursor="move" transform="matrix(1,0,0,1,1440,390.79998779296875)" style="cursor: default;"><rect joint-selector="rect" id="v-114" fill="#ffffff" rx="3" ry="3"  width="0" height="0" transform="matrix(1,0,0,1,0,0)" display="none"></rect><text joint-selector="text" id="v-113" fill="#000000" font-size="14" text-anchor="middle" pointer-events="none"></text></g></g><g  display="none"></g><g  id="v-119" display="none"><g  id="v-107"><path  end="source" d="M 26 0 L 0 13 L 26 26 z"></path></g><g  id="v-108"><path  end="target" d="M 26 0 L 0 13 L 26 26 z"></path></g></g><g  id="v-118" display="none"><g  id="v-106" transform="translate(834.9992541435819, 353.75572974568803) "><g  event="remove"><circle r="11"></circle><path transform="scale(.8) translate(-16, -16)" d="M24.778,21.419 19.276,15.917 24.777,10.415 21.949,7.585 16.447,13.087 10.945,7.585 8.117,10.415 13.618,15.917 8.116,21.419 10.946,24.248 16.447,18.746 21.948,24.248z"></path><title>Remove link.</title></g><g  event="link:options"><circle r="11" transform="translate(25)"></circle><path fill="white" transform="scale(.55) translate(29, -16)" d="M31.229,17.736c0.064-0.571,0.104-1.148,0.104-1.736s-0.04-1.166-0.104-1.737l-4.377-1.557c-0.218-0.716-0.504-1.401-0.851-2.05l1.993-4.192c-0.725-0.91-1.549-1.734-2.458-2.459l-4.193,1.994c-0.647-0.347-1.334-0.632-2.049-0.849l-1.558-4.378C17.165,0.708,16.588,0.667,16,0.667s-1.166,0.041-1.737,0.105L12.707,5.15c-0.716,0.217-1.401,0.502-2.05,0.849L6.464,4.005C5.554,4.73,4.73,5.554,4.005,6.464l1.994,4.192c-0.347,0.648-0.632,1.334-0.849,2.05l-4.378,1.557C0.708,14.834,0.667,15.412,0.667,16s0.041,1.165,0.105,1.736l4.378,1.558c0.217,0.715,0.502,1.401,0.849,2.049l-1.994,4.193c0.725,0.909,1.549,1.733,2.459,2.458l4.192-1.993c0.648,0.347,1.334,0.633,2.05,0.851l1.557,4.377c0.571,0.064,1.148,0.104,1.737,0.104c0.588,0,1.165-0.04,1.736-0.104l1.558-4.377c0.715-0.218,1.399-0.504,2.049-0.851l4.193,1.993c0.909-0.725,1.733-1.549,2.458-2.458l-1.993-4.193c0.347-0.647,0.633-1.334,0.851-2.049L31.229,17.736zM16,20.871c-2.69,0-4.872-2.182-4.872-4.871c0-2.69,2.182-4.872,4.872-4.872c2.689,0,4.871,2.182,4.871,4.872C20.871,18.689,18.689,20.871,16,20.871z"></path><title>Link options.</title></g></g></g></g><!--z-index:30--><g   id="j_12" ><path  stroke="#707070" d="M 2105 395 L 2090 398 C 2083.333333333333 399.33333333333326 2076.6666666666665 399.99999999999994 2070 400 L 1525 410 C 1518.3333333333333 410 1515 413.3333333333333 1515 420 L 1512 675" id="v-134" stroke-width="2" stroke-dasharray="30 30" fill="none"></path><path  fill="black" stroke="black" d="M 0 0 0 0" transform="matrix(-0.9766444563865662,0.2148618847131729,-0.2148618847131729,-0.9766444563865662,2105,394.5)"></path><path  fill="#707070" stroke="#707070" d="M 20 0 L 0 10 L 20 20 z" id="v-136" transform="matrix(0.01203666441142559,-0.9999275803565979,0.9999275803565979,0.01203666441142559,1501.810791015625,674.879638671875)"></path><path  d="M 2105 395 L 2090 398 C 2083.333333333333 399.33333333333326 2076.6666666666665 399.99999999999994 2070 400 L 1525 410 C 1518.3333333333333 410 1515 413.3333333333333 1515 420 L 1512 675" id="v-135" fill="none" style="cursor: default;"></path><g ><g id="v-128"  label-idx="0" cursor="move" transform="matrix(1,0,0,1,1679.6094970703125,407.1631164550781)" style="cursor: default;"><rect joint-selector="rect" id="v-131" fill="#ffffff" rx="3" ry="3" pointer-events="none" width="183.79998779296875" height="58.79999923706055" transform="matrix(1,0,0,1,-91.9000015258789,-29.399999618530273)"></rect><text joint-selector="text" id="v-130" font-size="24px" xml:space="preserve" y="0.8em" fill="#707070" text-anchor="middle" pointer-events="none" font-family="Roboto" font-weight="normal" transform="matrix(1,0,0,1,0,-24.600000381469727)"><tspan  dy="0">2: Runs inference</tspan><tspan dy="1.2em" x="0" >on new data</tspan></text></g><g id="v-129"  label-idx="1" cursor="move" transform="matrix(1,0,0,1,1669.6094970703125,447.963134765625)" style="cursor: default;"><rect joint-selector="rect" id="v-133" fill="#ffffff" rx="3" ry="3"  width="0" height="0" transform="matrix(1,0,0,1,0,0)" display="none"></rect><text joint-selector="text" id="v-132" fill="#000000" font-size="14" text-anchor="middle" pointer-events="none"></text></g></g><g  display="none"><g  transform="translate(2080, 400)" id="v-124"><circle  idx="0" r="10"></circle><path  idx="0" d="M16,5.333c-7.732,0-14,4.701-14,10.5c0,1.982,0.741,3.833,2.016,5.414L2,25.667l5.613-1.441c2.339,1.317,5.237,2.107,8.387,2.107c7.732,0,14-4.701,14-10.5C30,10.034,23.732,5.333,16,5.333z" transform="translate(5, -33)"></path><path  idx="0" transform="scale(.8) translate(9.5, -37)" d="M24.778,21.419 19.276,15.917 24.777,10.415 21.949,7.585 16.447,13.087 10.945,7.585 8.117,10.415 13.618,15.917 8.116,21.419 10.946,24.248 16.447,18.746 21.948,24.248z"><title>Remove vertex.</title></path></g><g  transform="translate(1515, 410)" id="v-125"><circle  idx="1" r="10"></circle><path  idx="1" d="M16,5.333c-7.732,0-14,4.701-14,10.5c0,1.982,0.741,3.833,2.016,5.414L2,25.667l5.613-1.441c2.339,1.317,5.237,2.107,8.387,2.107c7.732,0,14-4.701,14-10.5C30,10.034,23.732,5.333,16,5.333z" transform="translate(5, -33)"></path><path  idx="1" transform="scale(.8) translate(9.5, -37)" d="M24.778,21.419 19.276,15.917 24.777,10.415 21.949,7.585 16.447,13.087 10.945,7.585 8.117,10.415 13.618,15.917 8.116,21.419 10.946,24.248 16.447,18.746 21.948,24.248z"><title>Remove vertex.</title></path></g></g><g  id="v-138" display="none"><g  id="v-126"><path  end="source" d="M 26 0 L 0 13 L 26 26 z"></path></g><g  id="v-127"><path  end="target" d="M 26 0 L 0 13 L 26 26 z"></path></g></g><g  id="v-137" display="none"><g  id="v-123" transform="translate(2065.428329307484, 400.0838838659177) "><g  event="remove"><circle r="11"></circle><path transform="scale(.8) translate(-16, -16)" d="M24.778,21.419 19.276,15.917 24.777,10.415 21.949,7.585 16.447,13.087 10.945,7.585 8.117,10.415 13.618,15.917 8.116,21.419 10.946,24.248 16.447,18.746 21.948,24.248z"></path><title>Remove link.</title></g><g  event="link:options"><circle r="11" transform="translate(25)"></circle><path fill="white" transform="scale(.55) translate(29, -16)" d="M31.229,17.736c0.064-0.571,0.104-1.148,0.104-1.736s-0.04-1.166-0.104-1.737l-4.377-1.557c-0.218-0.716-0.504-1.401-0.851-2.05l1.993-4.192c-0.725-0.91-1.549-1.734-2.458-2.459l-4.193,1.994c-0.647-0.347-1.334-0.632-2.049-0.849l-1.558-4.378C17.165,0.708,16.588,0.667,16,0.667s-1.166,0.041-1.737,0.105L12.707,5.15c-0.716,0.217-1.401,0.502-2.05,0.849L6.464,4.005C5.554,4.73,4.73,5.554,4.005,6.464l1.994,4.192c-0.347,0.648-0.632,1.334-0.849,2.05l-4.378,1.557C0.708,14.834,0.667,15.412,0.667,16s0.041,1.165,0.105,1.736l4.378,1.558c0.217,0.715,0.502,1.401,0.849,2.049l-1.994,4.193c0.725,0.909,1.549,1.733,2.459,2.458l4.192-1.993c0.648,0.347,1.334,0.633,2.05,0.851l1.557,4.377c0.571,0.064,1.148,0.104,1.737,0.104c0.588,0,1.165-0.04,1.736-0.104l1.558-4.377c0.715-0.218,1.399-0.504,2.049-0.851l4.193,1.993c0.909-0.725,1.733-1.549,2.458-2.458l-1.993-4.193c0.347-0.647,0.633-1.334,0.851-2.049L31.229,17.736zM16,20.871c-2.69,0-4.872-2.182-4.872-4.871c0-2.69,2.182-4.872,4.872-4.872c2.689,0,4.871,2.182,4.871,4.872C20.871,18.689,18.689,20.871,16,20.871z"></path><title>Link options.</title></g></g></g></g><!--z-index:31--><g   id="j_13" ><path  stroke="#707070" d="M 1285 832 L 1005 840 C 998.3333333333333 840 994.9999999999999 843.3333333333333 995 850 L 1003 1640" id="v-152" stroke-width="2" stroke-dasharray="30 30" fill="none"></path><path  fill="black" stroke="black" d="M 0 0 0 0" transform="matrix(-0.9995757341384888,0.029125535860657692,-0.029125535860657692,-0.9995757341384888,1285,831.5499877929688)"></path><path  fill="#707070" stroke="#707070" d="M 20 0 L 0 10 L 20 20 z" id="v-154" transform="matrix(-0.010524618439376354,-0.9999446272850037,0.9999446272850037,-0.010524618439376354,993.4205322265625,1640.1053466796875)"></path><path  d="M 1285 832 L 1005 840 C 998.3333333333333 840 994.9999999999999 843.3333333333333 995 850 L 1003 1640" id="v-153" fill="none" style="cursor: default;"></path><g ><g id="v-146"  label-idx="0" cursor="move" transform="matrix(1,0,0,1,997.4995727539062,1096.835205078125)" style="cursor: default;"><rect joint-selector="rect" id="v-149" fill="#ffffff" rx="3" ry="3" pointer-events="none" width="141.34999084472656" height="87.60000228881836" transform="matrix(1,0,0,1,-70.69999694824219,-43.79999923706055)"></rect><text joint-selector="text" id="v-148" font-size="24px" xml:space="preserve" y="0.8em" fill="#707070" text-anchor="middle" pointer-events="none" font-family="Roboto" font-weight="normal" transform="matrix(1,0,0,1,0,-39)"><tspan  dy="0">3: Sends new</tspan><tspan dy="1.2em" x="0" >data for drift</tspan><tspan dy="1.2em" x="0" >detection</tspan></text></g><g id="v-147"  label-idx="1" cursor="move" transform="matrix(1,0,0,1,987.4995727539062,1152.03515625)" style="cursor: default;"><rect joint-selector="rect" id="v-151" fill="#ffffff" rx="3" ry="3"  width="0" height="0" transform="matrix(1,0,0,1,0,0)" display="none"></rect><text joint-selector="text" id="v-150" fill="#000000" font-size="14" text-anchor="middle" pointer-events="none"></text></g></g><g  display="none"><g  transform="translate(995, 840)" id="v-398"><circle  idx="0" r="10"></circle><path  idx="0" d="M16,5.333c-7.732,0-14,4.701-14,10.5c0,1.982,0.741,3.833,2.016,5.414L2,25.667l5.613-1.441c2.339,1.317,5.237,2.107,8.387,2.107c7.732,0,14-4.701,14-10.5C30,10.034,23.732,5.333,16,5.333z" transform="translate(5, -33)"></path><path  idx="0" transform="scale(.8) translate(9.5, -37)" d="M24.778,21.419 19.276,15.917 24.777,10.415 21.949,7.585 16.447,13.087 10.945,7.585 8.117,10.415 13.618,15.917 8.116,21.419 10.946,24.248 16.447,18.746 21.948,24.248z"><title>Remove vertex.</title></path></g></g><g  id="v-156" display="none"><g  id="v-144"><path  end="source" d="M 26 0 L 0 13 L 26 26 z"></path></g><g  id="v-145"><path  end="target" d="M 26 0 L 0 13 L 26 26 z"></path></g></g><g  id="v-155" display="none"><g  id="v-142" transform="translate(1245.0163165415722, 833.1423909559551) "><g  event="remove"><circle r="11"></circle><path transform="scale(.8) translate(-16, -16)" d="M24.778,21.419 19.276,15.917 24.777,10.415 21.949,7.585 16.447,13.087 10.945,7.585 8.117,10.415 13.618,15.917 8.116,21.419 10.946,24.248 16.447,18.746 21.948,24.248z"></path><title>Remove link.</title></g><g  event="link:options"><circle r="11" transform="translate(25)"></circle><path fill="white" transform="scale(.55) translate(29, -16)" d="M31.229,17.736c0.064-0.571,0.104-1.148,0.104-1.736s-0.04-1.166-0.104-1.737l-4.377-1.557c-0.218-0.716-0.504-1.401-0.851-2.05l1.993-4.192c-0.725-0.91-1.549-1.734-2.458-2.459l-4.193,1.994c-0.647-0.347-1.334-0.632-2.049-0.849l-1.558-4.378C17.165,0.708,16.588,0.667,16,0.667s-1.166,0.041-1.737,0.105L12.707,5.15c-0.716,0.217-1.401,0.502-2.05,0.849L6.464,4.005C5.554,4.73,4.73,5.554,4.005,6.464l1.994,4.192c-0.347,0.648-0.632,1.334-0.849,2.05l-4.378,1.557C0.708,14.834,0.667,15.412,0.667,16s0.041,1.165,0.105,1.736l4.378,1.558c0.217,0.715,0.502,1.401,0.849,2.049l-1.994,4.193c0.725,0.909,1.549,1.733,2.459,2.458l4.192-1.993c0.648,0.347,1.334,0.633,2.05,0.851l1.557,4.377c0.571,0.064,1.148,0.104,1.737,0.104c0.588,0,1.165-0.04,1.736-0.104l1.558-4.377c0.715-0.218,1.399-0.504,2.049-0.851l4.193,1.993c0.909-0.725,1.733-1.549,2.458-2.458l-1.993-4.193c0.347-0.647,0.633-1.334,0.851-2.049L31.229,17.736zM16,20.871c-2.69,0-4.872-2.182-4.872-4.871c0-2.69,2.182-4.872,4.872-4.872c2.689,0,4.871,2.182,4.871,4.872C20.871,18.689,18.689,20.871,16,20.871z"></path><title>Link options.</title></g></g></g></g><!--z-index:32--><g   id="j_14" ><path  stroke="#707070" d="M 780 1793 L 590 1795 C 583.3333333333333 1794.9999999999998 580 1791.6666666666665 580 1785 L 584 1130" id="v-169" stroke-width="2" stroke-dasharray="30 30" fill="none"></path><path  fill="black" stroke="black" d="M 0 0 0 0" transform="matrix(-0.9999309778213501,0.01174906361848116,-0.01174906361848116,-0.9999309778213501,780,1792.6500244140625)"></path><path  fill="#707070" stroke="#707070" d="M 20 0 L 0 10 L 20 20 z" id="v-171" transform="matrix(-0.0061352187767624855,0.999981164932251,-0.999981164932251,-0.0061352187767624855,594.079833984375,1130.061279296875)"></path><path  d="M 780 1793 L 590 1795 C 583.3333333333333 1794.9999999999998 580 1791.6666666666665 580 1785 L 584 1130" id="v-170" fill="none" style="cursor: default;"></path><g ><g id="v-163"  label-idx="0" cursor="move" transform="matrix(1,0,0,1,581.3702392578125,1560.61865234375)" style="cursor: default;"><rect joint-selector="rect" id="v-166" fill="#ffffff" rx="3" ry="3" pointer-events="none" width="164.6999969482422" height="87.60000228881836" transform="matrix(1,0,0,1,-82.30000305175781,-43.79999923706055)"></rect><text joint-selector="text" id="v-165" font-size="24px" xml:space="preserve" y="0.8em" fill="#707070" text-anchor="middle" pointer-events="none" font-family="Roboto" font-weight="normal" transform="matrix(1,0,0,1,0,-39)"><tspan  dy="0">4: Updates</tspan><tspan dy="1.2em" x="0" >dashboard with</tspan><tspan dy="1.2em" x="0" >drift status</tspan></text></g><g id="v-164"  label-idx="1" cursor="move" transform="matrix(1,0,0,1,571.3702392578125,1615.818603515625)" style="cursor: default;"><rect joint-selector="rect" id="v-168" fill="#ffffff" rx="3" ry="3"  width="0" height="0" transform="matrix(1,0,0,1,0,0)" display="none"></rect><text joint-selector="text" id="v-167" fill="#000000" font-size="14" text-anchor="middle" pointer-events="none"></text></g></g><g  display="none"><g  transform="translate(580, 1795)" id="v-343"><circle  idx="0" r="10"></circle><path  idx="0" d="M16,5.333c-7.732,0-14,4.701-14,10.5c0,1.982,0.741,3.833,2.016,5.414L2,25.667l5.613-1.441c2.339,1.317,5.237,2.107,8.387,2.107c7.732,0,14-4.701,14-10.5C30,10.034,23.732,5.333,16,5.333z" transform="translate(5, -33)"></path><path  idx="0" transform="scale(.8) translate(9.5, -37)" d="M24.778,21.419 19.276,15.917 24.777,10.415 21.949,7.585 16.447,13.087 10.945,7.585 8.117,10.415 13.618,15.917 8.116,21.419 10.946,24.248 16.447,18.746 21.948,24.248z"><title>Remove vertex.</title></path></g></g><g  id="v-173" display="none"><g  id="v-161"><path  end="source" d="M 26 0 L 0 13 L 26 26 z"></path></g><g  id="v-162"><path  end="target" d="M 26 0 L 0 13 L 26 26 z"></path></g></g><g  id="v-172" display="none"><g  id="v-160" transform="translate(740.0022158823383, 1793.4210293065016) "><g  event="remove"><circle r="11"></circle><path transform="scale(.8) translate(-16, -16)" d="M24.778,21.419 19.276,15.917 24.777,10.415 21.949,7.585 16.447,13.087 10.945,7.585 8.117,10.415 13.618,15.917 8.116,21.419 10.946,24.248 16.447,18.746 21.948,24.248z"></path><title>Remove link.</title></g><g  event="link:options"><circle r="11" transform="translate(25)"></circle><path fill="white" transform="scale(.55) translate(29, -16)" d="M31.229,17.736c0.064-0.571,0.104-1.148,0.104-1.736s-0.04-1.166-0.104-1.737l-4.377-1.557c-0.218-0.716-0.504-1.401-0.851-2.05l1.993-4.192c-0.725-0.91-1.549-1.734-2.458-2.459l-4.193,1.994c-0.647-0.347-1.334-0.632-2.049-0.849l-1.558-4.378C17.165,0.708,16.588,0.667,16,0.667s-1.166,0.041-1.737,0.105L12.707,5.15c-0.716,0.217-1.401,0.502-2.05,0.849L6.464,4.005C5.554,4.73,4.73,5.554,4.005,6.464l1.994,4.192c-0.347,0.648-0.632,1.334-0.849,2.05l-4.378,1.557C0.708,14.834,0.667,15.412,0.667,16s0.041,1.165,0.105,1.736l4.378,1.558c0.217,0.715,0.502,1.401,0.849,2.049l-1.994,4.193c0.725,0.909,1.549,1.733,2.459,2.458l4.192-1.993c0.648,0.347,1.334,0.633,2.05,0.851l1.557,4.377c0.571,0.064,1.148,0.104,1.737,0.104c0.588,0,1.165-0.04,1.736-0.104l1.558-4.377c0.715-0.218,1.399-0.504,2.049-0.851l4.193,1.993c0.909-0.725,1.733-1.549,2.458-2.458l-1.993-4.193c0.347-0.647,0.633-1.334,0.851-2.049L31.229,17.736zM16,20.871c-2.69,0-4.872-2.182-4.872-4.871c0-2.69,2.182-4.872,4.872-4.872c2.689,0,4.871,2.182,4.871,4.872C20.871,18.689,18.689,20.871,16,20.871z"></path><title>Link options.</title></g></g></g></g><!--z-index:33--><g   id="j_15" ><path  stroke="#707070" d="M 587 830 L 592 555" id="v-186" stroke-width="2" stroke-dasharray="30 30" fill="none"></path><path  fill="black" stroke="black" d="M 0 0 0 0" transform="matrix(0.0159979909658432,-0.9998720288276672,0.9998720288276672,0.0159979909658432,587.4000244140625,830)"></path><path  fill="#707070" stroke="#707070" d="M 20 0 L 0 10 L 20 20 z" id="v-188" transform="matrix(-0.0159979909658432,0.9998720288276672,-0.9998720288276672,-0.0159979909658432,601.7987060546875,555.1599731445312)"></path><path  d="M 587 830 L 592 555" id="v-187" fill="none" style="cursor: default;"></path><g ><g id="v-180"  label-idx="0" cursor="move" transform="matrix(1,0,0,1,589.5,692.5)" style="cursor: default;"><rect joint-selector="rect" id="v-183" fill="#ffffff" rx="3" ry="3" pointer-events="none" width="189.79998779296875" height="87.60000228881836" transform="matrix(1,0,0,1,-94.19999694824219,-43.79999923706055)"></rect><text joint-selector="text" id="v-182" font-size="24px" xml:space="preserve" y="0.8em" fill="#707070" text-anchor="middle" pointer-events="none" font-family="Roboto" font-weight="normal" transform="matrix(1,0,0,1,0,-39)"><tspan  dy="0">5: Notifies user of</tspan><tspan dy="1.2em" x="0" >possible drift</tspan><tspan dy="1.2em" x="0" >occurence</tspan></text></g><g id="v-181"  label-idx="1" cursor="move" transform="matrix(1,0,0,1,579.5,747.7000122070312)" style="cursor: default;"><rect joint-selector="rect" id="v-185" fill="#ffffff" rx="3" ry="3"  width="0" height="0" transform="matrix(1,0,0,1,0,0)" display="none"></rect><text joint-selector="text" id="v-184" fill="#000000" font-size="14" text-anchor="middle" pointer-events="none"></text></g></g><g  display="none"></g><g  id="v-190" display="none"><g  id="v-178"><path  end="source" d="M 26 0 L 0 13 L 26 26 z"></path></g><g  id="v-179"><path  end="target" d="M 26 0 L 0 13 L 26 26 z"></path></g></g><g  id="v-189" display="none"><g  id="v-177" transform="translate(587.7271525467006, 790.0066099314671) "><g  event="remove"><circle r="11"></circle><path transform="scale(.8) translate(-16, -16)" d="M24.778,21.419 19.276,15.917 24.777,10.415 21.949,7.585 16.447,13.087 10.945,7.585 8.117,10.415 13.618,15.917 8.116,21.419 10.946,24.248 16.447,18.746 21.948,24.248z"></path><title>Remove link.</title></g><g  event="link:options"><circle r="11" transform="translate(25)"></circle><path fill="white" transform="scale(.55) translate(29, -16)" d="M31.229,17.736c0.064-0.571,0.104-1.148,0.104-1.736s-0.04-1.166-0.104-1.737l-4.377-1.557c-0.218-0.716-0.504-1.401-0.851-2.05l1.993-4.192c-0.725-0.91-1.549-1.734-2.458-2.459l-4.193,1.994c-0.647-0.347-1.334-0.632-2.049-0.849l-1.558-4.378C17.165,0.708,16.588,0.667,16,0.667s-1.166,0.041-1.737,0.105L12.707,5.15c-0.716,0.217-1.401,0.502-2.05,0.849L6.464,4.005C5.554,4.73,4.73,5.554,4.005,6.464l1.994,4.192c-0.347,0.648-0.632,1.334-0.849,2.05l-4.378,1.557C0.708,14.834,0.667,15.412,0.667,16s0.041,1.165,0.105,1.736l4.378,1.558c0.217,0.715,0.502,1.401,0.849,2.049l-1.994,4.193c0.725,0.909,1.549,1.733,2.459,2.458l4.192-1.993c0.648,0.347,1.334,0.633,2.05,0.851l1.557,4.377c0.571,0.064,1.148,0.104,1.737,0.104c0.588,0,1.165-0.04,1.736-0.104l1.558-4.377c0.715-0.218,1.399-0.504,2.049-0.851l4.193,1.993c0.909-0.725,1.733-1.549,2.458-2.458l-1.993-4.193c0.347-0.647,0.633-1.334,0.851-2.049L31.229,17.736zM16,20.871c-2.69,0-4.872-2.182-4.872-4.871c0-2.69,2.182-4.872,4.872-4.872c2.689,0,4.871,2.182,4.871,4.872C20.871,18.689,18.689,20.871,16,20.871z"></path><title>Link options.</title></g></g></g></g><!--z-index:34--><g   id="j_16" ><path  stroke="#707070" d="M 1230 1790 L 1520 1790 C 1526.6666666666665 1790 1530 1786.6666666666665 1530 1780 L 1513 975" id="v-203" stroke-width="2" stroke-dasharray="30 30" fill="none"></path><path  fill="black" stroke="black" d="M 0 0 0 0" transform="matrix(1,0,0,1,1230,1790)"></path><path  fill="#707070" stroke="#707070" d="M 20 0 L 0 10 L 20 20 z" id="v-205" transform="matrix(0.020719507709145546,0.999785304069519,-0.999785304069519,0.020719507709145546,1523.1077880859375,974.7927856445312)"></path><path  d="M 1230 1790 L 1520 1790 C 1526.6666666666665 1790 1530 1786.6666666666665 1530 1780 L 1513 975" id="v-204" fill="none" style="cursor: default;"></path><g ><g id="v-197"  label-idx="0" cursor="move" transform="matrix(1,0,0,1,1524.7327880859375,1530.5811767578125)" style="cursor: default;"><rect joint-selector="rect" id="v-200" fill="#ffffff" rx="3" ry="3" pointer-events="none" width="185.09999084472656" height="116.40000534057617" transform="matrix(1,0,0,1,-92.5999984741211,-58.20000076293945)"></rect><text joint-selector="text" id="v-199" font-size="24px" xml:space="preserve" y="0.8em" fill="#707070" text-anchor="middle" pointer-events="none" font-family="Roboto" font-weight="normal" transform="matrix(1,0,0,1,0,-53.400001525878906)"><tspan  dy="0">6: Requests</tspan><tspan dy="1.2em" x="0" >model retraining</tspan><tspan dy="1.2em" x="0" >if data is valid</tspan><tspan dy="1.2em" x="0" >and not poisoned</tspan></text></g><g id="v-198"  label-idx="1" cursor="move" transform="matrix(1,0,0,1,1514.7327880859375,1600.18115234375)" style="cursor: default;"><rect joint-selector="rect" id="v-202" fill="#ffffff" rx="3" ry="3"  width="0" height="0" transform="matrix(1,0,0,1,0,0)" display="none"></rect><text joint-selector="text" id="v-201" fill="#000000" font-size="14" text-anchor="middle" pointer-events="none"></text></g></g><g  display="none"><g  transform="translate(1530, 1790)" id="v-383"><circle  idx="0" r="10"></circle><path  idx="0" d="M16,5.333c-7.732,0-14,4.701-14,10.5c0,1.982,0.741,3.833,2.016,5.414L2,25.667l5.613-1.441c2.339,1.317,5.237,2.107,8.387,2.107c7.732,0,14-4.701,14-10.5C30,10.034,23.732,5.333,16,5.333z" transform="translate(5, -33)"></path><path  idx="0" transform="scale(.8) translate(9.5, -37)" d="M24.778,21.419 19.276,15.917 24.777,10.415 21.949,7.585 16.447,13.087 10.945,7.585 8.117,10.415 13.618,15.917 8.116,21.419 10.946,24.248 16.447,18.746 21.948,24.248z"><title>Remove vertex.</title></path></g></g><g  id="v-207" display="none"><g  id="v-195"><path  end="source" d="M 26 0 L 0 13 L 26 26 z"></path></g><g  id="v-196"><path  end="target" d="M 26 0 L 0 13 L 26 26 z"></path></g></g><g  id="v-206" display="none"><g  id="v-194" transform="translate(1269.9999999999998, 1789.9999999999998) "><g  event="remove"><circle r="11"></circle><path transform="scale(.8) translate(-16, -16)" d="M24.778,21.419 19.276,15.917 24.777,10.415 21.949,7.585 16.447,13.087 10.945,7.585 8.117,10.415 13.618,15.917 8.116,21.419 10.946,24.248 16.447,18.746 21.948,24.248z"></path><title>Remove link.</title></g><g  event="link:options"><circle r="11" transform="translate(25)"></circle><path fill="white" transform="scale(.55) translate(29, -16)" d="M31.229,17.736c0.064-0.571,0.104-1.148,0.104-1.736s-0.04-1.166-0.104-1.737l-4.377-1.557c-0.218-0.716-0.504-1.401-0.851-2.05l1.993-4.192c-0.725-0.91-1.549-1.734-2.458-2.459l-4.193,1.994c-0.647-0.347-1.334-0.632-2.049-0.849l-1.558-4.378C17.165,0.708,16.588,0.667,16,0.667s-1.166,0.041-1.737,0.105L12.707,5.15c-0.716,0.217-1.401,0.502-2.05,0.849L6.464,4.005C5.554,4.73,4.73,5.554,4.005,6.464l1.994,4.192c-0.347,0.648-0.632,1.334-0.849,2.05l-4.378,1.557C0.708,14.834,0.667,15.412,0.667,16s0.041,1.165,0.105,1.736l4.378,1.558c0.217,0.715,0.502,1.401,0.849,2.049l-1.994,4.193c0.725,0.909,1.549,1.733,2.459,2.458l4.192-1.993c0.648,0.347,1.334,0.633,2.05,0.851l1.557,4.377c0.571,0.064,1.148,0.104,1.737,0.104c0.588,0,1.165-0.04,1.736-0.104l1.558-4.377c0.715-0.218,1.399-0.504,2.049-0.851l4.193,1.993c0.909-0.725,1.733-1.549,2.458-2.458l-1.993-4.193c0.347-0.647,0.633-1.334,0.851-2.049L31.229,17.736zM16,20.871c-2.69,0-4.872-2.182-4.872-4.871c0-2.69,2.182-4.872,4.872-4.872c2.689,0,4.871,2.182,4.871,4.872C20.871,18.689,18.689,20.871,16,20.871z"></path><title>Link options.</title></g></g></g></g><!--z-index:35--><g   id="j_17" ><path  stroke="#707070" d="M 1735 826 L 2080 829" id="v-220" stroke-width="2" stroke-dasharray="30 30" fill="none"></path><path  fill="black" stroke="black" d="M 0 0 0 0" transform="matrix(0.9999803900718689,0.006260747089982033,-0.006260747089982033,0.9999803900718689,1735,826.4199829101562)"></path><path  fill="#707070" stroke="#707070" d="M 20 0 L 0 10 L 20 20 z" id="v-222" transform="matrix(-0.9999803900718689,-0.006260784342885017,0.006260784342885017,-0.9999803900718689,2079.9375,838.579833984375)"></path><path  d="M 1735 826 L 2080 829" id="v-221" fill="none" style="cursor: default;"></path><g ><g id="v-214"  label-idx="0" cursor="move" transform="matrix(1,0,0,1,1907.5,827.5)" style="cursor: default;"><rect joint-selector="rect" id="v-217" fill="#ffffff" rx="3" ry="3" pointer-events="none" width="182.75" height="145.20000457763672" transform="matrix(1,0,0,1,-90.5,-72.5999984741211)"></rect><text joint-selector="text" id="v-216" font-size="24px" xml:space="preserve" y="0.8em" fill="#707070" text-anchor="middle" pointer-events="none" font-family="Roboto" font-weight="normal" transform="matrix(1,0,0,1,0,-67.80000305175781)"><tspan  dy="0">7: Creates new</tspan><tspan dy="1.2em" x="0" >Docker container</tspan><tspan dy="1.2em" x="0" >for retrained/</tspan><tspan dy="1.2em" x="0" >rolled-back</tspan><tspan dy="1.2em" x="0" >model</tspan></text></g><g id="v-215"  label-idx="1" cursor="move" transform="matrix(1,0,0,1,1897.5,911.5)" style="cursor: default;"><rect joint-selector="rect" id="v-219" fill="#ffffff" rx="3" ry="3"  width="0" height="0" transform="matrix(1,0,0,1,0,0)" display="none"></rect><text joint-selector="text" id="v-218" fill="#000000" font-size="14" text-anchor="middle" pointer-events="none"></text></g></g><g  display="none"></g><g  id="v-224" display="none"><g  id="v-212"><path  end="source" d="M 26 0 L 0 13 L 26 26 z"></path></g><g  id="v-213"><path  end="target" d="M 26 0 L 0 13 L 26 26 z"></path></g></g><g  id="v-223" display="none"><g  id="v-211" transform="translate(1774.998487798423, 826.3478129373776) "><g  event="remove"><circle r="11"></circle><path transform="scale(.8) translate(-16, -16)" d="M24.778,21.419 19.276,15.917 24.777,10.415 21.949,7.585 16.447,13.087 10.945,7.585 8.117,10.415 13.618,15.917 8.116,21.419 10.946,24.248 16.447,18.746 21.948,24.248z"></path><title>Remove link.</title></g><g  event="link:options"><circle r="11" transform="translate(25)"></circle><path fill="white" transform="scale(.55) translate(29, -16)" d="M31.229,17.736c0.064-0.571,0.104-1.148,0.104-1.736s-0.04-1.166-0.104-1.737l-4.377-1.557c-0.218-0.716-0.504-1.401-0.851-2.05l1.993-4.192c-0.725-0.91-1.549-1.734-2.458-2.459l-4.193,1.994c-0.647-0.347-1.334-0.632-2.049-0.849l-1.558-4.378C17.165,0.708,16.588,0.667,16,0.667s-1.166,0.041-1.737,0.105L12.707,5.15c-0.716,0.217-1.401,0.502-2.05,0.849L6.464,4.005C5.554,4.73,4.73,5.554,4.005,6.464l1.994,4.192c-0.347,0.648-0.632,1.334-0.849,2.05l-4.378,1.557C0.708,14.834,0.667,15.412,0.667,16s0.041,1.165,0.105,1.736l4.378,1.558c0.217,0.715,0.502,1.401,0.849,2.049l-1.994,4.193c0.725,0.909,1.549,1.733,2.459,2.458l4.192-1.993c0.648,0.347,1.334,0.633,2.05,0.851l1.557,4.377c0.571,0.064,1.148,0.104,1.737,0.104c0.588,0,1.165-0.04,1.736-0.104l1.558-4.377c0.715-0.218,1.399-0.504,2.049-0.851l4.193,1.993c0.909-0.725,1.733-1.549,2.458-2.458l-1.993-4.193c0.347-0.647,0.633-1.334,0.851-2.049L31.229,17.736zM16,20.871c-2.69,0-4.872-2.182-4.872-4.871c0-2.69,2.182-4.872,4.872-4.872c2.689,0,4.871,2.182,4.871,4.872C20.871,18.689,18.689,20.871,16,20.871z"></path><title>Link options.</title></g></g></g></g><!--z-index:36--><g   id="j_18" ><path  stroke="#707070" d="M 1597 975 L 1599 978 C 1599.6666666666665 979.3333333333333 1599.9999999999998 983.3333333333333 1600 990 L 1610 1210 C 1610 1216.6666666666665 1613.3333333333333 1220 1620 1220 L 2095 1220" id="v-237" stroke-width="2" stroke-dasharray="30 30" fill="none"></path><path  fill="black" stroke="black" d="M 0 0 0 0" transform="matrix(0.5017180442810059,0.8650311827659607,-0.8650311827659607,0.5017180442810059,1597.0999755859375,975)"></path><path  fill="#707070" stroke="#707070" d="M 20 0 L 0 10 L 20 20 z" id="v-239" transform="matrix(-1,1.2246468525851679e-16,-1.2246468525851679e-16,-1,2095,1230)"></path><path  d="M 1597 975 L 1599 978 C 1599.6666666666665 979.3333333333333 1599.9999999999998 983.3333333333333 1600 990 L 1610 1210 C 1610 1216.6666666666665 1613.3333333333333 1220 1620 1220 L 2095 1220" id="v-238" fill="none" style="cursor: default;"></path><g ><g id="v-231"  label-idx="0" cursor="move" transform="matrix(1,0,0,1,1731.42236328125,1220)" style="cursor: default;"><rect joint-selector="rect" id="v-234" fill="#ffffff" rx="3" ry="3" pointer-events="none" width="186.9499969482422" height="87.60000228881836" transform="matrix(1,0,0,1,-93.30000305175781,-43.79999923706055)"></rect><text joint-selector="text" id="v-233" font-size="24px" xml:space="preserve" y="0.8em" fill="#707070" text-anchor="middle" pointer-events="none" font-family="Roboto" font-weight="normal" transform="matrix(1,0,0,1,0,-39)"><tspan  dy="0">8: Updates model</tspan><tspan dy="1.2em" x="0" >repository with</tspan><tspan dy="1.2em" x="0" >new version</tspan></text></g><g id="v-232"  label-idx="1" cursor="move" transform="matrix(1,0,0,1,1721.42236328125,1275.199951171875)" style="cursor: default;"><rect joint-selector="rect" id="v-236" fill="#ffffff" rx="3" ry="3"  width="0" height="0" transform="matrix(1,0,0,1,0,0)" display="none"></rect><text joint-selector="text" id="v-235" fill="#000000" font-size="14" text-anchor="middle" pointer-events="none"></text></g></g><g  display="none"><g  transform="translate(1600, 980)" id="v-454"><circle  idx="0" r="10"></circle><path  idx="0" d="M16,5.333c-7.732,0-14,4.701-14,10.5c0,1.982,0.741,3.833,2.016,5.414L2,25.667l5.613-1.441c2.339,1.317,5.237,2.107,8.387,2.107c7.732,0,14-4.701,14-10.5C30,10.034,23.732,5.333,16,5.333z" transform="translate(5, -33)"></path><path  idx="0" transform="scale(.8) translate(9.5, -37)" d="M24.778,21.419 19.276,15.917 24.777,10.415 21.949,7.585 16.447,13.087 10.945,7.585 8.117,10.415 13.618,15.917 8.116,21.419 10.946,24.248 16.447,18.746 21.948,24.248z"><title>Remove vertex.</title></path></g><g  transform="translate(1610, 1220)" id="v-455"><circle  idx="1" r="10"></circle><path  idx="1" d="M16,5.333c-7.732,0-14,4.701-14,10.5c0,1.982,0.741,3.833,2.016,5.414L2,25.667l5.613-1.441c2.339,1.317,5.237,2.107,8.387,2.107c7.732,0,14-4.701,14-10.5C30,10.034,23.732,5.333,16,5.333z" transform="translate(5, -33)"></path><path  idx="1" transform="scale(.8) translate(9.5, -37)" d="M24.778,21.419 19.276,15.917 24.777,10.415 21.949,7.585 16.447,13.087 10.945,7.585 8.117,10.415 13.618,15.917 8.116,21.419 10.946,24.248 16.447,18.746 21.948,24.248z"><title>Remove vertex.</title></path></g></g><g  id="v-241" display="none"><g  id="v-229"><path  end="source" d="M 26 0 L 0 13 L 26 26 z"></path></g><g  id="v-230"><path  end="target" d="M 26 0 L 0 13 L 26 26 z"></path></g></g><g  id="v-240" display="none"><g  id="v-228" transform="translate(1601.103523442191, 1014.2775157282013) "><g  event="remove"><circle r="11"></circle><path transform="scale(.8) translate(-16, -16)" d="M24.778,21.419 19.276,15.917 24.777,10.415 21.949,7.585 16.447,13.087 10.945,7.585 8.117,10.415 13.618,15.917 8.116,21.419 10.946,24.248 16.447,18.746 21.948,24.248z"></path><title>Remove link.</title></g><g  event="link:options"><circle r="11" transform="translate(25)"></circle><path fill="white" transform="scale(.55) translate(29, -16)" d="M31.229,17.736c0.064-0.571,0.104-1.148,0.104-1.736s-0.04-1.166-0.104-1.737l-4.377-1.557c-0.218-0.716-0.504-1.401-0.851-2.05l1.993-4.192c-0.725-0.91-1.549-1.734-2.458-2.459l-4.193,1.994c-0.647-0.347-1.334-0.632-2.049-0.849l-1.558-4.378C17.165,0.708,16.588,0.667,16,0.667s-1.166,0.041-1.737,0.105L12.707,5.15c-0.716,0.217-1.401,0.502-2.05,0.849L6.464,4.005C5.554,4.73,4.73,5.554,4.005,6.464l1.994,4.192c-0.347,0.648-0.632,1.334-0.849,2.05l-4.378,1.557C0.708,14.834,0.667,15.412,0.667,16s0.041,1.165,0.105,1.736l4.378,1.558c0.217,0.715,0.502,1.401,0.849,2.049l-1.994,4.193c0.725,0.909,1.549,1.733,2.459,2.458l4.192-1.993c0.648,0.347,1.334,0.633,2.05,0.851l1.557,4.377c0.571,0.064,1.148,0.104,1.737,0.104c0.588,0,1.165-0.04,1.736-0.104l1.558-4.377c0.715-0.218,1.399-0.504,2.049-0.851l4.193,1.993c0.909-0.725,1.733-1.549,2.458-2.458l-1.993-4.193c0.347-0.647,0.633-1.334,0.851-2.049L31.229,17.736zM16,20.871c-2.69,0-4.872-2.182-4.872-4.871c0-2.69,2.182-4.872,4.872-4.872c2.689,0,4.871,2.182,4.871,4.872C20.871,18.689,18.689,20.871,16,20.871z"></path><title>Link options.</title></g></g></g></g><!--z-index:37--><g   id="j_19" ><path  stroke="#707070" d="M 2321 1370 L 2324 1615" id="v-254" stroke-width="2" stroke-dasharray="30 30" fill="none"></path><path  fill="black" stroke="black" d="M 0 0 0 0" transform="matrix(0.009142505005002022,0.9999582171440125,-0.9999582171440125,0.009142505005002022,2321.3798828125,1370)"></path><path  fill="#707070" stroke="#707070" d="M 20 0 L 0 10 L 20 20 z" id="v-256" transform="matrix(-0.009142505005002022,-0.9999582171440125,0.9999582171440125,-0.009142505005002022,2313.620361328125,1615.0914306640625)"></path><path  d="M 2321 1370 L 2324 1615" id="v-255" fill="none" style="cursor: default;"></path><g ><g id="v-248"  label-idx="0" cursor="move" transform="matrix(1,0,0,1,2322.5,1492.5)" style="cursor: default;"><rect joint-selector="rect" id="v-251" fill="#ffffff" rx="3" ry="3" pointer-events="none" width="160.54998779296875" height="87.60000228881836" transform="matrix(1,0,0,1,-80.0999984741211,-43.79999923706055)"></rect><text joint-selector="text" id="v-250" font-size="24px" xml:space="preserve" y="0.8em" fill="#707070" text-anchor="middle" pointer-events="none" font-family="Roboto" font-weight="normal" transform="matrix(1,0,0,1,0,-39)"><tspan  dy="0">9: Triggers</tspan><tspan dy="1.2em" x="0" >deposit of</tspan><tspan dy="1.2em" x="0" >updated model</tspan></text></g><g id="v-249"  label-idx="1" cursor="move" transform="matrix(1,0,0,1,2312.5,1547.699951171875)" style="cursor: default;"><rect joint-selector="rect" id="v-253" fill="#ffffff" rx="3" ry="3"  width="0" height="0" transform="matrix(1,0,0,1,0,0)" display="none"></rect><text joint-selector="text" id="v-252" fill="#000000" font-size="14" text-anchor="middle" pointer-events="none"></text></g></g><g  display="none"></g><g  id="v-258" display="none"><g  id="v-246"><path  end="source" d="M 26 0 L 0 13 L 26 26 z"></path></g><g  id="v-247"><path  end="target" d="M 26 0 L 0 13 L 26 26 z"></path></g></g><g  id="v-257" display="none"><g  id="v-245" transform="translate(2321.489759203102, 1409.9970015866563) "><g  event="remove"><circle r="11"></circle><path transform="scale(.8) translate(-16, -16)" d="M24.778,21.419 19.276,15.917 24.777,10.415 21.949,7.585 16.447,13.087 10.945,7.585 8.117,10.415 13.618,15.917 8.116,21.419 10.946,24.248 16.447,18.746 21.948,24.248z"></path><title>Remove link.</title></g><g  event="link:options"><circle r="11" transform="translate(25)"></circle><path fill="white" transform="scale(.55) translate(29, -16)" d="M31.229,17.736c0.064-0.571,0.104-1.148,0.104-1.736s-0.04-1.166-0.104-1.737l-4.377-1.557c-0.218-0.716-0.504-1.401-0.851-2.05l1.993-4.192c-0.725-0.91-1.549-1.734-2.458-2.459l-4.193,1.994c-0.647-0.347-1.334-0.632-2.049-0.849l-1.558-4.378C17.165,0.708,16.588,0.667,16,0.667s-1.166,0.041-1.737,0.105L12.707,5.15c-0.716,0.217-1.401,0.502-2.05,0.849L6.464,4.005C5.554,4.73,4.73,5.554,4.005,6.464l1.994,4.192c-0.347,0.648-0.632,1.334-0.849,2.05l-4.378,1.557C0.708,14.834,0.667,15.412,0.667,16s0.041,1.165,0.105,1.736l4.378,1.558c0.217,0.715,0.502,1.401,0.849,2.049l-1.994,4.193c0.725,0.909,1.549,1.733,2.459,2.458l4.192-1.993c0.648,0.347,1.334,0.633,2.05,0.851l1.557,4.377c0.571,0.064,1.148,0.104,1.737,0.104c0.588,0,1.165-0.04,1.736-0.104l1.558-4.377c0.715-0.218,1.399-0.504,2.049-0.851l4.193,1.993c0.909-0.725,1.733-1.549,2.458-2.458l-1.993-4.193c0.347-0.647,0.633-1.334,0.851-2.049L31.229,17.736zM16,20.871c-2.69,0-4.872-2.182-4.872-4.871c0-2.69,2.182-4.872,4.872-4.872c2.689,0,4.871,2.182,4.871,4.872C20.871,18.689,18.689,20.871,16,20.871z"></path><title>Link options.</title></g></g></g></g><!--z-index:38--></g><g ></g><g ></g><g ></g></g></svg>