<svg xmlns="http://www.w3.org/2000/svg" xmlns:xlink="http://www.w3.org/1999/xlink" version="1.1" viewBox="0 0 2720 1854" style="background: #ffffff"><defs><style>@import url(http://fonts.googleapis.com/css?family=Roboto);</style></defs><defs joint-selector="defs"></defs><g  joint-selector="layers" transform="matrix(1,0,0,1,0,0)"><g ></g><g ><!--z-index:1--><!--z-index:2--><!--z-index:3--><!--z-index:4--><!--z-index:5--><!--z-index:6--><!--z-index:7--><!--z-index:8--><!--z-index:9--><!--z-index:10--><!--z-index:11--><!--z-index:12--><!--z-index:13--><!--z-index:14--><!--z-index:15--><!--z-index:16--><!--z-index:17--><!--z-index:18--><!--z-index:19--><!--z-index:20--><g   id="j_2"  transform="translate(20,1817.6)"><g id="v-5"><text  id="v-6" font-size="22px" xml:space="preserve" y="0.8em" font-weight="normal" text-anchor="start" fill="#aaaaaa" pointer-events="none" display="block" font-family="Roboto"><tspan  dy="0" display="block">Wednesday, 26 June 2024 at 16:10 Central European Summer Time</tspan></text></g></g><!--z-index:21--><g   id="j_1"  transform="translate(20,1774.3999999999999)"><g id="v-3"><text  id="v-4" font-size="36px" xml:space="preserve" y="0.8em" font-weight="normal" text-anchor="start" fill="#000000" pointer-events="none" display="block" font-family="Roboto"><tspan  dy="0" display="block">[System Context] MLOps System</tspan></text></g></g><!--z-index:22--><g   id="j_3"  transform="translate(205,130)" style=""><g  id="v-10" style="opacity: 1;"><rect  x="0" y="160" width="400" height="240" rx="70" id="v-12" stroke="#00474d" stroke-width="2" pointer-events="visiblePainted" fill="#004f56" style="fill: rgb(0, 79, 86); stroke: rgb(0, 71, 77);"></rect><circle  cx="200" cy="88.88888888888889" r="88.88888888888889" id="v-11" stroke="#00474d" stroke-width="2" pointer-events="visiblePainted" fill="#004f56" style="fill: rgb(0, 79, 86); stroke: rgb(0, 71, 77);"></circle><line  x1="80" y1="266.6666666666667" x2="80" y2="400" id="v-18" stroke="#00474d" stroke-width="2" style="stroke: rgb(0, 71, 77);"></line><line  x1="320" y1="266.6666666666667" x2="320" y2="400" id="v-19" stroke="#00474d" stroke-width="2" style="stroke: rgb(0, 71, 77);"></line><text  id="v-13" font-size="34" xml:space="preserve" y="0.8em" font-weight="bold" text-anchor="middle" pointer-events="visible" font-family="Roboto" fill="#ffffff" transform="matrix(1,0,0,1,200,203.6999969482422)" style="fill: rgb(255, 255, 255);"><tspan  dy="0">EOSC User</tspan></text><text  id="v-14" font-size="17" xml:space="preserve" y="0.8em" text-anchor="middle" font-family="Roboto" fill="#ffffff" transform="matrix(1,0,0,1,200,244.5)" style="fill: rgb(255, 255, 255);"><tspan  dy="0">[Person]</tspan></text><text  id="v-15" font-size="24" xml:space="preserve" y="0.8em" text-anchor="middle" font-family="Roboto" fill="#ffffff" transform="matrix(1,0,0,1,200,274.8999938964844)" style="fill: rgb(255, 255, 255);"><tspan  dy="0">EOSC user willing to use an AI</tspan><tspan dy="1.2em" x="0" >platform to develop an AI</tspan><tspan dy="1.2em" x="0" >application.</tspan></text><g  id="v-16" font-weight="normal" text-anchor="middle" color="#ffffff" transform="matrix(1,0,0,1,197.5,368)" style="fill: rgb(255, 255, 255);" display="none"><g ></g><g ></g><g ></g><g ></g></g><image  id="v-17"></image></g></g><!--z-index:23--><g   id="j_5"  transform="translate(165,1230)" style=""><g id="v-33"><rect  id="v-34" width="2270" height="404" rx="0" ry="0" fill="#ffffff" stroke="#444444" stroke-width="1" stroke-dasharray="5,5" pointer-events="none"></rect><text  id="v-35" font-size="24px" xml:space="preserve" y="389" font-weight="normal" fill="#444444" text-anchor="start" pointer-events="visible" font-family="Roboto" transform="matrix(1,0,0,1,15,0)"><tspan  dy="0">AI4EOSC</tspan></text><text  id="v-36" font-size="17px" xml:space="preserve" display="none" y="389" font-weight="normal" fill="#444444" text-anchor="start" pointer-events="visible" font-family="Roboto" transform="matrix(1,0,0,1,15,0)"><tspan style="fill-opacity: 0; stroke-opacity: 0;"  dy="0">-</tspan></text><image  id="v-37" pointer-events="visible"></image></g></g><!--z-index:24--><g   id="j_4"  transform="translate(185,1250)" style=""><g  id="v-26" style="opacity: 1;"><rect  id="v-27" rx="20" ry="20" stroke="#e68da0" stroke-width="2" pointer-events="visiblePainted" fill="#ff9db2" width="450" height="300" style="fill: rgb(255, 157, 178); stroke: rgb(230, 141, 160);"></rect><text  id="v-28" font-size="34" xml:space="preserve" y="0.8em" font-weight="bold" text-anchor="middle" pointer-events="visible" font-family="Roboto" fill="#000000" transform="matrix(1,0,0,1,225,88.0999984741211)" style="fill: rgb(0, 0, 0);"><tspan  dy="0">AI4EOSC Platform</tspan></text><text  id="v-29" font-size="17" xml:space="preserve" y="0.8em" text-anchor="middle" font-family="Roboto" fill="#000000" transform="matrix(1,0,0,1,225,128.89999389648438)" style="fill: rgb(0, 0, 0);"><tspan  dy="0">[Software System]</tspan></text><text  id="v-30" font-size="24" xml:space="preserve" y="0.8em" text-anchor="middle" font-family="Roboto" fill="#000000" transform="matrix(1,0,0,1,225,159.3000030517578)" style="fill: rgb(0, 0, 0);"><tspan  dy="0">Allows EOSC users to develop, build</tspan><tspan dy="1.2em" x="0" >and share AI models.</tspan></text><g  id="v-31" color="#000000" transform="matrix(1,0,0,1,210,268)" style="fill: rgb(0, 0, 0);" display="none"><g  transform="translate(5 0)"><svg xmlns="http://www.w3.org/2000/svg" width="20" height="20" fill="currentColor" viewBox="0 0 16 16"><path fill-rule="evenodd" d="M6.5 12a5.5 5.5 0 1 0 0-11 5.5 5.5 0 0 0 0 11zM13 6.5a6.5 6.5 0 1 1-13 0 6.5 6.5 0 0 1 13 0z"></path><path d="M10.344 11.742c.03.04.062.078.098.115l3.85 3.85a1 1 0 0 0 1.415-1.414l-3.85-3.85a1.007 1.007 0 0 0-.115-.1 6.538 6.538 0 0 1-1.398 1.4z"></path><path fill-rule="evenodd" d="M6.5 3a.5.5 0 0 1 .5.5V6h2.5a.5.5 0 0 1 0 1H7v2.5a.5.5 0 0 1-1 0V7H3.5a.5.5 0 0 1 0-1H6V3.5a.5.5 0 0 1 .5-.5z"></path></svg></g><g ></g><g ></g><g ></g></g><image  id="v-32"></image></g></g><!--z-index:25--><g   id="j_6"  transform="translate(1965,1260)" style=""><g  id="v-41" style="opacity: 1;"><rect  id="v-42" rx="20" ry="20" stroke="#e68da0" stroke-width="2" pointer-events="visiblePainted" fill="#ff9db2" width="450" height="300" style="fill: rgb(255, 157, 178); stroke: rgb(230, 141, 160);"></rect><text  id="v-43" font-size="34" xml:space="preserve" y="0.8em" font-weight="bold" text-anchor="middle" pointer-events="visible" font-family="Roboto" fill="#000000" transform="matrix(1,0,0,1,225,88.0999984741211)" style="fill: rgb(0, 0, 0);"><tspan  dy="0">AI as a Service</tspan></text><text  id="v-44" font-size="17" xml:space="preserve" y="0.8em" text-anchor="middle" font-family="Roboto" fill="#000000" transform="matrix(1,0,0,1,225,128.89999389648438)" style="fill: rgb(0, 0, 0);"><tspan  dy="0">[Software System]</tspan></text><text  id="v-45" font-size="24" xml:space="preserve" y="0.8em" text-anchor="middle" font-family="Roboto" fill="#000000" transform="matrix(1,0,0,1,225,159.3000030517578)" style="fill: rgb(0, 0, 0);"><tspan  dy="0">Allows users to deploy an AI</tspan><tspan dy="1.2em" x="0" >application as a service.</tspan></text><g  id="v-46" color="#000000" transform="matrix(1,0,0,1,210,268)" style="fill: rgb(0, 0, 0);" display="none"><g  transform="translate(5 0)"><svg xmlns="http://www.w3.org/2000/svg" width="20" height="20" fill="currentColor" viewBox="0 0 16 16"><path fill-rule="evenodd" d="M6.5 12a5.5 5.5 0 1 0 0-11 5.5 5.5 0 0 0 0 11zM13 6.5a6.5 6.5 0 1 1-13 0 6.5 6.5 0 0 1 13 0z"></path><path d="M10.344 11.742c.03.04.062.078.098.115l3.85 3.85a1 1 0 0 0 1.415-1.414l-3.85-3.85a1.007 1.007 0 0 0-.115-.1 6.538 6.538 0 0 1-1.398 1.4z"></path><path fill-rule="evenodd" d="M6.5 3a.5.5 0 0 1 .5.5V6h2.5a.5.5 0 0 1 0 1H7v2.5a.5.5 0 0 1-1 0V7H3.5a.5.5 0 0 1 0-1H6V3.5a.5.5 0 0 1 .5-.5z"></path></svg></g><g ></g><g ></g><g ></g></g><image  id="v-47"></image></g></g><!--z-index:26--><g   id="j_7"  transform="translate(1090,180)" style=""><g  id="v-51" style="opacity: 1;"><rect  id="v-52" rx="20" ry="20" stroke="#e68da0" stroke-width="2" pointer-events="visiblePainted" fill="#ff9db2" width="450" height="300" style="fill: rgb(255, 157, 178); stroke: rgb(230, 141, 160);"></rect><text  id="v-53" font-size="34" xml:space="preserve" y="0.8em" font-weight="bold" text-anchor="middle" pointer-events="visible" font-family="Roboto" fill="#000000" transform="matrix(1,0,0,1,225,59.29999923706055)" style="fill: rgb(0, 0, 0);"><tspan  dy="0">MLOps System</tspan></text><text  id="v-54" font-size="17" xml:space="preserve" y="0.8em" text-anchor="middle" font-family="Roboto" fill="#000000" transform="matrix(1,0,0,1,225,100.0999984741211)" style="fill: rgb(0, 0, 0);"><tspan  dy="0">[Software System]</tspan></text><text  id="v-55" font-size="24" xml:space="preserve" y="0.8em" text-anchor="middle" font-family="Roboto" fill="#000000" transform="matrix(1,0,0,1,225,130.5)" style="fill: rgb(0, 0, 0);"><tspan  dy="0">Manages the lifecycle of machine</tspan><tspan dy="1.2em" x="0" >learning models including</tspan><tspan dy="1.2em" x="0" >deployment, monitoring, and</tspan><tspan dy="1.2em" x="0" >management.</tspan></text><g  id="v-56" color="#000000" transform="matrix(1,0,0,1,210,268)" style="fill: rgb(0, 0, 0);" display="none"><g  transform="translate(5 0)"><svg xmlns="http://www.w3.org/2000/svg" width="20" height="20" fill="currentColor" viewBox="0 0 16 16"><path fill-rule="evenodd" d="M6.5 12a5.5 5.5 0 1 0 0-11 5.5 5.5 0 0 0 0 11zM13 6.5a6.5 6.5 0 1 1-13 0 6.5 6.5 0 0 1 13 0z"></path><path d="M10.344 11.742c.03.04.062.078.098.115l3.85 3.85a1 1 0 0 0 1.415-1.414l-3.85-3.85a1.007 1.007 0 0 0-.115-.1 6.538 6.538 0 0 1-1.398 1.4z"></path><path fill-rule="evenodd" d="M6.5 3a.5.5 0 0 1 .5.5V6h2.5a.5.5 0 0 1 0 1H7v2.5a.5.5 0 0 1-1 0V7H3.5a.5.5 0 0 1 0-1H6V3.5a.5.5 0 0 1 .5-.5z"></path></svg></g><g ></g><g ></g><g ></g></g><image  id="v-57"></image></g></g><!--z-index:27--><g   id="j_8"  transform="translate(1990,135)" style=""><g  id="v-61" style="opacity: 1;"><rect  x="0" y="160" width="400" height="240" rx="70" id="v-63" stroke="#00474d" stroke-width="2" pointer-events="visiblePainted" fill="#004f56" style="fill: rgb(0, 79, 86); stroke: rgb(0, 71, 77);"></rect><circle  cx="200" cy="88.88888888888889" r="88.88888888888889" id="v-62" stroke="#00474d" stroke-width="2" pointer-events="visiblePainted" fill="#004f56" style="fill: rgb(0, 79, 86); stroke: rgb(0, 71, 77);"></circle><line  x1="80" y1="266.6666666666667" x2="80" y2="400" id="v-69" stroke="#00474d" stroke-width="2" style="stroke: rgb(0, 71, 77);"></line><line  x1="320" y1="266.6666666666667" x2="320" y2="400" id="v-70" stroke="#00474d" stroke-width="2" style="stroke: rgb(0, 71, 77);"></line><text  id="v-64" font-size="34" xml:space="preserve" y="0.8em" font-weight="bold" text-anchor="middle" pointer-events="visible" font-family="Roboto" fill="#ffffff" transform="matrix(1,0,0,1,200,218.10000610351562)" style="fill: rgb(255, 255, 255);"><tspan  dy="0">User</tspan></text><text  id="v-65" font-size="17" xml:space="preserve" y="0.8em" text-anchor="middle" font-family="Roboto" fill="#ffffff" transform="matrix(1,0,0,1,200,258.8999938964844)" style="fill: rgb(255, 255, 255);"><tspan  dy="0">[Person]</tspan></text><text  id="v-66" font-size="24" xml:space="preserve" y="0.8em" text-anchor="middle" font-family="Roboto" fill="#ffffff" transform="matrix(1,0,0,1,200,289.29998779296875)" style="fill: rgb(255, 255, 255);"><tspan  dy="0">An end-user, willing to exploit</tspan><tspan dy="1.2em" x="0" >existing production models.</tspan></text><g  id="v-67" font-weight="normal" text-anchor="middle" color="#ffffff" transform="matrix(1,0,0,1,197.5,368)" style="fill: rgb(255, 255, 255);" display="none"><g ></g><g ></g><g ></g><g ></g></g><image  id="v-68"></image></g></g><!--z-index:28--><g   id="j_9" ><path  stroke="#707070" d="M 635 1401 L 1304 1403 C 1310.6666666666665 1403 1317.3333333333333 1403 1324 1403 L 1965 1408" id="v-84" stroke-width="2" stroke-dasharray="30 30" fill="none" style="opacity: 1;"></path><path  fill="black" stroke="black" d="M 0 0 0 0" transform="matrix(0.9999945163726807,0.003313678316771984,-0.003313678316771984,0.9999945163726807,635,1400.75)"></path><path  fill="#707070" stroke="#707070" d="M 20 0 L 0 10 L 20 20 z" id="v-86" transform="matrix(-0.9999681115150452,-0.007987533695995808,0.007987533695995808,-0.9999681115150452,1964.920166015625,1418.19970703125)" style="opacity: 1;"></path><path  d="M 635 1401 L 1304 1403 C 1310.6666666666665 1403 1317.3333333333333 1403 1324 1403 L 1965 1408" id="v-85" fill="none" style="cursor: default;"></path><g ><g id="v-78"  label-idx="0" cursor="move" transform="matrix(1,0,0,1,1300.00830078125,1402.988037109375)" style="cursor: default; opacity: 1;"><rect joint-selector="rect" id="v-81" fill="#ffffff" rx="3" ry="3" pointer-events="none" width="157.57980346679688" height="60.61782264709473" transform="matrix(1,0,0,1,-78.80000305175781,-30.299999237060547)"></rect><text joint-selector="text" id="v-80" font-size="24px" xml:space="preserve" y="0.8em" fill="#707070" text-anchor="middle" pointer-events="none" font-family="Roboto" font-weight="normal" transform="matrix(1,0,0,1,0,-25)"><tspan  dy="0">Deploy models</tspan><tspan dy="1.2em" x="0" >on</tspan></text></g><g id="v-79"  label-idx="1" cursor="move" transform="matrix(1,0,0,1,1290.00830078125,1443.7880859375)" style="cursor: default; opacity: 1;"><rect joint-selector="rect" id="v-83" fill="#ffffff" rx="3" ry="3"  width="0" height="0" transform="matrix(1,0,0,1,0,0)" display="none"></rect><text joint-selector="text" id="v-82" fill="#000000" font-size="14" text-anchor="middle" pointer-events="none"></text></g></g><g  display="none"><g  transform="translate(1314, 1403)" id="v-75"><circle  idx="0" r="10"></circle><path  idx="0" d="M16,5.333c-7.732,0-14,4.701-14,10.5c0,1.982,0.741,3.833,2.016,5.414L2,25.667l5.613-1.441c2.339,1.317,5.237,2.107,8.387,2.107c7.732,0,14-4.701,14-10.5C30,10.034,23.732,5.333,16,5.333z" transform="translate(5, -33)"></path><path  idx="0" transform="scale(.8) translate(9.5, -37)" d="M24.778,21.419 19.276,15.917 24.777,10.415 21.949,7.585 16.447,13.087 10.945,7.585 8.117,10.415 13.618,15.917 8.116,21.419 10.946,24.248 16.447,18.746 21.948,24.248z"><title>Remove vertex.</title></path></g></g><g  id="v-88" display="none"><g  id="v-76"><path  end="source" d="M 26 0 L 0 13 L 26 26 z"></path></g><g  id="v-77"><path  end="target" d="M 26 0 L 0 13 L 26 26 z"></path></g></g><g  id="v-87" display="none"><g  id="v-74" transform="translate(674.9998212546138, 1401.119580930507) "><g  event="remove"><circle r="11"></circle><path transform="scale(.8) translate(-16, -16)" d="M24.778,21.419 19.276,15.917 24.777,10.415 21.949,7.585 16.447,13.087 10.945,7.585 8.117,10.415 13.618,15.917 8.116,21.419 10.946,24.248 16.447,18.746 21.948,24.248z"></path><title>Remove link.</title></g><g  event="link:options"><circle r="11" transform="translate(25)"></circle><path fill="white" transform="scale(.55) translate(29, -16)" d="M31.229,17.736c0.064-0.571,0.104-1.148,0.104-1.736s-0.04-1.166-0.104-1.737l-4.377-1.557c-0.218-0.716-0.504-1.401-0.851-2.05l1.993-4.192c-0.725-0.91-1.549-1.734-2.458-2.459l-4.193,1.994c-0.647-0.347-1.334-0.632-2.049-0.849l-1.558-4.378C17.165,0.708,16.588,0.667,16,0.667s-1.166,0.041-1.737,0.105L12.707,5.15c-0.716,0.217-1.401,0.502-2.05,0.849L6.464,4.005C5.554,4.73,4.73,5.554,4.005,6.464l1.994,4.192c-0.347,0.648-0.632,1.334-0.849,2.05l-4.378,1.557C0.708,14.834,0.667,15.412,0.667,16s0.041,1.165,0.105,1.736l4.378,1.558c0.217,0.715,0.502,1.401,0.849,2.049l-1.994,4.193c0.725,0.909,1.549,1.733,2.459,2.458l4.192-1.993c0.648,0.347,1.334,0.633,2.05,0.851l1.557,4.377c0.571,0.064,1.148,0.104,1.737,0.104c0.588,0,1.165-0.04,1.736-0.104l1.558-4.377c0.715-0.218,1.399-0.504,2.049-0.851l4.193,1.993c0.909-0.725,1.733-1.549,2.458-2.458l-1.993-4.193c0.347-0.647,0.633-1.334,0.851-2.049L31.229,17.736zM16,20.871c-2.69,0-4.872-2.182-4.872-4.871c0-2.69,2.182-4.872,4.872-4.872c2.689,0,4.871,2.182,4.871,4.872C20.871,18.689,18.689,20.871,16,20.871z"></path><title>Link options.</title></g></g></g></g><!--z-index:29--><g   id="j_10" ><path  stroke="#707070" d="M 605 330 L 1090 330" id="v-101" stroke-width="2" stroke-dasharray="30 30" fill="none" style="opacity: 1;"></path><path  fill="black" stroke="black" d="M 0 0 0 0" transform="matrix(1,0,0,1,605,330)"></path><path  fill="#707070" stroke="#707070" d="M 20 0 L 0 10 L 20 20 z" id="v-103" transform="matrix(-1,1.2246468525851679e-16,-1.2246468525851679e-16,-1,1090,340)" style="opacity: 1;"></path><path  d="M 605 330 L 1090 330" id="v-102" fill="none" style="cursor: default;"></path><g ><g id="v-95"  label-idx="0" cursor="move" transform="matrix(1,0,0,1,847.5,330)" style="cursor: default; opacity: 1;"><rect joint-selector="rect" id="v-98" fill="#ffffff" rx="3" ry="3" pointer-events="none" width="160.5576171875" height="60.61782264709473" transform="matrix(1,0,0,1,-80.30000305175781,-30.299999237060547)"></rect><text joint-selector="text" id="v-97" font-size="24px" xml:space="preserve" y="0.8em" fill="#707070" text-anchor="middle" pointer-events="none" font-family="Roboto" font-weight="normal" transform="matrix(1,0,0,1,0,-25)"><tspan  dy="0">Initiates a new</tspan><tspan dy="1.2em" x="0" >experiment-run</tspan></text></g><g id="v-96"  label-idx="1" cursor="move" transform="matrix(1,0,0,1,837.5,370.79998779296875)" style="cursor: default; opacity: 1;"><rect joint-selector="rect" id="v-100" fill="#ffffff" rx="3" ry="3"  width="0" height="0" transform="matrix(1,0,0,1,0,0)" display="none"></rect><text joint-selector="text" id="v-99" fill="#000000" font-size="14" text-anchor="middle" pointer-events="none"></text></g></g><g  display="none"></g><g  id="v-105" display="none"><g  id="v-93"><path  end="source" d="M 26 0 L 0 13 L 26 26 z"></path></g><g  id="v-94"><path  end="target" d="M 26 0 L 0 13 L 26 26 z"></path></g></g><g  id="v-104" display="none"><g  id="v-92" transform="translate(644.9999999999999, 330) "><g  event="remove"><circle r="11"></circle><path transform="scale(.8) translate(-16, -16)" d="M24.778,21.419 19.276,15.917 24.777,10.415 21.949,7.585 16.447,13.087 10.945,7.585 8.117,10.415 13.618,15.917 8.116,21.419 10.946,24.248 16.447,18.746 21.948,24.248z"></path><title>Remove link.</title></g><g  event="link:options"><circle r="11" transform="translate(25)"></circle><path fill="white" transform="scale(.55) translate(29, -16)" d="M31.229,17.736c0.064-0.571,0.104-1.148,0.104-1.736s-0.04-1.166-0.104-1.737l-4.377-1.557c-0.218-0.716-0.504-1.401-0.851-2.05l1.993-4.192c-0.725-0.91-1.549-1.734-2.458-2.459l-4.193,1.994c-0.647-0.347-1.334-0.632-2.049-0.849l-1.558-4.378C17.165,0.708,16.588,0.667,16,0.667s-1.166,0.041-1.737,0.105L12.707,5.15c-0.716,0.217-1.401,0.502-2.05,0.849L6.464,4.005C5.554,4.73,4.73,5.554,4.005,6.464l1.994,4.192c-0.347,0.648-0.632,1.334-0.849,2.05l-4.378,1.557C0.708,14.834,0.667,15.412,0.667,16s0.041,1.165,0.105,1.736l4.378,1.558c0.217,0.715,0.502,1.401,0.849,2.049l-1.994,4.193c0.725,0.909,1.549,1.733,2.459,2.458l4.192-1.993c0.648,0.347,1.334,0.633,2.05,0.851l1.557,4.377c0.571,0.064,1.148,0.104,1.737,0.104c0.588,0,1.165-0.04,1.736-0.104l1.558-4.377c0.715-0.218,1.399-0.504,2.049-0.851l4.193,1.993c0.909-0.725,1.733-1.549,2.458-2.458l-1.993-4.193c0.347-0.647,0.633-1.334,0.851-2.049L31.229,17.736zM16,20.871c-2.69,0-4.872-2.182-4.872-4.871c0-2.69,2.182-4.872,4.872-4.872c2.689,0,4.871,2.182,4.871,4.872C20.871,18.689,18.689,20.871,16,20.871z"></path><title>Link options.</title></g></g></g></g><!--z-index:30--><g   id="j_11" ><path  stroke="#707070" d="M 1540 331 L 1990 334" id="v-118" stroke-width="2" stroke-dasharray="30 30" fill="none" style="opacity: 1;"></path><path  fill="black" stroke="black" d="M 0 0 0 0" transform="matrix(0.9999836683273315,0.005711018107831478,-0.005711018107831478,0.9999836683273315,1540,331.2900085449219)"></path><path  fill="#707070" stroke="#707070" d="M 20 0 L 0 10 L 20 20 z" id="v-120" transform="matrix(-0.9999836683273315,-0.005711117759346962,0.005711117759346962,-0.9999836683273315,1989.94287109375,343.8598327636719)" style="opacity: 1;"></path><path  d="M 1540 331 L 1990 334" id="v-119" fill="none" style="cursor: default;"></path><g ><g id="v-112"  label-idx="0" cursor="move" transform="matrix(1,0,0,1,1765,332.5)" style="cursor: default; opacity: 1;"><rect joint-selector="rect" id="v-115" fill="#ffffff" rx="3" ry="3" pointer-events="none" width="163.8209991455078" height="89.4178237915039" transform="matrix(1,0,0,1,-81.9000015258789,-44.70000076293945)"></rect><text joint-selector="text" id="v-114" font-size="24px" xml:space="preserve" y="0.8em" fill="#707070" text-anchor="middle" pointer-events="none" font-family="Roboto" font-weight="normal" transform="matrix(1,0,0,1,0,-39.400001525878906)"><tspan  dy="0">Notifies the</tspan><tspan dy="1.2em" x="0" >end_user about</tspan><tspan dy="1.2em" x="0" >the drift</tspan></text></g><g id="v-113"  label-idx="1" cursor="move" transform="matrix(1,0,0,1,1755,387.70001220703125)" style="cursor: default; opacity: 1;"><rect joint-selector="rect" id="v-117" fill="#ffffff" rx="3" ry="3"  width="0" height="0" transform="matrix(1,0,0,1,0,0)" display="none"></rect><text joint-selector="text" id="v-116" fill="#000000" font-size="14" text-anchor="middle" pointer-events="none"></text></g></g><g  display="none"></g><g  id="v-122" display="none"><g  id="v-110"><path  end="source" d="M 26 0 L 0 13 L 26 26 z"></path></g><g  id="v-111"><path  end="target" d="M 26 0 L 0 13 L 26 26 z"></path></g></g><g  id="v-121" display="none"><g  id="v-109" transform="translate(1579.9991111407396, 331.2666607409383) "><g  event="remove"><circle r="11"></circle><path transform="scale(.8) translate(-16, -16)" d="M24.778,21.419 19.276,15.917 24.777,10.415 21.949,7.585 16.447,13.087 10.945,7.585 8.117,10.415 13.618,15.917 8.116,21.419 10.946,24.248 16.447,18.746 21.948,24.248z"></path><title>Remove link.</title></g><g  event="link:options"><circle r="11" transform="translate(25)"></circle><path fill="white" transform="scale(.55) translate(29, -16)" d="M31.229,17.736c0.064-0.571,0.104-1.148,0.104-1.736s-0.04-1.166-0.104-1.737l-4.377-1.557c-0.218-0.716-0.504-1.401-0.851-2.05l1.993-4.192c-0.725-0.91-1.549-1.734-2.458-2.459l-4.193,1.994c-0.647-0.347-1.334-0.632-2.049-0.849l-1.558-4.378C17.165,0.708,16.588,0.667,16,0.667s-1.166,0.041-1.737,0.105L12.707,5.15c-0.716,0.217-1.401,0.502-2.05,0.849L6.464,4.005C5.554,4.73,4.73,5.554,4.005,6.464l1.994,4.192c-0.347,0.648-0.632,1.334-0.849,2.05l-4.378,1.557C0.708,14.834,0.667,15.412,0.667,16s0.041,1.165,0.105,1.736l4.378,1.558c0.217,0.715,0.502,1.401,0.849,2.049l-1.994,4.193c0.725,0.909,1.549,1.733,2.459,2.458l4.192-1.993c0.648,0.347,1.334,0.633,2.05,0.851l1.557,4.377c0.571,0.064,1.148,0.104,1.737,0.104c0.588,0,1.165-0.04,1.736-0.104l1.558-4.377c0.715-0.218,1.399-0.504,2.049-0.851l4.193,1.993c0.909-0.725,1.733-1.549,2.458-2.458l-1.993-4.193c0.347-0.647,0.633-1.334,0.851-2.049L31.229,17.736zM16,20.871c-2.69,0-4.872-2.182-4.872-4.871c0-2.69,2.182-4.872,4.872-4.872c2.689,0,4.871,2.182,4.871,4.872C20.871,18.689,18.689,20.871,16,20.871z"></path><title>Link options.</title></g></g></g></g><!--z-index:31--><g   id="j_12" ><path  stroke="#707070" d="M 1090 398 L 1088 399 C 1086 399.66666666666663 1081.6666666666665 399.99999999999994 1075 400 L 940 400 C 933.3333333333333 399.99999999999994 930 403.33333333333326 930 410 L 930 590 C 930 596.6666666666666 926.6666666666666 600 920 600 L 450 595 C 443.3333333333333 595 440.3333333333333 591.6666666666666 441 585 L 444 550 C 444.66666666666663 543.3333333333333 444.66666666666663 538.3333333333333 444 535 L 443 530" id="v-140" stroke-width="2" stroke-dasharray="30 30" fill="none" style="opacity: 1;"></path><path  fill="black" stroke="black" d="M 0 0 0 0" transform="matrix(-0.9567665457725525,0.2908570170402527,-0.2908570170402527,-0.9567665457725525,1090,398.4800109863281)"></path><path  fill="#707070" stroke="#707070" d="M 20 0 L 0 10 L 20 20 z" id="v-142" transform="matrix(0.18666061758995056,0.9824244379997253,-0.9824244379997253,0.18666061758995056,452.92425537109375,528.1333618164062)" style="opacity: 1;"></path><path  d="M 1090 398 L 1088 399 C 1086 399.66666666666663 1081.6666666666665 399.99999999999994 1075 400 L 940 400 C 933.3333333333333 399.99999999999994 930 403.33333333333326 930 410 L 930 590 C 930 596.6666666666666 926.6666666666666 600 920 600 L 450 595 C 443.3333333333333 595 440.3333333333333 591.6666666666666 441 585 L 444 550 C 444.66666666666663 543.3333333333333 444.66666666666663 538.3333333333333 444 535 L 443 530" id="v-141" fill="none" style="cursor: default;"></path><g ><g id="v-134"  label-idx="0" cursor="move" transform="matrix(1,0,0,1,830.8258666992188,599.0513305664062)" style="cursor: default; opacity: 1;"><rect joint-selector="rect" id="v-137" fill="#ffffff" rx="3" ry="3" pointer-events="none" width="175.6507110595703" height="118.21782684326172" transform="matrix(1,0,0,1,-87.80000305175781,-59.099998474121094)"></rect><text joint-selector="text" id="v-136" font-size="24px" xml:space="preserve" y="0.8em" fill="#707070" text-anchor="middle" pointer-events="none" font-family="Roboto" font-weight="normal" transform="matrix(1,0,0,1,0,-53.79999923706055)"><tspan  dy="0">Notifies the</tspan><tspan dy="1.2em" x="0" >eosc_user about</tspan><tspan dy="1.2em" x="0" >the model/data</tspan><tspan dy="1.2em" x="0" >drift</tspan></text></g><g id="v-135"  label-idx="1" cursor="move" transform="matrix(1,0,0,1,820.8258666992188,668.6513671875)" style="cursor: default; opacity: 1;"><rect joint-selector="rect" id="v-139" fill="#ffffff" rx="3" ry="3"  width="0" height="0" transform="matrix(1,0,0,1,0,0)" display="none"></rect><text joint-selector="text" id="v-138" fill="#000000" font-size="14" text-anchor="middle" pointer-events="none"></text></g></g><g  display="none"><g  transform="translate(1085, 400)" id="v-127"><circle  idx="0" r="10"></circle><path  idx="0" d="M16,5.333c-7.732,0-14,4.701-14,10.5c0,1.982,0.741,3.833,2.016,5.414L2,25.667l5.613-1.441c2.339,1.317,5.237,2.107,8.387,2.107c7.732,0,14-4.701,14-10.5C30,10.034,23.732,5.333,16,5.333z" transform="translate(5, -33)"></path><path  idx="0" transform="scale(.8) translate(9.5, -37)" d="M24.778,21.419 19.276,15.917 24.777,10.415 21.949,7.585 16.447,13.087 10.945,7.585 8.117,10.415 13.618,15.917 8.116,21.419 10.946,24.248 16.447,18.746 21.948,24.248z"><title>Remove vertex.</title></path></g><g  transform="translate(930, 400)" id="v-128"><circle  idx="1" r="10"></circle><path  idx="1" d="M16,5.333c-7.732,0-14,4.701-14,10.5c0,1.982,0.741,3.833,2.016,5.414L2,25.667l5.613-1.441c2.339,1.317,5.237,2.107,8.387,2.107c7.732,0,14-4.701,14-10.5C30,10.034,23.732,5.333,16,5.333z" transform="translate(5, -33)"></path><path  idx="1" transform="scale(.8) translate(9.5, -37)" d="M24.778,21.419 19.276,15.917 24.777,10.415 21.949,7.585 16.447,13.087 10.945,7.585 8.117,10.415 13.618,15.917 8.116,21.419 10.946,24.248 16.447,18.746 21.948,24.248z"><title>Remove vertex.</title></path></g><g  transform="translate(930, 600)" id="v-129"><circle  idx="2" r="10"></circle><path  idx="2" d="M16,5.333c-7.732,0-14,4.701-14,10.5c0,1.982,0.741,3.833,2.016,5.414L2,25.667l5.613-1.441c2.339,1.317,5.237,2.107,8.387,2.107c7.732,0,14-4.701,14-10.5C30,10.034,23.732,5.333,16,5.333z" transform="translate(5, -33)"></path><path  idx="2" transform="scale(.8) translate(9.5, -37)" d="M24.778,21.419 19.276,15.917 24.777,10.415 21.949,7.585 16.447,13.087 10.945,7.585 8.117,10.415 13.618,15.917 8.116,21.419 10.946,24.248 16.447,18.746 21.948,24.248z"><title>Remove vertex.</title></path></g><g  transform="translate(440, 595)" id="v-130"><circle  idx="3" r="10"></circle><path  idx="3" d="M16,5.333c-7.732,0-14,4.701-14,10.5c0,1.982,0.741,3.833,2.016,5.414L2,25.667l5.613-1.441c2.339,1.317,5.237,2.107,8.387,2.107c7.732,0,14-4.701,14-10.5C30,10.034,23.732,5.333,16,5.333z" transform="translate(5, -33)"></path><path  idx="3" transform="scale(.8) translate(9.5, -37)" d="M24.778,21.419 19.276,15.917 24.777,10.415 21.949,7.585 16.447,13.087 10.945,7.585 8.117,10.415 13.618,15.917 8.116,21.419 10.946,24.248 16.447,18.746 21.948,24.248z"><title>Remove vertex.</title></path></g><g  transform="translate(445, 540)" id="v-131"><circle  idx="4" r="10"></circle><path  idx="4" d="M16,5.333c-7.732,0-14,4.701-14,10.5c0,1.982,0.741,3.833,2.016,5.414L2,25.667l5.613-1.441c2.339,1.317,5.237,2.107,8.387,2.107c7.732,0,14-4.701,14-10.5C30,10.034,23.732,5.333,16,5.333z" transform="translate(5, -33)"></path><path  idx="4" transform="scale(.8) translate(9.5, -37)" d="M24.778,21.419 19.276,15.917 24.777,10.415 21.949,7.585 16.447,13.087 10.945,7.585 8.117,10.415 13.618,15.917 8.116,21.419 10.946,24.248 16.447,18.746 21.948,24.248z"><title>Remove vertex.</title></path></g></g><g  id="v-144" display="none"><g  id="v-132"><path  end="source" d="M 26 0 L 0 13 L 26 26 z"></path></g><g  id="v-133"><path  end="target" d="M 26 0 L 0 13 L 26 26 z"></path></g></g><g  id="v-143" display="none"><g  id="v-126" transform="translate(1050.307348839973, 400) "><g  event="remove"><circle r="11"></circle><path transform="scale(.8) translate(-16, -16)" d="M24.778,21.419 19.276,15.917 24.777,10.415 21.949,7.585 16.447,13.087 10.945,7.585 8.117,10.415 13.618,15.917 8.116,21.419 10.946,24.248 16.447,18.746 21.948,24.248z"></path><title>Remove link.</title></g><g  event="link:options"><circle r="11" transform="translate(25)"></circle><path fill="white" transform="scale(.55) translate(29, -16)" d="M31.229,17.736c0.064-0.571,0.104-1.148,0.104-1.736s-0.04-1.166-0.104-1.737l-4.377-1.557c-0.218-0.716-0.504-1.401-0.851-2.05l1.993-4.192c-0.725-0.91-1.549-1.734-2.458-2.459l-4.193,1.994c-0.647-0.347-1.334-0.632-2.049-0.849l-1.558-4.378C17.165,0.708,16.588,0.667,16,0.667s-1.166,0.041-1.737,0.105L12.707,5.15c-0.716,0.217-1.401,0.502-2.05,0.849L6.464,4.005C5.554,4.73,4.73,5.554,4.005,6.464l1.994,4.192c-0.347,0.648-0.632,1.334-0.849,2.05l-4.378,1.557C0.708,14.834,0.667,15.412,0.667,16s0.041,1.165,0.105,1.736l4.378,1.558c0.217,0.715,0.502,1.401,0.849,2.049l-1.994,4.193c0.725,0.909,1.549,1.733,2.459,2.458l4.192-1.993c0.648,0.347,1.334,0.633,2.05,0.851l1.557,4.377c0.571,0.064,1.148,0.104,1.737,0.104c0.588,0,1.165-0.04,1.736-0.104l1.558-4.377c0.715-0.218,1.399-0.504,2.049-0.851l4.193,1.993c0.909-0.725,1.733-1.549,2.458-2.458l-1.993-4.193c0.347-0.647,0.633-1.334,0.851-2.049L31.229,17.736zM16,20.871c-2.69,0-4.872-2.182-4.872-4.871c0-2.69,2.182-4.872,4.872-4.872c2.689,0,4.871,2.182,4.871,4.872C20.871,18.689,18.689,20.871,16,20.871z"></path><title>Link options.</title></g></g></g></g><!--z-index:32--><g   id="j_13" ><path  stroke="#707070" d="M 413 1550 L 415 1670 C 414.99999999999994 1676.6666666666665 418.33333333333326 1680 425 1680 L 2480 1700 C 2486.6666666666665 1700 2490 1696.6666666666665 2490 1690 L 2470 340 C 2470 333.3333333333333 2466.6666666666665 330 2460 330 L 2390 331" id="v-158" stroke-width="2" stroke-dasharray="30 30" fill="none" style="opacity: 1;"></path><path  fill="black" stroke="black" d="M 0 0 0 0" transform="matrix(0.017843296751379967,0.9998407363891602,-0.9998407363891602,0.017843296751379967,412.67999267578125,1550)"></path><path  fill="#707070" stroke="#707070" d="M 20 0 L 0 10 L 20 20 z" id="v-160" transform="matrix(0.999840259552002,-0.017872055992484093,0.017872055992484093,0.999840259552002,2389.8212890625,321.4316101074219)" style="opacity: 1;"></path><path  d="M 413 1550 L 415 1670 C 414.99999999999994 1676.6666666666665 418.33333333333326 1680 425 1680 L 2480 1700 C 2486.6666666666665 1700 2490 1696.6666666666665 2490 1690 L 2470 340 C 2470 333.3333333333333 2466.6666666666665 330 2460 330 L 2390 331" id="v-159" fill="none" style="cursor: default;"></path><g ><g id="v-152"  label-idx="0" cursor="move" transform="matrix(1,0,0,1,2110.653564453125,1696.4053955078125)" style="cursor: default; opacity: 1;"><rect joint-selector="rect" id="v-155" fill="#ffffff" rx="3" ry="3" pointer-events="none" width="165.9421844482422" height="89.4178237915039" transform="matrix(1,0,0,1,-81.5,-44.70000076293945)"></rect><text joint-selector="text" id="v-154" font-size="24px" xml:space="preserve" y="0.8em" fill="#707070" text-anchor="middle" pointer-events="none" font-family="Roboto" font-weight="normal" transform="matrix(1,0,0,1,0,-39.400001525878906)"><tspan  dy="0">Notifies user of</tspan><tspan dy="1.2em" x="0" >possible drift</tspan><tspan dy="1.2em" x="0" >occurence</tspan></text></g><g id="v-153"  label-idx="1" cursor="move" transform="matrix(1,0,0,1,2100.653564453125,1751.6053466796875)" style="cursor: default; opacity: 1;"><rect joint-selector="rect" id="v-157" fill="#ffffff" rx="3" ry="3"  width="0" height="0" transform="matrix(1,0,0,1,0,0)" display="none"></rect><text joint-selector="text" id="v-156" fill="#000000" font-size="14" text-anchor="middle" pointer-events="none"></text></g></g><g  display="none"><g  transform="translate(415, 1680)" id="v-843"><circle  idx="0" r="10"></circle><path  idx="0" d="M16,5.333c-7.732,0-14,4.701-14,10.5c0,1.982,0.741,3.833,2.016,5.414L2,25.667l5.613-1.441c2.339,1.317,5.237,2.107,8.387,2.107c7.732,0,14-4.701,14-10.5C30,10.034,23.732,5.333,16,5.333z" transform="translate(5, -33)"></path><path  idx="0" transform="scale(.8) translate(9.5, -37)" d="M24.778,21.419 19.276,15.917 24.777,10.415 21.949,7.585 16.447,13.087 10.945,7.585 8.117,10.415 13.618,15.917 8.116,21.419 10.946,24.248 16.447,18.746 21.948,24.248z"><title>Remove vertex.</title></path></g><g  transform="translate(2490, 1700)" id="v-844"><circle  idx="1" r="10"></circle><path  idx="1" d="M16,5.333c-7.732,0-14,4.701-14,10.5c0,1.982,0.741,3.833,2.016,5.414L2,25.667l5.613-1.441c2.339,1.317,5.237,2.107,8.387,2.107c7.732,0,14-4.701,14-10.5C30,10.034,23.732,5.333,16,5.333z" transform="translate(5, -33)"></path><path  idx="1" transform="scale(.8) translate(9.5, -37)" d="M24.778,21.419 19.276,15.917 24.777,10.415 21.949,7.585 16.447,13.087 10.945,7.585 8.117,10.415 13.618,15.917 8.116,21.419 10.946,24.248 16.447,18.746 21.948,24.248z"><title>Remove vertex.</title></path></g><g  transform="translate(2470, 330)" id="v-845"><circle  idx="2" r="10"></circle><path  idx="2" d="M16,5.333c-7.732,0-14,4.701-14,10.5c0,1.982,0.741,3.833,2.016,5.414L2,25.667l5.613-1.441c2.339,1.317,5.237,2.107,8.387,2.107c7.732,0,14-4.701,14-10.5C30,10.034,23.732,5.333,16,5.333z" transform="translate(5, -33)"></path><path  idx="2" transform="scale(.8) translate(9.5, -37)" d="M24.778,21.419 19.276,15.917 24.777,10.415 21.949,7.585 16.447,13.087 10.945,7.585 8.117,10.415 13.618,15.917 8.116,21.419 10.946,24.248 16.447,18.746 21.948,24.248z"><title>Remove vertex.</title></path></g></g><g  id="v-162" display="none"><g  id="v-150"><path  end="source" d="M 26 0 L 0 13 L 26 26 z"></path></g><g  id="v-151"><path  end="target" d="M 26 0 L 0 13 L 26 26 z"></path></g></g><g  id="v-161" display="none"><g  id="v-148" transform="translate(413.6665740933597, 1589.9944456015842) "><g  event="remove"><circle r="11"></circle><path transform="scale(.8) translate(-16, -16)" d="M24.778,21.419 19.276,15.917 24.777,10.415 21.949,7.585 16.447,13.087 10.945,7.585 8.117,10.415 13.618,15.917 8.116,21.419 10.946,24.248 16.447,18.746 21.948,24.248z"></path><title>Remove link.</title></g><g  event="link:options"><circle r="11" transform="translate(25)"></circle><path fill="white" transform="scale(.55) translate(29, -16)" d="M31.229,17.736c0.064-0.571,0.104-1.148,0.104-1.736s-0.04-1.166-0.104-1.737l-4.377-1.557c-0.218-0.716-0.504-1.401-0.851-2.05l1.993-4.192c-0.725-0.91-1.549-1.734-2.458-2.459l-4.193,1.994c-0.647-0.347-1.334-0.632-2.049-0.849l-1.558-4.378C17.165,0.708,16.588,0.667,16,0.667s-1.166,0.041-1.737,0.105L12.707,5.15c-0.716,0.217-1.401,0.502-2.05,0.849L6.464,4.005C5.554,4.73,4.73,5.554,4.005,6.464l1.994,4.192c-0.347,0.648-0.632,1.334-0.849,2.05l-4.378,1.557C0.708,14.834,0.667,15.412,0.667,16s0.041,1.165,0.105,1.736l4.378,1.558c0.217,0.715,0.502,1.401,0.849,2.049l-1.994,4.193c0.725,0.909,1.549,1.733,2.459,2.458l4.192-1.993c0.648,0.347,1.334,0.633,2.05,0.851l1.557,4.377c0.571,0.064,1.148,0.104,1.737,0.104c0.588,0,1.165-0.04,1.736-0.104l1.558-4.377c0.715-0.218,1.399-0.504,2.049-0.851l4.193,1.993c0.909-0.725,1.733-1.549,2.458-2.458l-1.993-4.193c0.347-0.647,0.633-1.334,0.851-2.049L31.229,17.736zM16,20.871c-2.69,0-4.872-2.182-4.872-4.871c0-2.69,2.182-4.872,4.872-4.872c2.689,0,4.871,2.182,4.871,4.872C20.871,18.689,18.689,20.871,16,20.871z"></path><title>Link options.</title></g></g></g></g><!--z-index:33--><g   id="j_14" ><path  stroke="#707070" d="M 532 1250 L 849 863 C 853 857.6666666666666 857.3333333333333 852.3333333333333 862 847 L 1184 480" id="v-176" stroke-width="2" stroke-dasharray="30 30" fill="none" style="opacity: 1;"></path><path  fill="black" stroke="black" d="M 0 0 0 0" transform="matrix(0.6324598789215088,-0.7745931148529053,0.7745931148529053,0.6324598789215088,532.47998046875,1250)"></path><path  fill="#707070" stroke="#707070" d="M 20 0 L 0 10 L 20 20 z" id="v-178" transform="matrix(-0.6590099930763245,0.7521342039108276,-0.7521342039108276,-0.6590099930763245,1191.09130859375,486.590087890625)" style="opacity: 1;"></path><path  d="M 532 1250 L 849 863 C 853 857.6666666666666 857.3333333333333 852.3333333333333 862 847 L 1184 480" id="v-177" fill="none" style="cursor: default;"></path><g ><g id="v-170"  label-idx="0" cursor="move" transform="matrix(1,0,0,1,851.6000366210938,859.59375)" style="cursor: default; opacity: 1;"><rect joint-selector="rect" id="v-173" fill="#ffffff" rx="3" ry="3" pointer-events="none" width="169.12396240234375" height="89.4178237915039" transform="matrix(1,0,0,1,-84.5999984741211,-44.70000076293945)"></rect><text joint-selector="text" id="v-172" font-size="24px" xml:space="preserve" y="0.8em" fill="#707070" text-anchor="middle" pointer-events="none" font-family="Roboto" font-weight="normal" transform="matrix(1,0,0,1,0,-39.400001525878906)"><tspan  dy="0">Integrates drift</tspan><tspan dy="1.2em" x="0" >monitoring with</tspan><tspan dy="1.2em" x="0" >deployed model</tspan></text></g><g id="v-171"  label-idx="1" cursor="move" transform="matrix(1,0,0,1,841.6000366210938,914.7937622070312)" style="cursor: default; opacity: 1;"><rect joint-selector="rect" id="v-175" fill="#ffffff" rx="3" ry="3"  width="0" height="0" transform="matrix(1,0,0,1,0,0)" display="none"></rect><text joint-selector="text" id="v-174" fill="#000000" font-size="14" text-anchor="middle" pointer-events="none"></text></g></g><g  display="none"><g  transform="translate(855, 855)" id="v-167"><circle  idx="0" r="10"></circle><path  idx="0" d="M16,5.333c-7.732,0-14,4.701-14,10.5c0,1.982,0.741,3.833,2.016,5.414L2,25.667l5.613-1.441c2.339,1.317,5.237,2.107,8.387,2.107c7.732,0,14-4.701,14-10.5C30,10.034,23.732,5.333,16,5.333z" transform="translate(5, -33)"></path><path  idx="0" transform="scale(.8) translate(9.5, -37)" d="M24.778,21.419 19.276,15.917 24.777,10.415 21.949,7.585 16.447,13.087 10.945,7.585 8.117,10.415 13.618,15.917 8.116,21.419 10.946,24.248 16.447,18.746 21.948,24.248z"><title>Remove vertex.</title></path></g></g><g  id="v-180" display="none"><g  id="v-168"><path  end="source" d="M 26 0 L 0 13 L 26 26 z"></path></g><g  id="v-169"><path  end="target" d="M 26 0 L 0 13 L 26 26 z"></path></g></g><g  id="v-179" display="none"><g  id="v-166" transform="translate(557.3469243596758, 1219.0559630056957) "><g  event="remove"><circle r="11"></circle><path transform="scale(.8) translate(-16, -16)" d="M24.778,21.419 19.276,15.917 24.777,10.415 21.949,7.585 16.447,13.087 10.945,7.585 8.117,10.415 13.618,15.917 8.116,21.419 10.946,24.248 16.447,18.746 21.948,24.248z"></path><title>Remove link.</title></g><g  event="link:options"><circle r="11" transform="translate(25)"></circle><path fill="white" transform="scale(.55) translate(29, -16)" d="M31.229,17.736c0.064-0.571,0.104-1.148,0.104-1.736s-0.04-1.166-0.104-1.737l-4.377-1.557c-0.218-0.716-0.504-1.401-0.851-2.05l1.993-4.192c-0.725-0.91-1.549-1.734-2.458-2.459l-4.193,1.994c-0.647-0.347-1.334-0.632-2.049-0.849l-1.558-4.378C17.165,0.708,16.588,0.667,16,0.667s-1.166,0.041-1.737,0.105L12.707,5.15c-0.716,0.217-1.401,0.502-2.05,0.849L6.464,4.005C5.554,4.73,4.73,5.554,4.005,6.464l1.994,4.192c-0.347,0.648-0.632,1.334-0.849,2.05l-4.378,1.557C0.708,14.834,0.667,15.412,0.667,16s0.041,1.165,0.105,1.736l4.378,1.558c0.217,0.715,0.502,1.401,0.849,2.049l-1.994,4.193c0.725,0.909,1.549,1.733,2.459,2.458l4.192-1.993c0.648,0.347,1.334,0.633,2.05,0.851l1.557,4.377c0.571,0.064,1.148,0.104,1.737,0.104c0.588,0,1.165-0.04,1.736-0.104l1.558-4.377c0.715-0.218,1.399-0.504,2.049-0.851l4.193,1.993c0.909-0.725,1.733-1.549,2.458-2.458l-1.993-4.193c0.347-0.647,0.633-1.334,0.851-2.049L31.229,17.736zM16,20.871c-2.69,0-4.872-2.182-4.872-4.871c0-2.69,2.182-4.872,4.872-4.872c2.689,0,4.871,2.182,4.871,4.872C20.871,18.689,18.689,20.871,16,20.871z"></path><title>Link options.</title></g></g></g></g><!--z-index:34--><g   id="j_15" ><path  stroke="#707070" d="M 1317 480 L 1325 1305 C 1325 1311.6666666666665 1321.6666666666665 1315 1315 1315 L 655 1315 C 648.3333333333333 1315 643.3333333333333 1315.6666666666665 640 1317 L 635 1319" id="v-195" stroke-width="2" stroke-dasharray="30 30" fill="none" style="opacity: 1;"></path><path  fill="black" stroke="black" d="M 0 0 0 0" transform="matrix(0.010155124589800835,0.9999484419822693,-0.9999484419822693,0.010155124589800835,1316.52001953125,480)"></path><path  fill="#707070" stroke="#707070" d="M 20 0 L 0 10 L 20 20 z" id="v-197" transform="matrix(0.9402865171432495,-0.34038394689559937,0.34038394689559937,0.9402865171432495,631.59619140625,1309.2171630859375)" style="opacity: 1;"></path><path  d="M 1317 480 L 1325 1305 C 1325 1311.6666666666665 1321.6666666666665 1315 1315 1315 L 655 1315 C 648.3333333333333 1315 643.3333333333333 1315.6666666666665 640 1317 L 635 1319" id="v-196" fill="none" style="cursor: default;"></path><g ><g id="v-189"  label-idx="0" cursor="move" transform="matrix(1,0,0,1,1324.37841796875,1240.8978271484375)" style="cursor: default; opacity: 1;"><rect joint-selector="rect" id="v-192" fill="#ffffff" rx="3" ry="3" pointer-events="none" width="171.93861389160156" height="89.4178237915039" transform="matrix(1,0,0,1,-86,-44.70000076293945)"></rect><text joint-selector="text" id="v-191" font-size="24px" xml:space="preserve" y="0.8em" fill="#707070" text-anchor="middle" pointer-events="none" font-family="Roboto" font-weight="normal" transform="matrix(1,0,0,1,0,-39.400001525878906)"><tspan  dy="0">Triggers actions</tspan><tspan dy="1.2em" x="0" >upon detecting</tspan><tspan dy="1.2em" x="0" >drift (retrain)</tspan></text></g><g id="v-190"  label-idx="1" cursor="move" transform="matrix(1,0,0,1,1314.37841796875,1296.0977783203125)" style="cursor: default; opacity: 1;"><rect joint-selector="rect" id="v-194" fill="#ffffff" rx="3" ry="3"  width="0" height="0" transform="matrix(1,0,0,1,0,0)" display="none"></rect><text joint-selector="text" id="v-193" fill="#000000" font-size="14" text-anchor="middle" pointer-events="none"></text></g></g><g  display="none"><g  transform="translate(1325, 1315)" id="v-185"><circle  idx="0" r="10"></circle><path  idx="0" d="M16,5.333c-7.732,0-14,4.701-14,10.5c0,1.982,0.741,3.833,2.016,5.414L2,25.667l5.613-1.441c2.339,1.317,5.237,2.107,8.387,2.107c7.732,0,14-4.701,14-10.5C30,10.034,23.732,5.333,16,5.333z" transform="translate(5, -33)"></path><path  idx="0" transform="scale(.8) translate(9.5, -37)" d="M24.778,21.419 19.276,15.917 24.777,10.415 21.949,7.585 16.447,13.087 10.945,7.585 8.117,10.415 13.618,15.917 8.116,21.419 10.946,24.248 16.447,18.746 21.948,24.248z"><title>Remove vertex.</title></path></g><g  transform="translate(645, 1315)" id="v-186"><circle  idx="1" r="10"></circle><path  idx="1" d="M16,5.333c-7.732,0-14,4.701-14,10.5c0,1.982,0.741,3.833,2.016,5.414L2,25.667l5.613-1.441c2.339,1.317,5.237,2.107,8.387,2.107c7.732,0,14-4.701,14-10.5C30,10.034,23.732,5.333,16,5.333z" transform="translate(5, -33)"></path><path  idx="1" transform="scale(.8) translate(9.5, -37)" d="M24.778,21.419 19.276,15.917 24.777,10.415 21.949,7.585 16.447,13.087 10.945,7.585 8.117,10.415 13.618,15.917 8.116,21.419 10.946,24.248 16.447,18.746 21.948,24.248z"><title>Remove vertex.</title></path></g></g><g  id="v-199" display="none"><g  id="v-187"><path  end="source" d="M 26 0 L 0 13 L 26 26 z"></path></g><g  id="v-188"><path  end="target" d="M 26 0 L 0 13 L 26 26 z"></path></g></g><g  id="v-198" display="none"><g  id="v-184" transform="translate(1317.3878605528068, 519.9981195081916) "><g  event="remove"><circle r="11"></circle><path transform="scale(.8) translate(-16, -16)" d="M24.778,21.419 19.276,15.917 24.777,10.415 21.949,7.585 16.447,13.087 10.945,7.585 8.117,10.415 13.618,15.917 8.116,21.419 10.946,24.248 16.447,18.746 21.948,24.248z"></path><title>Remove link.</title></g><g  event="link:options"><circle r="11" transform="translate(25)"></circle><path fill="white" transform="scale(.55) translate(29, -16)" d="M31.229,17.736c0.064-0.571,0.104-1.148,0.104-1.736s-0.04-1.166-0.104-1.737l-4.377-1.557c-0.218-0.716-0.504-1.401-0.851-2.05l1.993-4.192c-0.725-0.91-1.549-1.734-2.458-2.459l-4.193,1.994c-0.647-0.347-1.334-0.632-2.049-0.849l-1.558-4.378C17.165,0.708,16.588,0.667,16,0.667s-1.166,0.041-1.737,0.105L12.707,5.15c-0.716,0.217-1.401,0.502-2.05,0.849L6.464,4.005C5.554,4.73,4.73,5.554,4.005,6.464l1.994,4.192c-0.347,0.648-0.632,1.334-0.849,2.05l-4.378,1.557C0.708,14.834,0.667,15.412,0.667,16s0.041,1.165,0.105,1.736l4.378,1.558c0.217,0.715,0.502,1.401,0.849,2.049l-1.994,4.193c0.725,0.909,1.549,1.733,2.459,2.458l4.192-1.993c0.648,0.347,1.334,0.633,2.05,0.851l1.557,4.377c0.571,0.064,1.148,0.104,1.737,0.104c0.588,0,1.165-0.04,1.736-0.104l1.558-4.377c0.715-0.218,1.399-0.504,2.049-0.851l4.193,1.993c0.909-0.725,1.733-1.549,2.458-2.458l-1.993-4.193c0.347-0.647,0.633-1.334,0.851-2.049L31.229,17.736zM16,20.871c-2.69,0-4.872-2.182-4.872-4.871c0-2.69,2.182-4.872,4.872-4.872c2.689,0,4.871,2.182,4.871,4.872C20.871,18.689,18.689,20.871,16,20.871z"></path><title>Link options.</title></g></g></g></g><!--z-index:35--><g   id="j_16" ><path  stroke="#707070" d="M 1437 480 L 2068 1260" id="v-212" stroke-width="2" stroke-dasharray="30 30" fill="none" style="opacity: 1;"></path><path  fill="black" stroke="black" d="M 0 0 0 0" transform="matrix(0.62950599193573,0.7769956588745117,-0.7769956588745117,0.62950599193573,1436.530029296875,480)"></path><path  fill="#707070" stroke="#707070" d="M 20 0 L 0 10 L 20 20 z" id="v-214" transform="matrix(-0.6295060515403748,-0.7769955992698669,0.7769955992698669,-0.6295060515403748,2060.7001953125,1266.295166015625)" style="opacity: 1;"></path><path  d="M 1437 480 L 2068 1260" id="v-213" fill="none" style="cursor: default;"></path><g ><g id="v-206"  label-idx="0" cursor="move" transform="matrix(1,0,0,1,1752.5,870)" style="cursor: default; opacity: 1;"><rect joint-selector="rect" id="v-209" fill="#ffffff" rx="3" ry="3" pointer-events="none" width="164.67762756347656" height="60.61782264709473" transform="matrix(1,0,0,1,-81.30000305175781,-30.299999237060547)"></rect><text joint-selector="text" id="v-208" font-size="24px" xml:space="preserve" y="0.8em" fill="#707070" text-anchor="middle" pointer-events="none" font-family="Roboto" font-weight="normal" transform="matrix(1,0,0,1,0,-25)"><tspan  dy="0">Sends drift info</tspan><tspan dy="1.2em" x="0" >updates to</tspan></text></g><g id="v-207"  label-idx="1" cursor="move" transform="matrix(1,0,0,1,1742.5,910.7999877929688)" style="cursor: default; opacity: 1;"><rect joint-selector="rect" id="v-211" fill="#ffffff" rx="3" ry="3"  width="0" height="0" transform="matrix(1,0,0,1,0,0)" display="none"></rect><text joint-selector="text" id="v-210" fill="#000000" font-size="14" text-anchor="middle" pointer-events="none"></text></g></g><g  display="none"></g><g  id="v-216" display="none"><g  id="v-204"><path  end="source" d="M 26 0 L 0 13 L 26 26 z"></path></g><g  id="v-205"><path  end="target" d="M 26 0 L 0 13 L 26 26 z"></path></g></g><g  id="v-215" display="none"><g  id="v-203" transform="translate(1462.157605402265, 511.09814930866355) "><g  event="remove"><circle r="11"></circle><path transform="scale(.8) translate(-16, -16)" d="M24.778,21.419 19.276,15.917 24.777,10.415 21.949,7.585 16.447,13.087 10.945,7.585 8.117,10.415 13.618,15.917 8.116,21.419 10.946,24.248 16.447,18.746 21.948,24.248z"></path><title>Remove link.</title></g><g  event="link:options"><circle r="11" transform="translate(25)"></circle><path fill="white" transform="scale(.55) translate(29, -16)" d="M31.229,17.736c0.064-0.571,0.104-1.148,0.104-1.736s-0.04-1.166-0.104-1.737l-4.377-1.557c-0.218-0.716-0.504-1.401-0.851-2.05l1.993-4.192c-0.725-0.91-1.549-1.734-2.458-2.459l-4.193,1.994c-0.647-0.347-1.334-0.632-2.049-0.849l-1.558-4.378C17.165,0.708,16.588,0.667,16,0.667s-1.166,0.041-1.737,0.105L12.707,5.15c-0.716,0.217-1.401,0.502-2.05,0.849L6.464,4.005C5.554,4.73,4.73,5.554,4.005,6.464l1.994,4.192c-0.347,0.648-0.632,1.334-0.849,2.05l-4.378,1.557C0.708,14.834,0.667,15.412,0.667,16s0.041,1.165,0.105,1.736l4.378,1.558c0.217,0.715,0.502,1.401,0.849,2.049l-1.994,4.193c0.725,0.909,1.549,1.733,2.459,2.458l4.192-1.993c0.648,0.347,1.334,0.633,2.05,0.851l1.557,4.377c0.571,0.064,1.148,0.104,1.737,0.104c0.588,0,1.165-0.04,1.736-0.104l1.558-4.377c0.715-0.218,1.399-0.504,2.049-0.851l4.193,1.993c0.909-0.725,1.733-1.549,2.458-2.458l-1.993-4.193c0.347-0.647,0.633-1.334,0.851-2.049L31.229,17.736zM16,20.871c-2.69,0-4.872-2.182-4.872-4.871c0-2.69,2.182-4.872,4.872-4.872c2.689,0,4.871,2.182,4.871,4.872C20.871,18.689,18.689,20.871,16,20.871z"></path><title>Link options.</title></g></g></g></g><!--z-index:36--><g   id="j_17" ><path  stroke="#707070" d="M 475 1550 L 475 1550 C 474.99999999999994 1550 474.99999999999994 1553.3333333333333 475 1560 L 475 1590 C 474.99999999999994 1596.6666666666665 478.33333333333326 1599.9999999999998 485 1600 L 2195 1610 C 2201.6666666666665 1610 2204.6666666666665 1606.6666666666665 2204 1600 L 2201 1560" id="v-231" stroke-width="2" stroke-dasharray="30 30" fill="none" style="opacity: 1;"></path><path  fill="black" stroke="black" d="M 0 0 0 0" transform="matrix(1,0,0,1,475,1550)"></path><path  fill="#707070" stroke="#707070" d="M 20 0 L 0 10 L 20 20 z" id="v-233" transform="matrix(0.07478996366262436,0.997199296951294,-0.997199296951294,0.07478996366262436,2211.221923828125,1559.252197265625)" style="opacity: 1;"></path><path  d="M 475 1550 L 475 1550 C 474.99999999999994 1550 474.99999999999994 1553.3333333333333 475 1560 L 475 1590 C 474.99999999999994 1596.6666666666665 478.33333333333326 1599.9999999999998 485 1600 L 2195 1610 C 2201.6666666666665 1610 2204.6666666666665 1606.6666666666665 2204 1600 L 2201 1560" id="v-232" fill="none" style="cursor: default;"></path><g ><g id="v-225"  label-idx="0" cursor="move" transform="matrix(1,0,0,1,1339.8553466796875,1604.9991455078125)" style="cursor: default; opacity: 1;"><rect joint-selector="rect" id="v-228" fill="#ffffff" rx="3" ry="3" pointer-events="none" width="191.68197631835938" height="118.21782684326172" transform="matrix(1,0,0,1,-94.19999694824219,-59.099998474121094)"></rect><text joint-selector="text" id="v-227" font-size="24px" xml:space="preserve" y="0.8em" fill="#707070" text-anchor="middle" pointer-events="none" font-family="Roboto" font-weight="normal" transform="matrix(1,0,0,1,0,-53.79999923706055)"><tspan  dy="0">Sends request for</tspan><tspan dy="1.2em" x="0" >new deployment</tspan><tspan dy="1.2em" x="0" >of the retrained</tspan><tspan dy="1.2em" x="0" >model</tspan></text></g><g id="v-226"  label-idx="1" cursor="move" transform="matrix(1,0,0,1,1329.8553466796875,1674.59912109375)" style="cursor: default; opacity: 1;"><rect joint-selector="rect" id="v-230" fill="#ffffff" rx="3" ry="3"  width="0" height="0" transform="matrix(1,0,0,1,0,0)" display="none"></rect><text joint-selector="text" id="v-229" fill="#000000" font-size="14" text-anchor="middle" pointer-events="none"></text></g></g><g  display="none"><g  transform="translate(475, 1550)" id="v-898"><circle  idx="0" r="10"></circle><path  idx="0" d="M16,5.333c-7.732,0-14,4.701-14,10.5c0,1.982,0.741,3.833,2.016,5.414L2,25.667l5.613-1.441c2.339,1.317,5.237,2.107,8.387,2.107c7.732,0,14-4.701,14-10.5C30,10.034,23.732,5.333,16,5.333z" transform="translate(5, -33)"></path><path  idx="0" transform="scale(.8) translate(9.5, -37)" d="M24.778,21.419 19.276,15.917 24.777,10.415 21.949,7.585 16.447,13.087 10.945,7.585 8.117,10.415 13.618,15.917 8.116,21.419 10.946,24.248 16.447,18.746 21.948,24.248z"><title>Remove vertex.</title></path></g><g  transform="translate(475, 1600)" id="v-899"><circle  idx="1" r="10"></circle><path  idx="1" d="M16,5.333c-7.732,0-14,4.701-14,10.5c0,1.982,0.741,3.833,2.016,5.414L2,25.667l5.613-1.441c2.339,1.317,5.237,2.107,8.387,2.107c7.732,0,14-4.701,14-10.5C30,10.034,23.732,5.333,16,5.333z" transform="translate(5, -33)"></path><path  idx="1" transform="scale(.8) translate(9.5, -37)" d="M24.778,21.419 19.276,15.917 24.777,10.415 21.949,7.585 16.447,13.087 10.945,7.585 8.117,10.415 13.618,15.917 8.116,21.419 10.946,24.248 16.447,18.746 21.948,24.248z"><title>Remove vertex.</title></path></g><g  transform="translate(2205, 1610)" id="v-900"><circle  idx="2" r="10"></circle><path  idx="2" d="M16,5.333c-7.732,0-14,4.701-14,10.5c0,1.982,0.741,3.833,2.016,5.414L2,25.667l5.613-1.441c2.339,1.317,5.237,2.107,8.387,2.107c7.732,0,14-4.701,14-10.5C30,10.034,23.732,5.333,16,5.333z" transform="translate(5, -33)"></path><path  idx="2" transform="scale(.8) translate(9.5, -37)" d="M24.778,21.419 19.276,15.917 24.777,10.415 21.949,7.585 16.447,13.087 10.945,7.585 8.117,10.415 13.618,15.917 8.116,21.419 10.946,24.248 16.447,18.746 21.948,24.248z"><title>Remove vertex.</title></path></g></g><g  id="v-235" display="none"><g  id="v-223"><path  end="source" d="M 26 0 L 0 13 L 26 26 z"></path></g><g  id="v-224"><path  end="target" d="M 26 0 L 0 13 L 26 26 z"></path></g></g><g  id="v-234" display="none"><g  id="v-220" transform="translate(475, 1590) "><g  event="remove"><circle r="11"></circle><path transform="scale(.8) translate(-16, -16)" d="M24.778,21.419 19.276,15.917 24.777,10.415 21.949,7.585 16.447,13.087 10.945,7.585 8.117,10.415 13.618,15.917 8.116,21.419 10.946,24.248 16.447,18.746 21.948,24.248z"></path><title>Remove link.</title></g><g  event="link:options"><circle r="11" transform="translate(25)"></circle><path fill="white" transform="scale(.55) translate(29, -16)" d="M31.229,17.736c0.064-0.571,0.104-1.148,0.104-1.736s-0.04-1.166-0.104-1.737l-4.377-1.557c-0.218-0.716-0.504-1.401-0.851-2.05l1.993-4.192c-0.725-0.91-1.549-1.734-2.458-2.459l-4.193,1.994c-0.647-0.347-1.334-0.632-2.049-0.849l-1.558-4.378C17.165,0.708,16.588,0.667,16,0.667s-1.166,0.041-1.737,0.105L12.707,5.15c-0.716,0.217-1.401,0.502-2.05,0.849L6.464,4.005C5.554,4.73,4.73,5.554,4.005,6.464l1.994,4.192c-0.347,0.648-0.632,1.334-0.849,2.05l-4.378,1.557C0.708,14.834,0.667,15.412,0.667,16s0.041,1.165,0.105,1.736l4.378,1.558c0.217,0.715,0.502,1.401,0.849,2.049l-1.994,4.193c0.725,0.909,1.549,1.733,2.459,2.458l4.192-1.993c0.648,0.347,1.334,0.633,2.05,0.851l1.557,4.377c0.571,0.064,1.148,0.104,1.737,0.104c0.588,0,1.165-0.04,1.736-0.104l1.558-4.377c0.715-0.218,1.399-0.504,2.049-0.851l4.193,1.993c0.909-0.725,1.733-1.549,2.458-2.458l-1.993-4.193c0.347-0.647,0.633-1.334,0.851-2.049L31.229,17.736zM16,20.871c-2.69,0-4.872-2.182-4.872-4.871c0-2.69,2.182-4.872,4.872-4.872c2.689,0,4.871,2.182,4.871,4.872C20.871,18.689,18.689,20.871,16,20.871z"></path><title>Link options.</title></g></g></g></g><!--z-index:37--><g   id="j_18" ><path  stroke="#707070" d="M 406 530 L 409 1250" id="v-248" stroke-width="2" stroke-dasharray="30 30" fill="none" style="opacity: 1;"></path><path  fill="black" stroke="black" d="M 0 0 0 0" transform="matrix(0.004680488724261522,0.9999890327453613,-0.9999890327453613,0.004680488724261522,405.92999267578125,530)"></path><path  fill="#707070" stroke="#707070" d="M 20 0 L 0 10 L 20 20 z" id="v-250" transform="matrix(-0.004680754616856575,-0.9999890327453613,0.9999890327453613,-0.004680754616856575,399.30010986328125,1250.046875)" style="opacity: 1;"></path><path  d="M 406 530 L 409 1250" id="v-249" fill="none" style="cursor: default;"></path><g ><g id="v-242"  label-idx="0" cursor="move" transform="matrix(1,0,0,1,407.5,890)" style="cursor: default; opacity: 1;"><rect joint-selector="rect" id="v-245" fill="#ffffff" rx="3" ry="3" pointer-events="none" width="164.67762756347656" height="89.4178237915039" transform="matrix(1,0,0,1,-82.0999984741211,-44.70000076293945)"></rect><text joint-selector="text" id="v-244" font-size="24px" xml:space="preserve" y="0.8em" fill="#707070" text-anchor="middle" pointer-events="none" font-family="Roboto" font-weight="normal" transform="matrix(1,0,0,1,0,-39.400001525878906)"><tspan  dy="0">Reuse, develop,</tspan><tspan dy="1.2em" x="0" >publish new AI</tspan><tspan dy="1.2em" x="0" >models</tspan></text></g><g id="v-243"  label-idx="1" cursor="move" transform="matrix(1,0,0,1,397.5,945.2000122070312)" style="cursor: default; opacity: 1;"><rect joint-selector="rect" id="v-247" fill="#ffffff" rx="3" ry="3"  width="0" height="0" transform="matrix(1,0,0,1,0,0)" display="none"></rect><text joint-selector="text" id="v-246" fill="#000000" font-size="14" text-anchor="middle" pointer-events="none"></text></g></g><g  display="none"></g><g  id="v-252" display="none"><g  id="v-240"><path  end="source" d="M 26 0 L 0 13 L 26 26 z"></path></g><g  id="v-241"><path  end="target" d="M 26 0 L 0 13 L 26 26 z"></path></g></g><g  id="v-251" display="none"><g  id="v-239" transform="translate(406.1666652199262, 569.9996527822988) "><g  event="remove"><circle r="11"></circle><path transform="scale(.8) translate(-16, -16)" d="M24.778,21.419 19.276,15.917 24.777,10.415 21.949,7.585 16.447,13.087 10.945,7.585 8.117,10.415 13.618,15.917 8.116,21.419 10.946,24.248 16.447,18.746 21.948,24.248z"></path><title>Remove link.</title></g><g  event="link:options"><circle r="11" transform="translate(25)"></circle><path fill="white" transform="scale(.55) translate(29, -16)" d="M31.229,17.736c0.064-0.571,0.104-1.148,0.104-1.736s-0.04-1.166-0.104-1.737l-4.377-1.557c-0.218-0.716-0.504-1.401-0.851-2.05l1.993-4.192c-0.725-0.91-1.549-1.734-2.458-2.459l-4.193,1.994c-0.647-0.347-1.334-0.632-2.049-0.849l-1.558-4.378C17.165,0.708,16.588,0.667,16,0.667s-1.166,0.041-1.737,0.105L12.707,5.15c-0.716,0.217-1.401,0.502-2.05,0.849L6.464,4.005C5.554,4.73,4.73,5.554,4.005,6.464l1.994,4.192c-0.347,0.648-0.632,1.334-0.849,2.05l-4.378,1.557C0.708,14.834,0.667,15.412,0.667,16s0.041,1.165,0.105,1.736l4.378,1.558c0.217,0.715,0.502,1.401,0.849,2.049l-1.994,4.193c0.725,0.909,1.549,1.733,2.459,2.458l4.192-1.993c0.648,0.347,1.334,0.633,2.05,0.851l1.557,4.377c0.571,0.064,1.148,0.104,1.737,0.104c0.588,0,1.165-0.04,1.736-0.104l1.558-4.377c0.715-0.218,1.399-0.504,2.049-0.851l4.193,1.993c0.909-0.725,1.733-1.549,2.458-2.458l-1.993-4.193c0.347-0.647,0.633-1.334,0.851-2.049L31.229,17.736zM16,20.871c-2.69,0-4.872-2.182-4.872-4.871c0-2.69,2.182-4.872,4.872-4.872c2.689,0,4.871,2.182,4.871,4.872C20.871,18.689,18.689,20.871,16,20.871z"></path><title>Link options.</title></g></g></g></g><!--z-index:38--><g   id="j_19" ><path  stroke="#707070" d="M 2190 535 L 2190 1260" id="v-265" stroke-width="2" stroke-dasharray="30 30" fill="none" style="opacity: 1;"></path><path  fill="black" stroke="black" d="M 0 0 0 0" transform="matrix(6.123234262925839e-17,1,-1,6.123234262925839e-17,2190,535)"></path><path  fill="#707070" stroke="#707070" d="M 20 0 L 0 10 L 20 20 z" id="v-267" transform="matrix(-1.8369701465288538e-16,-1,1,-1.8369701465288538e-16,2180,1260)" style="opacity: 1;"></path><path  d="M 2190 535 L 2190 1260" id="v-266" fill="none" style="cursor: default;"></path><g ><g id="v-259"  label-idx="0" cursor="move" transform="matrix(1,0,0,1,2190,897.5)" style="cursor: default; opacity: 1;"><rect joint-selector="rect" id="v-262" fill="#ffffff" rx="3" ry="3" pointer-events="none" width="155.33624267578125" height="60.61782264709473" transform="matrix(1,0,0,1,-77.69999694824219,-30.299999237060547)"></rect><text joint-selector="text" id="v-261" font-size="24px" xml:space="preserve" y="0.8em" fill="#707070" text-anchor="middle" pointer-events="none" font-family="Roboto" font-weight="normal" transform="matrix(1,0,0,1,0,-25)"><tspan  dy="0">Uses deployed</tspan><tspan dy="1.2em" x="0" >models from</tspan></text></g><g id="v-260"  label-idx="1" cursor="move" transform="matrix(1,0,0,1,2180,938.2999877929688)" style="cursor: default; opacity: 1;"><rect joint-selector="rect" id="v-264" fill="#ffffff" rx="3" ry="3"  width="0" height="0" transform="matrix(1,0,0,1,0,0)" display="none"></rect><text joint-selector="text" id="v-263" fill="#000000" font-size="14" text-anchor="middle" pointer-events="none"></text></g></g><g  display="none"></g><g  id="v-269" display="none"><g  id="v-257"><path  end="source" d="M 26 0 L 0 13 L 26 26 z"></path></g><g  id="v-258"><path  end="target" d="M 26 0 L 0 13 L 26 26 z"></path></g></g><g  id="v-268" display="none"><g  id="v-256" transform="translate(2190, 575) "><g  event="remove"><circle r="11"></circle><path transform="scale(.8) translate(-16, -16)" d="M24.778,21.419 19.276,15.917 24.777,10.415 21.949,7.585 16.447,13.087 10.945,7.585 8.117,10.415 13.618,15.917 8.116,21.419 10.946,24.248 16.447,18.746 21.948,24.248z"></path><title>Remove link.</title></g><g  event="link:options"><circle r="11" transform="translate(25)"></circle><path fill="white" transform="scale(.55) translate(29, -16)" d="M31.229,17.736c0.064-0.571,0.104-1.148,0.104-1.736s-0.04-1.166-0.104-1.737l-4.377-1.557c-0.218-0.716-0.504-1.401-0.851-2.05l1.993-4.192c-0.725-0.91-1.549-1.734-2.458-2.459l-4.193,1.994c-0.647-0.347-1.334-0.632-2.049-0.849l-1.558-4.378C17.165,0.708,16.588,0.667,16,0.667s-1.166,0.041-1.737,0.105L12.707,5.15c-0.716,0.217-1.401,0.502-2.05,0.849L6.464,4.005C5.554,4.73,4.73,5.554,4.005,6.464l1.994,4.192c-0.347,0.648-0.632,1.334-0.849,2.05l-4.378,1.557C0.708,14.834,0.667,15.412,0.667,16s0.041,1.165,0.105,1.736l4.378,1.558c0.217,0.715,0.502,1.401,0.849,2.049l-1.994,4.193c0.725,0.909,1.549,1.733,2.459,2.458l4.192-1.993c0.648,0.347,1.334,0.633,2.05,0.851l1.557,4.377c0.571,0.064,1.148,0.104,1.737,0.104c0.588,0,1.165-0.04,1.736-0.104l1.558-4.377c0.715-0.218,1.399-0.504,2.049-0.851l4.193,1.993c0.909-0.725,1.733-1.549,2.458-2.458l-1.993-4.193c0.347-0.647,0.633-1.334,0.851-2.049L31.229,17.736zM16,20.871c-2.69,0-4.872-2.182-4.872-4.871c0-2.69,2.182-4.872,4.872-4.872c2.689,0,4.871,2.182,4.871,4.872C20.871,18.689,18.689,20.871,16,20.871z"></path><title>Link options.</title></g></g></g></g><!--z-index:39--></g><g ></g><g ></g><g ></g></g></svg>