<svg xmlns="http://www.w3.org/2000/svg" xmlns:xlink="http://www.w3.org/1999/xlink" version="1.1" viewBox="0 0 3960 3984" style="background: #ffffff"><defs><style>@import url(http://fonts.googleapis.com/css?family=Roboto);</style></defs><defs joint-selector="defs"></defs><g  joint-selector="layers" transform="matrix(1,0,0,1,0,0)"><g ></g><g ><!--z-index:1--><!--z-index:2--><!--z-index:3--><!--z-index:4--><!--z-index:5--><!--z-index:6--><!--z-index:7--><!--z-index:8--><!--z-index:9--><!--z-index:10--><!--z-index:11--><!--z-index:12--><!--z-index:13--><!--z-index:14--><!--z-index:15--><!--z-index:16--><!--z-index:17--><!--z-index:18--><!--z-index:19--><!--z-index:20--><!--z-index:21--><!--z-index:22--><!--z-index:23--><!--z-index:24--><!--z-index:25--><!--z-index:26--><!--z-index:27--><!--z-index:28--><!--z-index:29--><!--z-index:30--><!--z-index:31--><!--z-index:32--><!--z-index:33--><!--z-index:34--><!--z-index:35--><!--z-index:36--><!--z-index:37--><!--z-index:38--><!--z-index:39--><!--z-index:40--><!--z-index:41--><!--z-index:42--><g   id="j_95"  transform="translate(20,3947.6)"><g id="v-1883"><text  id="v-1884" font-size="22px" xml:space="preserve" y="0.8em" font-weight="normal" text-anchor="start" fill="#aaaaaa" pointer-events="none" display="block" font-family="Roboto"><tspan  dy="0" display="block">Wednesday, 26 June 2024 at 16:10 Central European Summer Time</tspan></text></g></g><!--z-index:43--><g   id="j_94"  transform="translate(20,3904.4)"><g id="v-1881"><text  id="v-1882" font-size="36px" xml:space="preserve" y="0.8em" font-weight="normal" text-anchor="start" fill="#000000" pointer-events="none" display="block" font-family="Roboto"><tspan  dy="0" display="block">[Dynamic view] Automatic drift detection (rebuild the  model)</tspan></text></g></g><!--z-index:44--><g   id="j_96"  transform="translate(505,375)" style=""><g  id="v-1888" style="opacity: 1;"><rect  x="0" y="160" width="400" height="240" rx="70" id="v-1890" stroke="#00474d" stroke-width="2" pointer-events="visiblePainted" fill="#004f56" style="fill: rgb(0, 79, 86); stroke: rgb(0, 71, 77);"></rect><circle  cx="200" cy="88.88888888888889" r="88.88888888888889" id="v-1889" stroke="#00474d" stroke-width="2" pointer-events="visiblePainted" fill="#004f56" style="fill: rgb(0, 79, 86); stroke: rgb(0, 71, 77);"></circle><line  x1="80" y1="266.6666666666667" x2="80" y2="400" id="v-1896" stroke="#00474d" stroke-width="2" style="stroke: rgb(0, 71, 77);"></line><line  x1="320" y1="266.6666666666667" x2="320" y2="400" id="v-1897" stroke="#00474d" stroke-width="2" style="stroke: rgb(0, 71, 77);"></line><text  id="v-1891" font-size="34" xml:space="preserve" y="0.8em" font-weight="bold" text-anchor="middle" pointer-events="visible" font-family="Roboto" fill="#ffffff" transform="matrix(1,0,0,1,200,203.6999969482422)" style="fill: rgb(255, 255, 255);"><tspan  dy="0">EOSC User</tspan></text><text  id="v-1892" font-size="17" xml:space="preserve" y="0.8em" text-anchor="middle" font-family="Roboto" fill="#ffffff" transform="matrix(1,0,0,1,200,244.5)" style="fill: rgb(255, 255, 255);"><tspan  dy="0">[Person]</tspan></text><text  id="v-1893" font-size="24" xml:space="preserve" y="0.8em" text-anchor="middle" font-family="Roboto" fill="#ffffff" transform="matrix(1,0,0,1,200,274.8999938964844)" style="fill: rgb(255, 255, 255);"><tspan  dy="0">EOSC user willing to use an AI</tspan><tspan dy="1.2em" x="0" >platform to develop an AI</tspan><tspan dy="1.2em" x="0" >application.</tspan></text><g  id="v-1894" font-weight="normal" text-anchor="middle" color="#ffffff" transform="matrix(1,0,0,1,197.5,368)" style="fill: rgb(255, 255, 255);" display="none"><g ></g><g ></g><g ></g><g ></g></g><image  id="v-1895"></image></g></g><!--z-index:45--><g   id="j_98"  transform="translate(1025,1100)" style=""><g id="v-1909"><rect  id="v-1910" width="1860" height="1006" rx="0" ry="0" fill="#ffffff" stroke="#e68da0" stroke-width="1" stroke-dasharray="20,20" pointer-events="none"></rect><text  id="v-1911" font-size="24px" xml:space="preserve" y="967" font-weight="normal" fill="#e68da0" text-anchor="start" pointer-events="visible" font-family="Roboto" transform="matrix(1,0,0,1,15,0)"><tspan  dy="0">AI4EOSC Platform</tspan></text><text  id="v-1912" font-size="17px" xml:space="preserve" y="991" font-weight="normal" fill="#e68da0" text-anchor="start" pointer-events="visible" font-family="Roboto" transform="matrix(1,0,0,1,15,0)"><tspan  dy="0">[Software System]</tspan></text><image  id="v-1913" pointer-events="visible"></image></g></g><!--z-index:46--><g   id="j_97"  transform="translate(2415,1505)" style=""><g  id="v-1901" style="opacity: 1;"><rect  id="v-1902" rx="10" ry="10" stroke="#007a83" stroke-width="2" pointer-events="visiblePainted" fill="#008792" x="10" y="0" width="150" height="75" style="fill: rgb(0, 135, 146); stroke: rgb(0, 122, 131);"></rect><rect  id="v-1903" rx="5" ry="5" stroke="#007a83" stroke-width="2" pointer-events="visiblePainted" fill="#008792" x="0" y="37.5" width="450" height="262.5" style="fill: rgb(0, 135, 146); stroke: rgb(0, 122, 131);"></rect><text  id="v-1904" font-size="34" xml:space="preserve" y="0.8em" font-weight="bold" text-anchor="middle" pointer-events="visible" font-family="Roboto" fill="#ffffff" transform="matrix(1,0,0,1,225,121.30000305175781)" style="fill: rgb(255, 255, 255);"><tspan  dy="0">Model code repository</tspan></text><text  id="v-1905" font-size="17" xml:space="preserve" y="0.8em" text-anchor="middle" font-family="Roboto" fill="#ffffff" transform="matrix(1,0,0,1,225,162.10000610351562)" style="fill: rgb(255, 255, 255);"><tspan  dy="0">[Container: Git]</tspan></text><text  id="v-1906" font-size="24" xml:space="preserve" y="0.8em" text-anchor="middle" font-family="Roboto" fill="#ffffff" transform="matrix(1,0,0,1,225,192.5)" style="fill: rgb(255, 255, 255);"><tspan  dy="0">Track AI model code.</tspan></text><g  id="v-1907" font-weight="normal" text-anchor="middle" color="#ffffff" transform="matrix(1,0,0,1,222.5,268)" style="fill: rgb(255, 255, 255);" display="none"><g ></g><g ></g><g ></g><g ></g></g><image  id="v-1908"></image></g></g><!--z-index:47--><g   id="j_99"  transform="translate(2410,1120)" style=""><g  id="v-1920" style="opacity: 1;"><rect  id="v-1921" rx="10" ry="10" stroke="#007a83" stroke-width="2" pointer-events="visiblePainted" fill="#008792" x="10" y="0" width="150" height="75" style="fill: rgb(0, 135, 146); stroke: rgb(0, 122, 131);"></rect><rect  id="v-1922" rx="5" ry="5" stroke="#007a83" stroke-width="2" pointer-events="visiblePainted" fill="#008792" x="0" y="37.5" width="450" height="262.5" style="fill: rgb(0, 135, 146); stroke: rgb(0, 122, 131);"></rect><text  id="v-1923" font-size="34" xml:space="preserve" y="0.8em" font-weight="bold" text-anchor="middle" pointer-events="visible" font-family="Roboto" fill="#ffffff" transform="matrix(1,0,0,1,225,121.30000305175781)" style="fill: rgb(255, 255, 255);"><tspan  dy="0">Container registry</tspan></text><text  id="v-1924" font-size="17" xml:space="preserve" y="0.8em" text-anchor="middle" font-family="Roboto" fill="#ffffff" transform="matrix(1,0,0,1,225,162.10000610351562)" style="fill: rgb(255, 255, 255);"><tspan  dy="0">[Container: Harbor.io]</tspan></text><text  id="v-1925" font-size="24" xml:space="preserve" y="0.8em" text-anchor="middle" font-family="Roboto" fill="#ffffff" transform="matrix(1,0,0,1,225,192.5)" style="fill: rgb(255, 255, 255);"><tspan  dy="0">Store container images.</tspan></text><g  id="v-1926" font-weight="normal" text-anchor="middle" color="#ffffff" transform="matrix(1,0,0,1,222.5,268)" style="fill: rgb(255, 255, 255);" display="none"><g ></g><g ></g><g ></g><g ></g></g><image  id="v-1927"></image></g></g><!--z-index:48--><g   id="j_100"  transform="translate(1740,1195)" style=""><g  id="v-1934" style="opacity: 1;"><rect  id="v-1935" rx="20" ry="20" stroke="#007a83" stroke-width="2" pointer-events="visiblePainted" fill="#008792" width="450" height="300" style="fill: rgb(0, 135, 146); stroke: rgb(0, 122, 131);"></rect><text  id="v-1936" font-size="34" xml:space="preserve" y="0.8em" font-weight="bold" text-anchor="middle" pointer-events="visible" font-family="Roboto" fill="#ffffff" transform="matrix(1,0,0,1,225,38.900001525878906)" style="fill: rgb(255, 255, 255);"><tspan  dy="0">Continuous Integration,</tspan><tspan dy="1.2em" x="0" >Delivery &amp; Deployment</tspan></text><text  id="v-1937" font-size="17" xml:space="preserve" y="0.8em" text-anchor="middle" font-family="Roboto" fill="#ffffff" transform="matrix(1,0,0,1,225,120.5)" style="fill: rgb(255, 255, 255);"><tspan  dy="0">[Container: Jenkins]</tspan></text><text  id="v-1938" font-size="24" xml:space="preserve" y="0.8em" text-anchor="middle" font-family="Roboto" fill="#ffffff" transform="matrix(1,0,0,1,225,150.89999389648438)" style="fill: rgb(255, 255, 255);"><tspan  dy="0">Ensures quality aspects are fulfilled</tspan><tspan dy="1.2em" x="0" >(code checks, unit checks, etc.).</tspan><tspan dy="1.2em" x="0" >Performs delivery and deployment</tspan><tspan dy="1.2em" x="0" >of new assets.</tspan></text><g  id="v-1939" color="#ffffff" transform="matrix(1,0,0,1,222.5,268)" style="fill: rgb(255, 255, 255);" display="none"><g ></g><g ></g><g ></g><g ></g></g><image  id="v-1940"></image></g></g><!--z-index:49--><g   id="j_101"  transform="translate(1105,1185)" style=""><g  id="v-1947" style="opacity: 1;"><rect  id="v-1948" rx="10" ry="10" stroke="#007a83" stroke-width="2" pointer-events="visiblePainted" fill="#007a83" width="450" height="300" style="fill: rgb(0, 122, 131); stroke: rgb(0, 122, 131);"></rect><rect  id="v-1949" rx="10" ry="10" stroke="#007a83" stroke-width="0" pointer-events="visiblePainted" fill="#008792" width="430" height="250" x="10" y="40" style="fill: rgb(0, 135, 146);"></rect><ellipse  id="v-1956" fill="#008792" cx="20" cy="20" rx="10" ry="10" style="fill: rgb(0, 135, 146);"></ellipse><ellipse  id="v-1957" fill="#008792" cx="50" cy="20" rx="10" ry="10" style="fill: rgb(0, 135, 146);"></ellipse><ellipse  id="v-1958" fill="#008792" cx="80" cy="20" rx="10" ry="10" style="fill: rgb(0, 135, 146);"></ellipse><rect  id="v-1950" rx="10" ry="10" stroke="#444444" stroke-width="0" pointer-events="visiblePainted" fill="#008792" width="340" height="20" x="100" y="10" style="fill: rgb(0, 135, 146);"></rect><text  id="v-1951" font-size="34" xml:space="preserve" y="0.8em" font-weight="bold" text-anchor="middle" pointer-events="visible" font-family="Roboto" fill="#ffffff" transform="matrix(1,0,0,1,225,88.69999694824219)" style="fill: rgb(255, 255, 255);"><tspan  dy="0">AI4EOSC dashboard</tspan></text><text  id="v-1952" font-size="17" xml:space="preserve" y="0.8em" text-anchor="middle" font-family="Roboto" fill="#ffffff" transform="matrix(1,0,0,1,225,129.5)" style="fill: rgb(255, 255, 255);"><tspan  dy="0">[Container: Angular]</tspan></text><text  id="v-1953" font-size="24" xml:space="preserve" y="0.8em" text-anchor="middle" font-family="Roboto" fill="#ffffff" transform="matrix(1,0,0,1,225,159.89999389648438)" style="fill: rgb(255, 255, 255);"><tspan  dy="0">Provides access to existing modules</tspan><tspan dy="1.2em" x="0" >(anonymous), experiment and</tspan><tspan dy="1.2em" x="0" >training definition (logged users).</tspan></text><g  id="v-1954" font-weight="normal" text-anchor="middle" color="#ffffff" transform="matrix(1,0,0,1,222.5,258)" style="fill: rgb(255, 255, 255);" display="none"><g ></g><g ></g><g ></g><g ></g></g><image  id="v-1955"></image></g></g><!--z-index:50--><g   id="j_102"  transform="translate(1045,1715)" style=""><g  id="v-1965" style="opacity: 1;"><rect  id="v-1966" rx="20" ry="20" stroke="#007a83" stroke-width="2" pointer-events="visiblePainted" fill="#008792" width="450" height="300" style="fill: rgb(0, 135, 146); stroke: rgb(0, 122, 131);"></rect><text  id="v-1967" font-size="34" xml:space="preserve" y="0.8em" font-weight="bold" text-anchor="middle" pointer-events="visible" font-family="Roboto" fill="#ffffff" transform="matrix(1,0,0,1,225,67.69999694824219)" style="fill: rgb(255, 255, 255);"><tspan  dy="0">User job/task</tspan><tspan dy="1.2em" x="0" >deployment</tspan></text><text  id="v-1968" font-size="17" xml:space="preserve" y="0.8em" text-anchor="middle" font-family="Roboto" fill="#ffffff" transform="matrix(1,0,0,1,225,149.3000030517578)" style="fill: rgb(255, 255, 255);"><tspan  dy="0">[Container: Docker Nomad Job]</tspan></text><text  id="v-1969" font-size="24" xml:space="preserve" y="0.8em" text-anchor="middle" font-family="Roboto" fill="#ffffff" transform="matrix(1,0,0,1,225,179.6999969482422)" style="fill: rgb(255, 255, 255);"><tspan  dy="0">Encapsulates a user task to be</tspan><tspan dy="1.2em" x="0" >executed in the platform.</tspan></text><g  id="v-1970" color="#ffffff" transform="matrix(1,0,0,1,210,268)" style="fill: rgb(255, 255, 255);" display="none"><g  transform="translate(5 0)"><svg xmlns="http://www.w3.org/2000/svg" width="20" height="20" fill="currentColor" viewBox="0 0 16 16"><path fill-rule="evenodd" d="M6.5 12a5.5 5.5 0 1 0 0-11 5.5 5.5 0 0 0 0 11zM13 6.5a6.5 6.5 0 1 1-13 0 6.5 6.5 0 0 1 13 0z"></path><path d="M10.344 11.742c.03.04.062.078.098.115l3.85 3.85a1 1 0 0 0 1.415-1.414l-3.85-3.85a1.007 1.007 0 0 0-.115-.1 6.538 6.538 0 0 1-1.398 1.4z"></path><path fill-rule="evenodd" d="M6.5 3a.5.5 0 0 1 .5.5V6h2.5a.5.5 0 0 1 0 1H7v2.5a.5.5 0 0 1-1 0V7H3.5a.5.5 0 0 1 0-1H6V3.5a.5.5 0 0 1 .5-.5z"></path></svg></g><g ></g><g ></g><g ></g></g><image  id="v-1971"></image></g></g><!--z-index:51--><g   id="j_105"  transform="translate(2355,380)" style=""><g id="v-1984"><rect  id="v-1985" width="530" height="505" rx="0" ry="0" fill="#ffffff" stroke="#e68da0" stroke-width="1" stroke-dasharray="20,20" pointer-events="none"></rect><text  id="v-1986" font-size="24px" xml:space="preserve" y="466" font-weight="normal" fill="#e68da0" text-anchor="start" pointer-events="visible" font-family="Roboto" transform="matrix(1,0,0,1,15,0)"><tspan  dy="0">AI as a Service</tspan></text><text  id="v-1987" font-size="17px" xml:space="preserve" y="490" font-weight="normal" fill="#e68da0" text-anchor="start" pointer-events="visible" font-family="Roboto" transform="matrix(1,0,0,1,15,0)"><tspan  dy="0">[Software System]</tspan></text><image  id="v-1988" pointer-events="visible"></image></g></g><!--z-index:52--><g   id="j_104"  transform="translate(2375,400)" style=""><g id="v-1979"><rect  id="v-1980" width="490" height="394" rx="0" ry="0" fill="#ffffff" stroke="#444444" stroke-width="1" stroke-dasharray="5,5" pointer-events="none"></rect><text  id="v-1981" font-size="24px" xml:space="preserve" y="379" font-weight="normal" fill="#444444" text-anchor="start" pointer-events="visible" font-family="Roboto" transform="matrix(1,0,0,1,15,0)"><tspan  dy="0">OSCAR</tspan></text><text  id="v-1982" font-size="17px" xml:space="preserve" display="none" y="379" font-weight="normal" fill="#444444" text-anchor="start" pointer-events="visible" font-family="Roboto" transform="matrix(1,0,0,1,15,0)"><tspan style="fill-opacity: 0; stroke-opacity: 0;"  dy="0">-</tspan></text><image  id="v-1983" pointer-events="visible"></image></g></g><!--z-index:53--><g   id="j_103"  transform="translate(2395,420)" style=""><g  id="v-1972" style="opacity: 1;"><rect  id="v-1973" rx="20" ry="20" stroke="#007a83" stroke-width="2" pointer-events="visiblePainted" fill="#008792" width="450" height="300" style="fill: rgb(0, 135, 146); stroke: rgb(0, 122, 131);"></rect><text  id="v-1974" font-size="34" xml:space="preserve" y="0.8em" font-weight="bold" text-anchor="middle" pointer-events="visible" font-family="Roboto" fill="#ffffff" transform="matrix(1,0,0,1,225,121.9000015258789)" style="fill: rgb(255, 255, 255);"><tspan  dy="0">OSCAR Manager</tspan></text><text  id="v-1975" font-size="17" xml:space="preserve" y="0.8em" text-anchor="middle" font-family="Roboto" fill="#ffffff" transform="matrix(1,0,0,1,225,162.6999969482422)" style="fill: rgb(255, 255, 255);"><tspan  dy="0">[Container]</tspan></text><text  id="v-1976" font-size="24" xml:space="preserve" display="none" y="0.8em" text-anchor="middle" font-family="Roboto" fill="#ffffff" transform="matrix(1,0,0,1,225,183.10000610351562)" style="fill: rgb(255, 255, 255);"><tspan style="fill-opacity: 0; stroke-opacity: 0;"  dy="0">-</tspan></text><g  id="v-1977" color="#ffffff" transform="matrix(1,0,0,1,222.5,268)" style="fill: rgb(255, 255, 255);" display="none"><g ></g><g ></g><g ></g><g ></g></g><image  id="v-1978"></image></g></g><!--z-index:54--><g   id="j_107"  transform="translate(465,2270)" style=""><g id="v-1999"><rect  id="v-2000" width="1770" height="505" rx="0" ry="0" fill="#ffffff" stroke="#e68da0" stroke-width="1" stroke-dasharray="20,20" pointer-events="none"></rect><text  id="v-2001" font-size="24px" xml:space="preserve" y="466" font-weight="normal" fill="#e68da0" text-anchor="start" pointer-events="visible" font-family="Roboto" transform="matrix(1,0,0,1,15,0)"><tspan  dy="0">MLOps System</tspan></text><text  id="v-2002" font-size="17px" xml:space="preserve" y="490" font-weight="normal" fill="#e68da0" text-anchor="start" pointer-events="visible" font-family="Roboto" transform="matrix(1,0,0,1,15,0)"><tspan  dy="0">[Software System]</tspan></text><image  id="v-2003" pointer-events="visible"></image></g></g><!--z-index:55--><g   id="j_106"  transform="translate(485,2295)" style=""><g  id="v-1992" style="opacity: 1;"><rect  id="v-1993" rx="20" ry="20" stroke="#007a83" stroke-width="2" pointer-events="visiblePainted" fill="#008792" width="450" height="300" style="fill: rgb(0, 135, 146); stroke: rgb(0, 122, 131);"></rect><text  id="v-1994" font-size="34" xml:space="preserve" y="0.8em" font-weight="bold" text-anchor="middle" pointer-events="visible" font-family="Roboto" fill="#ffffff" transform="matrix(1,0,0,1,225,88.0999984741211)" style="fill: rgb(255, 255, 255);"><tspan  dy="0">MLflow</tspan></text><text  id="v-1995" font-size="17" xml:space="preserve" y="0.8em" text-anchor="middle" font-family="Roboto" fill="#ffffff" transform="matrix(1,0,0,1,225,128.89999389648438)" style="fill: rgb(255, 255, 255);"><tspan  dy="0">[Container]</tspan></text><text  id="v-1996" font-size="24" xml:space="preserve" y="0.8em" text-anchor="middle" font-family="Roboto" fill="#ffffff" transform="matrix(1,0,0,1,225,159.3000030517578)" style="fill: rgb(255, 255, 255);"><tspan  dy="0">Tracks experiments and manages</tspan><tspan dy="1.2em" x="0" >model versions</tspan></text><g  id="v-1997" color="#ffffff" transform="matrix(1,0,0,1,222.5,268)" style="fill: rgb(255, 255, 255);" display="none"><g ></g><g ></g><g ></g><g ></g></g><image  id="v-1998"></image></g></g><!--z-index:56--><g   id="j_109"  transform="translate(1725,2290)" style=""><g id="v-2014"><rect  id="v-2015" width="490" height="394" rx="0" ry="0" fill="#ffffff" stroke="#444444" stroke-width="1" stroke-dasharray="5,5" pointer-events="none"></rect><text  id="v-2016" font-size="24px" xml:space="preserve" y="379" font-weight="normal" fill="#444444" text-anchor="start" pointer-events="visible" font-family="Roboto" transform="matrix(1,0,0,1,15,0)"><tspan  dy="0">DriftMonitoring</tspan></text><text  id="v-2017" font-size="17px" xml:space="preserve" display="none" y="379" font-weight="normal" fill="#444444" text-anchor="start" pointer-events="visible" font-family="Roboto" transform="matrix(1,0,0,1,15,0)"><tspan style="fill-opacity: 0; stroke-opacity: 0;"  dy="0">-</tspan></text><image  id="v-2018" pointer-events="visible"></image></g></g><!--z-index:57--><g   id="j_108"  transform="translate(1745,2310)" style=""><g  id="v-2007" style="opacity: 1;"><rect  id="v-2008" rx="20" ry="20" stroke="#007a83" stroke-width="2" pointer-events="visiblePainted" fill="#008792" width="450" height="300" style="fill: rgb(0, 135, 146); stroke: rgb(0, 122, 131);"></rect><text  id="v-2009" font-size="34" xml:space="preserve" y="0.8em" font-weight="bold" text-anchor="middle" pointer-events="visible" font-family="Roboto" fill="#ffffff" transform="matrix(1,0,0,1,225,88.0999984741211)" style="fill: rgb(255, 255, 255);"><tspan  dy="0">DriftWatch</tspan></text><text  id="v-2010" font-size="17" xml:space="preserve" y="0.8em" text-anchor="middle" font-family="Roboto" fill="#ffffff" transform="matrix(1,0,0,1,225,128.89999389648438)" style="fill: rgb(255, 255, 255);"><tspan  dy="0">[Container: python client]</tspan></text><text  id="v-2011" font-size="24" xml:space="preserve" y="0.8em" text-anchor="middle" font-family="Roboto" fill="#ffffff" transform="matrix(1,0,0,1,225,159.3000030517578)" style="fill: rgb(255, 255, 255);"><tspan  dy="0">Monitors drift; alerts whenever a</tspan><tspan dy="1.2em" x="0" >drift is detected</tspan></text><g  id="v-2012" color="#ffffff" transform="matrix(1,0,0,1,222.5,268)" style="fill: rgb(255, 255, 255);" display="none"><g ></g><g ></g><g ></g><g ></g></g><image  id="v-2013"></image></g></g><!--z-index:58--><g   id="j_110"  transform="translate(2430,2185)" style=""><g  id="v-2022" style="opacity: 1;"><rect  id="v-2023" rx="20" ry="20" stroke="#bebebe" stroke-width="2" pointer-events="visiblePainted" fill="#d3d3d3" width="450" height="300" style="fill: rgb(211, 211, 211); stroke: rgb(190, 190, 190);"></rect><text  id="v-2024" font-size="34" xml:space="preserve" y="0.8em" font-weight="bold" text-anchor="middle" pointer-events="visible" font-family="Roboto" fill="#000000" transform="matrix(1,0,0,1,225,59.29999923706055)" style="fill: rgb(0, 0, 0);"><tspan  dy="0">Zenodo</tspan></text><text  id="v-2025" font-size="17" xml:space="preserve" y="0.8em" text-anchor="middle" font-family="Roboto" fill="#000000" transform="matrix(1,0,0,1,225,100.0999984741211)" style="fill: rgb(0, 0, 0);"><tspan  dy="0">[Software System]</tspan></text><text  id="v-2026" font-size="24" xml:space="preserve" y="0.8em" text-anchor="middle" font-family="Roboto" fill="#000000" transform="matrix(1,0,0,1,225,130.5)" style="fill: rgb(0, 0, 0);"><tspan  dy="0">A general-purpose open-access</tspan><tspan dy="1.2em" x="0" >repository developed within the</tspan><tspan dy="1.2em" x="0" >OpenAIRE project and operated by</tspan><tspan dy="1.2em" x="0" >CERN.</tspan></text><g  id="v-2027" color="#000000" transform="matrix(1,0,0,1,222.5,268)" style="fill: rgb(0, 0, 0);" display="none"><g ></g><g ></g><g ></g><g ></g></g><image  id="v-2028"></image></g></g><!--z-index:59--><g   id="j_111" ><path  stroke="#707070" d="M 1965 1195 L 1965 585 C 1965 578.3333333333333 1968.3333333333333 575 1975 575 L 2395 572" id="v-2041" stroke-width="2" stroke-dasharray="30 30" fill="none"></path><path  fill="black" stroke="black" d="M 0 0 0 0" transform="matrix(-1.8369700141799558e-16,-0.9999998807907104,0.9999998807907104,-1.8369700141799558e-16,1965,1195)"></path><path  fill="#707070" stroke="#707070" d="M 20 0 L 0 10 L 20 20 z" id="v-2043" transform="matrix(-0.9999709129333496,0.007627752143889666,-0.007627752143889666,-0.9999709129333496,2395.076171875,581.7197265625)"></path><path  d="M 1965 1195 L 1965 585 C 1965 578.3333333333333 1968.3333333333333 575 1975 575 L 2395 572" id="v-2042" fill="none" style="cursor: default;"></path><g ><g id="v-2035"  label-idx="0" cursor="move" transform="matrix(1,0,0,1,1965,671.8793334960938)" style="cursor: default;"><rect joint-selector="rect" id="v-2038" fill="#ffffff" rx="3" ry="3" pointer-events="none" width="183.79998779296875" height="58.79999923706055" transform="matrix(1,0,0,1,-91.9000015258789,-29.399999618530273)"></rect><text joint-selector="text" id="v-2037" font-size="24px" xml:space="preserve" y="0.8em" fill="#707070" text-anchor="middle" pointer-events="none" font-family="Roboto" font-weight="normal" transform="matrix(1,0,0,1,0,-24.600000381469727)"><tspan  dy="0">1: Runs inference</tspan><tspan dy="1.2em" x="0" >on new data</tspan></text></g><g id="v-2036"  label-idx="1" cursor="move" transform="matrix(1,0,0,1,1955,712.6793212890625)" style="cursor: default;"><rect joint-selector="rect" id="v-2040" fill="#ffffff" rx="3" ry="3"  width="0" height="0" transform="matrix(1,0,0,1,0,0)" display="none"></rect><text joint-selector="text" id="v-2039" fill="#000000" font-size="14" text-anchor="middle" pointer-events="none"></text></g></g><g  display="none"><g  transform="translate(1965, 575)" id="v-3791"><circle  idx="0" r="10"></circle><path  idx="0" d="M16,5.333c-7.732,0-14,4.701-14,10.5c0,1.982,0.741,3.833,2.016,5.414L2,25.667l5.613-1.441c2.339,1.317,5.237,2.107,8.387,2.107c7.732,0,14-4.701,14-10.5C30,10.034,23.732,5.333,16,5.333z" transform="translate(5, -33)"></path><path  idx="0" transform="scale(.8) translate(9.5, -37)" d="M24.778,21.419 19.276,15.917 24.777,10.415 21.949,7.585 16.447,13.087 10.945,7.585 8.117,10.415 13.618,15.917 8.116,21.419 10.946,24.248 16.447,18.746 21.948,24.248z"><title>Remove vertex.</title></path></g></g><g  id="v-2045" display="none"><g  id="v-2033"><path  end="source" d="M 26 0 L 0 13 L 26 26 z"></path></g><g  id="v-2034"><path  end="target" d="M 26 0 L 0 13 L 26 26 z"></path></g></g><g  id="v-2044" display="none"><g  id="v-2032" transform="translate(1965, 1155) "><g  event="remove"><circle r="11"></circle><path transform="scale(.8) translate(-16, -16)" d="M24.778,21.419 19.276,15.917 24.777,10.415 21.949,7.585 16.447,13.087 10.945,7.585 8.117,10.415 13.618,15.917 8.116,21.419 10.946,24.248 16.447,18.746 21.948,24.248z"></path><title>Remove link.</title></g><g  event="link:options"><circle r="11" transform="translate(25)"></circle><path fill="white" transform="scale(.55) translate(29, -16)" d="M31.229,17.736c0.064-0.571,0.104-1.148,0.104-1.736s-0.04-1.166-0.104-1.737l-4.377-1.557c-0.218-0.716-0.504-1.401-0.851-2.05l1.993-4.192c-0.725-0.91-1.549-1.734-2.458-2.459l-4.193,1.994c-0.647-0.347-1.334-0.632-2.049-0.849l-1.558-4.378C17.165,0.708,16.588,0.667,16,0.667s-1.166,0.041-1.737,0.105L12.707,5.15c-0.716,0.217-1.401,0.502-2.05,0.849L6.464,4.005C5.554,4.73,4.73,5.554,4.005,6.464l1.994,4.192c-0.347,0.648-0.632,1.334-0.849,2.05l-4.378,1.557C0.708,14.834,0.667,15.412,0.667,16s0.041,1.165,0.105,1.736l4.378,1.558c0.217,0.715,0.502,1.401,0.849,2.049l-1.994,4.193c0.725,0.909,1.549,1.733,2.459,2.458l4.192-1.993c0.648,0.347,1.334,0.633,2.05,0.851l1.557,4.377c0.571,0.064,1.148,0.104,1.737,0.104c0.588,0,1.165-0.04,1.736-0.104l1.558-4.377c0.715-0.218,1.399-0.504,2.049-0.851l4.193,1.993c0.909-0.725,1.733-1.549,2.458-2.458l-1.993-4.193c0.347-0.647,0.633-1.334,0.851-2.049L31.229,17.736zM16,20.871c-2.69,0-4.872-2.182-4.872-4.871c0-2.69,2.182-4.872,4.872-4.872c2.689,0,4.871,2.182,4.871,4.872C20.871,18.689,18.689,20.871,16,20.871z"></path><title>Link options.</title></g></g></g></g><!--z-index:60--><g   id="j_112" ><path  stroke="#707070" d="M 1963 1495 L 1960 1699 C 1959.8439127604165 1705.4419759114583 1959.8439127604165 1712.108642578125 1960 1719 L 1968 2310" id="v-2058" stroke-width="2" stroke-dasharray="30 30" fill="none"></path><path  fill="black" stroke="black" d="M 0 0 0 0" transform="matrix(-0.014386299066245556,0.9998965263366699,-0.9998965263366699,-0.014386299066245556,1962.8399658203125,1495)"></path><path  fill="#707070" stroke="#707070" d="M 20 0 L 0 10 L 20 20 z" id="v-2060" transform="matrix(-0.013625374995172024,-0.9999071359634399,0.9999071359634399,-0.013625374995172024,1957.9609375,2310.13623046875)"></path><path  d="M 1963 1495 L 1960 1699 C 1959.8439127604165 1705.4419759114583 1959.8439127604165 1712.108642578125 1960 1719 L 1968 2310" id="v-2059" fill="none" style="cursor: default;"></path><g ><g id="v-2052"  label-idx="0" cursor="move" transform="matrix(1,0,0,1,1962.48388671875,1902.4984130859375)" style="cursor: default;"><rect joint-selector="rect" id="v-2055" fill="#ffffff" rx="3" ry="3" pointer-events="none" width="141.34999084472656" height="87.60000228881836" transform="matrix(1,0,0,1,-70.69999694824219,-43.79999923706055)"></rect><text joint-selector="text" id="v-2054" font-size="24px" xml:space="preserve" y="0.8em" fill="#707070" text-anchor="middle" pointer-events="none" font-family="Roboto" font-weight="normal" transform="matrix(1,0,0,1,0,-39)"><tspan  dy="0">2: Sends new</tspan><tspan dy="1.2em" x="0" >data for drift</tspan><tspan dy="1.2em" x="0" >detection</tspan></text></g><g id="v-2053"  label-idx="1" cursor="move" transform="matrix(1,0,0,1,1952.48388671875,1957.6983642578125)" style="cursor: default;"><rect joint-selector="rect" id="v-2057" fill="#ffffff" rx="3" ry="3"  width="0" height="0" transform="matrix(1,0,0,1,0,0)" display="none"></rect><text joint-selector="text" id="v-2056" fill="#000000" font-size="14" text-anchor="middle" pointer-events="none"></text></g></g><g  display="none"><g  transform="translate(1959.765869140625, 1708.6629638671875)" id="v-3541"><circle  idx="0" r="10"></circle><path  idx="0" d="M16,5.333c-7.732,0-14,4.701-14,10.5c0,1.982,0.741,3.833,2.016,5.414L2,25.667l5.613-1.441c2.339,1.317,5.237,2.107,8.387,2.107c7.732,0,14-4.701,14-10.5C30,10.034,23.732,5.333,16,5.333z" transform="translate(5, -33)"></path><path  idx="0" transform="scale(.8) translate(9.5, -37)" d="M24.778,21.419 19.276,15.917 24.777,10.415 21.949,7.585 16.447,13.087 10.945,7.585 8.117,10.415 13.618,15.917 8.116,21.419 10.946,24.248 16.447,18.746 21.948,24.248z"><title>Remove vertex.</title></path></g></g><g  id="v-2062" display="none"><g  id="v-2050"><path  end="source" d="M 26 0 L 0 13 L 26 26 z"></path></g><g  id="v-2051"><path  end="target" d="M 26 0 L 0 13 L 26 26 z"></path></g></g><g  id="v-2061" display="none"><g  id="v-2049" transform="translate(1962.411828302325, 1534.9956754419031) "><g  event="remove"><circle r="11"></circle><path transform="scale(.8) translate(-16, -16)" d="M24.778,21.419 19.276,15.917 24.777,10.415 21.949,7.585 16.447,13.087 10.945,7.585 8.117,10.415 13.618,15.917 8.116,21.419 10.946,24.248 16.447,18.746 21.948,24.248z"></path><title>Remove link.</title></g><g  event="link:options"><circle r="11" transform="translate(25)"></circle><path fill="white" transform="scale(.55) translate(29, -16)" d="M31.229,17.736c0.064-0.571,0.104-1.148,0.104-1.736s-0.04-1.166-0.104-1.737l-4.377-1.557c-0.218-0.716-0.504-1.401-0.851-2.05l1.993-4.192c-0.725-0.91-1.549-1.734-2.458-2.459l-4.193,1.994c-0.647-0.347-1.334-0.632-2.049-0.849l-1.558-4.378C17.165,0.708,16.588,0.667,16,0.667s-1.166,0.041-1.737,0.105L12.707,5.15c-0.716,0.217-1.401,0.502-2.05,0.849L6.464,4.005C5.554,4.73,4.73,5.554,4.005,6.464l1.994,4.192c-0.347,0.648-0.632,1.334-0.849,2.05l-4.378,1.557C0.708,14.834,0.667,15.412,0.667,16s0.041,1.165,0.105,1.736l4.378,1.558c0.217,0.715,0.502,1.401,0.849,2.049l-1.994,4.193c0.725,0.909,1.549,1.733,2.459,2.458l4.192-1.993c0.648,0.347,1.334,0.633,2.05,0.851l1.557,4.377c0.571,0.064,1.148,0.104,1.737,0.104c0.588,0,1.165-0.04,1.736-0.104l1.558-4.377c0.715-0.218,1.399-0.504,2.049-0.851l4.193,1.993c0.909-0.725,1.733-1.549,2.458-2.458l-1.993-4.193c0.347-0.647,0.633-1.334,0.851-2.049L31.229,17.736zM16,20.871c-2.69,0-4.872-2.182-4.872-4.871c0-2.69,2.182-4.872,4.872-4.872c2.689,0,4.871,2.182,4.871,4.872C20.871,18.689,18.689,20.871,16,20.871z"></path><title>Link options.</title></g></g></g></g><!--z-index:61--><g   id="j_113" ><path  stroke="#707070" d="M 1951 2310 L 1931 2155 C 1930.333333333333 2148.333333333333 1926.6666666666665 2145 1920 2145 L 1660 2145 C 1653.3333333333333 2145 1650 2141.6666666666665 1650 2135 L 1660 1605 C 1659.9999999999998 1598.3333333333333 1656.6666666666665 1595 1650 1595 L 1330 1595 C 1323.3333333333333 1595 1320 1591.6666666666665 1320 1585 L 1324 1485" id="v-2075" stroke-width="2" stroke-dasharray="30 30" fill="none"></path><path  fill="black" stroke="black" d="M 0 0 0 0" transform="matrix(-0.12595854699611664,-0.9920353889465332,0.9920353889465332,-0.12595854699611664,1950.949951171875,2310)"></path><path  fill="#707070" stroke="#707070" d="M 20 0 L 0 10 L 20 20 z" id="v-2077" transform="matrix(-0.03842620924115181,0.9992613792419434,-0.9992613792419434,-0.03842620924115181,1334.2225341796875,1485.3841552734375)"></path><path  d="M 1951 2310 L 1931 2155 C 1930.333333333333 2148.333333333333 1926.6666666666665 2145 1920 2145 L 1660 2145 C 1653.3333333333333 2145 1650 2141.6666666666665 1650 2135 L 1660 1605 C 1659.9999999999998 1598.3333333333333 1656.6666666666665 1595 1650 1595 L 1330 1595 C 1323.3333333333333 1595 1320 1591.6666666666665 1320 1585 L 1324 1485" id="v-2076" fill="none" style="cursor: default;"></path><g ><g id="v-2069"  label-idx="0" cursor="move" transform="matrix(1,0,0,1,1655.0313720703125,1868.336181640625)" style="cursor: default;"><rect joint-selector="rect" id="v-2072" fill="#ffffff" rx="3" ry="3" pointer-events="none" width="164.6999969482422" height="87.60000228881836" transform="matrix(1,0,0,1,-82.30000305175781,-43.79999923706055)"></rect><text joint-selector="text" id="v-2071" font-size="24px" xml:space="preserve" y="0.8em" fill="#707070" text-anchor="middle" pointer-events="none" font-family="Roboto" font-weight="normal" transform="matrix(1,0,0,1,0,-39)"><tspan  dy="0">3: Updates</tspan><tspan dy="1.2em" x="0" >dashboard with</tspan><tspan dy="1.2em" x="0" >drift status</tspan></text></g><g id="v-2070"  label-idx="1" cursor="move" transform="matrix(1,0,0,1,1645.0313720703125,1923.5362548828125)" style="cursor: default;"><rect joint-selector="rect" id="v-2074" fill="#ffffff" rx="3" ry="3"  width="0" height="0" transform="matrix(1,0,0,1,0,0)" display="none"></rect><text joint-selector="text" id="v-2073" fill="#000000" font-size="14" text-anchor="middle" pointer-events="none"></text></g></g><g  display="none"><g  transform="translate(1930, 2145)" id="v-4404"><circle  idx="0" r="10"></circle><path  idx="0" d="M16,5.333c-7.732,0-14,4.701-14,10.5c0,1.982,0.741,3.833,2.016,5.414L2,25.667l5.613-1.441c2.339,1.317,5.237,2.107,8.387,2.107c7.732,0,14-4.701,14-10.5C30,10.034,23.732,5.333,16,5.333z" transform="translate(5, -33)"></path><path  idx="0" transform="scale(.8) translate(9.5, -37)" d="M24.778,21.419 19.276,15.917 24.777,10.415 21.949,7.585 16.447,13.087 10.945,7.585 8.117,10.415 13.618,15.917 8.116,21.419 10.946,24.248 16.447,18.746 21.948,24.248z"><title>Remove vertex.</title></path></g><g  transform="translate(1650, 2145)" id="v-4405"><circle  idx="1" r="10"></circle><path  idx="1" d="M16,5.333c-7.732,0-14,4.701-14,10.5c0,1.982,0.741,3.833,2.016,5.414L2,25.667l5.613-1.441c2.339,1.317,5.237,2.107,8.387,2.107c7.732,0,14-4.701,14-10.5C30,10.034,23.732,5.333,16,5.333z" transform="translate(5, -33)"></path><path  idx="1" transform="scale(.8) translate(9.5, -37)" d="M24.778,21.419 19.276,15.917 24.777,10.415 21.949,7.585 16.447,13.087 10.945,7.585 8.117,10.415 13.618,15.917 8.116,21.419 10.946,24.248 16.447,18.746 21.948,24.248z"><title>Remove vertex.</title></path></g><g  transform="translate(1660, 1595)" id="v-4406"><circle  idx="2" r="10"></circle><path  idx="2" d="M16,5.333c-7.732,0-14,4.701-14,10.5c0,1.982,0.741,3.833,2.016,5.414L2,25.667l5.613-1.441c2.339,1.317,5.237,2.107,8.387,2.107c7.732,0,14-4.701,14-10.5C30,10.034,23.732,5.333,16,5.333z" transform="translate(5, -33)"></path><path  idx="2" transform="scale(.8) translate(9.5, -37)" d="M24.778,21.419 19.276,15.917 24.777,10.415 21.949,7.585 16.447,13.087 10.945,7.585 8.117,10.415 13.618,15.917 8.116,21.419 10.946,24.248 16.447,18.746 21.948,24.248z"><title>Remove vertex.</title></path></g><g  transform="translate(1320, 1595)" id="v-4407"><circle  idx="3" r="10"></circle><path  idx="3" d="M16,5.333c-7.732,0-14,4.701-14,10.5c0,1.982,0.741,3.833,2.016,5.414L2,25.667l5.613-1.441c2.339,1.317,5.237,2.107,8.387,2.107c7.732,0,14-4.701,14-10.5C30,10.034,23.732,5.333,16,5.333z" transform="translate(5, -33)"></path><path  idx="3" transform="scale(.8) translate(9.5, -37)" d="M24.778,21.419 19.276,15.917 24.777,10.415 21.949,7.585 16.447,13.087 10.945,7.585 8.117,10.415 13.618,15.917 8.116,21.419 10.946,24.248 16.447,18.746 21.948,24.248z"><title>Remove vertex.</title></path></g></g><g  id="v-2079" display="none"><g  id="v-2067"><path  end="source" d="M 26 0 L 0 13 L 26 26 z"></path></g><g  id="v-2068"><path  end="target" d="M 26 0 L 0 13 L 26 26 z"></path></g></g><g  id="v-2078" display="none"><g  id="v-2066" transform="translate(1945.8811464947921, 2270.328885334639) "><g  event="remove"><circle r="11"></circle><path transform="scale(.8) translate(-16, -16)" d="M24.778,21.419 19.276,15.917 24.777,10.415 21.949,7.585 16.447,13.087 10.945,7.585 8.117,10.415 13.618,15.917 8.116,21.419 10.946,24.248 16.447,18.746 21.948,24.248z"></path><title>Remove link.</title></g><g  event="link:options"><circle r="11" transform="translate(25)"></circle><path fill="white" transform="scale(.55) translate(29, -16)" d="M31.229,17.736c0.064-0.571,0.104-1.148,0.104-1.736s-0.04-1.166-0.104-1.737l-4.377-1.557c-0.218-0.716-0.504-1.401-0.851-2.05l1.993-4.192c-0.725-0.91-1.549-1.734-2.458-2.459l-4.193,1.994c-0.647-0.347-1.334-0.632-2.049-0.849l-1.558-4.378C17.165,0.708,16.588,0.667,16,0.667s-1.166,0.041-1.737,0.105L12.707,5.15c-0.716,0.217-1.401,0.502-2.05,0.849L6.464,4.005C5.554,4.73,4.73,5.554,4.005,6.464l1.994,4.192c-0.347,0.648-0.632,1.334-0.849,2.05l-4.378,1.557C0.708,14.834,0.667,15.412,0.667,16s0.041,1.165,0.105,1.736l4.378,1.558c0.217,0.715,0.502,1.401,0.849,2.049l-1.994,4.193c0.725,0.909,1.549,1.733,2.459,2.458l4.192-1.993c0.648,0.347,1.334,0.633,2.05,0.851l1.557,4.377c0.571,0.064,1.148,0.104,1.737,0.104c0.588,0,1.165-0.04,1.736-0.104l1.558-4.377c0.715-0.218,1.399-0.504,2.049-0.851l4.193,1.993c0.909-0.725,1.733-1.549,2.458-2.458l-1.993-4.193c0.347-0.647,0.633-1.334,0.851-2.049L31.229,17.736zM16,20.871c-2.69,0-4.872-2.182-4.872-4.871c0-2.69,2.182-4.872,4.872-4.872c2.689,0,4.871,2.182,4.871,4.872C20.871,18.689,18.689,20.871,16,20.871z"></path><title>Link options.</title></g></g></g></g><!--z-index:62--><g   id="j_114" ><path  stroke="#707070" d="M 1331 1185 L 1335 595 C 1335 588.3333333333333 1331.6666666666665 585 1325 585 L 905 578" id="v-2092" stroke-width="2" stroke-dasharray="30 30" fill="none"></path><path  fill="black" stroke="black" d="M 0 0 0 0" transform="matrix(0.006666374858468771,-0.9999776482582092,0.9999776482582092,0.006666374858468771,1331,1185)"></path><path  fill="#707070" stroke="#707070" d="M 20 0 L 0 10 L 20 20 z" id="v-2094" transform="matrix(0.9998737573623657,0.015881715342402458,-0.015881715342402458,0.9998737573623657,905.1588134765625,568.1712646484375)"></path><path  d="M 1331 1185 L 1335 595 C 1335 588.3333333333333 1331.6666666666665 585 1325 585 L 905 578" id="v-2093" fill="none" style="cursor: default;"></path><g ><g id="v-2086"  label-idx="0" cursor="move" transform="matrix(1,0,0,1,1334.4788818359375,671.8605346679688)" style="cursor: default;"><rect joint-selector="rect" id="v-2089" fill="#ffffff" rx="3" ry="3" pointer-events="none" width="162.29998779296875" height="87.60000228881836" transform="matrix(1,0,0,1,-80.19999694824219,-43.79999923706055)"></rect><text joint-selector="text" id="v-2088" font-size="24px" xml:space="preserve" y="0.8em" fill="#707070" text-anchor="middle" pointer-events="none" font-family="Roboto" font-weight="normal" transform="matrix(1,0,0,1,0,-39)"><tspan  dy="0">4: Notifies user</tspan><tspan dy="1.2em" x="0" >about drift</tspan><tspan dy="1.2em" x="0" >occurrence</tspan></text></g><g id="v-2087"  label-idx="1" cursor="move" transform="matrix(1,0,0,1,1324.4788818359375,727.060546875)" style="cursor: default;"><rect joint-selector="rect" id="v-2091" fill="#ffffff" rx="3" ry="3"  width="0" height="0" transform="matrix(1,0,0,1,0,0)" display="none"></rect><text joint-selector="text" id="v-2090" fill="#000000" font-size="14" text-anchor="middle" pointer-events="none"></text></g></g><g  display="none"><g  transform="translate(1335, 585)" id="v-4345"><circle  idx="0" r="10"></circle><path  idx="0" d="M16,5.333c-7.732,0-14,4.701-14,10.5c0,1.982,0.741,3.833,2.016,5.414L2,25.667l5.613-1.441c2.339,1.317,5.237,2.107,8.387,2.107c7.732,0,14-4.701,14-10.5C30,10.034,23.732,5.333,16,5.333z" transform="translate(5, -33)"></path><path  idx="0" transform="scale(.8) translate(9.5, -37)" d="M24.778,21.419 19.276,15.917 24.777,10.415 21.949,7.585 16.447,13.087 10.945,7.585 8.117,10.415 13.618,15.917 8.116,21.419 10.946,24.248 16.447,18.746 21.948,24.248z"><title>Remove vertex.</title></path></g></g><g  id="v-2096" display="none"><g  id="v-2084"><path  end="source" d="M 26 0 L 0 13 L 26 26 z"></path></g><g  id="v-2085"><path  end="target" d="M 26 0 L 0 13 L 26 26 z"></path></g></g><g  id="v-2095" display="none"><g  id="v-2083" transform="translate(1331.2711802085128, 1145.0009192443813) "><g  event="remove"><circle r="11"></circle><path transform="scale(.8) translate(-16, -16)" d="M24.778,21.419 19.276,15.917 24.777,10.415 21.949,7.585 16.447,13.087 10.945,7.585 8.117,10.415 13.618,15.917 8.116,21.419 10.946,24.248 16.447,18.746 21.948,24.248z"></path><title>Remove link.</title></g><g  event="link:options"><circle r="11" transform="translate(25)"></circle><path fill="white" transform="scale(.55) translate(29, -16)" d="M31.229,17.736c0.064-0.571,0.104-1.148,0.104-1.736s-0.04-1.166-0.104-1.737l-4.377-1.557c-0.218-0.716-0.504-1.401-0.851-2.05l1.993-4.192c-0.725-0.91-1.549-1.734-2.458-2.459l-4.193,1.994c-0.647-0.347-1.334-0.632-2.049-0.849l-1.558-4.378C17.165,0.708,16.588,0.667,16,0.667s-1.166,0.041-1.737,0.105L12.707,5.15c-0.716,0.217-1.401,0.502-2.05,0.849L6.464,4.005C5.554,4.73,4.73,5.554,4.005,6.464l1.994,4.192c-0.347,0.648-0.632,1.334-0.849,2.05l-4.378,1.557C0.708,14.834,0.667,15.412,0.667,16s0.041,1.165,0.105,1.736l4.378,1.558c0.217,0.715,0.502,1.401,0.849,2.049l-1.994,4.193c0.725,0.909,1.549,1.733,2.459,2.458l4.192-1.993c0.648,0.347,1.334,0.633,2.05,0.851l1.557,4.377c0.571,0.064,1.148,0.104,1.737,0.104c0.588,0,1.165-0.04,1.736-0.104l1.558-4.377c0.715-0.218,1.399-0.504,2.049-0.851l4.193,1.993c0.909-0.725,1.733-1.549,2.458-2.458l-1.993-4.193c0.347-0.647,0.633-1.334,0.851-2.049L31.229,17.736zM16,20.871c-2.69,0-4.872-2.182-4.872-4.871c0-2.69,2.182-4.872,4.872-4.872c2.689,0,4.871,2.182,4.871,4.872C20.871,18.689,18.689,20.871,16,20.871z"></path><title>Link options.</title></g></g></g></g><!--z-index:63--><g   id="j_115" ><path  stroke="#707070" d="M 705 575 L 748 750 C 749.3333333333333 756.6666666666666 749.6666666666666 763.3333333333333 749 770 L 746 845 C 745.3333333333333 851.6666666666666 745 858.3333333333333 745 865 L 760 2180 C 760 2186.6666666666665 763.3333333333333 2190 770 2190 L 1590 2195 C 1596.6666666666665 2195 1599.9999999999998 2198.333333333333 1600 2205 L 1605 2465 C 1605 2471.6666666666665 1608.3333333333333 2475 1615 2475 L 1745 2469" id="v-2109" stroke-width="2" stroke-dasharray="30 30" fill="none"></path><path  fill="black" stroke="black" d="M 0 0 0 0" transform="matrix(0.2363515943288803,0.9716674089431763,-0.9716674089431763,0.2363515943288803,705,575)"></path><path  fill="#707070" stroke="#707070" d="M 20 0 L 0 10 L 20 20 z" id="v-2111" transform="matrix(-0.9991574883460999,0.04103683680295944,-0.04103683680295944,-0.9991574883460999,1745.410400390625,2479.24169921875)"></path><path  d="M 705 575 L 748 750 C 749.3333333333333 756.6666666666666 749.6666666666666 763.3333333333333 749 770 L 746 845 C 745.3333333333333 851.6666666666666 745 858.3333333333333 745 865 L 760 2180 C 760 2186.6666666666665 763.3333333333333 2190 770 2190 L 1590 2195 C 1596.6666666666665 2195 1599.9999999999998 2198.333333333333 1600 2205 L 1605 2465 C 1605 2471.6666666666665 1608.3333333333333 2475 1615 2475 L 1745 2469" id="v-2110" fill="none" style="cursor: default;"></path><g ><g id="v-2103"  label-idx="0" cursor="move" transform="matrix(1,0,0,1,757.994873046875,2004.218994140625)" style="cursor: default;"><rect joint-selector="rect" id="v-2106" fill="#ffffff" rx="3" ry="3" pointer-events="none" width="178.09999084472656" height="87.60000228881836" transform="matrix(1,0,0,1,-89.0999984741211,-43.79999923706055)"></rect><text joint-selector="text" id="v-2105" font-size="24px" xml:space="preserve" y="0.8em" fill="#707070" text-anchor="middle" pointer-events="none" font-family="Roboto" font-weight="normal" transform="matrix(1,0,0,1,0,-39)"><tspan  dy="0">5: Requests</tspan><tspan dy="1.2em" x="0" >details about the</tspan><tspan dy="1.2em" x="0" >drift</tspan></text></g><g id="v-2104"  label-idx="1" cursor="move" transform="matrix(1,0,0,1,747.994873046875,2059.4189453125)" style="cursor: default;"><rect joint-selector="rect" id="v-2108" fill="#ffffff" rx="3" ry="3"  width="0" height="0" transform="matrix(1,0,0,1,0,0)" display="none"></rect><text joint-selector="text" id="v-2107" fill="#000000" font-size="14" text-anchor="middle" pointer-events="none"></text></g></g><g  display="none"><g  transform="translate(750, 760)" id="v-3272"><circle  idx="0" r="10"></circle><path  idx="0" d="M16,5.333c-7.732,0-14,4.701-14,10.5c0,1.982,0.741,3.833,2.016,5.414L2,25.667l5.613-1.441c2.339,1.317,5.237,2.107,8.387,2.107c7.732,0,14-4.701,14-10.5C30,10.034,23.732,5.333,16,5.333z" transform="translate(5, -33)"></path><path  idx="0" transform="scale(.8) translate(9.5, -37)" d="M24.778,21.419 19.276,15.917 24.777,10.415 21.949,7.585 16.447,13.087 10.945,7.585 8.117,10.415 13.618,15.917 8.116,21.419 10.946,24.248 16.447,18.746 21.948,24.248z"><title>Remove vertex.</title></path></g><g  transform="translate(745, 855)" id="v-3273"><circle  idx="1" r="10"></circle><path  idx="1" d="M16,5.333c-7.732,0-14,4.701-14,10.5c0,1.982,0.741,3.833,2.016,5.414L2,25.667l5.613-1.441c2.339,1.317,5.237,2.107,8.387,2.107c7.732,0,14-4.701,14-10.5C30,10.034,23.732,5.333,16,5.333z" transform="translate(5, -33)"></path><path  idx="1" transform="scale(.8) translate(9.5, -37)" d="M24.778,21.419 19.276,15.917 24.777,10.415 21.949,7.585 16.447,13.087 10.945,7.585 8.117,10.415 13.618,15.917 8.116,21.419 10.946,24.248 16.447,18.746 21.948,24.248z"><title>Remove vertex.</title></path></g><g  transform="translate(760, 2190)" id="v-3274"><circle  idx="2" r="10"></circle><path  idx="2" d="M16,5.333c-7.732,0-14,4.701-14,10.5c0,1.982,0.741,3.833,2.016,5.414L2,25.667l5.613-1.441c2.339,1.317,5.237,2.107,8.387,2.107c7.732,0,14-4.701,14-10.5C30,10.034,23.732,5.333,16,5.333z" transform="translate(5, -33)"></path><path  idx="2" transform="scale(.8) translate(9.5, -37)" d="M24.778,21.419 19.276,15.917 24.777,10.415 21.949,7.585 16.447,13.087 10.945,7.585 8.117,10.415 13.618,15.917 8.116,21.419 10.946,24.248 16.447,18.746 21.948,24.248z"><title>Remove vertex.</title></path></g><g  transform="translate(1600, 2195)" id="v-3275"><circle  idx="3" r="10"></circle><path  idx="3" d="M16,5.333c-7.732,0-14,4.701-14,10.5c0,1.982,0.741,3.833,2.016,5.414L2,25.667l5.613-1.441c2.339,1.317,5.237,2.107,8.387,2.107c7.732,0,14-4.701,14-10.5C30,10.034,23.732,5.333,16,5.333z" transform="translate(5, -33)"></path><path  idx="3" transform="scale(.8) translate(9.5, -37)" d="M24.778,21.419 19.276,15.917 24.777,10.415 21.949,7.585 16.447,13.087 10.945,7.585 8.117,10.415 13.618,15.917 8.116,21.419 10.946,24.248 16.447,18.746 21.948,24.248z"><title>Remove vertex.</title></path></g><g  transform="translate(1605, 2475)" id="v-3276"><circle  idx="4" r="10"></circle><path  idx="4" d="M16,5.333c-7.732,0-14,4.701-14,10.5c0,1.982,0.741,3.833,2.016,5.414L2,25.667l5.613-1.441c2.339,1.317,5.237,2.107,8.387,2.107c7.732,0,14-4.701,14-10.5C30,10.034,23.732,5.333,16,5.333z" transform="translate(5, -33)"></path><path  idx="4" transform="scale(.8) translate(9.5, -37)" d="M24.778,21.419 19.276,15.917 24.777,10.415 21.949,7.585 16.447,13.087 10.945,7.585 8.117,10.415 13.618,15.917 8.116,21.419 10.946,24.248 16.447,18.746 21.948,24.248z"><title>Remove vertex.</title></path></g></g><g  id="v-2113" display="none"><g  id="v-2101"><path  end="source" d="M 26 0 L 0 13 L 26 26 z"></path></g><g  id="v-2102"><path  end="target" d="M 26 0 L 0 13 L 26 26 z"></path></g></g><g  id="v-2112" display="none"><g  id="v-2100" transform="translate(714.544662003754, 613.8445546664407) "><g  event="remove"><circle r="11"></circle><path transform="scale(.8) translate(-16, -16)" d="M24.778,21.419 19.276,15.917 24.777,10.415 21.949,7.585 16.447,13.087 10.945,7.585 8.117,10.415 13.618,15.917 8.116,21.419 10.946,24.248 16.447,18.746 21.948,24.248z"></path><title>Remove link.</title></g><g  event="link:options"><circle r="11" transform="translate(25)"></circle><path fill="white" transform="scale(.55) translate(29, -16)" d="M31.229,17.736c0.064-0.571,0.104-1.148,0.104-1.736s-0.04-1.166-0.104-1.737l-4.377-1.557c-0.218-0.716-0.504-1.401-0.851-2.05l1.993-4.192c-0.725-0.91-1.549-1.734-2.458-2.459l-4.193,1.994c-0.647-0.347-1.334-0.632-2.049-0.849l-1.558-4.378C17.165,0.708,16.588,0.667,16,0.667s-1.166,0.041-1.737,0.105L12.707,5.15c-0.716,0.217-1.401,0.502-2.05,0.849L6.464,4.005C5.554,4.73,4.73,5.554,4.005,6.464l1.994,4.192c-0.347,0.648-0.632,1.334-0.849,2.05l-4.378,1.557C0.708,14.834,0.667,15.412,0.667,16s0.041,1.165,0.105,1.736l4.378,1.558c0.217,0.715,0.502,1.401,0.849,2.049l-1.994,4.193c0.725,0.909,1.549,1.733,2.459,2.458l4.192-1.993c0.648,0.347,1.334,0.633,2.05,0.851l1.557,4.377c0.571,0.064,1.148,0.104,1.737,0.104c0.588,0,1.165-0.04,1.736-0.104l1.558-4.377c0.715-0.218,1.399-0.504,2.049-0.851l4.193,1.993c0.909-0.725,1.733-1.549,2.458-2.458l-1.993-4.193c0.347-0.647,0.633-1.334,0.851-2.049L31.229,17.736zM16,20.871c-2.69,0-4.872-2.182-4.872-4.871c0-2.69,2.182-4.872,4.872-4.872c2.689,0,4.871,2.182,4.871,4.872C20.871,18.689,18.689,20.871,16,20.871z"></path><title>Link options.</title></g></g></g></g><!--z-index:64--><g   id="j_116" ><path  stroke="#707070" d="M 505 578 L 350 580 C 343.3333333333333 580 340 583.3333333333333 340 590 L 340 2470 C 340 2476.6666666666665 343.3333333333333 2479.6666666666665 350 2479 L 485 2466" id="v-2126" stroke-width="2" stroke-dasharray="30 30" fill="none"></path><path  fill="black" stroke="black" d="M 0 0 0 0" transform="matrix(-0.9999061822891235,0.013695676811039448,-0.013695676811039448,-0.9999061822891235,505,577.739990234375)"></path><path  fill="#707070" stroke="#707070" d="M 20 0 L 0 10 L 20 20 z" id="v-2128" transform="matrix(-0.995553195476532,0.09419993311166763,-0.09419993311166763,-0.995553195476532,485.9419860839844,2476.2353515625)"></path><path  d="M 505 578 L 350 580 C 343.3333333333333 580 340 583.3333333333333 340 590 L 340 2470 C 340 2476.6666666666665 343.3333333333333 2479.6666666666665 350 2479 L 485 2466" id="v-2127" fill="none" style="cursor: default;"></path><g ><g id="v-2120"  label-idx="0" cursor="move" transform="matrix(1,0,0,1,340,1520.10498046875)" style="cursor: default;"><rect joint-selector="rect" id="v-2123" fill="#ffffff" rx="3" ry="3" pointer-events="none" width="185.0500030517578" height="87.60000228881836" transform="matrix(1,0,0,1,-92.30000305175781,-43.79999923706055)"></rect><text joint-selector="text" id="v-2122" font-size="24px" xml:space="preserve" y="0.8em" fill="#707070" text-anchor="middle" pointer-events="none" font-family="Roboto" font-weight="normal" transform="matrix(1,0,0,1,0,-39)"><tspan  dy="0">6: Requests best</tspan><tspan dy="1.2em" x="0" >performed model</tspan><tspan dy="1.2em" x="0" >for retraining</tspan></text></g><g id="v-2121"  label-idx="1" cursor="move" transform="matrix(1,0,0,1,330,1575.304931640625)" style="cursor: default;"><rect joint-selector="rect" id="v-2125" fill="#ffffff" rx="3" ry="3"  width="0" height="0" transform="matrix(1,0,0,1,0,0)" display="none"></rect><text joint-selector="text" id="v-2124" fill="#000000" font-size="14" text-anchor="middle" pointer-events="none"></text></g></g><g  display="none"><g  transform="translate(340, 580)" id="v-2619"><circle  idx="0" r="10"></circle><path  idx="0" d="M16,5.333c-7.732,0-14,4.701-14,10.5c0,1.982,0.741,3.833,2.016,5.414L2,25.667l5.613-1.441c2.339,1.317,5.237,2.107,8.387,2.107c7.732,0,14-4.701,14-10.5C30,10.034,23.732,5.333,16,5.333z" transform="translate(5, -33)"></path><path  idx="0" transform="scale(.8) translate(9.5, -37)" d="M24.778,21.419 19.276,15.917 24.777,10.415 21.949,7.585 16.447,13.087 10.945,7.585 8.117,10.415 13.618,15.917 8.116,21.419 10.946,24.248 16.447,18.746 21.948,24.248z"><title>Remove vertex.</title></path></g><g  transform="translate(340, 2480)" id="v-2620"><circle  idx="1" r="10"></circle><path  idx="1" d="M16,5.333c-7.732,0-14,4.701-14,10.5c0,1.982,0.741,3.833,2.016,5.414L2,25.667l5.613-1.441c2.339,1.317,5.237,2.107,8.387,2.107c7.732,0,14-4.701,14-10.5C30,10.034,23.732,5.333,16,5.333z" transform="translate(5, -33)"></path><path  idx="1" transform="scale(.8) translate(9.5, -37)" d="M24.778,21.419 19.276,15.917 24.777,10.415 21.949,7.585 16.447,13.087 10.945,7.585 8.117,10.415 13.618,15.917 8.116,21.419 10.946,24.248 16.447,18.746 21.948,24.248z"><title>Remove vertex.</title></path></g></g><g  id="v-2130" display="none"><g  id="v-2118"><path  end="source" d="M 26 0 L 0 13 L 26 26 z"></path></g><g  id="v-2119"><path  end="target" d="M 26 0 L 0 13 L 26 26 z"></path></g></g><g  id="v-2129" display="none"><g  id="v-2117" transform="translate(465.00332944898196, 578.516086071626) "><g  event="remove"><circle r="11"></circle><path transform="scale(.8) translate(-16, -16)" d="M24.778,21.419 19.276,15.917 24.777,10.415 21.949,7.585 16.447,13.087 10.945,7.585 8.117,10.415 13.618,15.917 8.116,21.419 10.946,24.248 16.447,18.746 21.948,24.248z"></path><title>Remove link.</title></g><g  event="link:options"><circle r="11" transform="translate(25)"></circle><path fill="white" transform="scale(.55) translate(29, -16)" d="M31.229,17.736c0.064-0.571,0.104-1.148,0.104-1.736s-0.04-1.166-0.104-1.737l-4.377-1.557c-0.218-0.716-0.504-1.401-0.851-2.05l1.993-4.192c-0.725-0.91-1.549-1.734-2.458-2.459l-4.193,1.994c-0.647-0.347-1.334-0.632-2.049-0.849l-1.558-4.378C17.165,0.708,16.588,0.667,16,0.667s-1.166,0.041-1.737,0.105L12.707,5.15c-0.716,0.217-1.401,0.502-2.05,0.849L6.464,4.005C5.554,4.73,4.73,5.554,4.005,6.464l1.994,4.192c-0.347,0.648-0.632,1.334-0.849,2.05l-4.378,1.557C0.708,14.834,0.667,15.412,0.667,16s0.041,1.165,0.105,1.736l4.378,1.558c0.217,0.715,0.502,1.401,0.849,2.049l-1.994,4.193c0.725,0.909,1.549,1.733,2.459,2.458l4.192-1.993c0.648,0.347,1.334,0.633,2.05,0.851l1.557,4.377c0.571,0.064,1.148,0.104,1.737,0.104c0.588,0,1.165-0.04,1.736-0.104l1.558-4.377c0.715-0.218,1.399-0.504,2.049-0.851l4.193,1.993c0.909-0.725,1.733-1.549,2.458-2.458l-1.993-4.193c0.347-0.647,0.633-1.334,0.851-2.049L31.229,17.736zM16,20.871c-2.69,0-4.872-2.182-4.872-4.871c0-2.69,2.182-4.872,4.872-4.872c2.689,0,4.871,2.182,4.871,4.872C20.871,18.689,18.689,20.871,16,20.871z"></path><title>Link options.</title></g></g></g></g><!--z-index:65--><g   id="j_117" ><path  stroke="#707070" d="M 706 775 L 710 2295" id="v-2143" stroke-width="2" stroke-dasharray="30 30" fill="none"></path><path  fill="black" stroke="black" d="M 0 0 0 0" transform="matrix(0.002677672076970339,0.9999964237213135,-0.9999964237213135,0.002677672076970339,705.530029296875,775)"></path><path  fill="#707070" stroke="#707070" d="M 20 0 L 0 10 L 20 20 z" id="v-2145" transform="matrix(-0.002677538897842169,-0.9999964237213135,0.9999964237213135,-0.002677538897842169,699.6000366210938,2295.02685546875)"></path><path  d="M 706 775 L 710 2295" id="v-2144" fill="none" style="cursor: default;"></path><g ><g id="v-2137"  label-idx="0" cursor="move" transform="matrix(1,0,0,1,708,1535)" style="cursor: default;"><rect joint-selector="rect" id="v-2140" fill="#ffffff" rx="3" ry="3" pointer-events="none" width="167.59999084472656" height="58.79999923706055" transform="matrix(1,0,0,1,-83.5999984741211,-29.399999618530273)"></rect><text joint-selector="text" id="v-2139" font-size="24px" xml:space="preserve" y="0.8em" fill="#707070" text-anchor="middle" pointer-events="none" font-family="Roboto" font-weight="normal" transform="matrix(1,0,0,1,0,-24.600000381469727)"><tspan  dy="0">7: Registers the</tspan><tspan dy="1.2em" x="0" >retrained model</tspan></text></g><g id="v-2138"  label-idx="1" cursor="move" transform="matrix(1,0,0,1,698,1575.800048828125)" style="cursor: default;"><rect joint-selector="rect" id="v-2142" fill="#ffffff" rx="3" ry="3"  width="0" height="0" transform="matrix(1,0,0,1,0,0)" display="none"></rect><text joint-selector="text" id="v-2141" fill="#000000" font-size="14" text-anchor="middle" pointer-events="none"></text></g></g><g  display="none"></g><g  id="v-2147" display="none"><g  id="v-2135"><path  end="source" d="M 26 0 L 0 13 L 26 26 z"></path></g><g  id="v-2136"><path  end="target" d="M 26 0 L 0 13 L 26 26 z"></path></g></g><g  id="v-2146" display="none"><g  id="v-2134" transform="translate(706.105262793412, 814.9998614965642) "><g  event="remove"><circle r="11"></circle><path transform="scale(.8) translate(-16, -16)" d="M24.778,21.419 19.276,15.917 24.777,10.415 21.949,7.585 16.447,13.087 10.945,7.585 8.117,10.415 13.618,15.917 8.116,21.419 10.946,24.248 16.447,18.746 21.948,24.248z"></path><title>Remove link.</title></g><g  event="link:options"><circle r="11" transform="translate(25)"></circle><path fill="white" transform="scale(.55) translate(29, -16)" d="M31.229,17.736c0.064-0.571,0.104-1.148,0.104-1.736s-0.04-1.166-0.104-1.737l-4.377-1.557c-0.218-0.716-0.504-1.401-0.851-2.05l1.993-4.192c-0.725-0.91-1.549-1.734-2.458-2.459l-4.193,1.994c-0.647-0.347-1.334-0.632-2.049-0.849l-1.558-4.378C17.165,0.708,16.588,0.667,16,0.667s-1.166,0.041-1.737,0.105L12.707,5.15c-0.716,0.217-1.401,0.502-2.05,0.849L6.464,4.005C5.554,4.73,4.73,5.554,4.005,6.464l1.994,4.192c-0.347,0.648-0.632,1.334-0.849,2.05l-4.378,1.557C0.708,14.834,0.667,15.412,0.667,16s0.041,1.165,0.105,1.736l4.378,1.558c0.217,0.715,0.502,1.401,0.849,2.049l-1.994,4.193c0.725,0.909,1.549,1.733,2.459,2.458l4.192-1.993c0.648,0.347,1.334,0.633,2.05,0.851l1.557,4.377c0.571,0.064,1.148,0.104,1.737,0.104c0.588,0,1.165-0.04,1.736-0.104l1.558-4.377c0.715-0.218,1.399-0.504,2.049-0.851l4.193,1.993c0.909-0.725,1.733-1.549,2.458-2.458l-1.993-4.193c0.347-0.647,0.633-1.334,0.851-2.049L31.229,17.736zM16,20.871c-2.69,0-4.872-2.182-4.872-4.871c0-2.69,2.182-4.872,4.872-4.872c2.689,0,4.871,2.182,4.871,4.872C20.871,18.689,18.689,20.871,16,20.871z"></path><title>Link options.</title></g></g></g></g><!--z-index:66--><g   id="j_118" ><path  stroke="#707070" d="M 1980 2310 L 1989 2155 C 1989.6666666666665 2148.333333333333 1993.333333333333 2145 2000 2145 L 2250 2155 C 2256.6666666666665 2155 2260 2151.6666666666665 2260 2145 L 2250 1630 C 2250 1623.3333333333333 2246.6666666666665 1620 2240 1620 L 2045 1620 C 2038.333333333333 1620 2034.9999999999998 1616.6666666666665 2035 1610 L 2030 1525 C 2030 1518.3333333333333 2028.6666666666665 1512 2026 1506 L 2022 1495" id="v-2163" stroke-width="2" stroke-dasharray="30 30" fill="none"></path><path  fill="black" stroke="black" d="M 0 0 0 0" transform="matrix(0.06338757276535034,-0.9979889392852783,0.9979889392852783,0.06338757276535034,1979.52001953125,2310)"></path><path  fill="#707070" stroke="#707070" d="M 20 0 L 0 10 L 20 20 z" id="v-2165" transform="matrix(0.35725733637809753,0.9340059757232666,-0.9340059757232666,0.35725733637809753,2031.6900634765625,1491.427490234375)"></path><path  d="M 1980 2310 L 1989 2155 C 1989.6666666666665 2148.333333333333 1993.333333333333 2145 2000 2145 L 2250 2155 C 2256.6666666666665 2155 2260 2151.6666666666665 2260 2145 L 2250 1630 C 2250 1623.3333333333333 2246.6666666666665 1620 2240 1620 L 2045 1620 C 2038.333333333333 1620 2034.9999999999998 1616.6666666666665 2035 1610 L 2030 1525 C 2030 1518.3333333333333 2028.6666666666665 1512 2026 1506 L 2022 1495" id="v-2164" fill="none" style="cursor: default;"></path><g ><g id="v-2157"  label-idx="0" cursor="move" transform="matrix(1,0,0,1,2255.91748046875,1934.7496337890625)" style="cursor: default;"><rect joint-selector="rect" id="v-2160" fill="#ffffff" rx="3" ry="3" pointer-events="none" width="185.09999084472656" height="116.40000534057617" transform="matrix(1,0,0,1,-92.5999984741211,-58.20000076293945)"></rect><text joint-selector="text" id="v-2159" font-size="24px" xml:space="preserve" y="0.8em" fill="#707070" text-anchor="middle" pointer-events="none" font-family="Roboto" font-weight="normal" transform="matrix(1,0,0,1,0,-53.400001525878906)"><tspan  dy="0">8: Requests</tspan><tspan dy="1.2em" x="0" >model retraining</tspan><tspan dy="1.2em" x="0" >if data is valid</tspan><tspan dy="1.2em" x="0" >and not poisoned</tspan></text></g><g id="v-2158"  label-idx="1" cursor="move" transform="matrix(1,0,0,1,2245.91748046875,2004.3497314453125)" style="cursor: default;"><rect joint-selector="rect" id="v-2162" fill="#ffffff" rx="3" ry="3"  width="0" height="0" transform="matrix(1,0,0,1,0,0)" display="none"></rect><text joint-selector="text" id="v-2161" fill="#000000" font-size="14" text-anchor="middle" pointer-events="none"></text></g></g><g  display="none"><g  transform="translate(1990, 2145)" id="v-4387"><circle  idx="0" r="10"></circle><path  idx="0" d="M16,5.333c-7.732,0-14,4.701-14,10.5c0,1.982,0.741,3.833,2.016,5.414L2,25.667l5.613-1.441c2.339,1.317,5.237,2.107,8.387,2.107c7.732,0,14-4.701,14-10.5C30,10.034,23.732,5.333,16,5.333z" transform="translate(5, -33)"></path><path  idx="0" transform="scale(.8) translate(9.5, -37)" d="M24.778,21.419 19.276,15.917 24.777,10.415 21.949,7.585 16.447,13.087 10.945,7.585 8.117,10.415 13.618,15.917 8.116,21.419 10.946,24.248 16.447,18.746 21.948,24.248z"><title>Remove vertex.</title></path></g><g  transform="translate(2260, 2155)" id="v-4388"><circle  idx="1" r="10"></circle><path  idx="1" d="M16,5.333c-7.732,0-14,4.701-14,10.5c0,1.982,0.741,3.833,2.016,5.414L2,25.667l5.613-1.441c2.339,1.317,5.237,2.107,8.387,2.107c7.732,0,14-4.701,14-10.5C30,10.034,23.732,5.333,16,5.333z" transform="translate(5, -33)"></path><path  idx="1" transform="scale(.8) translate(9.5, -37)" d="M24.778,21.419 19.276,15.917 24.777,10.415 21.949,7.585 16.447,13.087 10.945,7.585 8.117,10.415 13.618,15.917 8.116,21.419 10.946,24.248 16.447,18.746 21.948,24.248z"><title>Remove vertex.</title></path></g><g  transform="translate(2250, 1620)" id="v-4389"><circle  idx="2" r="10"></circle><path  idx="2" d="M16,5.333c-7.732,0-14,4.701-14,10.5c0,1.982,0.741,3.833,2.016,5.414L2,25.667l5.613-1.441c2.339,1.317,5.237,2.107,8.387,2.107c7.732,0,14-4.701,14-10.5C30,10.034,23.732,5.333,16,5.333z" transform="translate(5, -33)"></path><path  idx="2" transform="scale(.8) translate(9.5, -37)" d="M24.778,21.419 19.276,15.917 24.777,10.415 21.949,7.585 16.447,13.087 10.945,7.585 8.117,10.415 13.618,15.917 8.116,21.419 10.946,24.248 16.447,18.746 21.948,24.248z"><title>Remove vertex.</title></path></g><g  transform="translate(2035, 1620)" id="v-4390"><circle  idx="3" r="10"></circle><path  idx="3" d="M16,5.333c-7.732,0-14,4.701-14,10.5c0,1.982,0.741,3.833,2.016,5.414L2,25.667l5.613-1.441c2.339,1.317,5.237,2.107,8.387,2.107c7.732,0,14-4.701,14-10.5C30,10.034,23.732,5.333,16,5.333z" transform="translate(5, -33)"></path><path  idx="3" transform="scale(.8) translate(9.5, -37)" d="M24.778,21.419 19.276,15.917 24.777,10.415 21.949,7.585 16.447,13.087 10.945,7.585 8.117,10.415 13.618,15.917 8.116,21.419 10.946,24.248 16.447,18.746 21.948,24.248z"><title>Remove vertex.</title></path></g><g  transform="translate(2030, 1515)" id="v-4391"><circle  idx="4" r="10"></circle><path  idx="4" d="M16,5.333c-7.732,0-14,4.701-14,10.5c0,1.982,0.741,3.833,2.016,5.414L2,25.667l5.613-1.441c2.339,1.317,5.237,2.107,8.387,2.107c7.732,0,14-4.701,14-10.5C30,10.034,23.732,5.333,16,5.333z" transform="translate(5, -33)"></path><path  idx="4" transform="scale(.8) translate(9.5, -37)" d="M24.778,21.419 19.276,15.917 24.777,10.415 21.949,7.585 16.447,13.087 10.945,7.585 8.117,10.415 13.618,15.917 8.116,21.419 10.946,24.248 16.447,18.746 21.948,24.248z"><title>Remove vertex.</title></path></g></g><g  id="v-2167" display="none"><g  id="v-2155"><path  end="source" d="M 26 0 L 0 13 L 26 26 z"></path></g><g  id="v-2156"><path  end="target" d="M 26 0 L 0 13 L 26 26 z"></path></g></g><g  id="v-2166" display="none"><g  id="v-2151" transform="translate(1982.3186752412328, 2270.0672597343273) "><g  event="remove"><circle r="11"></circle><path transform="scale(.8) translate(-16, -16)" d="M24.778,21.419 19.276,15.917 24.777,10.415 21.949,7.585 16.447,13.087 10.945,7.585 8.117,10.415 13.618,15.917 8.116,21.419 10.946,24.248 16.447,18.746 21.948,24.248z"></path><title>Remove link.</title></g><g  event="link:options"><circle r="11" transform="translate(25)"></circle><path fill="white" transform="scale(.55) translate(29, -16)" d="M31.229,17.736c0.064-0.571,0.104-1.148,0.104-1.736s-0.04-1.166-0.104-1.737l-4.377-1.557c-0.218-0.716-0.504-1.401-0.851-2.05l1.993-4.192c-0.725-0.91-1.549-1.734-2.458-2.459l-4.193,1.994c-0.647-0.347-1.334-0.632-2.049-0.849l-1.558-4.378C17.165,0.708,16.588,0.667,16,0.667s-1.166,0.041-1.737,0.105L12.707,5.15c-0.716,0.217-1.401,0.502-2.05,0.849L6.464,4.005C5.554,4.73,4.73,5.554,4.005,6.464l1.994,4.192c-0.347,0.648-0.632,1.334-0.849,2.05l-4.378,1.557C0.708,14.834,0.667,15.412,0.667,16s0.041,1.165,0.105,1.736l4.378,1.558c0.217,0.715,0.502,1.401,0.849,2.049l-1.994,4.193c0.725,0.909,1.549,1.733,2.459,2.458l4.192-1.993c0.648,0.347,1.334,0.633,2.05,0.851l1.557,4.377c0.571,0.064,1.148,0.104,1.737,0.104c0.588,0,1.165-0.04,1.736-0.104l1.558-4.377c0.715-0.218,1.399-0.504,2.049-0.851l4.193,1.993c0.909-0.725,1.733-1.549,2.458-2.458l-1.993-4.193c0.347-0.647,0.633-1.334,0.851-2.049L31.229,17.736zM16,20.871c-2.69,0-4.872-2.182-4.872-4.871c0-2.69,2.182-4.872,4.872-4.872c2.689,0,4.871,2.182,4.871,4.872C20.871,18.689,18.689,20.871,16,20.871z"></path><title>Link options.</title></g></g></g></g><!--z-index:67--><g   id="j_119" ><path  stroke="#707070" d="M 1274 2015 L 1285 2445 C 1285 2451.6666666666665 1281.6666666666665 2455 1275 2455 L 935 2449" id="v-2180" stroke-width="2" stroke-dasharray="30 30" fill="none"></path><path  fill="black" stroke="black" d="M 0 0 0 0" transform="matrix(0.025423657149076462,0.9996767640113831,-0.9996767640113831,0.025423657149076462,1273.81005859375,2015)"></path><path  fill="#707070" stroke="#707070" d="M 20 0 L 0 10 L 20 20 z" id="v-2182" transform="matrix(0.9998486042022705,0.017397364601492882,-0.017397364601492882,0.9998486042022705,935.1739501953125,2438.91162109375)"></path><path  d="M 1274 2015 L 1285 2445 C 1285 2451.6666666666665 1281.6666666666665 2455 1275 2455 L 935 2449" id="v-2181" fill="none" style="cursor: default;"></path><g ><g id="v-2174"  label-idx="0" cursor="move" transform="matrix(1,0,0,1,1284.0556640625,2408.08349609375)" style="cursor: default;"><rect joint-selector="rect" id="v-2177" fill="#ffffff" rx="3" ry="3" pointer-events="none" width="180.39999389648438" height="116.40000534057617" transform="matrix(1,0,0,1,-88.9000015258789,-58.20000076293945)"></rect><text joint-selector="text" id="v-2176" font-size="24px" xml:space="preserve" y="0.8em" fill="#707070" text-anchor="middle" pointer-events="none" font-family="Roboto" font-weight="normal" transform="matrix(1,0,0,1,0,-53.400001525878906)"><tspan  dy="0">9: Logs new</tspan><tspan dy="1.2em" x="0" >experiment-runs,</tspan><tspan dy="1.2em" x="0" >stores model to</tspan><tspan dy="1.2em" x="0" >Model Registry</tspan></text></g><g id="v-2175"  label-idx="1" cursor="move" transform="matrix(1,0,0,1,1274.0556640625,2477.68359375)" style="cursor: default;"><rect joint-selector="rect" id="v-2179" fill="#ffffff" rx="3" ry="3"  width="0" height="0" transform="matrix(1,0,0,1,0,0)" display="none"></rect><text joint-selector="text" id="v-2178" fill="#000000" font-size="14" text-anchor="middle" pointer-events="none"></text></g></g><g  display="none"><g  transform="translate(1285, 2455)" id="v-4433"><circle  idx="0" r="10"></circle><path  idx="0" d="M16,5.333c-7.732,0-14,4.701-14,10.5c0,1.982,0.741,3.833,2.016,5.414L2,25.667l5.613-1.441c2.339,1.317,5.237,2.107,8.387,2.107c7.732,0,14-4.701,14-10.5C30,10.034,23.732,5.333,16,5.333z" transform="translate(5, -33)"></path><path  idx="0" transform="scale(.8) translate(9.5, -37)" d="M24.778,21.419 19.276,15.917 24.777,10.415 21.949,7.585 16.447,13.087 10.945,7.585 8.117,10.415 13.618,15.917 8.116,21.419 10.946,24.248 16.447,18.746 21.948,24.248z"><title>Remove vertex.</title></path></g></g><g  id="v-2184" display="none"><g  id="v-2172"><path  end="source" d="M 26 0 L 0 13 L 26 26 z"></path></g><g  id="v-2173"><path  end="target" d="M 26 0 L 0 13 L 26 26 z"></path></g></g><g  id="v-2183" display="none"><g  id="v-2171" transform="translate(1275.0229211649055, 2054.9869182644825) "><g  event="remove"><circle r="11"></circle><path transform="scale(.8) translate(-16, -16)" d="M24.778,21.419 19.276,15.917 24.777,10.415 21.949,7.585 16.447,13.087 10.945,7.585 8.117,10.415 13.618,15.917 8.116,21.419 10.946,24.248 16.447,18.746 21.948,24.248z"></path><title>Remove link.</title></g><g  event="link:options"><circle r="11" transform="translate(25)"></circle><path fill="white" transform="scale(.55) translate(29, -16)" d="M31.229,17.736c0.064-0.571,0.104-1.148,0.104-1.736s-0.04-1.166-0.104-1.737l-4.377-1.557c-0.218-0.716-0.504-1.401-0.851-2.05l1.993-4.192c-0.725-0.91-1.549-1.734-2.458-2.459l-4.193,1.994c-0.647-0.347-1.334-0.632-2.049-0.849l-1.558-4.378C17.165,0.708,16.588,0.667,16,0.667s-1.166,0.041-1.737,0.105L12.707,5.15c-0.716,0.217-1.401,0.502-2.05,0.849L6.464,4.005C5.554,4.73,4.73,5.554,4.005,6.464l1.994,4.192c-0.347,0.648-0.632,1.334-0.849,2.05l-4.378,1.557C0.708,14.834,0.667,15.412,0.667,16s0.041,1.165,0.105,1.736l4.378,1.558c0.217,0.715,0.502,1.401,0.849,2.049l-1.994,4.193c0.725,0.909,1.549,1.733,2.459,2.458l4.192-1.993c0.648,0.347,1.334,0.633,2.05,0.851l1.557,4.377c0.571,0.064,1.148,0.104,1.737,0.104c0.588,0,1.165-0.04,1.736-0.104l1.558-4.377c0.715-0.218,1.399-0.504,2.049-0.851l4.193,1.993c0.909-0.725,1.733-1.549,2.458-2.458l-1.993-4.193c0.347-0.647,0.633-1.334,0.851-2.049L31.229,17.736zM16,20.871c-2.69,0-4.872-2.182-4.872-4.871c0-2.69,2.182-4.872,4.872-4.872c2.689,0,4.871,2.182,4.871,4.872C20.871,18.689,18.689,20.871,16,20.871z"></path><title>Link options.</title></g></g></g></g><!--z-index:68--><g   id="j_120" ><path  stroke="#707070" d="M 2190 1320 L 2410 1295" id="v-2197" stroke-width="2" stroke-dasharray="30 30" fill="none"></path><path  fill="black" stroke="black" d="M 0 0 0 0" transform="matrix(0.9937962889671326,-0.11121474206447601,0.11121474206447601,0.9937962889671326,2190,1319.81005859375)"></path><path  fill="#707070" stroke="#707070" d="M 20 0 L 0 10 L 20 20 z" id="v-2199" transform="matrix(-0.9937963485717773,0.11121474951505661,-0.11121474951505661,-0.9937963485717773,2411.112060546875,1305.1279296875)"></path><path  d="M 2190 1320 L 2410 1295" id="v-2198" fill="none" style="cursor: default;"></path><g ><g id="v-2191"  label-idx="0" cursor="move" transform="matrix(1,0,0,1,2300,1307.5)" style="cursor: default;"><rect joint-selector="rect" id="v-2194" fill="#ffffff" rx="3" ry="3" pointer-events="none" width="182.75" height="116.40000534057617" transform="matrix(1,0,0,1,-90.5,-58.20000076293945)"></rect><text joint-selector="text" id="v-2193" font-size="24px" xml:space="preserve" y="0.8em" fill="#707070" text-anchor="middle" pointer-events="none" font-family="Roboto" font-weight="normal" transform="matrix(1,0,0,1,0,-53.400001525878906)"><tspan  dy="0">10: Creates new</tspan><tspan dy="1.2em" x="0" >Docker container</tspan><tspan dy="1.2em" x="0" >for retrained</tspan><tspan dy="1.2em" x="0" >model</tspan></text></g><g id="v-2192"  label-idx="1" cursor="move" transform="matrix(1,0,0,1,2290,1377.0999755859375)" style="cursor: default;"><rect joint-selector="rect" id="v-2196" fill="#ffffff" rx="3" ry="3"  width="0" height="0" transform="matrix(1,0,0,1,0,0)" display="none"></rect><text joint-selector="text" id="v-2195" fill="#000000" font-size="14" text-anchor="middle" pointer-events="none"></text></g></g><g  display="none"></g><g  id="v-2201" display="none"><g  id="v-2189"><path  end="source" d="M 26 0 L 0 13 L 26 26 z"></path></g><g  id="v-2190"><path  end="target" d="M 26 0 L 0 13 L 26 26 z"></path></g></g><g  id="v-2200" display="none"><g  id="v-2188" transform="translate(2229.744210191589, 1315.4836124782287) "><g  event="remove"><circle r="11"></circle><path transform="scale(.8) translate(-16, -16)" d="M24.778,21.419 19.276,15.917 24.777,10.415 21.949,7.585 16.447,13.087 10.945,7.585 8.117,10.415 13.618,15.917 8.116,21.419 10.946,24.248 16.447,18.746 21.948,24.248z"></path><title>Remove link.</title></g><g  event="link:options"><circle r="11" transform="translate(25)"></circle><path fill="white" transform="scale(.55) translate(29, -16)" d="M31.229,17.736c0.064-0.571,0.104-1.148,0.104-1.736s-0.04-1.166-0.104-1.737l-4.377-1.557c-0.218-0.716-0.504-1.401-0.851-2.05l1.993-4.192c-0.725-0.91-1.549-1.734-2.458-2.459l-4.193,1.994c-0.647-0.347-1.334-0.632-2.049-0.849l-1.558-4.378C17.165,0.708,16.588,0.667,16,0.667s-1.166,0.041-1.737,0.105L12.707,5.15c-0.716,0.217-1.401,0.502-2.05,0.849L6.464,4.005C5.554,4.73,4.73,5.554,4.005,6.464l1.994,4.192c-0.347,0.648-0.632,1.334-0.849,2.05l-4.378,1.557C0.708,14.834,0.667,15.412,0.667,16s0.041,1.165,0.105,1.736l4.378,1.558c0.217,0.715,0.502,1.401,0.849,2.049l-1.994,4.193c0.725,0.909,1.549,1.733,2.459,2.458l4.192-1.993c0.648,0.347,1.334,0.633,2.05,0.851l1.557,4.377c0.571,0.064,1.148,0.104,1.737,0.104c0.588,0,1.165-0.04,1.736-0.104l1.558-4.377c0.715-0.218,1.399-0.504,2.049-0.851l4.193,1.993c0.909-0.725,1.733-1.549,2.458-2.458l-1.993-4.193c0.347-0.647,0.633-1.334,0.851-2.049L31.229,17.736zM16,20.871c-2.69,0-4.872-2.182-4.872-4.871c0-2.69,2.182-4.872,4.872-4.872c2.689,0,4.871,2.182,4.871,4.872C20.871,18.689,18.689,20.871,16,20.871z"></path><title>Link options.</title></g></g></g></g><!--z-index:69--><g   id="j_121" ><path  stroke="#707070" d="M 2190 1448 L 2415 1552" id="v-2214" stroke-width="2" stroke-dasharray="30 30" fill="none"></path><path  fill="black" stroke="black" d="M 0 0 0 0" transform="matrix(0.9087355732917786,0.4173721373081207,-0.4173721373081207,0.9087355732917786,2190,1448.3299560546875)"></path><path  fill="#707070" stroke="#707070" d="M 20 0 L 0 10 L 20 20 z" id="v-2216" transform="matrix(-0.9087355732917786,-0.4173721373081207,0.4173721373081207,-0.9087355732917786,2410.826171875,1560.7574462890625)"></path><path  d="M 2190 1448 L 2415 1552" id="v-2215" fill="none" style="cursor: default;"></path><g ><g id="v-2208"  label-idx="0" cursor="move" transform="matrix(1,0,0,1,2302.5,1500)" style="cursor: default;"><rect joint-selector="rect" id="v-2211" fill="#ffffff" rx="3" ry="3" pointer-events="none" width="180.99998474121094" height="87.60000228881836" transform="matrix(1,0,0,1,-89.80000305175781,-43.79999923706055)"></rect><text joint-selector="text" id="v-2210" font-size="24px" xml:space="preserve" y="0.8em" fill="#707070" text-anchor="middle" pointer-events="none" font-family="Roboto" font-weight="normal" transform="matrix(1,0,0,1,0,-39)"><tspan  dy="0">11: Updates</tspan><tspan dy="1.2em" x="0" >model repository</tspan><tspan dy="1.2em" x="0" >with new version</tspan></text></g><g id="v-2209"  label-idx="1" cursor="move" transform="matrix(1,0,0,1,2292.5,1555.199951171875)" style="cursor: default;"><rect joint-selector="rect" id="v-2213" fill="#ffffff" rx="3" ry="3"  width="0" height="0" transform="matrix(1,0,0,1,0,0)" display="none"></rect><text joint-selector="text" id="v-2212" fill="#000000" font-size="14" text-anchor="middle" pointer-events="none"></text></g></g><g  display="none"></g><g  id="v-2218" display="none"><g  id="v-2206"><path  end="source" d="M 26 0 L 0 13 L 26 26 z"></path></g><g  id="v-2207"><path  end="target" d="M 26 0 L 0 13 L 26 26 z"></path></g></g><g  id="v-2217" display="none"><g  id="v-2205" transform="translate(2226.308923389122, 1464.7827912554164) "><g  event="remove"><circle r="11"></circle><path transform="scale(.8) translate(-16, -16)" d="M24.778,21.419 19.276,15.917 24.777,10.415 21.949,7.585 16.447,13.087 10.945,7.585 8.117,10.415 13.618,15.917 8.116,21.419 10.946,24.248 16.447,18.746 21.948,24.248z"></path><title>Remove link.</title></g><g  event="link:options"><circle r="11" transform="translate(25)"></circle><path fill="white" transform="scale(.55) translate(29, -16)" d="M31.229,17.736c0.064-0.571,0.104-1.148,0.104-1.736s-0.04-1.166-0.104-1.737l-4.377-1.557c-0.218-0.716-0.504-1.401-0.851-2.05l1.993-4.192c-0.725-0.91-1.549-1.734-2.458-2.459l-4.193,1.994c-0.647-0.347-1.334-0.632-2.049-0.849l-1.558-4.378C17.165,0.708,16.588,0.667,16,0.667s-1.166,0.041-1.737,0.105L12.707,5.15c-0.716,0.217-1.401,0.502-2.05,0.849L6.464,4.005C5.554,4.73,4.73,5.554,4.005,6.464l1.994,4.192c-0.347,0.648-0.632,1.334-0.849,2.05l-4.378,1.557C0.708,14.834,0.667,15.412,0.667,16s0.041,1.165,0.105,1.736l4.378,1.558c0.217,0.715,0.502,1.401,0.849,2.049l-1.994,4.193c0.725,0.909,1.549,1.733,2.459,2.458l4.192-1.993c0.648,0.347,1.334,0.633,2.05,0.851l1.557,4.377c0.571,0.064,1.148,0.104,1.737,0.104c0.588,0,1.165-0.04,1.736-0.104l1.558-4.377c0.715-0.218,1.399-0.504,2.049-0.851l4.193,1.993c0.909-0.725,1.733-1.549,2.458-2.458l-1.993-4.193c0.347-0.647,0.633-1.334,0.851-2.049L31.229,17.736zM16,20.871c-2.69,0-4.872-2.182-4.872-4.871c0-2.69,2.182-4.872,4.872-4.872c2.689,0,4.871,2.182,4.871,4.872C20.871,18.689,18.689,20.871,16,20.871z"></path><title>Link options.</title></g></g></g></g><!--z-index:70--><g   id="j_122" ><path  stroke="#707070" d="M 2643 1805 L 2652 2185" id="v-2231" stroke-width="2" stroke-dasharray="30 30" fill="none"></path><path  fill="black" stroke="black" d="M 0 0 0 0" transform="matrix(0.022047322243452072,0.9997568726539612,-0.9997568726539612,0.022047322243452072,2643.31005859375,1805)"></path><path  fill="#707070" stroke="#707070" d="M 20 0 L 0 10 L 20 20 z" id="v-2233" transform="matrix(-0.022047054022550583,-0.9997568130493164,0.9997568130493164,-0.022047054022550583,2641.6923828125,2185.220458984375)"></path><path  d="M 2643 1805 L 2652 2185" id="v-2232" fill="none" style="cursor: default;"></path><g ><g id="v-2225"  label-idx="0" cursor="move" transform="matrix(1,0,0,1,2647.5,1995)" style="cursor: default;"><rect joint-selector="rect" id="v-2228" fill="#ffffff" rx="3" ry="3" pointer-events="none" width="160.54998779296875" height="87.60000228881836" transform="matrix(1,0,0,1,-80.0999984741211,-43.79999923706055)"></rect><text joint-selector="text" id="v-2227" font-size="24px" xml:space="preserve" y="0.8em" fill="#707070" text-anchor="middle" pointer-events="none" font-family="Roboto" font-weight="normal" transform="matrix(1,0,0,1,0,-39)"><tspan  dy="0">12: Triggers</tspan><tspan dy="1.2em" x="0" >deposit of</tspan><tspan dy="1.2em" x="0" >updated model</tspan></text></g><g id="v-2226"  label-idx="1" cursor="move" transform="matrix(1,0,0,1,2637.5,2050.199951171875)" style="cursor: default;"><rect joint-selector="rect" id="v-2230" fill="#ffffff" rx="3" ry="3"  width="0" height="0" transform="matrix(1,0,0,1,0,0)" display="none"></rect><text joint-selector="text" id="v-2229" fill="#000000" font-size="14" text-anchor="middle" pointer-events="none"></text></g></g><g  display="none"></g><g  id="v-2235" display="none"><g  id="v-2223"><path  end="source" d="M 26 0 L 0 13 L 26 26 z"></path></g><g  id="v-2224"><path  end="target" d="M 26 0 L 0 13 L 26 26 z"></path></g></g><g  id="v-2234" display="none"><g  id="v-2222" transform="translate(2643.947102823499, 1844.9887858810657) "><g  event="remove"><circle r="11"></circle><path transform="scale(.8) translate(-16, -16)" d="M24.778,21.419 19.276,15.917 24.777,10.415 21.949,7.585 16.447,13.087 10.945,7.585 8.117,10.415 13.618,15.917 8.116,21.419 10.946,24.248 16.447,18.746 21.948,24.248z"></path><title>Remove link.</title></g><g  event="link:options"><circle r="11" transform="translate(25)"></circle><path fill="white" transform="scale(.55) translate(29, -16)" d="M31.229,17.736c0.064-0.571,0.104-1.148,0.104-1.736s-0.04-1.166-0.104-1.737l-4.377-1.557c-0.218-0.716-0.504-1.401-0.851-2.05l1.993-4.192c-0.725-0.91-1.549-1.734-2.458-2.459l-4.193,1.994c-0.647-0.347-1.334-0.632-2.049-0.849l-1.558-4.378C17.165,0.708,16.588,0.667,16,0.667s-1.166,0.041-1.737,0.105L12.707,5.15c-0.716,0.217-1.401,0.502-2.05,0.849L6.464,4.005C5.554,4.73,4.73,5.554,4.005,6.464l1.994,4.192c-0.347,0.648-0.632,1.334-0.849,2.05l-4.378,1.557C0.708,14.834,0.667,15.412,0.667,16s0.041,1.165,0.105,1.736l4.378,1.558c0.217,0.715,0.502,1.401,0.849,2.049l-1.994,4.193c0.725,0.909,1.549,1.733,2.459,2.458l4.192-1.993c0.648,0.347,1.334,0.633,2.05,0.851l1.557,4.377c0.571,0.064,1.148,0.104,1.737,0.104c0.588,0,1.165-0.04,1.736-0.104l1.558-4.377c0.715-0.218,1.399-0.504,2.049-0.851l4.193,1.993c0.909-0.725,1.733-1.549,2.458-2.458l-1.993-4.193c0.347-0.647,0.633-1.334,0.851-2.049L31.229,17.736zM16,20.871c-2.69,0-4.872-2.182-4.872-4.871c0-2.69,2.182-4.872,4.872-4.872c2.689,0,4.871,2.182,4.871,4.872C20.871,18.689,18.689,20.871,16,20.871z"></path><title>Link options.</title></g></g></g></g><!--z-index:71--></g><g ></g><g ></g><g ></g></g></svg>